<svg viewBox="0 0 400 400" xmlns="http://www.w3.org/2000/svg" xmlns:xlink="http://www.w3.org/1999/xlink"><linearGradient id="a" gradientTransform="matrix(210 0 0 -128 264424 41190)" gradientUnits="userSpaceOnUse" x1="-1258.21" x2="-1258.21" y1="318.92" y2="319.86"><stop offset="0" stop-color="#533ffe" stop-opacity=".4"/><stop offset="1" stop-color="#3119fe" stop-opacity="0"/></linearGradient><linearGradient id="b" gradientTransform="matrix(105 0 0 -193 131704 61926)" gradientUnits="userSpaceOnUse" x1="-1251.95" x2="-1251.95" y1="318.95" y2="319.89"><stop offset="0" stop-color="#533ffe" stop-opacity=".8"/><stop offset=".11" stop-color="#523efe" stop-opacity=".78"/><stop offset=".25" stop-color="#4f3bfe" stop-opacity=".71"/><stop offset=".41" stop-color="#4b36fe" stop-opacity=".61"/><stop offset=".59" stop-color="#452ffe" stop-opacity=".46"/><stop offset=".77" stop-color="#3d26fe" stop-opacity=".28"/><stop offset=".96" stop-color="#331bfe" stop-opacity=".05"/><stop offset="1" stop-color="#3119fe" stop-opacity="0"/></linearGradient><linearGradient id="c" gradientTransform="matrix(105 0 0 -193 131599 61861)" gradientUnits="userSpaceOnUse" x1="-1251.88" x2="-1251.88" y1="318.93" y2="319.86"><stop offset="0" stop-color="#533ffe" stop-opacity=".7"/><stop offset=".25" stop-color="#4b36fe" stop-opacity=".56"/><stop offset=".81" stop-color="#3821fe" stop-opacity=".22"/><stop offset="1" stop-color="#3119fe" stop-opacity=".1"/></linearGradient><linearGradient id="d" gradientTransform="matrix(105 0 0 -193 131704 61861)" gradientUnits="userSpaceOnUse" x1="-1251.95" x2="-1251.95" y1="318.93" y2="319.86"><stop offset="0" stop-color="#3119fe" stop-opacity="0"/><stop offset="1" stop-color="#533ffe" stop-opacity=".4"/></linearGradient><linearGradient id="e" gradientTransform="matrix(105 0 0 -193 131599 61926)" gradientUnits="userSpaceOnUse" x1="-1251.88" x2="-1251.88" y1="318.95" y2="319.89"><stop offset="0" stop-color="#533ffe" stop-opacity=".6"/><stop offset=".13" stop-color="#523efe" stop-opacity=".58"/><stop offset=".3" stop-color="#4e39fe" stop-opacity=".51"/><stop offset=".5" stop-color="#4832fe" stop-opacity=".4"/><stop offset=".71" stop-color="#3f29fe" stop-opacity=".25"/><stop offset=".94" stop-color="#341dfe" stop-opacity=".06"/><stop offset="1" stop-color="#3119fe" stop-opacity="0"/></linearGradient><linearGradient id="f" x1="-1251.42" x2="-1251.42" xlink:href="#c" y1="319.24"/><linearGradient id="g" x1="-1252.01" x2="-1252.01" xlink:href="#c" y1="320.22" y2="320.33"/><linearGradient id="h" x1="-1251.92" x2="-1251.92" xlink:href="#c" y1="320.23" y2="320.26"/><linearGradient id="i" x1="-1251.79" x2="-1251.79" xlink:href="#c" y1="320.11" y2="320.28"/><linearGradient id="j" x1="-1250.42" x2="-1250.42" xlink:href="#c" y1="319.75" y2="319.86"/><linearGradient id="k" x1="-1250.33" x2="-1250.33" xlink:href="#c" y1="319.76" y2="319.79"/><linearGradient id="l" x1="-1250.2" x2="-1250.2" xlink:href="#c" y1="319.64" y2="319.82"/><linearGradient id="m" x1="-1252.73" x2="-1252.73" xlink:href="#c" y1="319.67" y2="319.73"/><linearGradient id="n" x1="-1252.68" x2="-1252.68" xlink:href="#c" y1="319.68" y2="319.69"/><linearGradient id="o" x1="-1252.62" x2="-1252.62" xlink:href="#c" y1="319.61" y2="319.7"/><linearGradient id="p" x1="-1252.73" x2="-1252.73" xlink:href="#c" y1="319.93" y2="320.16"/><linearGradient id="q" x1="-1252.55" x2="-1252.55" xlink:href="#c" y1="319.96" y2="320.01"/><linearGradient id="r" x1="-1252.27" x2="-1252.27" xlink:href="#c" y1="319.7" y2="320.06"/><linearGradient id="s" x1="-1251.2" x2="-1251.2" xlink:href="#c" y1="320.19" y2="320.38"/><linearGradient id="t" x1="-1251.04" x2="-1251.04" xlink:href="#c" y1="320.21" y2="320.26"/><linearGradient id="u" x1="-1250.8" x2="-1250.8" xlink:href="#c" y1="319.99" y2="320.3"/><path d="m200 367.8 97.74-59.89-97.74-59.89-97.74 59.89z" fill="url(#a)"/><path d="m200 248.02v119.78l97.74-59.89v-120.38z" fill="url(#b)"/><path d="m102.26 187.53v120.38l97.74-59.89v-120.38z" fill="url(#c)" opacity=".5"/><path d="m200 127.64v120.38l97.74 59.89v-120.38z" fill="url(#d)" opacity=".5"/><path d="m102.26 187.53v120.38l97.74 59.89v-119.78z" fill="url(#e)"/><path d="m102.26 187.53 97.74 60.49 97.74-60.49-97.74-59.89z" fill="url(#f)"/><path d="m121.41 47.86 17.01 10.53 17.01-10.53-17.01-10.42z" fill="url(#g)"/><path d="m143.22 53.35 4.3 2.66 4.33-2.65-4.34-2.66z" fill="url(#h)"/><path d="m134.43 62.87 27.02 16.72 27.03-16.72-27.03-16.56z" fill="url(#i)"/><path d="m288.33 138.26 17.01 10.52 17.01-10.52-17.01-10.43z" fill="url(#j)"/><path d="m310.14 143.74 4.3 2.66 4.33-2.65-4.34-2.65z" fill="url(#k)"/><path d="m301.35 153.26 27.02 16.73 27.03-16.73-27.03-16.56z" fill="url(#l)"/><path d="m53.95 159.3 8.64 5.35 8.64-5.35-8.64-5.29z" fill="url(#m)"/><path d="m65.03 162.09 2.18 1.35 2.2-1.35-2.2-1.35z" fill="url(#n)"/><path d="m60.56 166.92 13.73 8.5 13.73-8.5-13.73-8.41z" fill="url(#o)"/><path d="m26.62 92.18 35.72 22.1 35.72-22.11-35.72-21.89z" fill="url(#p)"/><path d="m72.42 103.7 9.03 5.58 9.09-5.56-9.12-5.58z" fill="url(#q)"/><path d="m53.95 123.69 56.76 35.13 56.75-35.13-56.75-34.78z" fill="url(#r)"/><path d="m192.87 45.54 30.52 18.89 30.53-18.89-30.53-18.71z" fill="url(#s)"/><path d="m232.01 55.39 7.71 4.77 7.77-4.76-7.8-4.76z" fill="url(#t)"/><path d="m216.23 72.47 48.49 30.01 48.5-30.01-48.5-29.72z" fill="url(#u)"/></svg>