<?xml version="1.0" encoding="UTF-8"?><svg id="Ebene_1" xmlns="http://www.w3.org/2000/svg" xmlns:xlink="http://www.w3.org/1999/xlink" viewBox="0 0 400 400"><defs><style>.cls-1{fill:url(#Unbenannter_Verlauf_10-10);}.cls-2{fill:url(#Unbenannter_Verlauf_10-11);}.cls-3{fill:url(#Unbenannter_Verlauf_10-9);}.cls-4{fill:url(#Unbenannter_Verlauf_10-6);}.cls-5{fill:url(#Unbenannter_Verlauf_10-5);}.cls-6{fill:url(#Unbenannter_Verlauf_10-3);}.cls-7{fill:url(#Unbenannter_Verlauf_10-2);}.cls-8{fill:url(#Unbenannter_Verlauf_10-4);}.cls-9{fill:url(#Unbenannter_Verlauf_10-8);}.cls-10{fill:url(#Unbenannter_Verlauf_10-7);}.cls-11{fill:url(#Unbenannter_Verlauf_3-18);}.cls-12{fill:url(#Unbenannter_Verlauf_3-14);}.cls-13{fill:url(#Unbenannter_Verlauf_3-12);}.cls-14{fill:url(#Unbenannter_Verlauf_3-10);}.cls-15{fill:url(#Unbenannter_Verlauf_3-16);}.cls-16{fill:url(#Unbenannter_Verlauf_3-22);}.cls-17{fill:url(#Unbenannter_Verlauf_3-20);}.cls-18{fill:url(#Unbenannter_Verlauf_2-11);}.cls-19{fill:url(#Unbenannter_Verlauf_2-10);}.cls-20{fill:url(#Unbenannter_Verlauf_9-10);}.cls-20,.cls-21,.cls-22,.cls-23,.cls-24,.cls-25,.cls-26,.cls-27,.cls-28,.cls-29,.cls-30,.cls-31,.cls-32,.cls-33,.cls-34,.cls-35,.cls-36,.cls-37,.cls-38,.cls-39,.cls-40,.cls-41{opacity:.5;}.cls-21{fill:url(#Unbenannter_Verlauf_9-11);}.cls-22{fill:url(#Unbenannter_Verlauf_3-21);}.cls-23{fill:url(#Unbenannter_Verlauf_3-19);}.cls-24{fill:url(#Unbenannter_Verlauf_3-11);}.cls-25{fill:url(#Unbenannter_Verlauf_3-13);}.cls-26{fill:url(#Unbenannter_Verlauf_3-17);}.cls-27{fill:url(#Unbenannter_Verlauf_3-15);}.cls-28{fill:url(#Unbenannter_Verlauf_9);}.cls-29{fill:url(#Unbenannter_Verlauf_3);}.cls-42{fill:url(#Unbenannter_Verlauf_2-7);}.cls-43{fill:url(#Unbenannter_Verlauf_2-9);}.cls-44{fill:url(#Unbenannter_Verlauf_2-6);}.cls-45{fill:url(#Unbenannter_Verlauf_2-8);}.cls-46{fill:url(#Unbenannter_Verlauf_2-3);}.cls-47{fill:url(#Unbenannter_Verlauf_2-5);}.cls-48{fill:url(#Unbenannter_Verlauf_2-2);}.cls-49{fill:url(#Unbenannter_Verlauf_2-4);}.cls-50{fill:url(#Unbenannter_Verlauf_3-4);}.cls-51{fill:url(#Unbenannter_Verlauf_3-2);}.cls-52{fill:url(#Unbenannter_Verlauf_3-8);}.cls-53{fill:url(#Unbenannter_Verlauf_3-6);}.cls-54{fill:url(#Unbenannter_Verlauf-11);}.cls-55{fill:url(#Unbenannter_Verlauf-10);}.cls-56{fill:url(#Unbenannter_Verlauf_10);}.cls-30{fill:url(#Unbenannter_Verlauf_9-4);}.cls-31{fill:url(#Unbenannter_Verlauf_9-8);}.cls-32{fill:url(#Unbenannter_Verlauf_9-5);}.cls-33{fill:url(#Unbenannter_Verlauf_9-3);}.cls-34{fill:url(#Unbenannter_Verlauf_9-2);}.cls-35{fill:url(#Unbenannter_Verlauf_9-9);}.cls-36{fill:url(#Unbenannter_Verlauf_9-6);}.cls-37{fill:url(#Unbenannter_Verlauf_9-7);}.cls-38{fill:url(#Unbenannter_Verlauf_3-9);}.cls-39{fill:url(#Unbenannter_Verlauf_3-5);}.cls-40{fill:url(#Unbenannter_Verlauf_3-7);}.cls-41{fill:url(#Unbenannter_Verlauf_3-3);}.cls-57{fill:url(#Unbenannter_Verlauf_2);}.cls-58{fill:url(#Unbenannter_Verlauf-4);}.cls-59{fill:url(#Unbenannter_Verlauf-5);}.cls-60{fill:url(#Unbenannter_Verlauf-6);}.cls-61{fill:url(#Unbenannter_Verlauf-7);}.cls-62{fill:url(#Unbenannter_Verlauf-8);}.cls-63{fill:url(#Unbenannter_Verlauf-3);}.cls-64{fill:url(#Unbenannter_Verlauf-2);}.cls-65{fill:url(#Unbenannter_Verlauf-9);}.cls-66{fill:url(#Unbenannter_Verlauf);}</style><linearGradient id="Unbenannter_Verlauf" x1="-4.21" y1="319.34" x2="-4.21" y2="320.27" gradientTransform="translate(1084 41190) scale(210 -128)" gradientUnits="userSpaceOnUse"><stop offset="0" stop-color="#533ffe" stop-opacity=".4"/><stop offset="1" stop-color="#3119fe" stop-opacity="0"/></linearGradient><linearGradient id="Unbenannter_Verlauf_2" x1="-3.95" y1="319.23" x2="-3.95" y2="320.16" gradientTransform="translate(664 61926) scale(105 -193)" gradientUnits="userSpaceOnUse"><stop offset="0" stop-color="#533ffe" stop-opacity=".8"/><stop offset=".11" stop-color="#523efe" stop-opacity=".78"/><stop offset=".25" stop-color="#4f3bfe" stop-opacity=".71"/><stop offset=".41" stop-color="#4b36fe" stop-opacity=".61"/><stop offset=".59" stop-color="#452ffe" stop-opacity=".46"/><stop offset=".77" stop-color="#3d26fe" stop-opacity=".28"/><stop offset=".96" stop-color="#331bfe" stop-opacity=".05"/><stop offset="1" stop-color="#3119fe" stop-opacity="0"/></linearGradient><linearGradient id="Unbenannter_Verlauf_3" x1="-3.88" y1="319.2" x2="-3.88" y2="320.14" gradientTransform="translate(559 61861) scale(105 -193)" gradientUnits="userSpaceOnUse"><stop offset="0" stop-color="#533ffe" stop-opacity=".7"/><stop offset=".25" stop-color="#4b36fe" stop-opacity=".56"/><stop offset=".81" stop-color="#3821fe" stop-opacity=".22"/><stop offset="1" stop-color="#3119fe" stop-opacity=".1"/></linearGradient><linearGradient id="Unbenannter_Verlauf_9" x1="-3.95" y1="319.2" x2="-3.95" y2="320.14" gradientTransform="translate(664 61861) scale(105 -193)" gradientUnits="userSpaceOnUse"><stop offset="0" stop-color="#3119fe" stop-opacity="0"/><stop offset="1" stop-color="#533ffe" stop-opacity=".4"/></linearGradient><linearGradient id="Unbenannter_Verlauf_10" x1="-3.88" y1="319.23" x2="-3.88" y2="320.16" gradientTransform="translate(559 61926) scale(105 -193)" gradientUnits="userSpaceOnUse"><stop offset="0" stop-color="#533ffe" stop-opacity=".6"/><stop offset=".13" stop-color="#523efe" stop-opacity=".58"/><stop offset=".3" stop-color="#4e39fe" stop-opacity=".51"/><stop offset=".5" stop-color="#4832fe" stop-opacity=".4"/><stop offset=".71" stop-color="#3f29fe" stop-opacity=".25"/><stop offset=".94" stop-color="#341dfe" stop-opacity=".06"/><stop offset="1" stop-color="#3119fe" stop-opacity="0"/></linearGradient><linearGradient id="Unbenannter_Verlauf_3-2" x1="-3.42" y1="319.51" x2="-3.42" xlink:href="#Unbenannter_Verlauf_3"/><linearGradient id="Unbenannter_Verlauf-2" x1="-4.67" y1="320.94" x2="-4.67" y2="321.21" xlink:href="#Unbenannter_Verlauf"/><linearGradient id="Unbenannter_Verlauf_2-2" x1="-5.22" y1="320.29" x2="-5.22" y2="320.56" xlink:href="#Unbenannter_Verlauf_2"/><linearGradient id="Unbenannter_Verlauf_3-3" x1="-4.48" y1="320.05" x2="-4.48" y2="320.32" xlink:href="#Unbenannter_Verlauf_3"/><linearGradient id="Unbenannter_Verlauf_9-2" x1="-5.22" y1="320.05" x2="-5.22" y2="320.32" xlink:href="#Unbenannter_Verlauf_9"/><linearGradient id="Unbenannter_Verlauf_10-2" x1="-4.48" y1="320.29" x2="-4.48" y2="320.56" xlink:href="#Unbenannter_Verlauf_10"/><linearGradient id="Unbenannter_Verlauf_3-4" x1="-4.35" y1="320.14" x2="-4.35" y2="320.32" xlink:href="#Unbenannter_Verlauf_3"/><linearGradient id="Unbenannter_Verlauf-3" x1="-3.74" y1="321.04" x2="-3.74" y2="321.21" xlink:href="#Unbenannter_Verlauf"/><linearGradient id="Unbenannter_Verlauf_2-3" x1="-3.4" y1="320.36" x2="-3.4" y2="320.53" xlink:href="#Unbenannter_Verlauf_2"/><linearGradient id="Unbenannter_Verlauf_3-5" x1="-2.58" y1="320.08" x2="-2.58" y2="320.25" xlink:href="#Unbenannter_Verlauf_3"/><linearGradient id="Unbenannter_Verlauf_9-3" x1="-3.4" y1="320.08" x2="-3.4" y2="320.25" xlink:href="#Unbenannter_Verlauf_9"/><linearGradient id="Unbenannter_Verlauf_10-3" x1="-2.58" y1="320.36" x2="-2.58" y2="320.53" xlink:href="#Unbenannter_Verlauf_10"/><linearGradient id="Unbenannter_Verlauf_3-6" x1="-2.49" y1="320.14" x2="-2.49" y2="320.25" xlink:href="#Unbenannter_Verlauf_3"/><linearGradient id="Unbenannter_Verlauf-4" x1="-4.67" y1="319.08" x2="-4.67" y2="319.25" xlink:href="#Unbenannter_Verlauf"/><linearGradient id="Unbenannter_Verlauf_2-4" x1="-5.26" y1="319.06" x2="-5.26" y2="319.23" xlink:href="#Unbenannter_Verlauf_2"/><linearGradient id="Unbenannter_Verlauf_3-7" x1="-4.44" y1="318.78" x2="-4.44" y2="318.95" xlink:href="#Unbenannter_Verlauf_3"/><linearGradient id="Unbenannter_Verlauf_9-4" x1="-5.26" y1="318.78" x2="-5.26" y2="318.95" xlink:href="#Unbenannter_Verlauf_9"/><linearGradient id="Unbenannter_Verlauf_10-4" x1="-4.44" y1="319.06" x2="-4.44" y2="319.23" xlink:href="#Unbenannter_Verlauf_10"/><linearGradient id="Unbenannter_Verlauf_3-8" x1="-4.35" y1="318.84" x2="-4.35" y2="318.95" xlink:href="#Unbenannter_Verlauf_3"/><linearGradient id="Unbenannter_Verlauf-5" x1="-3.74" y1="318.98" x2="-3.74" y2="319.25" xlink:href="#Unbenannter_Verlauf"/><linearGradient id="Unbenannter_Verlauf_2-5" x1="-3.35" y1="318.99" x2="-3.35" y2="319.26" xlink:href="#Unbenannter_Verlauf_2"/><linearGradient id="Unbenannter_Verlauf_3-9" x1="-2.62" y1="318.75" x2="-2.62" y2="319.02" xlink:href="#Unbenannter_Verlauf_3"/><linearGradient id="Unbenannter_Verlauf_9-5" x1="-3.35" y1="318.75" x2="-3.35" y2="319.02" xlink:href="#Unbenannter_Verlauf_9"/><linearGradient id="Unbenannter_Verlauf_10-5" x1="-2.62" y1="318.99" x2="-2.62" y2="319.26" xlink:href="#Unbenannter_Verlauf_10"/><linearGradient id="Unbenannter_Verlauf_3-10" x1="-2.49" y1="318.84" x2="-2.49" y2="319.02" xlink:href="#Unbenannter_Verlauf_3"/><linearGradient id="Unbenannter_Verlauf-6" x1="-3.46" y1="320.06" x2="-3.46" y2="320.23" xlink:href="#Unbenannter_Verlauf"/><linearGradient id="Unbenannter_Verlauf_2-6" x1="-2.83" y1="319.71" x2="-2.83" y2="319.88" xlink:href="#Unbenannter_Verlauf_2"/><linearGradient id="Unbenannter_Verlauf_3-11" x1="-2.01" y1="319.43" x2="-2.01" y2="319.6" xlink:href="#Unbenannter_Verlauf_3"/><linearGradient id="Unbenannter_Verlauf_9-6" x1="-2.83" y1="319.43" x2="-2.83" y2="319.6" xlink:href="#Unbenannter_Verlauf_9"/><linearGradient id="Unbenannter_Verlauf_10-6" x1="-2.01" y1="319.71" x2="-2.01" y2="319.88" xlink:href="#Unbenannter_Verlauf_10"/><linearGradient id="Unbenannter_Verlauf_3-12" x1="-1.92" y1="319.49" x2="-1.92" y2="319.6" xlink:href="#Unbenannter_Verlauf_3"/><linearGradient id="Unbenannter_Verlauf-7" x1="-4.93" y1="320.06" x2="-4.93" y2="320.23" xlink:href="#Unbenannter_Verlauf"/><linearGradient id="Unbenannter_Verlauf_2-7" x1="-5.77" y1="319.71" x2="-5.77" y2="319.88" xlink:href="#Unbenannter_Verlauf_2"/><linearGradient id="Unbenannter_Verlauf_3-13" x1="-4.94" y1="319.43" x2="-4.94" y2="319.6" xlink:href="#Unbenannter_Verlauf_3"/><linearGradient id="Unbenannter_Verlauf_9-7" x1="-5.77" y1="319.43" x2="-5.77" y2="319.6" xlink:href="#Unbenannter_Verlauf_9"/><linearGradient id="Unbenannter_Verlauf_10-7" x1="-4.94" y1="319.71" x2="-4.94" y2="319.88" xlink:href="#Unbenannter_Verlauf_10"/><linearGradient id="Unbenannter_Verlauf_3-14" x1="-4.85" y1="319.49" x2="-4.85" y2="319.6" xlink:href="#Unbenannter_Verlauf_3"/><linearGradient id="Unbenannter_Verlauf-8" x1="-4.93" y1="319.54" x2="-4.93" y2="319.63" xlink:href="#Unbenannter_Verlauf"/><linearGradient id="Unbenannter_Verlauf_2-8" x1="-5.81" y1="319.36" x2="-5.81" y2="319.45" xlink:href="#Unbenannter_Verlauf_2"/><linearGradient id="Unbenannter_Verlauf_3-15" x1="-4.9" y1="319.06" x2="-4.9" y2="319.14" xlink:href="#Unbenannter_Verlauf_3"/><linearGradient id="Unbenannter_Verlauf_9-8" x1="-5.81" y1="319.06" x2="-5.81" y2="319.14" xlink:href="#Unbenannter_Verlauf_9"/><linearGradient id="Unbenannter_Verlauf_10-8" x1="-4.9" y1="319.36" x2="-4.9" y2="319.45" xlink:href="#Unbenannter_Verlauf_10"/><linearGradient id="Unbenannter_Verlauf_3-16" x1="-4.85" y1="319.09" x2="-4.85" y2="319.14" xlink:href="#Unbenannter_Verlauf_3"/><linearGradient id="Unbenannter_Verlauf-9" x1="-3.48" y1="319.48" x2="-3.48" y2="319.63" xlink:href="#Unbenannter_Verlauf"/><linearGradient id="Unbenannter_Verlauf_2-9" x1="-2.88" y1="319.32" x2="-2.88" y2="319.47" xlink:href="#Unbenannter_Verlauf_2"/><linearGradient id="Unbenannter_Verlauf_3-17" x1="-2.03" y1="319.04" x2="-2.03" y2="319.19" xlink:href="#Unbenannter_Verlauf_3"/><linearGradient id="Unbenannter_Verlauf_9-9" x1="-2.88" y1="319.04" x2="-2.88" y2="319.19" xlink:href="#Unbenannter_Verlauf_9"/><linearGradient id="Unbenannter_Verlauf_10-9" x1="-2.03" y1="319.32" x2="-2.03" y2="319.47" xlink:href="#Unbenannter_Verlauf_10"/><linearGradient id="Unbenannter_Verlauf_3-18" x1="-1.95" y1="319.09" x2="-1.95" y2="319.19" xlink:href="#Unbenannter_Verlauf_3"/><linearGradient id="Unbenannter_Verlauf-10" y1="318.97" y2="319.07" xlink:href="#Unbenannter_Verlauf"/><linearGradient id="Unbenannter_Verlauf_2-10" x1="-4.37" y1="318.99" x2="-4.37" y2="319.08" xlink:href="#Unbenannter_Verlauf_2"/><linearGradient id="Unbenannter_Verlauf_3-19" x1="-3.47" y1="318.68" x2="-3.47" y2="318.78" xlink:href="#Unbenannter_Verlauf_3"/><linearGradient id="Unbenannter_Verlauf_9-10" x1="-4.37" y1="318.68" x2="-4.37" y2="318.78" xlink:href="#Unbenannter_Verlauf_9"/><linearGradient id="Unbenannter_Verlauf_10-10" x1="-3.47" y1="318.99" x2="-3.47" y2="319.08" xlink:href="#Unbenannter_Verlauf_10"/><linearGradient id="Unbenannter_Verlauf_3-20" x1="-3.42" y1="318.71" x2="-3.42" y2="318.78" xlink:href="#Unbenannter_Verlauf_3"/><linearGradient id="Unbenannter_Verlauf-11" y1="321.45" y2="321.55" xlink:href="#Unbenannter_Verlauf"/><linearGradient id="Unbenannter_Verlauf_2-11" x1="-4.37" y1="320.63" x2="-4.37" y2="320.73" xlink:href="#Unbenannter_Verlauf_2"/><linearGradient id="Unbenannter_Verlauf_3-21" x1="-3.47" y1="320.33" x2="-3.47" y2="320.42" xlink:href="#Unbenannter_Verlauf_3"/><linearGradient id="Unbenannter_Verlauf_9-11" x1="-4.37" y1="320.33" x2="-4.37" y2="320.42" xlink:href="#Unbenannter_Verlauf_9"/><linearGradient id="Unbenannter_Verlauf_10-11" x1="-3.47" y1="320.63" x2="-3.47" y2="320.73" xlink:href="#Unbenannter_Verlauf_10"/><linearGradient id="Unbenannter_Verlauf_3-22" x1="-3.42" y1="320.36" x2="-3.42" y2="320.42" xlink:href="#Unbenannter_Verlauf_3"/></defs><g id="Page-1"><g id="D-START"><g id="ReadyToUse"><polyline id="Path" class="cls-66" points="200 314.8 297.74 254.91 200 195.02 102.26 254.91 200 314.8"/><polygon id="Path-2" class="cls-57" points="200 195.02 200 314.8 297.74 254.91 297.74 134.53 200 195.02"/><polygon id="Path-3" class="cls-29" points="102.26 134.54 102.26 254.91 200 195.02 200 74.64 102.26 134.54"/><polygon id="Path-4" class="cls-28" points="200 74.64 200 195.02 297.74 254.91 297.74 134.53 200 74.64"/><polygon id="Path-5" class="cls-56" points="102.26 134.54 102.26 254.91 200 314.8 200 195.02 102.26 134.54"/></g></g></g><polygon id="Path-6" class="cls-51" points="102.26 134.54 200 195.02 297.74 134.53 200 74.64 102.26 134.54"/><g id="Page-1-2"><g id="D-START-2"><g id="ReadyToUse-2"><polyline id="Path-7" class="cls-64" points="102.26 109.21 130.4 91.97 102.26 74.73 74.12 91.97 102.26 109.21"/><polygon id="Path-8" class="cls-48" points="102.26 74.73 102.26 109.21 130.4 91.97 130.4 57.31 102.26 74.73"/><polygon id="Path-9" class="cls-41" points="74.12 57.31 74.12 91.97 102.26 74.73 102.26 40.07 74.12 57.31"/><polygon id="Path-10" class="cls-34" points="102.26 40.07 102.26 74.73 130.4 91.97 130.4 57.31 102.26 40.07"/><polygon id="Path-11" class="cls-7" points="74.12 57.31 74.12 91.97 102.26 109.21 102.26 74.73 74.12 57.31"/></g></g></g><polygon id="Path-12" class="cls-50" points="74.12 57.31 102.26 74.73 130.4 57.31 102.26 40.07 74.12 57.31"/><g id="Page-1-3"><g id="D-START-3"><g id="ReadyToUse-3"><polyline id="Path-13" class="cls-63" points="297.74 97.11 316.03 85.9 297.74 74.7 279.45 85.9 297.74 97.11"/><polygon id="Path-14" class="cls-46" points="297.74 74.7 297.74 97.11 316.03 85.9 316.03 63.38 297.74 74.7"/><polygon id="Path-15" class="cls-39" points="279.45 63.38 279.45 85.9 297.74 74.7 297.74 52.17 279.45 63.38"/><polygon id="Path-16" class="cls-33" points="297.74 52.17 297.74 74.7 316.03 85.9 316.03 63.38 297.74 52.17"/><polygon id="Path-17" class="cls-6" points="279.45 63.38 279.45 85.9 297.74 97.11 297.74 74.7 279.45 63.38"/></g></g></g><polygon id="Path-18" class="cls-53" points="279.45 63.38 297.74 74.7 316.03 63.38 297.74 52.17 279.45 63.38"/><g id="Page-1-4"><g id="D-START-4"><g id="ReadyToUse-4"><polyline id="Path-19" class="cls-58" points="102.26 347.83 120.55 336.62 102.26 325.42 83.97 336.62 102.26 347.83"/><polygon id="Path-20" class="cls-49" points="102.26 325.42 102.26 347.83 120.55 336.62 120.55 314.1 102.26 325.42"/><polygon id="Path-21" class="cls-40" points="83.97 314.1 83.97 336.62 102.26 325.42 102.26 302.89 83.97 314.1"/><polygon id="Path-22" class="cls-30" points="102.26 302.89 102.26 325.42 120.55 336.62 120.55 314.1 102.26 302.89"/><polygon id="Path-23" class="cls-8" points="83.97 314.1 83.97 336.62 102.26 347.83 102.26 325.42 83.97 314.1"/></g></g></g><polygon id="Path-24" class="cls-52" points="83.97 314.1 102.26 325.42 120.55 314.1 102.26 302.89 83.97 314.1"/><g id="Page-1-5"><g id="D-START-5"><g id="ReadyToUse-5"><polyline id="Path-25" class="cls-59" points="297.74 360.11 326.03 342.78 297.74 325.45 269.45 342.78 297.74 360.11"/><polygon id="Path-26" class="cls-47" points="297.74 325.45 297.74 360.11 326.03 342.78 326.03 307.94 297.74 325.45"/><polygon id="Path-27" class="cls-38" points="269.45 307.94 269.45 342.78 297.74 325.45 297.74 290.6 269.45 307.94"/><polygon id="Path-28" class="cls-32" points="297.74 290.6 297.74 325.45 326.03 342.78 326.03 307.94 297.74 290.6"/><polygon id="Path-29" class="cls-5" points="269.45 307.94 269.45 342.78 297.74 360.11 297.74 325.45 269.45 307.94"/></g></g></g><polygon id="Path-30" class="cls-14" points="269.45 307.94 297.74 325.45 326.03 307.94 297.74 290.6 269.45 307.94"/><g id="Page-1-6"><g id="D-START-6"><g id="ReadyToUse-6"><polyline id="Path-31" class="cls-60" points="357.47 222.47 375.76 211.26 357.47 200.06 339.18 211.26 357.47 222.47"/><polygon id="Path-32" class="cls-44" points="357.47 200.06 357.47 222.47 375.76 211.26 375.76 188.74 357.47 200.06"/><polygon id="Path-33" class="cls-24" points="339.18 188.74 339.18 211.26 357.47 200.06 357.47 177.53 339.18 188.74"/><polygon id="Path-34" class="cls-36" points="357.47 177.53 357.47 200.06 375.76 211.26 375.76 188.74 357.47 177.53"/><polygon id="Path-35" class="cls-4" points="339.18 188.74 339.18 211.26 357.47 222.47 357.47 200.06 339.18 188.74"/></g></g></g><polygon id="Path-36" class="cls-13" points="339.18 188.74 357.47 200.06 375.76 188.74 357.47 177.53 339.18 188.74"/><g id="Page-1-7"><g id="D-START-7"><g id="ReadyToUse-7"><polyline id="Path-37" class="cls-61" points="49.41 222.47 67.7 211.26 49.41 200.06 31.12 211.26 49.41 222.47"/><polygon id="Path-38" class="cls-42" points="49.41 200.06 49.41 222.47 67.7 211.26 67.7 188.74 49.41 200.06"/><polygon id="Path-39" class="cls-25" points="31.12 188.74 31.12 211.26 49.41 200.06 49.41 177.53 31.12 188.74"/><polygon id="Path-40" class="cls-37" points="49.41 177.53 49.41 200.06 67.7 211.26 67.7 188.74 49.41 177.53"/><polygon id="Path-41" class="cls-10" points="31.12 188.74 31.12 211.26 49.41 222.47 49.41 200.06 31.12 188.74"/></g></g></g><polygon id="Path-42" class="cls-12" points="31.12 188.74 49.41 200.06 67.7 188.74 49.41 177.53 31.12 188.74"/><g id="Page-1-8"><g id="D-START-8"><g id="ReadyToUse-8"><polyline id="Path-43" class="cls-62" points="49.41 288.62 58.55 283.01 49.41 277.41 40.26 283.01 49.41 288.62"/><polygon id="Path-44" class="cls-45" points="49.41 277.41 49.41 288.62 58.55 283.01 58.55 271.75 49.41 277.41"/><polygon id="Path-45" class="cls-27" points="40.26 271.75 40.26 283.01 49.41 277.41 49.41 266.15 40.26 271.75"/><polygon id="Path-46" class="cls-31" points="49.41 266.15 49.41 277.41 58.55 283.01 58.55 271.75 49.41 266.15"/><polygon id="Path-47" class="cls-9" points="40.26 271.75 40.26 283.01 49.41 288.62 49.41 277.41 40.26 271.75"/></g></g></g><polygon id="Path-48" class="cls-15" points="40.26 271.75 49.41 277.41 58.55 271.75 49.41 266.15 40.26 271.75"/><g id="Page-1-9"><g id="D-START-9"><g id="ReadyToUse-9"><polyline id="Path-49" class="cls-65" points="353.98 296.85 369.82 287.14 353.98 277.43 338.13 287.14 353.98 296.85"/><polygon id="Path-50" class="cls-43" points="353.98 277.43 353.98 296.85 369.82 287.14 369.82 267.62 353.98 277.43"/><polygon id="Path-51" class="cls-26" points="338.13 267.62 338.13 287.14 353.98 277.43 353.98 257.91 338.13 267.62"/><polygon id="Path-52" class="cls-35" points="353.98 257.91 353.98 277.43 369.82 287.14 369.82 267.62 353.98 257.91"/><polygon id="Path-53" class="cls-3" points="338.13 267.62 338.13 287.14 353.98 296.85 353.98 277.43 338.13 267.62"/></g></g></g><polygon id="Path-54" class="cls-11" points="338.13 267.62 353.98 277.43 369.82 267.62 353.98 257.91 338.13 267.62"/><g id="Page-1-10"><g id="D-START-10"><g id="ReadyToUse-10"><polyline id="Path-55" class="cls-55" points="200 361.54 210.14 355.33 200 349.11 189.86 355.33 200 361.54"/><polygon id="Path-56" class="cls-19" points="200 349.11 200 361.54 210.14 355.33 210.14 342.84 200 349.11"/><polygon id="Path-57" class="cls-23" points="189.86 342.84 189.86 355.33 200 349.11 200 336.62 189.86 342.84"/><polygon id="Path-58" class="cls-20" points="200 336.62 200 349.11 210.14 355.33 210.14 342.84 200 336.62"/><polygon id="Path-59" class="cls-1" points="189.86 342.84 189.86 355.33 200 361.54 200 349.11 189.86 342.84"/></g></g></g><polygon id="Path-60" class="cls-17" points="189.86 342.84 200 349.11 210.14 342.84 200 336.62 189.86 342.84"/><g id="Page-1-11"><g id="D-START-11"><g id="ReadyToUse-11"><polyline id="Path-61" class="cls-54" points="200 44.11 210.14 37.9 200 31.69 189.86 37.9 200 44.11"/><polygon id="Path-62" class="cls-18" points="200 31.69 200 44.11 210.14 37.9 210.14 25.41 200 31.69"/><polygon id="Path-63" class="cls-22" points="189.86 25.41 189.86 37.9 200 31.69 200 19.2 189.86 25.41"/><polygon id="Path-64" class="cls-21" points="200 19.2 200 31.69 210.14 37.9 210.14 25.41 200 19.2"/><polygon id="Path-65" class="cls-2" points="189.86 25.41 189.86 37.9 200 44.11 200 31.69 189.86 25.41"/></g></g></g><polygon id="Path-66" class="cls-16" points="189.86 25.41 200 31.69 210.14 25.41 200 19.2 189.86 25.41"/></svg>