<?xml version="1.0" encoding="UTF-8"?><svg id="Ebene_1" xmlns="http://www.w3.org/2000/svg" xmlns:xlink="http://www.w3.org/1999/xlink" viewBox="0 0 400 400"><defs><style>.cls-1{fill:url(#Unbenannter_Verlauf_3-17);}.cls-2{fill:url(#Unbenannter_Verlauf_3-11);}.cls-3{fill:url(#Unbenannter_Verlauf_3-14);}.cls-4{fill:url(#Unbenannter_Verlauf_3-12);}.cls-5{fill:url(#Unbenannter_Verlauf_3-10);}.cls-6{fill:url(#Unbenannter_Verlauf_3-13);}.cls-7{fill:url(#Unbenannter_Verlauf_3-16);}.cls-8{fill:url(#Unbenannter_Verlauf_3-15);}.cls-9{fill:url(#Unbenannter_Verlauf_9);}.cls-9,.cls-10{opacity:.5;}.cls-10{fill:url(#Unbenannter_Verlauf_3);}.cls-11{fill:url(#Unbenannter_Verlauf_3-4);}.cls-12{fill:url(#Unbenannter_Verlauf_3-3);}.cls-13{fill:url(#Unbenannter_Verlauf_3-2);}.cls-14{fill:url(#Unbenannter_Verlauf_3-8);}.cls-15{fill:url(#Unbenannter_Verlauf_3-7);}.cls-16{fill:url(#Unbenannter_Verlauf_3-6);}.cls-17{fill:url(#Unbenannter_Verlauf_3-5);}.cls-18{fill:url(#Unbenannter_Verlauf_3-9);}.cls-19{fill:url(#Unbenannter_Verlauf_10);}.cls-20{fill:url(#Unbenannter_Verlauf_2);}.cls-21{fill:url(#Unbenannter_Verlauf);}</style><linearGradient id="Unbenannter_Verlauf" x1="-1258.21" y1="318.92" x2="-1258.21" y2="319.86" gradientTransform="translate(264424 41190) scale(210 -128)" gradientUnits="userSpaceOnUse"><stop offset="0" stop-color="#533ffe" stop-opacity=".4"/><stop offset="1" stop-color="#3119fe" stop-opacity="0"/></linearGradient><linearGradient id="Unbenannter_Verlauf_2" x1="-1251.95" y1="318.95" x2="-1251.95" y2="319.89" gradientTransform="translate(131704 61926) scale(105 -193)" gradientUnits="userSpaceOnUse"><stop offset="0" stop-color="#533ffe" stop-opacity=".8"/><stop offset=".11" stop-color="#523efe" stop-opacity=".78"/><stop offset=".25" stop-color="#4f3bfe" stop-opacity=".71"/><stop offset=".41" stop-color="#4b36fe" stop-opacity=".61"/><stop offset=".59" stop-color="#452ffe" stop-opacity=".46"/><stop offset=".77" stop-color="#3d26fe" stop-opacity=".28"/><stop offset=".96" stop-color="#331bfe" stop-opacity=".05"/><stop offset="1" stop-color="#3119fe" stop-opacity="0"/></linearGradient><linearGradient id="Unbenannter_Verlauf_3" x1="-1251.88" y1="318.93" x2="-1251.88" y2="319.86" gradientTransform="translate(131599 61861) scale(105 -193)" gradientUnits="userSpaceOnUse"><stop offset="0" stop-color="#533ffe" stop-opacity=".7"/><stop offset=".25" stop-color="#4b36fe" stop-opacity=".56"/><stop offset=".81" stop-color="#3821fe" stop-opacity=".22"/><stop offset="1" stop-color="#3119fe" stop-opacity=".1"/></linearGradient><linearGradient id="Unbenannter_Verlauf_9" x1="-1251.95" y1="318.93" x2="-1251.95" y2="319.86" gradientTransform="translate(131704 61861) scale(105 -193)" gradientUnits="userSpaceOnUse"><stop offset="0" stop-color="#3119fe" stop-opacity="0"/><stop offset="1" stop-color="#533ffe" stop-opacity=".4"/></linearGradient><linearGradient id="Unbenannter_Verlauf_10" x1="-1251.88" y1="318.95" x2="-1251.88" y2="319.89" gradientTransform="translate(131599 61926) scale(105 -193)" gradientUnits="userSpaceOnUse"><stop offset="0" stop-color="#533ffe" stop-opacity=".6"/><stop offset=".13" stop-color="#523efe" stop-opacity=".58"/><stop offset=".3" stop-color="#4e39fe" stop-opacity=".51"/><stop offset=".5" stop-color="#4832fe" stop-opacity=".4"/><stop offset=".71" stop-color="#3f29fe" stop-opacity=".25"/><stop offset=".94" stop-color="#341dfe" stop-opacity=".06"/><stop offset="1" stop-color="#3119fe" stop-opacity="0"/></linearGradient><linearGradient id="Unbenannter_Verlauf_3-2" x1="-1251.42" y1="319.24" x2="-1251.42" xlink:href="#Unbenannter_Verlauf_3"/><linearGradient id="Unbenannter_Verlauf_3-3" x1="-1252.01" y1="320.22" x2="-1252.01" y2="320.33" xlink:href="#Unbenannter_Verlauf_3"/><linearGradient id="Unbenannter_Verlauf_3-4" x1="-1251.92" y1="320.23" x2="-1251.92" y2="320.26" xlink:href="#Unbenannter_Verlauf_3"/><linearGradient id="Unbenannter_Verlauf_3-5" x1="-1251.79" y1="320.11" x2="-1251.79" y2="320.28" xlink:href="#Unbenannter_Verlauf_3"/><linearGradient id="Unbenannter_Verlauf_3-6" x1="-1250.42" y1="319.75" x2="-1250.42" y2="319.86" xlink:href="#Unbenannter_Verlauf_3"/><linearGradient id="Unbenannter_Verlauf_3-7" x1="-1250.33" y1="319.76" x2="-1250.33" y2="319.79" xlink:href="#Unbenannter_Verlauf_3"/><linearGradient id="Unbenannter_Verlauf_3-8" x1="-1250.2" y1="319.64" x2="-1250.2" y2="319.82" xlink:href="#Unbenannter_Verlauf_3"/><linearGradient id="Unbenannter_Verlauf_3-9" x1="-1252.73" y1="319.67" x2="-1252.73" y2="319.73" xlink:href="#Unbenannter_Verlauf_3"/><linearGradient id="Unbenannter_Verlauf_3-10" x1="-1252.68" y1="319.68" x2="-1252.68" y2="319.69" xlink:href="#Unbenannter_Verlauf_3"/><linearGradient id="Unbenannter_Verlauf_3-11" x1="-1252.62" y1="319.61" x2="-1252.62" y2="319.7" xlink:href="#Unbenannter_Verlauf_3"/><linearGradient id="Unbenannter_Verlauf_3-12" x1="-1252.73" y1="319.93" x2="-1252.73" y2="320.16" xlink:href="#Unbenannter_Verlauf_3"/><linearGradient id="Unbenannter_Verlauf_3-13" x1="-1252.55" y1="319.96" x2="-1252.55" y2="320.01" xlink:href="#Unbenannter_Verlauf_3"/><linearGradient id="Unbenannter_Verlauf_3-14" x1="-1252.27" y1="319.7" x2="-1252.27" y2="320.06" xlink:href="#Unbenannter_Verlauf_3"/><linearGradient id="Unbenannter_Verlauf_3-15" x1="-1251.2" y1="320.19" x2="-1251.2" y2="320.38" xlink:href="#Unbenannter_Verlauf_3"/><linearGradient id="Unbenannter_Verlauf_3-16" x1="-1251.04" y1="320.21" x2="-1251.04" y2="320.26" xlink:href="#Unbenannter_Verlauf_3"/><linearGradient id="Unbenannter_Verlauf_3-17" x1="-1250.8" y1="319.99" x2="-1250.8" y2="320.3" xlink:href="#Unbenannter_Verlauf_3"/></defs><g id="Page-1"><g id="D-START"><g id="ReadyToUse"><polyline id="Path" class="cls-21" points="200 367.8 297.74 307.91 200 248.02 102.26 307.91 200 367.8"/><polygon id="Path-2" class="cls-20" points="200 248.02 200 367.8 297.74 307.91 297.74 187.53 200 248.02"/><polygon id="Path-3" class="cls-10" points="102.26 187.53 102.26 307.91 200 248.02 200 127.64 102.26 187.53"/><polygon id="Path-4" class="cls-9" points="200 127.64 200 248.02 297.74 307.91 297.74 187.53 200 127.64"/><polygon id="Path-5" class="cls-19" points="102.26 187.53 102.26 307.91 200 367.8 200 248.02 102.26 187.53"/></g></g></g><polygon id="Path-6" class="cls-13" points="102.26 187.53 200 248.02 297.74 187.53 200 127.64 102.26 187.53"/><polygon id="Path-7" class="cls-12" points="121.41 47.86 138.42 58.39 155.43 47.86 138.42 37.44 121.41 47.86"/><polygon id="Path-8" class="cls-11" points="143.22 53.35 147.52 56.01 151.85 53.36 147.51 50.7 143.22 53.35"/><polygon id="Path-9" class="cls-17" points="134.43 62.87 161.45 79.59 188.48 62.87 161.45 46.31 134.43 62.87"/><polygon id="Path-10" class="cls-16" points="288.33 138.26 305.34 148.78 322.35 138.26 305.34 127.83 288.33 138.26"/><polygon id="Path-11" class="cls-15" points="310.14 143.74 314.44 146.4 318.77 143.75 314.43 141.1 310.14 143.74"/><polygon id="Path-12" class="cls-14" points="301.35 153.26 328.37 169.99 355.4 153.26 328.37 136.7 301.35 153.26"/><polygon id="Path-13" class="cls-18" points="53.95 159.3 62.59 164.65 71.23 159.3 62.59 154.01 53.95 159.3"/><polygon id="Path-14" class="cls-5" points="65.03 162.09 67.21 163.44 69.41 162.09 67.21 160.74 65.03 162.09"/><polygon id="Path-15" class="cls-2" points="60.56 166.92 74.29 175.42 88.02 166.92 74.29 158.51 60.56 166.92"/><polygon id="Path-16" class="cls-4" points="26.62 92.18 62.34 114.28 98.06 92.17 62.34 70.28 26.62 92.18"/><polygon id="Path-17" class="cls-6" points="72.42 103.7 81.45 109.28 90.54 103.72 81.42 98.14 72.42 103.7"/><polygon id="Path-18" class="cls-3" points="53.95 123.69 110.71 158.82 167.46 123.69 110.71 88.91 53.95 123.69"/><polygon id="Path-19" class="cls-8" points="192.87 45.54 223.39 64.43 253.92 45.54 223.39 26.83 192.87 45.54"/><polygon id="Path-20" class="cls-7" points="232.01 55.39 239.72 60.16 247.49 55.4 239.69 50.64 232.01 55.39"/><polygon id="Path-21" class="cls-1" points="216.23 72.47 264.72 102.48 313.22 72.47 264.72 42.75 216.23 72.47"/></svg>