<svg viewBox="0 0 400 400" xmlns="http://www.w3.org/2000/svg" xmlns:xlink="http://www.w3.org/1999/xlink"><linearGradient id="a" gradientUnits="userSpaceOnUse" x1="160.02" x2="250.33" y1="253.03" y2="253.03"><stop offset="0" stop-color="#533ffe"/><stop offset=".05" stop-color="#513dfe" stop-opacity=".95"/><stop offset=".71" stop-color="#3a23fe" stop-opacity=".27"/><stop offset="1" stop-color="#3119fe" stop-opacity="0"/></linearGradient><linearGradient id="b" x1="160.02" x2="250.33" xlink:href="#a" y1="224.29" y2="224.29"/><linearGradient id="c" xlink:href="#a" y1="214.79" y2="214.79"/><linearGradient id="d" x1="160.02" x2="250.33" xlink:href="#a" y1="186.05" y2="186.05"/><linearGradient id="e" xlink:href="#a" y1="176.54" y2="176.54"/><linearGradient id="f" x1="160.02" x2="250.33" xlink:href="#a" y1="147.8" y2="147.8"/><linearGradient id="g" gradientTransform="matrix(210 0 0 -128 615544 41190)" gradientUnits="userSpaceOnUse" x1="-2930.67" x2="-2930.67" y1="320.94" y2="321.21"><stop offset="0" stop-color="#533ffe" stop-opacity=".4"/><stop offset="1" stop-color="#3119fe" stop-opacity="0"/></linearGradient><linearGradient id="h" gradientTransform="matrix(105 0 0 -193 306424 61926)" gradientUnits="userSpaceOnUse" x1="-2917.2" x2="-2917.2" y1="320.29" y2="320.56"><stop offset="0" stop-color="#533ffe" stop-opacity=".8"/><stop offset=".11" stop-color="#523efe" stop-opacity=".78"/><stop offset=".25" stop-color="#4f3bfe" stop-opacity=".71"/><stop offset=".41" stop-color="#4b36fe" stop-opacity=".61"/><stop offset=".59" stop-color="#452ffe" stop-opacity=".46"/><stop offset=".77" stop-color="#3d26fe" stop-opacity=".28"/><stop offset=".96" stop-color="#331bfe" stop-opacity=".05"/><stop offset="1" stop-color="#3119fe" stop-opacity="0"/></linearGradient><linearGradient id="i" gradientTransform="matrix(105 0 0 -193 306319 61861)" gradientUnits="userSpaceOnUse" x1="-2916.47" x2="-2916.47" y1="320.05" y2="320.32"><stop offset="0" stop-color="#533ffe" stop-opacity=".7"/><stop offset=".25" stop-color="#4b36fe" stop-opacity=".56"/><stop offset=".81" stop-color="#3821fe" stop-opacity=".22"/><stop offset="1" stop-color="#3119fe" stop-opacity=".1"/></linearGradient><linearGradient id="j" gradientTransform="matrix(105 0 0 -193 306424 61861)" gradientUnits="userSpaceOnUse" x1="-2917.2" x2="-2917.2" y1="320.05" y2="320.32"><stop offset="0" stop-color="#3119fe" stop-opacity="0"/><stop offset="1" stop-color="#533ffe" stop-opacity=".4"/></linearGradient><linearGradient id="k" gradientTransform="matrix(105 0 0 -193 306319 61926)" gradientUnits="userSpaceOnUse" x1="-2916.47" x2="-2916.47" y1="320.29" y2="320.56"><stop offset="0" stop-color="#533ffe" stop-opacity=".6"/><stop offset=".13" stop-color="#523efe" stop-opacity=".58"/><stop offset=".3" stop-color="#4e39fe" stop-opacity=".51"/><stop offset=".5" stop-color="#4832fe" stop-opacity=".4"/><stop offset=".71" stop-color="#3f29fe" stop-opacity=".25"/><stop offset=".94" stop-color="#341dfe" stop-opacity=".06"/><stop offset="1" stop-color="#3119fe" stop-opacity="0"/></linearGradient><linearGradient id="l" x1="-2916.33" x2="-2916.33" xlink:href="#i" y1="320.14"/><linearGradient id="m" x1="-2929.74" x2="-2929.74" xlink:href="#g" y1="321.04" y2="321.21"/><linearGradient id="n" x1="-2915.38" x2="-2915.38" xlink:href="#h" y1="320.36" y2="320.53"/><linearGradient id="o" x1="-2914.56" x2="-2914.56" xlink:href="#i" y1="320.08" y2="320.25"/><linearGradient id="p" x1="-2915.38" x2="-2915.38" xlink:href="#j" y1="320.08" y2="320.25"/><linearGradient id="q" x1="-2914.56" x2="-2914.56" xlink:href="#k" y1="320.36" y2="320.53"/><linearGradient id="r" x1="-2914.47" x2="-2914.47" xlink:href="#i" y1="320.14" y2="320.25"/><linearGradient id="s" xlink:href="#g" y1="319.08" y2="319.25"/><linearGradient id="t" x1="-2917.25" x2="-2917.25" xlink:href="#h" y1="319.06" y2="319.23"/><linearGradient id="u" x1="-2916.42" x2="-2916.42" xlink:href="#i" y1="318.78" y2="318.95"/><linearGradient id="v" x1="-2917.25" x2="-2917.25" xlink:href="#j" y1="318.78" y2="318.95"/><linearGradient id="w" x1="-2916.42" x2="-2916.42" xlink:href="#k" y1="319.06" y2="319.23"/><linearGradient id="x" x1="-2916.33" x2="-2916.33" xlink:href="#i" y1="318.84" y2="318.95"/><linearGradient id="y" x1="-2929.74" x2="-2929.74" xlink:href="#g" y1="318.98" y2="319.25"/><linearGradient id="z" x1="-2915.34" x2="-2915.34" xlink:href="#h" y1="318.99" y2="319.26"/><linearGradient id="A" x1="-2914.61" x2="-2914.61" xlink:href="#i" y1="318.75" y2="319.02"/><linearGradient id="B" x1="-2915.34" x2="-2915.34" xlink:href="#j" y1="318.75" y2="319.02"/><linearGradient id="C" x1="-2914.61" x2="-2914.61" xlink:href="#k" y1="318.99" y2="319.26"/><linearGradient id="D" x1="-2914.47" x2="-2914.47" xlink:href="#i" y1="318.84" y2="319.02"/><linearGradient id="E" x1="-2929.45" x2="-2929.45" xlink:href="#g" y1="320.06" y2="320.23"/><linearGradient id="F" x1="-2914.82" x2="-2914.82" xlink:href="#h" y1="319.71" y2="319.88"/><linearGradient id="G" x1="-2913.99" x2="-2913.99" xlink:href="#i" y1="319.43" y2="319.6"/><linearGradient id="H" x1="-2914.82" x2="-2914.82" xlink:href="#j" y1="319.43" y2="319.6"/><linearGradient id="I" x1="-2913.99" x2="-2913.99" xlink:href="#k" y1="319.71" y2="319.88"/><linearGradient id="J" x1="-2913.9" x2="-2913.9" xlink:href="#i" y1="319.49" y2="319.6"/><linearGradient id="K" x1="-2930.92" x2="-2930.92" xlink:href="#g" y1="320.06" y2="320.23"/><linearGradient id="L" x1="-2917.75" x2="-2917.75" xlink:href="#h" y1="319.71" y2="319.88"/><linearGradient id="M" x1="-2916.92" x2="-2916.92" xlink:href="#i" y1="319.43" y2="319.6"/><linearGradient id="N" x1="-2917.75" x2="-2917.75" xlink:href="#j" y1="319.43" y2="319.6"/><linearGradient id="O" x1="-2916.92" x2="-2916.92" xlink:href="#k" y1="319.71" y2="319.88"/><linearGradient id="P" x1="-2916.84" x2="-2916.84" xlink:href="#i" y1="319.49" y2="319.6"/><linearGradient id="Q" x1="-2930.92" x2="-2930.92" xlink:href="#g" y1="319.54" y2="319.63"/><linearGradient id="R" x1="-2917.79" x2="-2917.79" xlink:href="#h" y1="319.36" y2="319.45"/><linearGradient id="S" x1="-2916.88" x2="-2916.88" xlink:href="#i" y1="319.06" y2="319.14"/><linearGradient id="T" x1="-2917.79" x2="-2917.79" xlink:href="#j" y1="319.06" y2="319.14"/><linearGradient id="U" x1="-2916.88" x2="-2916.88" xlink:href="#k" y1="319.36" y2="319.45"/><linearGradient id="V" x1="-2916.84" x2="-2916.84" xlink:href="#i" y1="319.09" y2="319.14"/><linearGradient id="W" x1="-2929.47" x2="-2929.47" xlink:href="#g" y1="319.48" y2="319.63"/><linearGradient id="X" x1="-2914.86" x2="-2914.86" xlink:href="#h" y1="319.32" y2="319.47"/><linearGradient id="Y" x1="-2914.01" x2="-2914.01" xlink:href="#i" y1="319.04" y2="319.19"/><linearGradient id="Z" x1="-2914.86" x2="-2914.86" xlink:href="#j" y1="319.04" y2="319.19"/><linearGradient id="aa" x1="-2914.01" x2="-2914.01" xlink:href="#k" y1="319.32" y2="319.47"/><linearGradient id="ab" x1="-2913.94" x2="-2913.94" xlink:href="#i" y1="319.09" y2="319.19"/><linearGradient id="ac" x1="-2930.2" x2="-2930.2" xlink:href="#g" y1="318.97" y2="319.07"/><linearGradient id="ad" x1="-2916.35" x2="-2916.35" xlink:href="#h" y1="318.99" y2="319.08"/><linearGradient id="ae" x1="-2915.45" x2="-2915.45" xlink:href="#i" y1="318.68" y2="318.78"/><linearGradient id="af" x1="-2916.35" x2="-2916.35" xlink:href="#j" y1="318.68" y2="318.78"/><linearGradient id="ag" x1="-2915.45" x2="-2915.45" xlink:href="#k" y1="318.99" y2="319.08"/><linearGradient id="ah" x1="-2915.4" x2="-2915.4" xlink:href="#i" y1="318.71" y2="318.78"/><linearGradient id="ai" x1="-2930.2" x2="-2930.2" xlink:href="#g" y1="321.45" y2="321.55"/><linearGradient id="aj" x1="-2916.35" x2="-2916.35" xlink:href="#h" y1="320.63" y2="320.73"/><linearGradient id="ak" x1="-2915.45" x2="-2915.45" xlink:href="#i" y1="320.33" y2="320.42"/><linearGradient id="al" x1="-2916.35" x2="-2916.35" xlink:href="#j" y1="320.33" y2="320.42"/><linearGradient id="am" x1="-2915.45" x2="-2915.45" xlink:href="#k" y1="320.63" y2="320.73"/><linearGradient id="an" x1="-2915.4" x2="-2915.4" xlink:href="#i" y1="320.36" y2="320.42"/><path d="m250.33 255.73s0 .01 0 .02c-.1 14.29-20.27 26.03-45.15 26.03s-45.05-11.74-45.15-26.03v-.02-31.43s0 .01 0 .02c.1 14.29 20.27 26.03 45.15 26.03s45.05-11.74 45.15-26.03v-.02z" fill="url(#a)"/><path d="m250.33 224.21c0 14.34-20.22 26.13-45.15 26.13s-45.15-11.8-45.15-26.13 20.22-25.96 45.15-25.96 45.15 11.62 45.15 25.96z" fill="url(#b)" opacity=".7"/><path d="m250.33 217.48s0 .01 0 .02c-.1 14.29-20.27 26.03-45.15 26.03s-45.05-11.74-45.15-26.03v-.02-31.43s0 .01 0 .02c.1 14.29 20.27 26.03 45.15 26.03s45.05-11.74 45.15-26.03v-.02z" fill="url(#c)"/><path d="m250.33 185.96c0 14.34-20.22 26.13-45.15 26.13s-45.15-11.8-45.15-26.13 20.22-25.96 45.15-25.96 45.15 11.62 45.15 25.96z" fill="url(#d)" opacity=".7"/><path d="m250.33 179.24s0 .01 0 .02c-.1 14.29-20.27 26.03-45.15 26.03s-45.05-11.74-45.15-26.03v-.02-31.43s0 .01 0 .02c.1 14.29 20.27 26.03 45.15 26.03s45.05-11.74 45.15-26.03v-.02z" fill="url(#e)"/><path d="m250.33 147.72c0 14.34-20.22 26.13-45.15 26.13s-45.15-11.8-45.15-26.13 20.22-25.96 45.15-25.96 45.15 11.62 45.15 25.96z" fill="url(#f)" opacity=".7"/><path d="m104 109.21 28.14-17.24-28.14-17.24-28.14 17.24z" fill="url(#g)"/><path d="m104 74.73v34.48l28.14-17.24v-34.66z" fill="url(#h)"/><path d="m75.86 57.31v34.66l28.14-17.24v-34.66z" fill="url(#i)" opacity=".5"/><path d="m104 40.07v34.66l28.14 17.24v-34.66z" fill="url(#j)" opacity=".5"/><path d="m75.86 57.31v34.66l28.14 17.24v-34.48z" fill="url(#k)"/><path d="m75.86 57.31 28.14 17.42 28.14-17.42-28.14-17.24z" fill="url(#l)"/><path d="m299.48 97.11 18.29-11.21-18.29-11.2-18.29 11.2z" fill="url(#m)"/><path d="m299.48 74.7v22.41l18.29-11.21v-22.52z" fill="url(#n)"/><path d="m281.19 63.38v22.52l18.29-11.2v-22.53z" fill="url(#o)" opacity=".5"/><path d="m299.48 52.17v22.53l18.29 11.2v-22.52z" fill="url(#p)" opacity=".5"/><path d="m281.19 63.38v22.52l18.29 11.21v-22.41z" fill="url(#q)"/><path d="m281.19 63.38 18.29 11.32 18.29-11.32-18.29-11.21z" fill="url(#r)"/><path d="m104 347.83 18.29-11.21-18.29-11.2-18.29 11.2z" fill="url(#s)"/><path d="m104 325.42v22.41l18.29-11.21v-22.52z" fill="url(#t)"/><path d="m85.71 314.1v22.52l18.29-11.2v-22.53z" fill="url(#u)" opacity=".5"/><path d="m104 302.89v22.53l18.29 11.2v-22.52z" fill="url(#v)" opacity=".5"/><path d="m85.71 314.1v22.52l18.29 11.21v-22.41z" fill="url(#w)"/><path d="m85.71 314.1 18.29 11.32 18.29-11.32-18.29-11.21z" fill="url(#x)"/><path d="m299.48 360.11 28.28-17.33-28.28-17.33-28.29 17.33z" fill="url(#y)"/><path d="m299.48 325.45v34.66l28.28-17.33v-34.84z" fill="url(#z)"/><path d="m271.19 307.94v34.84l28.29-17.33v-34.85z" fill="url(#A)" opacity=".5"/><path d="m299.48 290.6v34.85l28.28 17.33v-34.84z" fill="url(#B)" opacity=".5"/><path d="m271.19 307.94v34.84l28.29 17.33v-34.66z" fill="url(#C)"/><path d="m271.19 307.94 28.29 17.51 28.28-17.51-28.28-17.34z" fill="url(#D)"/><path d="m359.2 222.47 18.29-11.21-18.29-11.2-18.28 11.2z" fill="url(#E)"/><path d="m359.2 200.06v22.41l18.29-11.21v-22.52z" fill="url(#F)"/><path d="m340.92 188.74v22.52l18.28-11.2v-22.53z" fill="url(#G)" opacity=".5"/><path d="m359.2 177.53v22.53l18.29 11.2v-22.52z" fill="url(#H)" opacity=".5"/><path d="m340.92 188.74v22.52l18.28 11.21v-22.41z" fill="url(#I)"/><path d="m340.92 188.74 18.28 11.32 18.29-11.32-18.29-11.21z" fill="url(#J)"/><path d="m51.14 222.47 18.29-11.21-18.29-11.2-18.29 11.2z" fill="url(#K)"/><path d="m51.14 200.06v22.41l18.29-11.21v-22.52z" fill="url(#L)"/><path d="m32.85 188.74v22.52l18.29-11.2v-22.53z" fill="url(#M)" opacity=".5"/><path d="m51.14 177.53v22.53l18.29 11.2v-22.52z" fill="url(#N)" opacity=".5"/><path d="m32.85 188.74v22.52l18.29 11.21v-22.41z" fill="url(#O)"/><path d="m32.85 188.74 18.29 11.32 18.29-11.32-18.29-11.21z" fill="url(#P)"/><path d="m51.14 288.62 9.15-5.61-9.15-5.6-9.14 5.6z" fill="url(#Q)"/><path d="m51.14 277.41v11.21l9.15-5.61v-11.26z" fill="url(#R)"/><path d="m42 271.75v11.26l9.14-5.6v-11.26z" fill="url(#S)" opacity=".5"/><path d="m51.14 266.15v11.26l9.15 5.6v-11.26z" fill="url(#T)" opacity=".5"/><path d="m42 271.75v11.26l9.14 5.61v-11.21z" fill="url(#U)"/><path d="m42 271.75 9.14 5.66 9.15-5.66-9.15-5.6z" fill="url(#V)"/><path d="m355.71 296.85 15.85-9.71-15.85-9.71-15.85 9.71z" fill="url(#W)"/><path d="m355.71 277.43v19.42l15.85-9.71v-19.52z" fill="url(#X)"/><path d="m339.86 267.62v19.52l15.85-9.71v-19.52z" fill="url(#Y)" opacity=".5"/><path d="m355.71 257.91v19.52l15.85 9.71v-19.52z" fill="url(#Z)" opacity=".5"/><path d="m339.86 267.62v19.52l15.85 9.71v-19.42z" fill="url(#aa)"/><path d="m339.86 267.62 15.85 9.81 15.85-9.81-15.85-9.71z" fill="url(#ab)"/><path d="m201.74 361.54 10.14-6.21-10.14-6.22-10.14 6.22z" fill="url(#ac)"/><path d="m201.74 349.11v12.43l10.14-6.21v-12.49z" fill="url(#ad)"/><path d="m191.6 342.84v12.49l10.14-6.22v-12.49z" fill="url(#ae)" opacity=".5"/><path d="m201.74 336.62v12.49l10.14 6.22v-12.49z" fill="url(#af)" opacity=".5"/><path d="m191.6 342.84v12.49l10.14 6.21v-12.43z" fill="url(#ag)"/><path d="m191.6 342.84 10.14 6.27 10.14-6.27-10.14-6.22z" fill="url(#ah)"/><path d="m201.74 44.11 10.14-6.21-10.14-6.21-10.14 6.21z" fill="url(#ai)"/><path d="m201.74 31.69v12.42l10.14-6.21v-12.49z" fill="url(#aj)"/><path d="m191.6 25.41v12.49l10.14-6.21v-12.49z" fill="url(#ak)" opacity=".5"/><path d="m201.74 19.2v12.49l10.14 6.21v-12.49z" fill="url(#al)" opacity=".5"/><path d="m191.6 25.41v12.49l10.14 6.21v-12.42z" fill="url(#am)"/><path d="m191.6 25.41 10.14 6.28 10.14-6.28-10.14-6.21z" fill="url(#an)"/><g style="fill:none;stroke:#7d67db;stroke-dasharray:0 0 3 3;stroke-linecap:round;stroke-linejoin:round;stroke-width:2"><path d="m115.7 81.9 58.27 37.49" opacity=".5"/><path d="m59.09 206.49 40.47 24.14h52.27" opacity=".5"/><path d="m245.96 278.01 35.04 20.9" opacity=".5"/><path d="m344.87 262.15-43.02-28.86h-46.85" opacity=".5"/><path d="m55.72 280.18 27.94 16.67 68.17-44.22" opacity=".5"/><path d="m206.76 34.76 27.86 17.41v67.22" opacity=".5"/><path d="m290.42 80.24-26.94 18.44v49.12h-8.48" opacity=".5"/><path d="m351.83 205.6-31.8-17.37-65.03.51" opacity=".5"/><path d="m114.88 306.59 45.14-29.18" opacity=".5"/><path d="m208.88 339.22 51.36-38.36-28.76-17.85" opacity=".5"/></g></svg>