<svg viewBox="0 0 400 400" xmlns="http://www.w3.org/2000/svg" xmlns:xlink="http://www.w3.org/1999/xlink"><linearGradient id="a" gradientTransform="matrix(210 0 0 -128 88864 41190)" gradientUnits="userSpaceOnUse" x1="-422.21" x2="-422.21" y1="319.34" y2="320.27"><stop offset="0" stop-color="#533ffe" stop-opacity=".4"/><stop offset="1" stop-color="#3119fe" stop-opacity="0"/></linearGradient><linearGradient id="b" gradientTransform="matrix(105 0 0 -193 44344 61926)" gradientUnits="userSpaceOnUse" x1="-419.95" x2="-419.95" y1="319.23" y2="320.16"><stop offset="0" stop-color="#533ffe" stop-opacity=".8"/><stop offset=".11" stop-color="#523efe" stop-opacity=".78"/><stop offset=".25" stop-color="#4f3bfe" stop-opacity=".71"/><stop offset=".41" stop-color="#4b36fe" stop-opacity=".61"/><stop offset=".59" stop-color="#452ffe" stop-opacity=".46"/><stop offset=".77" stop-color="#3d26fe" stop-opacity=".28"/><stop offset=".96" stop-color="#331bfe" stop-opacity=".05"/><stop offset="1" stop-color="#3119fe" stop-opacity="0"/></linearGradient><linearGradient id="c" gradientTransform="matrix(105 0 0 -193 44239 61861)" gradientUnits="userSpaceOnUse" x1="-419.88" x2="-419.88" y1="319.2" y2="320.14"><stop offset="0" stop-color="#533ffe" stop-opacity=".7"/><stop offset=".25" stop-color="#4b36fe" stop-opacity=".56"/><stop offset=".81" stop-color="#3821fe" stop-opacity=".22"/><stop offset="1" stop-color="#3119fe" stop-opacity=".1"/></linearGradient><linearGradient id="d" gradientTransform="matrix(105 0 0 -193 44344 61861)" gradientUnits="userSpaceOnUse" x1="-419.95" x2="-419.95" y1="319.2" y2="320.14"><stop offset="0" stop-color="#3119fe" stop-opacity="0"/><stop offset="1" stop-color="#533ffe" stop-opacity=".4"/></linearGradient><linearGradient id="e" gradientTransform="matrix(105 0 0 -193 44239 61926)" gradientUnits="userSpaceOnUse" x1="-419.88" x2="-419.88" y1="319.23" y2="320.16"><stop offset="0" stop-color="#533ffe" stop-opacity=".6"/><stop offset=".13" stop-color="#523efe" stop-opacity=".58"/><stop offset=".3" stop-color="#4e39fe" stop-opacity=".51"/><stop offset=".5" stop-color="#4832fe" stop-opacity=".4"/><stop offset=".71" stop-color="#3f29fe" stop-opacity=".25"/><stop offset=".94" stop-color="#341dfe" stop-opacity=".06"/><stop offset="1" stop-color="#3119fe" stop-opacity="0"/></linearGradient><linearGradient id="f" x1="-419.42" x2="-419.42" xlink:href="#c" y1="319.51"/><linearGradient id="g" x1="-422.67" x2="-422.67" xlink:href="#a" y1="320.94" y2="321.21"/><linearGradient id="h" x1="-421.22" x2="-421.22" xlink:href="#b" y1="320.29" y2="320.56"/><linearGradient id="i" x1="-420.48" x2="-420.48" xlink:href="#c" y1="320.05" y2="320.32"/><linearGradient id="j" x1="-421.22" x2="-421.22" xlink:href="#d" y1="320.05" y2="320.32"/><linearGradient id="k" x1="-420.48" x2="-420.48" xlink:href="#e" y1="320.29" y2="320.56"/><linearGradient id="l" x1="-420.35" x2="-420.35" xlink:href="#c" y1="320.14" y2="320.32"/><linearGradient id="m" x1="-421.74" x2="-421.74" xlink:href="#a" y1="321.04" y2="321.21"/><linearGradient id="n" x1="-419.4" x2="-419.4" xlink:href="#b" y1="320.36" y2="320.53"/><linearGradient id="o" x1="-418.58" x2="-418.58" xlink:href="#c" y1="320.08" y2="320.25"/><linearGradient id="p" x1="-419.4" x2="-419.4" xlink:href="#d" y1="320.08" y2="320.25"/><linearGradient id="q" x1="-418.58" x2="-418.58" xlink:href="#e" y1="320.36" y2="320.53"/><linearGradient id="r" x1="-418.49" x2="-418.49" xlink:href="#c" y1="320.14" y2="320.25"/><linearGradient id="s" x1="-422.67" x2="-422.67" xlink:href="#a" y1="319.08" y2="319.25"/><linearGradient id="t" x1="-421.26" x2="-421.26" xlink:href="#b" y1="319.06" y2="319.23"/><linearGradient id="u" x1="-420.44" x2="-420.44" xlink:href="#c" y1="318.78" y2="318.95"/><linearGradient id="v" x1="-421.26" x2="-421.26" xlink:href="#d" y1="318.78" y2="318.95"/><linearGradient id="w" x1="-420.44" x2="-420.44" xlink:href="#e" y1="319.06" y2="319.23"/><linearGradient id="x" x1="-420.35" x2="-420.35" xlink:href="#c" y1="318.84" y2="318.95"/><linearGradient id="y" x1="-421.74" x2="-421.74" xlink:href="#a" y1="318.98" y2="319.25"/><linearGradient id="z" x1="-419.35" x2="-419.35" xlink:href="#b" y1="318.99" y2="319.26"/><linearGradient id="A" x1="-418.62" x2="-418.62" xlink:href="#c" y1="318.75" y2="319.02"/><linearGradient id="B" x1="-419.35" x2="-419.35" xlink:href="#d" y1="318.75" y2="319.02"/><linearGradient id="C" x1="-418.62" x2="-418.62" xlink:href="#e" y1="318.99" y2="319.26"/><linearGradient id="D" x1="-418.49" x2="-418.49" xlink:href="#c" y1="318.84" y2="319.02"/><linearGradient id="E" x1="-421.46" x2="-421.46" xlink:href="#a" y1="320.06" y2="320.23"/><linearGradient id="F" x1="-418.83" x2="-418.83" xlink:href="#b" y1="319.71" y2="319.88"/><linearGradient id="G" x1="-418.01" x2="-418.01" xlink:href="#c" y1="319.43" y2="319.6"/><linearGradient id="H" x1="-418.83" x2="-418.83" xlink:href="#d" y1="319.43" y2="319.6"/><linearGradient id="I" x1="-418.01" x2="-418.01" xlink:href="#e" y1="319.71" y2="319.88"/><linearGradient id="J" x1="-417.92" x2="-417.92" xlink:href="#c" y1="319.49" y2="319.6"/><linearGradient id="K" x1="-422.93" x2="-422.93" xlink:href="#a" y1="320.06" y2="320.23"/><linearGradient id="L" x1="-421.77" x2="-421.77" xlink:href="#b" y1="319.71" y2="319.88"/><linearGradient id="M" x1="-420.94" x2="-420.94" xlink:href="#c" y1="319.43" y2="319.6"/><linearGradient id="N" x1="-421.77" x2="-421.77" xlink:href="#d" y1="319.43" y2="319.6"/><linearGradient id="O" x1="-420.94" x2="-420.94" xlink:href="#e" y1="319.71" y2="319.88"/><linearGradient id="P" x1="-420.85" x2="-420.85" xlink:href="#c" y1="319.49" y2="319.6"/><linearGradient id="Q" x1="-422.93" x2="-422.93" xlink:href="#a" y1="319.54" y2="319.63"/><linearGradient id="R" x1="-421.81" x2="-421.81" xlink:href="#b" y1="319.36" y2="319.45"/><linearGradient id="S" x1="-420.9" x2="-420.9" xlink:href="#c" y1="319.06" y2="319.14"/><linearGradient id="T" x1="-421.81" x2="-421.81" xlink:href="#d" y1="319.06" y2="319.14"/><linearGradient id="U" x1="-420.9" x2="-420.9" xlink:href="#e" y1="319.36" y2="319.45"/><linearGradient id="V" x1="-420.85" x2="-420.85" xlink:href="#c" y1="319.09" y2="319.14"/><linearGradient id="W" x1="-421.48" x2="-421.48" xlink:href="#a" y1="319.48" y2="319.63"/><linearGradient id="X" x1="-418.88" x2="-418.88" xlink:href="#b" y1="319.32" y2="319.47"/><linearGradient id="Y" x1="-418.03" x2="-418.03" xlink:href="#c" y1="319.04" y2="319.19"/><linearGradient id="Z" x1="-418.88" x2="-418.88" xlink:href="#d" y1="319.04" y2="319.19"/><linearGradient id="aa" x1="-418.03" x2="-418.03" xlink:href="#e" y1="319.32" y2="319.47"/><linearGradient id="ab" x1="-417.95" x2="-417.95" xlink:href="#c" y1="319.09" y2="319.19"/><linearGradient id="ac" xlink:href="#a" y1="318.97" y2="319.07"/><linearGradient id="ad" x1="-420.37" x2="-420.37" xlink:href="#b" y1="318.99" y2="319.08"/><linearGradient id="ae" x1="-419.47" x2="-419.47" xlink:href="#c" y1="318.68" y2="318.78"/><linearGradient id="af" x1="-420.37" x2="-420.37" xlink:href="#d" y1="318.68" y2="318.78"/><linearGradient id="ag" x1="-419.47" x2="-419.47" xlink:href="#e" y1="318.99" y2="319.08"/><linearGradient id="ah" x1="-419.42" x2="-419.42" xlink:href="#c" y1="318.71" y2="318.78"/><linearGradient id="ai" xlink:href="#a" y1="321.45" y2="321.55"/><linearGradient id="aj" x1="-420.37" x2="-420.37" xlink:href="#b" y1="320.63" y2="320.73"/><linearGradient id="ak" x1="-419.47" x2="-419.47" xlink:href="#c" y1="320.33" y2="320.42"/><linearGradient id="al" x1="-420.37" x2="-420.37" xlink:href="#d" y1="320.33" y2="320.42"/><linearGradient id="am" x1="-419.47" x2="-419.47" xlink:href="#e" y1="320.63" y2="320.73"/><linearGradient id="an" x1="-419.42" x2="-419.42" xlink:href="#c" y1="320.36" y2="320.42"/><path d="m200 314.8 97.74-59.89-97.74-59.89-97.74 59.89z" fill="url(#a)"/><path d="m200 195.02v119.78l97.74-59.89v-120.38z" fill="url(#b)"/><path d="m102.26 134.54v120.37l97.74-59.89v-120.38z" fill="url(#c)" opacity=".5"/><path d="m200 74.64v120.38l97.74 59.89v-120.38z" fill="url(#d)" opacity=".5"/><path d="m102.26 134.54v120.37l97.74 59.89v-119.78z" fill="url(#e)"/><path d="m102.26 134.54 97.74 60.48 97.74-60.49-97.74-59.89z" fill="url(#f)"/><path d="m102.26 109.21 28.14-17.24-28.14-17.24-28.14 17.24z" fill="url(#g)"/><path d="m102.26 74.73v34.48l28.14-17.24v-34.66z" fill="url(#h)"/><path d="m74.12 57.31v34.66l28.14-17.24v-34.66z" fill="url(#i)" opacity=".5"/><path d="m102.26 40.07v34.66l28.14 17.24v-34.66z" fill="url(#j)" opacity=".5"/><path d="m74.12 57.31v34.66l28.14 17.24v-34.48z" fill="url(#k)"/><path d="m74.12 57.31 28.14 17.42 28.14-17.42-28.14-17.24z" fill="url(#l)"/><path d="m297.74 97.11 18.29-11.21-18.29-11.2-18.29 11.2z" fill="url(#m)"/><path d="m297.74 74.7v22.41l18.29-11.21v-22.52z" fill="url(#n)"/><path d="m279.45 63.38v22.52l18.29-11.2v-22.53z" fill="url(#o)" opacity=".5"/><path d="m297.74 52.17v22.53l18.29 11.2v-22.52z" fill="url(#p)" opacity=".5"/><path d="m279.45 63.38v22.52l18.29 11.21v-22.41z" fill="url(#q)"/><path d="m279.45 63.38 18.29 11.32 18.29-11.32-18.29-11.21z" fill="url(#r)"/><path d="m102.26 347.83 18.29-11.21-18.29-11.2-18.29 11.2z" fill="url(#s)"/><path d="m102.26 325.42v22.41l18.29-11.21v-22.52z" fill="url(#t)"/><path d="m83.97 314.1v22.52l18.29-11.2v-22.53z" fill="url(#u)" opacity=".5"/><path d="m102.26 302.89v22.53l18.29 11.2v-22.52z" fill="url(#v)" opacity=".5"/><path d="m83.97 314.1v22.52l18.29 11.21v-22.41z" fill="url(#w)"/><path d="m83.97 314.1 18.29 11.32 18.29-11.32-18.29-11.21z" fill="url(#x)"/><path d="m297.74 360.11 28.29-17.33-28.29-17.33-28.29 17.33z" fill="url(#y)"/><path d="m297.74 325.45v34.66l28.29-17.33v-34.84z" fill="url(#z)"/><path d="m269.45 307.94v34.84l28.29-17.33v-34.85z" fill="url(#A)" opacity=".5"/><path d="m297.74 290.6v34.85l28.29 17.33v-34.84z" fill="url(#B)" opacity=".5"/><path d="m269.45 307.94v34.84l28.29 17.33v-34.66z" fill="url(#C)"/><path d="m269.45 307.94 28.29 17.51 28.29-17.51-28.29-17.34z" fill="url(#D)"/><path d="m357.47 222.47 18.29-11.21-18.29-11.2-18.29 11.2z" fill="url(#E)"/><path d="m357.47 200.06v22.41l18.29-11.21v-22.52z" fill="url(#F)"/><path d="m339.18 188.74v22.52l18.29-11.2v-22.53z" fill="url(#G)" opacity=".5"/><path d="m357.47 177.53v22.53l18.29 11.2v-22.52z" fill="url(#H)" opacity=".5"/><path d="m339.18 188.74v22.52l18.29 11.21v-22.41z" fill="url(#I)"/><path d="m339.18 188.74 18.29 11.32 18.29-11.32-18.29-11.21z" fill="url(#J)"/><path d="m49.41 222.47 18.29-11.21-18.29-11.2-18.29 11.2z" fill="url(#K)"/><path d="m49.41 200.06v22.41l18.29-11.21v-22.52z" fill="url(#L)"/><path d="m31.12 188.74v22.52l18.29-11.2v-22.53z" fill="url(#M)" opacity=".5"/><path d="m49.41 177.53v22.53l18.29 11.2v-22.52z" fill="url(#N)" opacity=".5"/><path d="m31.12 188.74v22.52l18.29 11.21v-22.41z" fill="url(#O)"/><path d="m31.12 188.74 18.29 11.32 18.29-11.32-18.29-11.21z" fill="url(#P)"/><path d="m49.41 288.62 9.14-5.61-9.14-5.6-9.15 5.6z" fill="url(#Q)"/><path d="m49.41 277.41v11.21l9.14-5.61v-11.26z" fill="url(#R)"/><path d="m40.26 271.75v11.26l9.15-5.6v-11.26z" fill="url(#S)" opacity=".5"/><path d="m49.41 266.15v11.26l9.14 5.6v-11.26z" fill="url(#T)" opacity=".5"/><path d="m40.26 271.75v11.26l9.15 5.61v-11.21z" fill="url(#U)"/><path d="m40.26 271.75 9.15 5.66 9.14-5.66-9.14-5.6z" fill="url(#V)"/><path d="m353.98 296.85 15.84-9.71-15.84-9.71-15.85 9.71z" fill="url(#W)"/><path d="m353.98 277.43v19.42l15.84-9.71v-19.52z" fill="url(#X)"/><path d="m338.13 267.62v19.52l15.85-9.71v-19.52z" fill="url(#Y)" opacity=".5"/><path d="m353.98 257.91v19.52l15.84 9.71v-19.52z" fill="url(#Z)" opacity=".5"/><path d="m338.13 267.62v19.52l15.85 9.71v-19.42z" fill="url(#aa)"/><path d="m338.13 267.62 15.85 9.81 15.84-9.81-15.84-9.71z" fill="url(#ab)"/><path d="m200 361.54 10.14-6.21-10.14-6.22-10.14 6.22z" fill="url(#ac)"/><path d="m200 349.11v12.43l10.14-6.21v-12.49z" fill="url(#ad)"/><path d="m189.86 342.84v12.49l10.14-6.22v-12.49z" fill="url(#ae)" opacity=".5"/><path d="m200 336.62v12.49l10.14 6.22v-12.49z" fill="url(#af)" opacity=".5"/><path d="m189.86 342.84v12.49l10.14 6.21v-12.43z" fill="url(#ag)"/><path d="m189.86 342.84 10.14 6.27 10.14-6.27-10.14-6.22z" fill="url(#ah)"/><path d="m200 44.11 10.14-6.21-10.14-6.21-10.14 6.21z" fill="url(#ai)"/><path d="m200 31.69v12.42l10.14-6.21v-12.49z" fill="url(#aj)"/><path d="m189.86 25.41v12.49l10.14-6.21v-12.49z" fill="url(#ak)" opacity=".5"/><path d="m200 19.2v12.49l10.14 6.21v-12.49z" fill="url(#al)" opacity=".5"/><path d="m189.86 25.41v12.49l10.14 6.21v-12.42z" fill="url(#am)"/><path d="m189.86 25.41 10.14 6.28 10.14-6.28-10.14-6.21z" fill="url(#an)"/><g style="fill:none;stroke:#7d67db;stroke-dasharray:0 0 3 3;stroke-linecap:round;stroke-linejoin:round;stroke-width:2"><path d="m113.97 81.9 33.54 20.01" opacity=".5"/><path d="m57.35 206.49 40.48 24.14" opacity=".5"/><path d="m255 284.44 24.26 14.47" opacity=".5"/><path d="m300.11 233.29 43.03 28.86" opacity=".5"/><path d="m53.98 280.18 27.95 16.67 38.62-23.57" opacity=".5"/><path d="m205.02 34.76 27.87 17.41v34.34" opacity=".5"/><path d="m288.69 80.24-31.81 18.44v8.86" opacity=".5"/><path d="m350.09 205.6-31.8-17.37-18.18 11.29" opacity=".5"/><path d="m113.15 306.59 33.64-20.54" opacity=".5"/><path d="m207.14 339.22 33.64-20.53-19.61-12.17" opacity=".5"/></g></svg>