<?xml version="1.0" encoding="UTF-8"?><svg id="Ebene_1" xmlns="http://www.w3.org/2000/svg" xmlns:xlink="http://www.w3.org/1999/xlink" viewBox="0 0 400 400"><defs><style>.cls-1{fill:url(#Unbenannter_Verlauf_17-5);}.cls-2{fill:url(#Unbenannter_Verlauf_17-3);}.cls-3{fill:url(#Unbenannter_Verlauf_17-6);}.cls-3,.cls-4,.cls-5{opacity:.7;}.cls-4{fill:url(#Unbenannter_Verlauf_17-4);}.cls-5{fill:url(#Unbenannter_Verlauf_17-2);}.cls-6{fill:url(#Unbenannter_Verlauf_11);}.cls-6,.cls-7,.cls-8{opacity:.5;}.cls-7{fill:url(#Unbenannter_Verlauf_10);}.cls-8{fill:url(#Unbenannter_Verlauf_2);}.cls-9{fill:url(#Unbenannter_Verlauf_17);}.cls-10{fill:url(#Unbenannter_Verlauf_3);}.cls-11{fill:url(#Unbenannter_Verlauf_9);}.cls-12{fill:url(#Unbenannter_Verlauf_5);}.cls-13{fill:url(#Unbenannter_Verlauf);}</style><linearGradient id="Unbenannter_Verlauf_5" x1="-1672.3" y1="319.67" x2="-1672.42" y2="319.87" gradientTransform="translate(240955 35941) scale(144 -112)" gradientUnits="userSpaceOnUse"><stop offset="0" stop-color="#3119fe" stop-opacity="0"/><stop offset="1" stop-color="#533ffe" stop-opacity=".6"/></linearGradient><linearGradient id="Unbenannter_Verlauf" x1="-1676.21" y1="319.34" x2="-1676.21" y2="320.27" gradientTransform="translate(352204 41190) scale(210 -128)" gradientUnits="userSpaceOnUse"><stop offset="0" stop-color="#533ffe" stop-opacity=".4"/><stop offset="1" stop-color="#3119fe" stop-opacity="0"/></linearGradient><linearGradient id="Unbenannter_Verlauf_17" x1="154.9" y1="253.03" x2="245.21" y2="253.03" gradientUnits="userSpaceOnUse"><stop offset="0" stop-color="#533ffe"/><stop offset=".05" stop-color="#513dfe" stop-opacity=".95"/><stop offset=".71" stop-color="#3a23fe" stop-opacity=".27"/><stop offset="1" stop-color="#3119fe" stop-opacity="0"/></linearGradient><linearGradient id="Unbenannter_Verlauf_17-2" x1="154.9" y1="224.29" x2="245.21" y2="224.29" xlink:href="#Unbenannter_Verlauf_17"/><linearGradient id="Unbenannter_Verlauf_17-3" y1="214.79" y2="214.79" xlink:href="#Unbenannter_Verlauf_17"/><linearGradient id="Unbenannter_Verlauf_17-4" x1="154.9" y1="186.05" x2="245.21" y2="186.05" xlink:href="#Unbenannter_Verlauf_17"/><linearGradient id="Unbenannter_Verlauf_17-5" y1="176.54" y2="176.54" xlink:href="#Unbenannter_Verlauf_17"/><linearGradient id="Unbenannter_Verlauf_17-6" x1="154.9" y1="147.8" x2="245.21" y2="147.8" xlink:href="#Unbenannter_Verlauf_17"/><linearGradient id="Unbenannter_Verlauf_2" x1="-1667.95" y1="319.23" x2="-1667.95" y2="320.16" gradientTransform="translate(175384 61926) scale(105 -193)" gradientUnits="userSpaceOnUse"><stop offset="0" stop-color="#533ffe" stop-opacity=".8"/><stop offset=".11" stop-color="#523efe" stop-opacity=".78"/><stop offset=".25" stop-color="#4f3bfe" stop-opacity=".71"/><stop offset=".41" stop-color="#4b36fe" stop-opacity=".61"/><stop offset=".59" stop-color="#452ffe" stop-opacity=".46"/><stop offset=".77" stop-color="#3d26fe" stop-opacity=".28"/><stop offset=".96" stop-color="#331bfe" stop-opacity=".05"/><stop offset="1" stop-color="#3119fe" stop-opacity="0"/></linearGradient><linearGradient id="Unbenannter_Verlauf_3" x1="-1667.88" y1="319.2" x2="-1667.88" y2="320.14" gradientTransform="translate(175279 61861) scale(105 -193)" gradientUnits="userSpaceOnUse"><stop offset="0" stop-color="#533ffe" stop-opacity=".7"/><stop offset=".25" stop-color="#4b36fe" stop-opacity=".56"/><stop offset=".81" stop-color="#3821fe" stop-opacity=".22"/><stop offset="1" stop-color="#3119fe" stop-opacity=".1"/></linearGradient><linearGradient id="Unbenannter_Verlauf_9" x1="-1667.95" y1="319.2" x2="-1667.95" y2="320.14" gradientTransform="translate(175384 61861) scale(105 -193)" gradientUnits="userSpaceOnUse"><stop offset="0" stop-color="#3119fe" stop-opacity="0"/><stop offset="1" stop-color="#533ffe" stop-opacity=".4"/></linearGradient><linearGradient id="Unbenannter_Verlauf_10" x1="-1667.88" y1="319.23" x2="-1667.88" y2="320.16" gradientTransform="translate(175279 61926) scale(105 -193)" gradientUnits="userSpaceOnUse"><stop offset="0" stop-color="#533ffe" stop-opacity=".6"/><stop offset=".13" stop-color="#523efe" stop-opacity=".58"/><stop offset=".3" stop-color="#4e39fe" stop-opacity=".51"/><stop offset=".5" stop-color="#4832fe" stop-opacity=".4"/><stop offset=".71" stop-color="#3f29fe" stop-opacity=".25"/><stop offset=".94" stop-color="#341dfe" stop-opacity=".06"/><stop offset="1" stop-color="#3119fe" stop-opacity="0"/></linearGradient><linearGradient id="Unbenannter_Verlauf_11" x1="-1672.45" y1="319.35" x2="-1672.45" y2="320.28" gradientTransform="translate(241099 36006) scale(144 -112)" gradientUnits="userSpaceOnUse"><stop offset="0" stop-color="#533ffe" stop-opacity=".6"/><stop offset="1" stop-color="#3119fe" stop-opacity="0"/></linearGradient></defs><polygon id="Path" class="cls-12" points="69.84 179.26 102.26 134.54 200.05 74.64 166.98 119.92 69.84 179.26"/><g id="Page-1"><g id="D-START"><g id="ReadyToUse"><polyline id="Path-2" class="cls-13" points="200 314.8 297.74 254.91 200 195.02 102.26 254.91 200 314.8"/><path class="cls-9" d="m245.21,255.73s0,.01,0,.02c-.1,14.29-20.27,26.03-45.15,26.03s-45.05-11.74-45.15-26.03c0,0,0-.02,0-.02v-31.43s0,.01,0,.02c.1,14.29,20.27,26.03,45.15,26.03s45.05-11.74,45.15-26.03c0,0,0-.02,0-.02v31.43Z"/><path class="cls-5" d="m245.21,224.21c0,14.34-20.22,26.13-45.15,26.13s-45.15-11.8-45.15-26.13,20.22-25.96,45.15-25.96,45.15,11.62,45.15,25.96Z"/><path class="cls-2" d="m245.21,217.48s0,.01,0,.02c-.1,14.29-20.27,26.03-45.15,26.03s-45.05-11.74-45.15-26.03c0,0,0-.02,0-.02v-31.43s0,.01,0,.02c.1,14.29,20.27,26.03,45.15,26.03s45.05-11.74,45.15-26.03c0,0,0-.02,0-.02v31.43Z"/><path class="cls-4" d="m245.21,185.96c0,14.34-20.22,26.13-45.15,26.13s-45.15-11.8-45.15-26.13,20.22-25.96,45.15-25.96,45.15,11.62,45.15,25.96Z"/><path class="cls-1" d="m245.21,179.24s0,.01,0,.02c-.1,14.29-20.27,26.03-45.15,26.03s-45.05-11.74-45.15-26.03c0,0,0-.02,0-.02v-31.43s0,.01,0,.02c.1,14.29,20.27,26.03,45.15,26.03s45.05-11.74,45.15-26.03c0,0,0-.02,0-.02v31.43Z"/><path class="cls-3" d="m245.21,147.72c0,14.34-20.22,26.13-45.15,26.13s-45.15-11.8-45.15-26.13,20.22-25.96,45.15-25.96,45.15,11.62,45.15,25.96Z"/><polygon id="Path-3" class="cls-8" points="200 195.02 200 314.8 297.74 254.91 297.74 134.53 200 195.02"/><polygon id="Path-4" class="cls-10" points="102.26 134.54 102.26 254.91 200 195.02 200 74.64 102.26 134.54"/><polygon id="Path-5" class="cls-11" points="200 74.64 200 195.02 297.74 254.91 297.74 134.53 200 74.64"/><polygon id="Path-6" class="cls-7" points="102.26 134.54 102.26 254.91 200 314.8 200 195.02 102.26 134.54"/></g></g></g><polygon id="Path-7" class="cls-6" points="234.67 239.35 200.05 195 297.74 134.54 330.94 175.09 234.67 239.35"/></svg>