<?xml version="1.0" encoding="UTF-8"?><svg id="Ebene_1" xmlns="http://www.w3.org/2000/svg" xmlns:xlink="http://www.w3.org/1999/xlink" viewBox="0 0 400 400"><defs><style>.cls-1{fill:none;stroke:#7d67db;stroke-linecap:round;stroke-linejoin:round;stroke-width:2px;}.cls-1,.cls-2,.cls-3{opacity:.5;}.cls-2{fill:url(#Unbenannter_Verlauf_9);}.cls-3{fill:url(#Unbenannter_Verlauf_3);}.cls-4{fill:url(#Unbenannter_Verlauf_3-2);}.cls-5{fill:url(#Unbenannter_Verlauf_10);}.cls-6{fill:url(#Unbenannter_Verlauf_2);}.cls-7{fill:url(#Unbenannter_Verlauf);}</style><linearGradient id="Unbenannter_Verlauf" x1="-840.21" y1="319.34" x2="-840.21" y2="320.27" gradientTransform="translate(176644 41190) scale(210 -128)" gradientUnits="userSpaceOnUse"><stop offset="0" stop-color="#533ffe" stop-opacity=".4"/><stop offset="1" stop-color="#3119fe" stop-opacity="0"/></linearGradient><linearGradient id="Unbenannter_Verlauf_2" x1="-835.95" y1="319.23" x2="-835.95" y2="320.16" gradientTransform="translate(88024 61926) scale(105 -193)" gradientUnits="userSpaceOnUse"><stop offset="0" stop-color="#533ffe" stop-opacity=".8"/><stop offset=".11" stop-color="#523efe" stop-opacity=".78"/><stop offset=".25" stop-color="#4f3bfe" stop-opacity=".71"/><stop offset=".41" stop-color="#4b36fe" stop-opacity=".61"/><stop offset=".59" stop-color="#452ffe" stop-opacity=".46"/><stop offset=".77" stop-color="#3d26fe" stop-opacity=".28"/><stop offset=".96" stop-color="#331bfe" stop-opacity=".05"/><stop offset="1" stop-color="#3119fe" stop-opacity="0"/></linearGradient><linearGradient id="Unbenannter_Verlauf_3" x1="-835.88" y1="319.2" x2="-835.88" y2="320.14" gradientTransform="translate(87919 61861) scale(105 -193)" gradientUnits="userSpaceOnUse"><stop offset="0" stop-color="#533ffe" stop-opacity=".7"/><stop offset=".25" stop-color="#4b36fe" stop-opacity=".56"/><stop offset=".81" stop-color="#3821fe" stop-opacity=".22"/><stop offset="1" stop-color="#3119fe" stop-opacity=".1"/></linearGradient><linearGradient id="Unbenannter_Verlauf_9" x1="-835.95" y1="319.2" x2="-835.95" y2="320.14" gradientTransform="translate(88024 61861) scale(105 -193)" gradientUnits="userSpaceOnUse"><stop offset="0" stop-color="#3119fe" stop-opacity="0"/><stop offset="1" stop-color="#533ffe" stop-opacity=".4"/></linearGradient><linearGradient id="Unbenannter_Verlauf_10" x1="-835.88" y1="319.23" x2="-835.88" y2="320.16" gradientTransform="translate(87919 61926) scale(105 -193)" gradientUnits="userSpaceOnUse"><stop offset="0" stop-color="#533ffe" stop-opacity=".6"/><stop offset=".13" stop-color="#523efe" stop-opacity=".58"/><stop offset=".3" stop-color="#4e39fe" stop-opacity=".51"/><stop offset=".5" stop-color="#4832fe" stop-opacity=".4"/><stop offset=".71" stop-color="#3f29fe" stop-opacity=".25"/><stop offset=".94" stop-color="#341dfe" stop-opacity=".06"/><stop offset="1" stop-color="#3119fe" stop-opacity="0"/></linearGradient><linearGradient id="Unbenannter_Verlauf_3-2" x1="-835.42" y1="319.51" x2="-835.42" xlink:href="#Unbenannter_Verlauf_3"/></defs><g id="Page-1"><g id="D-START"><g id="ReadyToUse"><polyline id="Path" class="cls-7" points="200 314.8 297.74 254.91 200 195.02 102.26 254.91 200 314.8"/><polygon id="Path-2" class="cls-6" points="200 195.02 200 314.8 297.74 254.91 297.74 134.53 200 195.02"/><polygon id="Path-3" class="cls-3" points="102.26 134.54 102.26 254.91 200 195.02 200 74.64 102.26 134.54"/><polygon id="Path-4" class="cls-2" points="200 74.64 200 195.02 297.74 254.91 297.74 134.53 200 74.64"/><polygon id="Path-5" class="cls-5" points="102.26 134.54 102.26 254.91 200 314.8 200 195.02 102.26 134.54"/><polyline id="Path-6" class="cls-1" points="87.27 264.95 200 334.03 312.73 264.95"/></g></g></g><polygon id="Path-7" class="cls-4" points="102.26 134.54 200 195.02 297.74 134.53 200 74.64 102.26 134.54"/><line class="cls-1" x1="95.92" y1="305.93" x2="95.92" y2="334.03"/><polyline id="Path-8" class="cls-1" points="107.3 315.15 95.92 305.93 84.55 315.15"/><line class="cls-1" x1="309.12" y1="334.03" x2="309.12" y2="305.93"/><polyline id="Path-9" class="cls-1" points="297.74 324.8 309.12 334.03 320.49 324.8"/></svg>