<svg viewBox="0 0 400 400" xmlns="http://www.w3.org/2000/svg" xmlns:xlink="http://www.w3.org/1999/xlink"><linearGradient id="a" gradientTransform="matrix(210 0 0 -128 176644 41190)" gradientUnits="userSpaceOnUse" x1="-840.21" x2="-840.21" y1="319.34" y2="320.27"><stop offset="0" stop-color="#533ffe" stop-opacity=".4"/><stop offset="1" stop-color="#3119fe" stop-opacity="0"/></linearGradient><linearGradient id="b" gradientTransform="matrix(105 0 0 -193 88024 61926)" gradientUnits="userSpaceOnUse" x1="-835.95" x2="-835.95" y1="319.23" y2="320.16"><stop offset="0" stop-color="#533ffe" stop-opacity=".8"/><stop offset=".11" stop-color="#523efe" stop-opacity=".78"/><stop offset=".25" stop-color="#4f3bfe" stop-opacity=".71"/><stop offset=".41" stop-color="#4b36fe" stop-opacity=".61"/><stop offset=".59" stop-color="#452ffe" stop-opacity=".46"/><stop offset=".77" stop-color="#3d26fe" stop-opacity=".28"/><stop offset=".96" stop-color="#331bfe" stop-opacity=".05"/><stop offset="1" stop-color="#3119fe" stop-opacity="0"/></linearGradient><linearGradient id="c" gradientTransform="matrix(105 0 0 -193 87919 61861)" gradientUnits="userSpaceOnUse" x1="-835.88" x2="-835.88" y1="319.2" y2="320.14"><stop offset="0" stop-color="#533ffe" stop-opacity=".7"/><stop offset=".25" stop-color="#4b36fe" stop-opacity=".56"/><stop offset=".81" stop-color="#3821fe" stop-opacity=".22"/><stop offset="1" stop-color="#3119fe" stop-opacity=".1"/></linearGradient><linearGradient id="d" gradientTransform="matrix(105 0 0 -193 88024 61861)" gradientUnits="userSpaceOnUse" x1="-835.95" x2="-835.95" y1="319.2" y2="320.14"><stop offset="0" stop-color="#3119fe" stop-opacity="0"/><stop offset="1" stop-color="#533ffe" stop-opacity=".4"/></linearGradient><linearGradient id="e" gradientTransform="matrix(105 0 0 -193 87919 61926)" gradientUnits="userSpaceOnUse" x1="-835.88" x2="-835.88" y1="319.23" y2="320.16"><stop offset="0" stop-color="#533ffe" stop-opacity=".6"/><stop offset=".13" stop-color="#523efe" stop-opacity=".58"/><stop offset=".3" stop-color="#4e39fe" stop-opacity=".51"/><stop offset=".5" stop-color="#4832fe" stop-opacity=".4"/><stop offset=".71" stop-color="#3f29fe" stop-opacity=".25"/><stop offset=".94" stop-color="#341dfe" stop-opacity=".06"/><stop offset="1" stop-color="#3119fe" stop-opacity="0"/></linearGradient><linearGradient id="f" x1="-835.42" x2="-835.42" xlink:href="#c" y1="319.51"/><path d="m200 314.8 97.74-59.89-97.74-59.89-97.74 59.89z" fill="url(#a)"/><path d="m200 195.02v119.78l97.74-59.89v-120.38z" fill="url(#b)"/><path d="m102.26 134.54v120.37l97.74-59.89v-120.38z" fill="url(#c)" opacity=".5"/><path d="m200 74.64v120.38l97.74 59.89v-120.38z" fill="url(#d)" opacity=".5"/><path d="m102.26 134.54v120.37l97.74 59.89v-119.78z" fill="url(#e)"/><path d="m87.27 264.95 112.73 69.08 112.73-69.08" style="fill:none;stroke:#7d67db;stroke-linecap:round;stroke-linejoin:round;stroke-width:2;opacity:.5"/><path d="m102.26 134.54 97.74 60.48 97.74-60.49-97.74-59.89z" fill="url(#f)"/><g fill="none" stroke="#7d67db" stroke-linecap="round" stroke-linejoin="round" stroke-width="2"><path d="m95.92 305.93v28.1" opacity=".5"/><path d="m107.3 315.15-11.38-9.22-11.37 9.22" opacity=".5"/><path d="m309.12 334.03v-28.1" opacity=".5"/><path d="m297.74 324.8 11.38 9.23 11.37-9.23" opacity=".5"/></g></svg>