<svg viewBox="0 0 400 400" xmlns="http://www.w3.org/2000/svg" xmlns:xlink="http://www.w3.org/1999/xlink"><linearGradient id="a" gradientTransform="matrix(144 0 0 -112 240955 35941)" gradientUnits="userSpaceOnUse" x1="-1672.3" x2="-1672.42" y1="319.67" y2="319.87"><stop offset="0" stop-color="#3119fe" stop-opacity="0"/><stop offset="1" stop-color="#533ffe" stop-opacity=".6"/></linearGradient><linearGradient id="b" gradientTransform="matrix(210 0 0 -128 352204 41190)" gradientUnits="userSpaceOnUse" x1="-1676.21" x2="-1676.21" y1="319.34" y2="320.27"><stop offset="0" stop-color="#533ffe" stop-opacity=".4"/><stop offset="1" stop-color="#3119fe" stop-opacity="0"/></linearGradient><linearGradient id="c" gradientUnits="userSpaceOnUse" x1="154.9" x2="245.21" y1="253.03" y2="253.03"><stop offset="0" stop-color="#533ffe"/><stop offset=".05" stop-color="#513dfe" stop-opacity=".95"/><stop offset=".71" stop-color="#3a23fe" stop-opacity=".27"/><stop offset="1" stop-color="#3119fe" stop-opacity="0"/></linearGradient><linearGradient id="d" x1="154.9" x2="245.21" xlink:href="#c" y1="224.29" y2="224.29"/><linearGradient id="e" xlink:href="#c" y1="214.79" y2="214.79"/><linearGradient id="f" x1="154.9" x2="245.21" xlink:href="#c" y1="186.05" y2="186.05"/><linearGradient id="g" xlink:href="#c" y1="176.54" y2="176.54"/><linearGradient id="h" x1="154.9" x2="245.21" xlink:href="#c" y1="147.8" y2="147.8"/><linearGradient id="i" gradientTransform="matrix(105 0 0 -193 175384 61926)" gradientUnits="userSpaceOnUse" x1="-1667.95" x2="-1667.95" y1="319.23" y2="320.16"><stop offset="0" stop-color="#533ffe" stop-opacity=".8"/><stop offset=".11" stop-color="#523efe" stop-opacity=".78"/><stop offset=".25" stop-color="#4f3bfe" stop-opacity=".71"/><stop offset=".41" stop-color="#4b36fe" stop-opacity=".61"/><stop offset=".59" stop-color="#452ffe" stop-opacity=".46"/><stop offset=".77" stop-color="#3d26fe" stop-opacity=".28"/><stop offset=".96" stop-color="#331bfe" stop-opacity=".05"/><stop offset="1" stop-color="#3119fe" stop-opacity="0"/></linearGradient><linearGradient id="j" gradientTransform="matrix(105 0 0 -193 175279 61861)" gradientUnits="userSpaceOnUse" x1="-1667.88" x2="-1667.88" y1="319.2" y2="320.14"><stop offset="0" stop-color="#533ffe" stop-opacity=".7"/><stop offset=".25" stop-color="#4b36fe" stop-opacity=".56"/><stop offset=".81" stop-color="#3821fe" stop-opacity=".22"/><stop offset="1" stop-color="#3119fe" stop-opacity=".1"/></linearGradient><linearGradient id="k" gradientTransform="matrix(105 0 0 -193 175384 61861)" gradientUnits="userSpaceOnUse" x1="-1667.95" x2="-1667.95" y1="319.2" y2="320.14"><stop offset="0" stop-color="#3119fe" stop-opacity="0"/><stop offset="1" stop-color="#533ffe" stop-opacity=".4"/></linearGradient><linearGradient id="l" gradientTransform="matrix(105 0 0 -193 175279 61926)" gradientUnits="userSpaceOnUse" x1="-1667.88" x2="-1667.88" y1="319.23" y2="320.16"><stop offset="0" stop-color="#533ffe" stop-opacity=".6"/><stop offset=".13" stop-color="#523efe" stop-opacity=".58"/><stop offset=".3" stop-color="#4e39fe" stop-opacity=".51"/><stop offset=".5" stop-color="#4832fe" stop-opacity=".4"/><stop offset=".71" stop-color="#3f29fe" stop-opacity=".25"/><stop offset=".94" stop-color="#341dfe" stop-opacity=".06"/><stop offset="1" stop-color="#3119fe" stop-opacity="0"/></linearGradient><linearGradient id="m" gradientTransform="matrix(144 0 0 -112 241099 36006)" gradientUnits="userSpaceOnUse" x1="-1672.45" x2="-1672.45" y1="319.35" y2="320.28"><stop offset="0" stop-color="#533ffe" stop-opacity=".6"/><stop offset="1" stop-color="#3119fe" stop-opacity="0"/></linearGradient><path d="m69.84 179.26 32.42-44.72 97.79-59.9-33.07 45.28z" fill="url(#a)"/><path d="m200 314.8 97.74-59.89-97.74-59.89-97.74 59.89z" fill="url(#b)"/><path d="m245.21 255.73s0 .01 0 .02c-.1 14.29-20.27 26.03-45.15 26.03s-45.05-11.74-45.15-26.03v-.02-31.43s0 .01 0 .02c.1 14.29 20.27 26.03 45.15 26.03s45.05-11.74 45.15-26.03v-.02z" fill="url(#c)"/><path d="m245.21 224.21c0 14.34-20.22 26.13-45.15 26.13s-45.15-11.8-45.15-26.13 20.22-25.96 45.15-25.96 45.15 11.62 45.15 25.96z" fill="url(#d)" opacity=".7"/><path d="m245.21 217.48s0 .01 0 .02c-.1 14.29-20.27 26.03-45.15 26.03s-45.05-11.74-45.15-26.03v-.02-31.43s0 .01 0 .02c.1 14.29 20.27 26.03 45.15 26.03s45.05-11.74 45.15-26.03v-.02z" fill="url(#e)"/><path d="m245.21 185.96c0 14.34-20.22 26.13-45.15 26.13s-45.15-11.8-45.15-26.13 20.22-25.96 45.15-25.96 45.15 11.62 45.15 25.96z" fill="url(#f)" opacity=".7"/><path d="m245.21 179.24s0 .01 0 .02c-.1 14.29-20.27 26.03-45.15 26.03s-45.05-11.74-45.15-26.03v-.02-31.43s0 .01 0 .02c.1 14.29 20.27 26.03 45.15 26.03s45.05-11.74 45.15-26.03v-.02z" fill="url(#g)"/><path d="m245.21 147.72c0 14.34-20.22 26.13-45.15 26.13s-45.15-11.8-45.15-26.13 20.22-25.96 45.15-25.96 45.15 11.62 45.15 25.96z" fill="url(#h)" opacity=".7"/><path d="m200 195.02v119.78l97.74-59.89v-120.38z" fill="url(#i)" opacity=".5"/><path d="m102.26 134.54v120.37l97.74-59.89v-120.38z" fill="url(#j)"/><path d="m200 74.64v120.38l97.74 59.89v-120.38z" fill="url(#k)"/><path d="m102.26 134.54v120.37l97.74 59.89v-119.78z" fill="url(#l)" opacity=".5"/><path d="m234.67 239.35-34.62-44.35 97.69-60.46 33.2 40.55z" fill="url(#m)" opacity=".5"/></svg>