<?xml version="1.0" encoding="UTF-8"?><svg id="Ebene_1" xmlns="http://www.w3.org/2000/svg" xmlns:xlink="http://www.w3.org/1999/xlink" viewBox="0 0 400 400"><defs><style>.cls-1{fill:url(#Unbenannter_Verlauf_10-10);}.cls-2{fill:url(#Unbenannter_Verlauf_10-9);}.cls-3{fill:url(#Unbenannter_Verlauf_10-6);}.cls-4{fill:url(#Unbenannter_Verlauf_10-5);}.cls-5{fill:url(#Unbenannter_Verlauf_10-3);}.cls-6{fill:url(#Unbenannter_Verlauf_10-2);}.cls-7{fill:url(#Unbenannter_Verlauf_10-4);}.cls-8{fill:url(#Unbenannter_Verlauf_10-8);}.cls-9{fill:url(#Unbenannter_Verlauf_10-7);}.cls-10{fill:url(#Unbenannter_Verlauf_3-18);}.cls-11{fill:url(#Unbenannter_Verlauf_3-14);}.cls-12{fill:url(#Unbenannter_Verlauf_3-12);}.cls-13{fill:url(#Unbenannter_Verlauf_3-10);}.cls-14{fill:url(#Unbenannter_Verlauf_3-16);}.cls-15{fill:url(#Unbenannter_Verlauf_3-20);}.cls-16{fill:url(#Unbenannter_Verlauf_2-10);}.cls-17{fill:url(#Unbenannter_Verlauf_17-5);}.cls-18{fill:url(#Unbenannter_Verlauf_17-3);}.cls-19{fill:url(#Unbenannter_Verlauf_9-10);}.cls-19,.cls-20,.cls-21,.cls-22,.cls-23,.cls-24,.cls-25,.cls-26,.cls-27,.cls-28,.cls-29,.cls-30,.cls-31,.cls-32,.cls-33,.cls-34,.cls-35,.cls-36,.cls-37,.cls-38,.cls-39{opacity:.5;}.cls-20{fill:url(#Unbenannter_Verlauf_3-19);}.cls-21{fill:url(#Unbenannter_Verlauf_3-11);}.cls-22{fill:url(#Unbenannter_Verlauf_3-13);}.cls-23{fill:url(#Unbenannter_Verlauf_3-17);}.cls-24{fill:url(#Unbenannter_Verlauf_3-15);}.cls-40{fill:url(#Unbenannter_Verlauf_17-6);}.cls-40,.cls-41,.cls-42{opacity:.7;}.cls-41{fill:url(#Unbenannter_Verlauf_17-4);}.cls-42{fill:url(#Unbenannter_Verlauf_17-2);}.cls-25{fill:none;stroke:#7d67db;stroke-dasharray:0 0 3 3;stroke-linecap:round;stroke-linejoin:round;stroke-width:2px;}.cls-26{fill:url(#Unbenannter_Verlauf_9);}.cls-27{fill:url(#Unbenannter_Verlauf_3);}.cls-43{fill:url(#Unbenannter_Verlauf_2-7);}.cls-44{fill:url(#Unbenannter_Verlauf_2-9);}.cls-45{fill:url(#Unbenannter_Verlauf_2-6);}.cls-46{fill:url(#Unbenannter_Verlauf_2-8);}.cls-47{fill:url(#Unbenannter_Verlauf_2-3);}.cls-48{fill:url(#Unbenannter_Verlauf_2-5);}.cls-49{fill:url(#Unbenannter_Verlauf_2-2);}.cls-50{fill:url(#Unbenannter_Verlauf_2-4);}.cls-51{fill:url(#Unbenannter_Verlauf_3-4);}.cls-52{fill:url(#Unbenannter_Verlauf_3-2);}.cls-53{fill:url(#Unbenannter_Verlauf_3-8);}.cls-54{fill:url(#Unbenannter_Verlauf_3-6);}.cls-55{fill:url(#Unbenannter_Verlauf-10);}.cls-56{fill:url(#Unbenannter_Verlauf_17);}.cls-57{fill:url(#Unbenannter_Verlauf_10);}.cls-28{fill:url(#Unbenannter_Verlauf_9-4);}.cls-29{fill:url(#Unbenannter_Verlauf_9-8);}.cls-30{fill:url(#Unbenannter_Verlauf_9-5);}.cls-31{fill:url(#Unbenannter_Verlauf_9-3);}.cls-32{fill:url(#Unbenannter_Verlauf_9-2);}.cls-33{fill:url(#Unbenannter_Verlauf_9-9);}.cls-34{fill:url(#Unbenannter_Verlauf_9-6);}.cls-35{fill:url(#Unbenannter_Verlauf_9-7);}.cls-36{fill:url(#Unbenannter_Verlauf_3-9);}.cls-37{fill:url(#Unbenannter_Verlauf_3-5);}.cls-38{fill:url(#Unbenannter_Verlauf_3-7);}.cls-39{fill:url(#Unbenannter_Verlauf_3-3);}.cls-58{fill:url(#Unbenannter_Verlauf_2);}.cls-59{fill:url(#Unbenannter_Verlauf-4);}.cls-60{fill:url(#Unbenannter_Verlauf-5);}.cls-61{fill:url(#Unbenannter_Verlauf-6);}.cls-62{fill:url(#Unbenannter_Verlauf-7);}.cls-63{fill:url(#Unbenannter_Verlauf-8);}.cls-64{fill:url(#Unbenannter_Verlauf-3);}.cls-65{fill:url(#Unbenannter_Verlauf-2);}.cls-66{fill:url(#Unbenannter_Verlauf-9);}.cls-67{fill:url(#Unbenannter_Verlauf);}</style><linearGradient id="Unbenannter_Verlauf_17" x1="160.02" y1="253.03" x2="250.33" y2="253.03" gradientUnits="userSpaceOnUse"><stop offset="0" stop-color="#533ffe"/><stop offset=".05" stop-color="#513dfe" stop-opacity=".95"/><stop offset=".71" stop-color="#3a23fe" stop-opacity=".27"/><stop offset="1" stop-color="#3119fe" stop-opacity="0"/></linearGradient><linearGradient id="Unbenannter_Verlauf_17-2" x1="160.02" y1="224.29" x2="250.33" y2="224.29" xlink:href="#Unbenannter_Verlauf_17"/><linearGradient id="Unbenannter_Verlauf_17-3" y1="214.79" y2="214.79" xlink:href="#Unbenannter_Verlauf_17"/><linearGradient id="Unbenannter_Verlauf_17-4" x1="160.02" y1="186.05" x2="250.33" y2="186.05" xlink:href="#Unbenannter_Verlauf_17"/><linearGradient id="Unbenannter_Verlauf_17-5" y1="176.54" y2="176.54" xlink:href="#Unbenannter_Verlauf_17"/><linearGradient id="Unbenannter_Verlauf_17-6" x1="160.02" y1="147.8" x2="250.33" y2="147.8" xlink:href="#Unbenannter_Verlauf_17"/><linearGradient id="Unbenannter_Verlauf" x1="-2930.67" y1="320.94" x2="-2930.67" y2="321.21" gradientTransform="translate(615544 41190) scale(210 -128)" gradientUnits="userSpaceOnUse"><stop offset="0" stop-color="#533ffe" stop-opacity=".4"/><stop offset="1" stop-color="#3119fe" stop-opacity="0"/></linearGradient><linearGradient id="Unbenannter_Verlauf_2" x1="-2917.2" y1="320.29" x2="-2917.2" y2="320.56" gradientTransform="translate(306424 61926) scale(105 -193)" gradientUnits="userSpaceOnUse"><stop offset="0" stop-color="#533ffe" stop-opacity=".8"/><stop offset=".11" stop-color="#523efe" stop-opacity=".78"/><stop offset=".25" stop-color="#4f3bfe" stop-opacity=".71"/><stop offset=".41" stop-color="#4b36fe" stop-opacity=".61"/><stop offset=".59" stop-color="#452ffe" stop-opacity=".46"/><stop offset=".77" stop-color="#3d26fe" stop-opacity=".28"/><stop offset=".96" stop-color="#331bfe" stop-opacity=".05"/><stop offset="1" stop-color="#3119fe" stop-opacity="0"/></linearGradient><linearGradient id="Unbenannter_Verlauf_3" x1="-2916.47" y1="320.05" x2="-2916.47" y2="320.32" gradientTransform="translate(306319 61861) scale(105 -193)" gradientUnits="userSpaceOnUse"><stop offset="0" stop-color="#533ffe" stop-opacity=".7"/><stop offset=".25" stop-color="#4b36fe" stop-opacity=".56"/><stop offset=".81" stop-color="#3821fe" stop-opacity=".22"/><stop offset="1" stop-color="#3119fe" stop-opacity=".1"/></linearGradient><linearGradient id="Unbenannter_Verlauf_9" x1="-2917.2" y1="320.05" x2="-2917.2" y2="320.32" gradientTransform="translate(306424 61861) scale(105 -193)" gradientUnits="userSpaceOnUse"><stop offset="0" stop-color="#3119fe" stop-opacity="0"/><stop offset="1" stop-color="#533ffe" stop-opacity=".4"/></linearGradient><linearGradient id="Unbenannter_Verlauf_10" x1="-2916.47" y1="320.29" x2="-2916.47" y2="320.56" gradientTransform="translate(306319 61926) scale(105 -193)" gradientUnits="userSpaceOnUse"><stop offset="0" stop-color="#533ffe" stop-opacity=".6"/><stop offset=".13" stop-color="#523efe" stop-opacity=".58"/><stop offset=".3" stop-color="#4e39fe" stop-opacity=".51"/><stop offset=".5" stop-color="#4832fe" stop-opacity=".4"/><stop offset=".71" stop-color="#3f29fe" stop-opacity=".25"/><stop offset=".94" stop-color="#341dfe" stop-opacity=".06"/><stop offset="1" stop-color="#3119fe" stop-opacity="0"/></linearGradient><linearGradient id="Unbenannter_Verlauf_3-2" x1="-2916.33" y1="320.14" x2="-2916.33" xlink:href="#Unbenannter_Verlauf_3"/><linearGradient id="Unbenannter_Verlauf-2" x1="-2929.74" y1="321.04" x2="-2929.74" y2="321.21" xlink:href="#Unbenannter_Verlauf"/><linearGradient id="Unbenannter_Verlauf_2-2" x1="-2915.38" y1="320.36" x2="-2915.38" y2="320.53" xlink:href="#Unbenannter_Verlauf_2"/><linearGradient id="Unbenannter_Verlauf_3-3" x1="-2914.56" y1="320.08" x2="-2914.56" y2="320.25" xlink:href="#Unbenannter_Verlauf_3"/><linearGradient id="Unbenannter_Verlauf_9-2" x1="-2915.38" y1="320.08" x2="-2915.38" y2="320.25" xlink:href="#Unbenannter_Verlauf_9"/><linearGradient id="Unbenannter_Verlauf_10-2" x1="-2914.56" y1="320.36" x2="-2914.56" y2="320.53" xlink:href="#Unbenannter_Verlauf_10"/><linearGradient id="Unbenannter_Verlauf_3-4" x1="-2914.47" y1="320.14" x2="-2914.47" y2="320.25" xlink:href="#Unbenannter_Verlauf_3"/><linearGradient id="Unbenannter_Verlauf-3" y1="319.08" y2="319.25" xlink:href="#Unbenannter_Verlauf"/><linearGradient id="Unbenannter_Verlauf_2-3" x1="-2917.25" y1="319.06" x2="-2917.25" y2="319.23" xlink:href="#Unbenannter_Verlauf_2"/><linearGradient id="Unbenannter_Verlauf_3-5" x1="-2916.42" y1="318.78" x2="-2916.42" y2="318.95" xlink:href="#Unbenannter_Verlauf_3"/><linearGradient id="Unbenannter_Verlauf_9-3" x1="-2917.25" y1="318.78" x2="-2917.25" y2="318.95" xlink:href="#Unbenannter_Verlauf_9"/><linearGradient id="Unbenannter_Verlauf_10-3" x1="-2916.42" y1="319.06" x2="-2916.42" y2="319.23" xlink:href="#Unbenannter_Verlauf_10"/><linearGradient id="Unbenannter_Verlauf_3-6" x1="-2916.33" y1="318.84" x2="-2916.33" y2="318.95" xlink:href="#Unbenannter_Verlauf_3"/><linearGradient id="Unbenannter_Verlauf-4" x1="-2929.74" y1="318.98" x2="-2929.74" y2="319.25" xlink:href="#Unbenannter_Verlauf"/><linearGradient id="Unbenannter_Verlauf_2-4" x1="-2915.34" y1="318.99" x2="-2915.34" y2="319.26" xlink:href="#Unbenannter_Verlauf_2"/><linearGradient id="Unbenannter_Verlauf_3-7" x1="-2914.61" y1="318.75" x2="-2914.61" y2="319.02" xlink:href="#Unbenannter_Verlauf_3"/><linearGradient id="Unbenannter_Verlauf_9-4" x1="-2915.34" y1="318.75" x2="-2915.34" y2="319.02" xlink:href="#Unbenannter_Verlauf_9"/><linearGradient id="Unbenannter_Verlauf_10-4" x1="-2914.61" y1="318.99" x2="-2914.61" y2="319.26" xlink:href="#Unbenannter_Verlauf_10"/><linearGradient id="Unbenannter_Verlauf_3-8" x1="-2914.47" y1="318.84" x2="-2914.47" y2="319.02" xlink:href="#Unbenannter_Verlauf_3"/><linearGradient id="Unbenannter_Verlauf-5" x1="-2929.45" y1="320.06" x2="-2929.45" y2="320.23" xlink:href="#Unbenannter_Verlauf"/><linearGradient id="Unbenannter_Verlauf_2-5" x1="-2914.82" y1="319.71" x2="-2914.82" y2="319.88" xlink:href="#Unbenannter_Verlauf_2"/><linearGradient id="Unbenannter_Verlauf_3-9" x1="-2913.99" y1="319.43" x2="-2913.99" y2="319.6" xlink:href="#Unbenannter_Verlauf_3"/><linearGradient id="Unbenannter_Verlauf_9-5" x1="-2914.82" y1="319.43" x2="-2914.82" y2="319.6" xlink:href="#Unbenannter_Verlauf_9"/><linearGradient id="Unbenannter_Verlauf_10-5" x1="-2913.99" y1="319.71" x2="-2913.99" y2="319.88" xlink:href="#Unbenannter_Verlauf_10"/><linearGradient id="Unbenannter_Verlauf_3-10" x1="-2913.9" y1="319.49" x2="-2913.9" y2="319.6" xlink:href="#Unbenannter_Verlauf_3"/><linearGradient id="Unbenannter_Verlauf-6" x1="-2930.92" y1="320.06" x2="-2930.92" y2="320.23" xlink:href="#Unbenannter_Verlauf"/><linearGradient id="Unbenannter_Verlauf_2-6" x1="-2917.75" y1="319.71" x2="-2917.75" y2="319.88" xlink:href="#Unbenannter_Verlauf_2"/><linearGradient id="Unbenannter_Verlauf_3-11" x1="-2916.92" y1="319.43" x2="-2916.92" y2="319.6" xlink:href="#Unbenannter_Verlauf_3"/><linearGradient id="Unbenannter_Verlauf_9-6" x1="-2917.75" y1="319.43" x2="-2917.75" y2="319.6" xlink:href="#Unbenannter_Verlauf_9"/><linearGradient id="Unbenannter_Verlauf_10-6" x1="-2916.92" y1="319.71" x2="-2916.92" y2="319.88" xlink:href="#Unbenannter_Verlauf_10"/><linearGradient id="Unbenannter_Verlauf_3-12" x1="-2916.84" y1="319.49" x2="-2916.84" y2="319.6" xlink:href="#Unbenannter_Verlauf_3"/><linearGradient id="Unbenannter_Verlauf-7" x1="-2930.92" y1="319.54" x2="-2930.92" y2="319.63" xlink:href="#Unbenannter_Verlauf"/><linearGradient id="Unbenannter_Verlauf_2-7" x1="-2917.79" y1="319.36" x2="-2917.79" y2="319.45" xlink:href="#Unbenannter_Verlauf_2"/><linearGradient id="Unbenannter_Verlauf_3-13" x1="-2916.88" y1="319.06" x2="-2916.88" y2="319.14" xlink:href="#Unbenannter_Verlauf_3"/><linearGradient id="Unbenannter_Verlauf_9-7" x1="-2917.79" y1="319.06" x2="-2917.79" y2="319.14" xlink:href="#Unbenannter_Verlauf_9"/><linearGradient id="Unbenannter_Verlauf_10-7" x1="-2916.88" y1="319.36" x2="-2916.88" y2="319.45" xlink:href="#Unbenannter_Verlauf_10"/><linearGradient id="Unbenannter_Verlauf_3-14" x1="-2916.84" y1="319.09" x2="-2916.84" y2="319.14" xlink:href="#Unbenannter_Verlauf_3"/><linearGradient id="Unbenannter_Verlauf-8" x1="-2929.47" y1="319.48" x2="-2929.47" y2="319.63" xlink:href="#Unbenannter_Verlauf"/><linearGradient id="Unbenannter_Verlauf_2-8" x1="-2914.86" y1="319.32" x2="-2914.86" y2="319.47" xlink:href="#Unbenannter_Verlauf_2"/><linearGradient id="Unbenannter_Verlauf_3-15" x1="-2914.01" y1="319.04" x2="-2914.01" y2="319.19" xlink:href="#Unbenannter_Verlauf_3"/><linearGradient id="Unbenannter_Verlauf_9-8" x1="-2914.86" y1="319.04" x2="-2914.86" y2="319.19" xlink:href="#Unbenannter_Verlauf_9"/><linearGradient id="Unbenannter_Verlauf_10-8" x1="-2914.01" y1="319.32" x2="-2914.01" y2="319.47" xlink:href="#Unbenannter_Verlauf_10"/><linearGradient id="Unbenannter_Verlauf_3-16" x1="-2913.94" y1="319.09" x2="-2913.94" y2="319.19" xlink:href="#Unbenannter_Verlauf_3"/><linearGradient id="Unbenannter_Verlauf-9" x1="-2930.2" y1="318.97" x2="-2930.2" y2="319.07" xlink:href="#Unbenannter_Verlauf"/><linearGradient id="Unbenannter_Verlauf_2-9" x1="-2916.35" y1="318.99" x2="-2916.35" y2="319.08" xlink:href="#Unbenannter_Verlauf_2"/><linearGradient id="Unbenannter_Verlauf_3-17" x1="-2915.45" y1="318.68" x2="-2915.45" y2="318.78" xlink:href="#Unbenannter_Verlauf_3"/><linearGradient id="Unbenannter_Verlauf_9-9" x1="-2916.35" y1="318.68" x2="-2916.35" y2="318.78" xlink:href="#Unbenannter_Verlauf_9"/><linearGradient id="Unbenannter_Verlauf_10-9" x1="-2915.45" y1="318.99" x2="-2915.45" y2="319.08" xlink:href="#Unbenannter_Verlauf_10"/><linearGradient id="Unbenannter_Verlauf_3-18" x1="-2915.4" y1="318.71" x2="-2915.4" y2="318.78" xlink:href="#Unbenannter_Verlauf_3"/><linearGradient id="Unbenannter_Verlauf-10" x1="-2930.2" y1="321.45" x2="-2930.2" y2="321.55" xlink:href="#Unbenannter_Verlauf"/><linearGradient id="Unbenannter_Verlauf_2-10" x1="-2916.35" y1="320.63" x2="-2916.35" y2="320.73" xlink:href="#Unbenannter_Verlauf_2"/><linearGradient id="Unbenannter_Verlauf_3-19" x1="-2915.45" y1="320.33" x2="-2915.45" y2="320.42" xlink:href="#Unbenannter_Verlauf_3"/><linearGradient id="Unbenannter_Verlauf_9-10" x1="-2916.35" y1="320.33" x2="-2916.35" y2="320.42" xlink:href="#Unbenannter_Verlauf_9"/><linearGradient id="Unbenannter_Verlauf_10-10" x1="-2915.45" y1="320.63" x2="-2915.45" y2="320.73" xlink:href="#Unbenannter_Verlauf_10"/><linearGradient id="Unbenannter_Verlauf_3-20" x1="-2915.4" y1="320.36" x2="-2915.4" y2="320.42" xlink:href="#Unbenannter_Verlauf_3"/></defs><g id="Page-1"><g id="D-START"><g id="ReadyToUse"><path class="cls-56" d="m250.33,255.73s0,.01,0,.02c-.1,14.29-20.27,26.03-45.15,26.03s-45.05-11.74-45.15-26.03c0,0,0-.02,0-.02v-31.43s0,.01,0,.02c.1,14.29,20.27,26.03,45.15,26.03s45.05-11.74,45.15-26.03c0,0,0-.02,0-.02v31.43Z"/><path class="cls-42" d="m250.33,224.21c0,14.34-20.22,26.13-45.15,26.13s-45.15-11.8-45.15-26.13,20.22-25.96,45.15-25.96,45.15,11.62,45.15,25.96Z"/><path class="cls-18" d="m250.33,217.48s0,.01,0,.02c-.1,14.29-20.27,26.03-45.15,26.03s-45.05-11.74-45.15-26.03c0,0,0-.02,0-.02v-31.43s0,.01,0,.02c.1,14.29,20.27,26.03,45.15,26.03s45.05-11.74,45.15-26.03c0,0,0-.02,0-.02v31.43Z"/><path class="cls-41" d="m250.33,185.96c0,14.34-20.22,26.13-45.15,26.13s-45.15-11.8-45.15-26.13,20.22-25.96,45.15-25.96,45.15,11.62,45.15,25.96Z"/><path class="cls-17" d="m250.33,179.24s0,.01,0,.02c-.1,14.29-20.27,26.03-45.15,26.03s-45.05-11.74-45.15-26.03c0,0,0-.02,0-.02v-31.43s0,.01,0,.02c.1,14.29,20.27,26.03,45.15,26.03s45.05-11.74,45.15-26.03c0,0,0-.02,0-.02v31.43Z"/><path class="cls-40" d="m250.33,147.72c0,14.34-20.22,26.13-45.15,26.13s-45.15-11.8-45.15-26.13,20.22-25.96,45.15-25.96,45.15,11.62,45.15,25.96Z"/></g></g></g><g id="Page-1-2"><g id="D-START-2"><g id="ReadyToUse-2"><polyline id="Path" class="cls-67" points="104 109.21 132.14 91.97 104 74.73 75.86 91.97 104 109.21"/><polygon id="Path-2" class="cls-58" points="104 74.73 104 109.21 132.14 91.97 132.14 57.31 104 74.73"/><polygon id="Path-3" class="cls-27" points="75.86 57.31 75.86 91.97 104 74.73 104 40.07 75.86 57.31"/><polygon id="Path-4" class="cls-26" points="104 40.07 104 74.73 132.14 91.97 132.14 57.31 104 40.07"/><polygon id="Path-5" class="cls-57" points="75.86 57.31 75.86 91.97 104 109.21 104 74.73 75.86 57.31"/></g></g></g><polygon id="Path-6" class="cls-52" points="75.86 57.31 104 74.73 132.14 57.31 104 40.07 75.86 57.31"/><g id="Page-1-3"><g id="D-START-3"><g id="ReadyToUse-3"><polyline id="Path-7" class="cls-65" points="299.48 97.11 317.77 85.9 299.48 74.7 281.19 85.9 299.48 97.11"/><polygon id="Path-8" class="cls-49" points="299.48 74.7 299.48 97.11 317.77 85.9 317.77 63.38 299.48 74.7"/><polygon id="Path-9" class="cls-39" points="281.19 63.38 281.19 85.9 299.48 74.7 299.48 52.17 281.19 63.38"/><polygon id="Path-10" class="cls-32" points="299.48 52.17 299.48 74.7 317.77 85.9 317.77 63.38 299.48 52.17"/><polygon id="Path-11" class="cls-6" points="281.19 63.38 281.19 85.9 299.48 97.11 299.48 74.7 281.19 63.38"/></g></g></g><polygon id="Path-12" class="cls-51" points="281.19 63.38 299.48 74.7 317.77 63.38 299.48 52.17 281.19 63.38"/><g id="Page-1-4"><g id="D-START-4"><g id="ReadyToUse-4"><polyline id="Path-13" class="cls-64" points="104 347.83 122.29 336.62 104 325.42 85.71 336.62 104 347.83"/><polygon id="Path-14" class="cls-47" points="104 325.42 104 347.83 122.29 336.62 122.29 314.1 104 325.42"/><polygon id="Path-15" class="cls-37" points="85.71 314.1 85.71 336.62 104 325.42 104 302.89 85.71 314.1"/><polygon id="Path-16" class="cls-31" points="104 302.89 104 325.42 122.29 336.62 122.29 314.1 104 302.89"/><polygon id="Path-17" class="cls-5" points="85.71 314.1 85.71 336.62 104 347.83 104 325.42 85.71 314.1"/></g></g></g><polygon id="Path-18" class="cls-54" points="85.71 314.1 104 325.42 122.29 314.1 104 302.89 85.71 314.1"/><g id="Page-1-5"><g id="D-START-5"><g id="ReadyToUse-5"><polyline id="Path-19" class="cls-59" points="299.48 360.11 327.76 342.78 299.48 325.45 271.19 342.78 299.48 360.11"/><polygon id="Path-20" class="cls-50" points="299.48 325.45 299.48 360.11 327.76 342.78 327.76 307.94 299.48 325.45"/><polygon id="Path-21" class="cls-38" points="271.19 307.94 271.19 342.78 299.48 325.45 299.48 290.6 271.19 307.94"/><polygon id="Path-22" class="cls-28" points="299.48 290.6 299.48 325.45 327.76 342.78 327.76 307.94 299.48 290.6"/><polygon id="Path-23" class="cls-7" points="271.19 307.94 271.19 342.78 299.48 360.11 299.48 325.45 271.19 307.94"/></g></g></g><polygon id="Path-24" class="cls-53" points="271.19 307.94 299.48 325.45 327.76 307.94 299.48 290.6 271.19 307.94"/><g id="Page-1-6"><g id="D-START-6"><g id="ReadyToUse-6"><polyline id="Path-25" class="cls-60" points="359.2 222.47 377.49 211.26 359.2 200.06 340.92 211.26 359.2 222.47"/><polygon id="Path-26" class="cls-48" points="359.2 200.06 359.2 222.47 377.49 211.26 377.49 188.74 359.2 200.06"/><polygon id="Path-27" class="cls-36" points="340.92 188.74 340.92 211.26 359.2 200.06 359.2 177.53 340.92 188.74"/><polygon id="Path-28" class="cls-30" points="359.2 177.53 359.2 200.06 377.49 211.26 377.49 188.74 359.2 177.53"/><polygon id="Path-29" class="cls-4" points="340.92 188.74 340.92 211.26 359.2 222.47 359.2 200.06 340.92 188.74"/></g></g></g><polygon id="Path-30" class="cls-13" points="340.92 188.74 359.2 200.06 377.49 188.74 359.2 177.53 340.92 188.74"/><g id="Page-1-7"><g id="D-START-7"><g id="ReadyToUse-7"><polyline id="Path-31" class="cls-61" points="51.14 222.47 69.43 211.26 51.14 200.06 32.85 211.26 51.14 222.47"/><polygon id="Path-32" class="cls-45" points="51.14 200.06 51.14 222.47 69.43 211.26 69.43 188.74 51.14 200.06"/><polygon id="Path-33" class="cls-21" points="32.85 188.74 32.85 211.26 51.14 200.06 51.14 177.53 32.85 188.74"/><polygon id="Path-34" class="cls-34" points="51.14 177.53 51.14 200.06 69.43 211.26 69.43 188.74 51.14 177.53"/><polygon id="Path-35" class="cls-3" points="32.85 188.74 32.85 211.26 51.14 222.47 51.14 200.06 32.85 188.74"/></g></g></g><polygon id="Path-36" class="cls-12" points="32.85 188.74 51.14 200.06 69.43 188.74 51.14 177.53 32.85 188.74"/><g id="Page-1-8"><g id="D-START-8"><g id="ReadyToUse-8"><polyline id="Path-37" class="cls-62" points="51.14 288.62 60.29 283.01 51.14 277.41 42 283.01 51.14 288.62"/><polygon id="Path-38" class="cls-43" points="51.14 277.41 51.14 288.62 60.29 283.01 60.29 271.75 51.14 277.41"/><polygon id="Path-39" class="cls-22" points="42 271.75 42 283.01 51.14 277.41 51.14 266.15 42 271.75"/><polygon id="Path-40" class="cls-35" points="51.14 266.15 51.14 277.41 60.29 283.01 60.29 271.75 51.14 266.15"/><polygon id="Path-41" class="cls-9" points="42 271.75 42 283.01 51.14 288.62 51.14 277.41 42 271.75"/></g></g></g><polygon id="Path-42" class="cls-11" points="42 271.75 51.14 277.41 60.29 271.75 51.14 266.15 42 271.75"/><g id="Page-1-9"><g id="D-START-9"><g id="ReadyToUse-9"><polyline id="Path-43" class="cls-63" points="355.71 296.85 371.56 287.14 355.71 277.43 339.86 287.14 355.71 296.85"/><polygon id="Path-44" class="cls-46" points="355.71 277.43 355.71 296.85 371.56 287.14 371.56 267.62 355.71 277.43"/><polygon id="Path-45" class="cls-24" points="339.86 267.62 339.86 287.14 355.71 277.43 355.71 257.91 339.86 267.62"/><polygon id="Path-46" class="cls-29" points="355.71 257.91 355.71 277.43 371.56 287.14 371.56 267.62 355.71 257.91"/><polygon id="Path-47" class="cls-8" points="339.86 267.62 339.86 287.14 355.71 296.85 355.71 277.43 339.86 267.62"/></g></g></g><polygon id="Path-48" class="cls-14" points="339.86 267.62 355.71 277.43 371.56 267.62 355.71 257.91 339.86 267.62"/><g id="Page-1-10"><g id="D-START-10"><g id="ReadyToUse-10"><polyline id="Path-49" class="cls-66" points="201.74 361.54 211.88 355.33 201.74 349.11 191.6 355.33 201.74 361.54"/><polygon id="Path-50" class="cls-44" points="201.74 349.11 201.74 361.54 211.88 355.33 211.88 342.84 201.74 349.11"/><polygon id="Path-51" class="cls-23" points="191.6 342.84 191.6 355.33 201.74 349.11 201.74 336.62 191.6 342.84"/><polygon id="Path-52" class="cls-33" points="201.74 336.62 201.74 349.11 211.88 355.33 211.88 342.84 201.74 336.62"/><polygon id="Path-53" class="cls-2" points="191.6 342.84 191.6 355.33 201.74 361.54 201.74 349.11 191.6 342.84"/></g></g></g><polygon id="Path-54" class="cls-10" points="191.6 342.84 201.74 349.11 211.88 342.84 201.74 336.62 191.6 342.84"/><g id="Page-1-11"><g id="D-START-11"><g id="ReadyToUse-11"><polyline id="Path-55" class="cls-55" points="201.74 44.11 211.88 37.9 201.74 31.69 191.6 37.9 201.74 44.11"/><polygon id="Path-56" class="cls-16" points="201.74 31.69 201.74 44.11 211.88 37.9 211.88 25.41 201.74 31.69"/><polygon id="Path-57" class="cls-20" points="191.6 25.41 191.6 37.9 201.74 31.69 201.74 19.2 191.6 25.41"/><polygon id="Path-58" class="cls-19" points="201.74 19.2 201.74 31.69 211.88 37.9 211.88 25.41 201.74 19.2"/><polygon id="Path-59" class="cls-1" points="191.6 25.41 191.6 37.9 201.74 44.11 201.74 31.69 191.6 25.41"/></g></g></g><polygon id="Path-60" class="cls-15" points="191.6 25.41 201.74 31.69 211.88 25.41 201.74 19.2 191.6 25.41"/><line class="cls-25" x1="115.7" y1="81.9" x2="173.97" y2="119.39"/><polyline class="cls-25" points="59.09 206.49 99.56 230.63 151.83 230.63"/><line class="cls-25" x1="245.96" y1="278.01" x2="281" y2="298.91"/><polyline class="cls-25" points="344.87 262.15 301.85 233.29 255 233.29"/><polyline class="cls-25" points="55.72 280.18 83.66 296.85 151.83 252.63"/><polyline class="cls-25" points="206.76 34.76 234.62 52.17 234.62 119.39"/><polyline class="cls-25" points="290.42 80.24 263.48 98.68 263.48 147.8 255 147.8"/><polyline class="cls-25" points="351.83 205.6 320.03 188.23 255 188.74"/><line class="cls-25" x1="114.88" y1="306.59" x2="160.02" y2="277.41"/><polyline class="cls-25" points="208.88 339.22 260.24 300.86 231.48 283.01"/></svg>