<?xml version="1.0" encoding="UTF-8"?>
<svg width="312px" height="219px" viewBox="0 0 312 219" version="1.1" xmlns="http://www.w3.org/2000/svg" xmlns:xlink="http://www.w3.org/1999/xlink">
    <!-- Generator: Sketch 64 (93537) - https://sketch.com -->
    <title>Customizable</title>
    <desc>Created with Sketch.</desc>
    <defs>
        <linearGradient x1="49.986115%" y1="100.045455%" x2="49.986115%" y2="-0.0454545455%" id="linearGradient-1">
            <stop stop-color="#533FFE" offset="0%"></stop>
            <stop stop-color="#513DFE" stop-opacity="0.95" offset="5%"></stop>
            <stop stop-color="#3A23FE" stop-opacity="0.27" offset="71%"></stop>
            <stop stop-color="#3119FE" stop-opacity="0" offset="100%"></stop>
        </linearGradient>
        <linearGradient x1="50%" y1="100%" x2="50%" y2="0%" id="linearGradient-2">
            <stop stop-color="#533FFE" stop-opacity="0.8" offset="0%"></stop>
            <stop stop-color="#3119FE" stop-opacity="0" offset="100%"></stop>
        </linearGradient>
        <linearGradient x1="50%" y1="100%" x2="50%" y2="0%" id="linearGradient-3">
            <stop stop-color="#3119FE" stop-opacity="0" offset="0%"></stop>
            <stop stop-color="#533FFE" stop-opacity="0.3" offset="100%"></stop>
        </linearGradient>
        <linearGradient x1="50%" y1="100%" x2="50%" y2="0%" id="linearGradient-4">
            <stop stop-color="#3119FE" stop-opacity="0" offset="0%"></stop>
            <stop stop-color="#533FFE" stop-opacity="0.8" offset="100%"></stop>
        </linearGradient>
    </defs>
    <g id="Page-1" stroke="none" stroke-width="1" fill="none" fill-rule="evenodd">
        <g id="D-START" transform="translate(-295.000000, -1298.000000)" fill-rule="nonzero">
            <g id="Customizable" transform="translate(295.000000, 1298.000000)">
                <path d="M312,123.5 L260.01444,155.333333 L208.028881,123.5 L260.01444,91.6666667 L312,123.5 Z M155.956679,91.6666667 L207.942238,59.8333333 L155.956679,28 L103.971119,59.8333333 L155.956679,91.6666667 L103.971119,123.5 L51.9855596,91.6666667 L0,123.5 L51.9855596,155.333333 L103.971119,187.166667 L155.956679,219 L207.942238,187.166667 L155.956679,155.333333 L207.942238,123.5 L155.956679,91.6666667 Z" id="Shape" fill="url(#linearGradient-1)"></path>
                <polyline id="Path" fill="url(#linearGradient-2)" points="156 64 208 32 156 0 104 32 156 64"></polyline>
                <polyline id="Path" fill="url(#linearGradient-3)" points="52 188 104 156 52 124 0 156 52 188"></polyline>
                <polyline id="Path" fill="url(#linearGradient-4)" points="260 181 312 149 260 117 208 149 260 181"></polyline>
            </g>
        </g>
    </g>
</svg>