<svg height="1000" width="1000" xmlns="http://www.w3.org/2000/svg" xmlns:xlink="http://www.w3.org/1999/xlink"><linearGradient id="a" gradientUnits="userSpaceOnUse" x1="673.75" x2="673.75" y1="176.74" y2="941.09"><stop offset="0" stop-color="#533ffe" stop-opacity=".6"/><stop offset=".13" stop-color="#523efe" stop-opacity=".58"/><stop offset=".3" stop-color="#4e39fe" stop-opacity=".51"/><stop offset=".5" stop-color="#4832fe" stop-opacity=".4"/><stop offset=".71" stop-color="#3f29fe" stop-opacity=".25"/><stop offset=".94" stop-color="#341dfe" stop-opacity=".06"/><stop offset="1" stop-color="#3119fe" stop-opacity="0"/></linearGradient><linearGradient id="b" gradientUnits="userSpaceOnUse" x1="831.75" x2="831.75" y1="176.74" y2="941.09"><stop offset="0" stop-color="#533ffe" stop-opacity=".8"/><stop offset=".11" stop-color="#523efe" stop-opacity=".78"/><stop offset=".25" stop-color="#4f3bfe" stop-opacity=".71"/><stop offset=".41" stop-color="#4b36fe" stop-opacity=".61"/><stop offset=".59" stop-color="#452ffe" stop-opacity=".46"/><stop offset=".77" stop-color="#3d26fe" stop-opacity=".28"/><stop offset=".96" stop-color="#331bfe" stop-opacity=".05"/><stop offset="1" stop-color="#3119fe" stop-opacity="0"/></linearGradient><linearGradient id="c" x1="753" x2="753" xlink:href="#b" y1="81.2" y2="273.19"/><linearGradient id="d" x1="478.25" x2="478.25" xlink:href="#a" y1="297.32" y2="1061.67"/><linearGradient id="e" x1="636.25" x2="636.25" xlink:href="#b" y1="297.32" y2="1061.67"/><linearGradient id="f" x1="557.5" x2="557.5" xlink:href="#b" y1="201.78" y2="393.77"/><linearGradient id="g" x1="282.25" x2="282.25" xlink:href="#a" y1="415.22" y2="1179.57"/><linearGradient id="h" x1="440.25" x2="440.25" xlink:href="#b" y1="415.22" y2="1179.57"/><linearGradient id="i" x1="361.5" x2="361.5" xlink:href="#b" y1="319.69" y2="511.67"/><linearGradient id="j" x1="865.26" x2="865.26" xlink:href="#a" y1="297.32" y2="1061.67"/><linearGradient id="k" x1="1023.26" x2="1023.26" xlink:href="#b" y1="297.32" y2="1061.67"/><linearGradient id="l" x1="944.51" x2="944.51" xlink:href="#b" y1="201.78" y2="393.77"/><linearGradient id="m" x1="1059.25" x2="1059.25" xlink:href="#a" y1="415.22" y2="1179.57"/><linearGradient id="n" x1="1217.25" x2="1217.25" xlink:href="#b" y1="415.22" y2="1179.57"/><linearGradient id="o" x1="1138.5" x2="1138.5" xlink:href="#b" y1="319.69" y2="511.67"/><linearGradient id="p" xlink:href="#a" y1="415.22" y2="1179.57"/><linearGradient id="q" xlink:href="#b" y1="415.22" y2="1179.57"/><linearGradient id="r" x1="753" x2="753" xlink:href="#b" y1="319.69" y2="511.67"/><linearGradient id="s" x1="478.29" x2="478.29" xlink:href="#a" y1="533.74" y2="1298.09"/><linearGradient id="t" x1="636.29" x2="636.29" xlink:href="#b" y1="533.74" y2="1298.09"/><linearGradient id="u" x1="557.54" x2="557.54" xlink:href="#b" y1="438.21" y2="630.2"/><linearGradient id="v" x1="865.2" x2="865.2" xlink:href="#a" y1="533.74" y2="1298.09"/><linearGradient id="w" x1="1023.2" x2="1023.2" xlink:href="#b" y1="533.74" y2="1298.09"/><linearGradient id="x" x1="944.45" x2="944.45" xlink:href="#b" y1="438.21" y2="630.2"/><linearGradient id="y" xlink:href="#a" y1="654.45" y2="1418.8"/><linearGradient id="z" xlink:href="#b" y1="654.45" y2="1418.8"/><linearGradient id="A" x1="753" x2="753" xlink:href="#b" y1="558.91" y2="750.9"/><rect fill="#fff" height="1000" rx="200" width="1000"/><svg height="1500" transform="matrix(.66666667 0 0 .66666667 0 .000015)" version="1.1" width="1500" xmlns="http://www.w3.org/2000/svg" xmlns:xlink="http://www.w3.org/1999/xlink"><svg fill="none" viewBox="0 0 1500 1500" xmlns="http://www.w3.org/2000/svg" xmlns:xlink="http://www.w3.org/1999/xlink"><g opacity=".6"><path d="m752.5 273.22-157.5-96.48v667.84l157.5 96.51z" fill="url(#a)"/><path d="m752.5 273.22 158.5-96.48v667.84l-158.5 96.51z" fill="url(#b)"/><path d="m752.55 273.19-157.55-96.45 159.55-95.54 156.45 95.54z" fill="url(#c)"/></g><g opacity=".6"><path d="m557 393.8-157.5-96.48v667.84l157.5 96.51z" fill="url(#d)"/><path d="m557 393.8 158.5-96.48v667.84l-158.5 96.51z" fill="url(#e)"/><path d="m557.05 393.77-157.55-96.45 159.55-95.54 156.45 95.54z" fill="url(#f)"/></g><g opacity=".6"><path d="m361 511.71-157.5-96.49v667.85l157.5 96.5z" fill="url(#g)"/><path d="m361 511.71 158.5-96.49v667.85l-158.5 96.5z" fill="url(#h)"/><path d="m361.05 511.67-157.55-96.45 159.55-95.53 156.45 95.53z" fill="url(#i)"/></g><g opacity=".6"><path d="m944.01 393.8-157.5-96.48v667.84l157.5 96.51z" fill="url(#j)"/><path d="m944.01 393.8 158.5-96.48v667.84l-158.5 96.51z" fill="url(#k)"/><path d="m944.06 393.77-157.55-96.45 159.55-95.54 156.45 95.54z" fill="url(#l)"/></g><g opacity=".6"><path d="m1138 511.71-157.5-96.49v667.85l157.5 96.5z" fill="url(#m)"/><path d="m1138 511.71 158.5-96.49v667.85l-158.5 96.5z" fill="url(#n)"/><path d="m1138.05 511.67-157.55-96.45 159.55-95.53 156.45 95.53z" fill="url(#o)"/></g><g opacity=".6"><path d="m752.5 511.71-157.5-96.49v667.85l157.5 96.5z" fill="url(#p)"/><path d="m752.5 511.71 158.5-96.49v667.85l-158.5 96.5z" fill="url(#q)"/><path d="m752.55 511.67-157.55-96.45 159.55-95.53 156.45 95.53z" fill="url(#r)"/></g><g opacity=".6"><path d="m557.04 630.23-157.5-96.49v667.85l157.5 96.5z" fill="url(#s)"/><path d="m557.04 630.23 158.5-96.49v667.85l-158.5 96.5z" fill="url(#t)"/><path d="m557.09 630.2-157.55-96.46 159.55-95.53 156.45 95.53z" fill="url(#u)"/></g><g opacity=".6"><path d="m943.95 630.23-157.5-96.49v667.85l157.5 96.5z" fill="url(#v)"/><path d="m943.95 630.23 158.5-96.49v667.85l-158.5 96.5z" fill="url(#w)"/><path d="m944.01 630.2-157.56-96.46 159.55-95.53 156.45 95.53z" fill="url(#x)"/></g><g opacity=".6"><path d="m752.5 750.93-157.5-96.48v667.84l157.5 96.51z" fill="url(#y)"/><path d="m752.5 750.93 158.5-96.48v667.84l-158.5 96.51z" fill="url(#z)"/><path d="m752.55 750.9-157.55-96.45 159.55-95.54 156.45 95.54z" fill="url(#A)"/></g></svg></svg></svg>