<svg height="1000" viewBox="0 0 1000 1000" width="1000" xmlns="http://www.w3.org/2000/svg" xmlns:xlink="http://www.w3.org/1999/xlink"><linearGradient id="a"><stop offset="0" stop-color="#533ffe" stop-opacity=".6"/><stop offset=".13" stop-color="#523efe" stop-opacity=".58"/><stop offset=".3" stop-color="#4e39fe" stop-opacity=".51"/><stop offset=".5" stop-color="#4832fe" stop-opacity=".4"/><stop offset=".71" stop-color="#3f29fe" stop-opacity=".25"/><stop offset=".94" stop-color="#341dfe" stop-opacity=".06"/><stop offset="1" stop-color="#3119fe" stop-opacity="0"/></linearGradient><linearGradient id="b" x1="50%" x2="50%" xlink:href="#a" y1="0%" y2="100%"/><linearGradient id="c"><stop offset="0" stop-color="#533ffe" stop-opacity=".8"/><stop offset=".11" stop-color="#523efe" stop-opacity=".78"/><stop offset=".25" stop-color="#4f3bfe" stop-opacity=".71"/><stop offset=".41" stop-color="#4b36fe" stop-opacity=".61"/><stop offset=".59" stop-color="#452ffe" stop-opacity=".46"/><stop offset=".77" stop-color="#3d26fe" stop-opacity=".28"/><stop offset=".96" stop-color="#331bfe" stop-opacity=".05"/><stop offset="1" stop-color="#3119fe" stop-opacity="0"/></linearGradient><linearGradient id="d" x1="50%" x2="50%" xlink:href="#c" y1="0%" y2="100%"/><linearGradient id="e" x1="31.836698%" x2="31.863657%" xlink:href="#a" y1="0%" y2="100%"/><linearGradient id="f" x1="27.434886%" x2="27.462016%" xlink:href="#c" y1="0%" y2="100%"/><g fill="none"><rect fill="#fff" height="1000" rx="200" width="1000"/><g opacity=".6"><g transform="translate(396.6667 54.1333)"><path d="m105.000001 128.013334-105.000001-64.3200003v445.2266693l105.000001 64.34z" fill="url(#b)"/><g fill="url(#d)"><path d="m105.000001 128.013334 105.666667-64.3200003v445.2266693l-105.666667 64.34z"/><path d="m105.033334 127.993334-105.033334-64.3000003 106.366667-63.6933337 104.300001 63.6933337z"/></g></g><g transform="translate(266.3334 134.52)"><path d="m105.000001 128.013334-105.000001-64.3200003v445.2266693l105.000001 64.34z" fill="url(#b)"/><g fill="url(#d)"><path d="m105.000001 128.013334 105.666667-64.3200003v445.2266693l-105.666667 64.34z"/><path d="m105.033334 127.993334-105.033334-64.3000003 106.366667-63.6933337 104.300001 63.6933337z"/></g></g><g transform="translate(135.6667 213.1266)"><path d="m105.000001 128.013334-105.000001-64.326667v445.233336l105.000001 64.333333z" fill="url(#b)"/><g fill="url(#d)"><path d="m105.000001 128.013334 105.666667-64.326667v445.233336l-105.666667 64.333333z"/><path d="m105.033334 127.986667-105.033334-64.3 106.366667-63.686667 104.300001 63.686667z"/></g></g><g transform="translate(524.34 134.52)"><path d="m105.000001 128.013334-105.000001-64.3200003v445.2266693l105.000001 64.34z" fill="url(#b)"/><g fill="url(#d)"><path d="m105.000001 128.013334 105.666667-64.3200003v445.2266693l-105.666667 64.34z"/><path d="m105.033334 127.993334-105.033334-64.3000003 106.366667-63.6933337 104.300001 63.6933337z"/></g></g><g transform="translate(653.6667 213.1266)"><path d="m105.000001 128.013334-105.000001-64.326667v445.233336l105.000001 64.333333z" fill="url(#b)"/><g fill="url(#d)"><path d="m105.000001 128.013334 105.666667-64.326667v445.233336l-105.666667 64.333333z"/><path d="m105.033334 127.986667-105.033334-64.3 106.366667-63.686667 104.300001 63.686667z"/></g></g><g transform="translate(396.6667 213.1266)"><path d="m105.000001 128.013334-105.000001-64.326667v445.233336l105.000001 64.333333z" fill="url(#e)"/><path d="m105.000001 128.013334 105.666667-64.326667v445.233336l-105.666667 64.333333z" fill="url(#f)"/><path d="m105.033334 127.986667-105.033334-64.3 106.366667-63.686667 104.300001 63.686667z" fill="url(#d)"/></g><g transform="translate(266.36 292.14)"><path d="m105.000001 128.013334-105.000001-64.326667v445.233336l105.000001 64.333333z" fill="url(#b)"/><g fill="url(#d)"><path d="m105.000001 128.013334 105.666667-64.326667v445.233336l-105.666667 64.333333z"/><path d="m105.033334 127.993334-105.033334-64.306667 106.366667-63.686667 104.300001 63.686667z"/></g></g><g transform="translate(524.3 292.14)"><path d="m105.000001 128.013334-105.000001-64.326667v445.233336l105.000001 64.333333z" fill="url(#b)"/><g fill="url(#d)"><path d="m105.000001 128.013334 105.666667-64.326667v445.233336l-105.666667 64.333333z"/><path d="m105.040001 127.993334-105.040001-64.306667 106.366667-63.686667 104.300001 63.686667z"/></g></g><g transform="translate(396.6667 372.6066)"><path d="m105.000001 128.013334-105.000001-64.3200003v445.2266693l105.000001 64.34z" fill="url(#e)"/><path d="m105.000001 128.013334 105.666667-64.3200003v445.2266693l-105.666667 64.34z" fill="url(#f)"/><path d="m105.033334 127.993334-105.033334-64.3000003 106.366667-63.6933337 104.300001 63.6933337z" fill="url(#d)"/></g></g></g></svg>