<svg height="56" viewBox="0 0 226 56" width="226" xmlns="http://www.w3.org/2000/svg"><g fill="none"><path d="m.4 1.9h12.5v52.5h-12.5z" fill="#004153"/><path d="m103.3 54.4v-52.5h-12.5v32.1l-24-32.1h-5.5-6.5v32.1l-23.9-32.1h-12v52.5h12.5v-32l23.9 32h2.1 7.1 2.9v-32l23.9 32z" fill="#004153"/><g transform="translate(107)"><path d="m28.3 12.9c8.5 0 14.6 6.2 14.6 15.2s-6.1 15.2-14.6 15.2c-8.6 0-14.6-6.2-14.6-15.2s6.1-15.2 14.6-15.2m0-12c-16.2 0-27.7 11.6-27.7 27.2s11.5 27.2 27.7 27.2 27.7-11.6 27.7-27.2-11.5-27.2-27.7-27.2" fill="#004153"/><path d="m87.2 12.9c8.5 0 14.6 6.2 14.6 15.2 0 1.7-.2 3.3-.6 4.8l-1.7-2.3h-13.6l8.3 11.1c-2 1-4.4 1.6-6.9 1.6-8.5 0-14.6-6.2-14.6-15.2-.1-8.9 6-15.2 14.5-15.2m0-12c-16.2 0-27.7 11.6-27.7 27.2s11.5 27.2 27.7 27.2c5.5 0 10.2-1.5 14.2-4.1l2.3 3.1h14.7l-8.3-11.2c2.9-4.2 4.6-9.1 4.6-15 .2-15.6-11.3-27.2-27.5-27.2" fill="#ff9c66"/></g></g></svg>