<svg height="25" viewBox="0 0 105 25" width="105" xmlns="http://www.w3.org/2000/svg"><g fill="none"><path d="m62.2232315 0c7.4723339 0 12.7767685 5.33088235 12.7767685 12.5 0 7.1691176-5.3044346 12.5-12.7767685 12.5s-12.7767685-5.3308824-12.7767685-12.5c0-7.16911765 5.3044346-12.5 12.7767685-12.5zm-56.45754175.45951287v24.12683823h-5.76568975v-24.12683823zm8.30286995.00013787 11.0235376 14.75183826v-14.75183826h5.5355234l11.0696631 14.75183826v-14.75183826h5.7656897v24.12683826h-5.5350621l-11.0239988-14.70588238v14.70588238h-5.5811877l-11.0239988-14.70588238v14.70588238h-5.76568977v-24.12683826zm48.1546718 5.05505514c-3.920669 0-6.7343256 2.84926471-6.7343256 6.98529412 0 4.1360294 2.7675311 6.9852941 6.7343256 6.9852941 3.920669 0 6.7347869-2.8492647 6.7347869-6.9852941 0-4.13602941-2.8141179-6.98529412-6.7347869-6.98529412z" fill="#242424"/><path d="m13.1680815 0c-7.7011885 0-13.1680815 5.33088235-13.1680815 12.5 0 7.1691176 5.466893 12.5 13.1680815 12.5 2.614601 0 4.8488964-.6893382 6.7504244-1.8841912l1.0933787 1.4246324h6.9881154l-3.946146-5.1470588c1.379083-1.9301471 2.187233-4.1819853 2.187233-6.8933824.095076-7.16911765-5.3718171-12.5-13.0730055-12.5m0 5.51470588c4.040747 0 6.9405772 2.84926471 6.9405772 6.98529412 0 .78125-.0955517 1.5165441-.2852292 2.2058824l-.8081494-1.0569853h-6.4651952l3.9456706 5.1011029c-.950764.4595588-2.0916808.7352941-3.2801358.7352941-4.040747 0-6.9405773-2.8492647-6.9405773-6.9852941-.0480135-4.09007353 2.8522921-6.98529412 6.8930391-6.98529412" fill="#6351fe" transform="translate(77)"/></g></svg>