<svg id="Ebene_1" data-name="Ebene 1" xmlns="http://www.w3.org/2000/svg" xmlns:xlink="http://www.w3.org/1999/xlink" viewBox="0 0 216.12 261.56"><defs><style>.cls-1{fill:url(#Unbenannter_Verlauf_146);}.cls-2{fill:url(#Unbenannter_Verlauf_96);}.cls-3{fill:url(#Unbenannter_Verlauf_55);}</style><linearGradient id="Unbenannter_Verlauf_146" x1="108.06" y1="132.12" x2="108.06" gradientUnits="userSpaceOnUse"><stop offset="0" stop-color="#533ffe"/><stop offset="1" stop-color="#533ffe" stop-opacity="0"/></linearGradient><linearGradient id="Unbenannter_Verlauf_96" x1="108.06" y1="264.24" x2="108.06" y2="132.12" gradientUnits="userSpaceOnUse"><stop offset="0" stop-color="#3119fe" stop-opacity="0"/><stop offset="0.29" stop-color="#3a23fe" stop-opacity="0.27"/><stop offset="0.95" stop-color="#513dfe" stop-opacity="0.95"/><stop offset="1" stop-color="#533ffe"/></linearGradient><linearGradient id="Unbenannter_Verlauf_55" x1="104.77" y1="226.23" x2="110.59" y2="59.7" gradientUnits="userSpaceOnUse"><stop offset="0" stop-color="#533ffe"/><stop offset="1" stop-color="#3119fe" stop-opacity="0"/></linearGradient></defs><path class="cls-1" d="M216.12,66.06l-36,22-36-22,36-22ZM108.06,44l36-22-36-22L72,22l36,22-36,22L36,44l-36,22,36,22,36,22,36,22,36-22-36-22,36-22Z"/><path class="cls-2" d="M216.12,198.18l-36,22-36-22,36-22Zm-108.06-22,36-22-36-22-36,22,36,22-36,22-36-22-36,22,36,22,36,22,36,22,36-22-36-22,36-22Z"/><path class="cls-3" d="M72,154.14l36,22-36,22-36-22-36,22V66.06l108.06,66.06ZM180.1,88.08l-36-22-36,22,36,22-36,22,36,22-36,22,36,22,36-22,36,22V66.06Z"/></svg>