<?xml version="1.0" encoding="UTF-8"?><svg id="Ebene_1" xmlns="http://www.w3.org/2000/svg" xmlns:xlink="http://www.w3.org/1999/xlink" viewBox="0 0 1500 1500"><defs><style>.cls-1{fill:none;opacity:.6;}.cls-2{fill:url(#Unbenannter_Verlauf_10-5);}.cls-3{fill:url(#Unbenannter_Verlauf_10-3);}.cls-4{fill:url(#Unbenannter_Verlauf_10-2);}.cls-5{fill:url(#Unbenannter_Verlauf_10-4);}.cls-6{fill:url(#Unbenannter_Verlauf_2-10);}.cls-7{fill:#99e8d6;}.cls-8{fill:url(#Unbenannter_Verlauf_2-7);}.cls-9{fill:url(#Unbenannter_Verlauf_2-9);}.cls-10{fill:url(#Unbenannter_Verlauf_2-6);}.cls-11{fill:url(#Unbenannter_Verlauf_2-8);}.cls-12{fill:url(#Unbenannter_Verlauf_2-3);}.cls-13{fill:url(#Unbenannter_Verlauf_2-5);}.cls-14{fill:url(#Unbenannter_Verlauf_2-2);}.cls-15{fill:url(#Unbenannter_Verlauf_2-4);}.cls-16{fill:url(#Unbenannter_Verlauf_10);}.cls-17{fill:url(#Unbenannter_Verlauf_2);}</style><linearGradient id="Unbenannter_Verlauf_10" x1="673.75" y1="895.24" x2="673.75" y2="1179.59" gradientUnits="userSpaceOnUse"><stop offset="0" stop-color="#533ffe" stop-opacity=".6"/><stop offset=".13" stop-color="#523efe" stop-opacity=".58"/><stop offset=".3" stop-color="#4e39fe" stop-opacity=".51"/><stop offset=".5" stop-color="#4832fe" stop-opacity=".4"/><stop offset=".71" stop-color="#3f29fe" stop-opacity=".25"/><stop offset=".94" stop-color="#341dfe" stop-opacity=".06"/><stop offset="1" stop-color="#3119fe" stop-opacity="0"/></linearGradient><linearGradient id="Unbenannter_Verlauf_2" x1="831.75" y1="895.24" x2="831.75" y2="1179.59" gradientUnits="userSpaceOnUse"><stop offset="0" stop-color="#533ffe" stop-opacity=".8"/><stop offset=".11" stop-color="#523efe" stop-opacity=".78"/><stop offset=".25" stop-color="#4f3bfe" stop-opacity=".71"/><stop offset=".41" stop-color="#4b36fe" stop-opacity=".61"/><stop offset=".59" stop-color="#452ffe" stop-opacity=".46"/><stop offset=".77" stop-color="#3d26fe" stop-opacity=".28"/><stop offset=".96" stop-color="#331bfe" stop-opacity=".05"/><stop offset="1" stop-color="#3119fe" stop-opacity="0"/></linearGradient><linearGradient id="Unbenannter_Verlauf_2-2" x1="753" y1="799.7" x2="753" y2="991.69" xlink:href="#Unbenannter_Verlauf_2"/><linearGradient id="Unbenannter_Verlauf_10-2" x1="662.91" y1="752.22" x2="662.91" y2="847.19" xlink:href="#Unbenannter_Verlauf_10"/><linearGradient id="Unbenannter_Verlauf_2-3" x1="690.56" y1="752.22" x2="690.56" y2="847.19" xlink:href="#Unbenannter_Verlauf_2"/><linearGradient id="Unbenannter_Verlauf_2-4" x1="676.78" y1="735.5" x2="676.78" y2="769.1" xlink:href="#Unbenannter_Verlauf_2"/><linearGradient id="Unbenannter_Verlauf_10-3" x1="817.89" y1="752.22" x2="817.89" y2="847.19" xlink:href="#Unbenannter_Verlauf_10"/><linearGradient id="Unbenannter_Verlauf_2-5" x1="845.53" y1="752.22" x2="845.53" y2="847.19" xlink:href="#Unbenannter_Verlauf_2"/><linearGradient id="Unbenannter_Verlauf_2-6" x1="831.75" y1="735.5" x2="831.75" y2="769.1" xlink:href="#Unbenannter_Verlauf_2"/><linearGradient id="Unbenannter_Verlauf_10-4" y1="655.59" y2="939.94" xlink:href="#Unbenannter_Verlauf_10"/><linearGradient id="Unbenannter_Verlauf_2-7" y1="655.59" y2="939.94" xlink:href="#Unbenannter_Verlauf_2"/><linearGradient id="Unbenannter_Verlauf_2-8" x1="753" y1="560.06" x2="753" y2="752.04" xlink:href="#Unbenannter_Verlauf_2"/><linearGradient id="Unbenannter_Verlauf_10-5" y1="415.24" y2="699.59" xlink:href="#Unbenannter_Verlauf_10"/><linearGradient id="Unbenannter_Verlauf_2-9" y1="415.24" y2="699.59" xlink:href="#Unbenannter_Verlauf_2"/><linearGradient id="Unbenannter_Verlauf_2-10" x1="753" y1="319.7" x2="753" y2="511.69" xlink:href="#Unbenannter_Verlauf_2"/></defs><g class="cls-1"><polygon class="cls-16" points="752.5 991.72 595 895.24 595 1083.08 752.5 1179.59 752.5 991.72"/><polygon class="cls-17" points="752.5 991.72 911 895.24 911 1083.08 752.5 1179.59 752.5 991.72"/><polygon class="cls-14" points="752.55 991.69 595 895.24 754.55 799.7 911 895.24 752.55 991.69"/></g><polygon class="cls-7" points="752.5 752.08 595 655.59 595 843.44 752.5 939.94 752.5 752.08"/><polygon class="cls-7" points="752.5 752.08 911 655.59 911 843.44 752.5 939.94 752.5 752.08"/><polygon class="cls-7" points="752.55 752.04 595 655.59 754.55 560.06 911 655.59 752.55 752.04"/><g class="cls-1"><g class="cls-1"><polygon class="cls-4" points="676.69 769.1 649.13 752.22 649.13 830.3 676.69 847.19 676.69 769.1"/><polygon class="cls-12" points="676.69 769.1 704.42 752.22 704.42 830.3 676.69 847.19 676.69 769.1"/><polygon class="cls-15" points="676.7 769.1 649.13 752.22 677.05 735.5 704.42 752.22 676.7 769.1"/></g><g class="cls-1"><polygon class="cls-3" points="831.66 769.1 804.11 752.22 804.11 830.3 831.66 847.19 831.66 769.1"/><polygon class="cls-13" points="831.66 769.1 859.4 752.22 859.4 830.3 831.66 847.19 831.66 769.1"/><polygon class="cls-10" points="831.67 769.1 804.11 752.22 832.02 735.5 859.4 752.22 831.67 769.1"/></g><polygon class="cls-5" points="752.5 752.08 595 655.59 595 843.44 752.5 939.94 752.5 752.08"/><polygon class="cls-8" points="752.5 752.08 911 655.59 911 843.44 752.5 939.94 752.5 752.08"/><polygon class="cls-11" points="752.55 752.04 595 655.59 754.55 560.06 911 655.59 752.55 752.04"/></g><g class="cls-1"><polygon class="cls-2" points="752.5 511.72 595 415.24 595 603.08 752.5 699.59 752.5 511.72"/><polygon class="cls-9" points="752.5 511.72 911 415.24 911 603.08 752.5 699.59 752.5 511.72"/><polygon class="cls-6" points="752.55 511.69 595 415.24 754.55 319.7 911 415.24 752.55 511.69"/></g></svg>