<svg viewBox="0 0 1500 1500" xmlns="http://www.w3.org/2000/svg" xmlns:xlink="http://www.w3.org/1999/xlink"><linearGradient id="a" gradientUnits="userSpaceOnUse" x1="750" x2="750" y1="45.71" y2="750.15"><stop offset="0" stop-color="#533ffe" stop-opacity=".8"/><stop offset=".11" stop-color="#523efe" stop-opacity=".78"/><stop offset=".25" stop-color="#4f3bfe" stop-opacity=".71"/><stop offset=".41" stop-color="#4b36fe" stop-opacity=".61"/><stop offset=".59" stop-color="#452ffe" stop-opacity=".46"/><stop offset=".77" stop-color="#3d26fe" stop-opacity=".28"/><stop offset=".96" stop-color="#331bfe" stop-opacity=".05"/><stop offset="1" stop-color="#3119fe" stop-opacity="0"/></linearGradient><linearGradient id="b" gradientUnits="userSpaceOnUse" x1="673.75" x2="673.75" y1="176.74" y2="941.09"><stop offset="0" stop-color="#533ffe" stop-opacity=".6"/><stop offset=".13" stop-color="#523efe" stop-opacity=".58"/><stop offset=".3" stop-color="#4e39fe" stop-opacity=".51"/><stop offset=".5" stop-color="#4832fe" stop-opacity=".4"/><stop offset=".71" stop-color="#3f29fe" stop-opacity=".25"/><stop offset=".94" stop-color="#341dfe" stop-opacity=".06"/><stop offset="1" stop-color="#3119fe" stop-opacity="0"/></linearGradient><linearGradient id="c" x1="831.75" x2="831.75" xlink:href="#a" y1="176.74" y2="941.09"/><linearGradient id="d" x1="753" x2="753" xlink:href="#a" y1="81.2" y2="273.19"/><linearGradient id="e" x1="478.25" x2="478.25" xlink:href="#b" y1="297.32" y2="1061.67"/><linearGradient id="f" x1="636.25" x2="636.25" xlink:href="#a" y1="297.32" y2="1061.67"/><linearGradient id="g" x1="557.5" x2="557.5" xlink:href="#a" y1="201.78" y2="393.77"/><linearGradient id="h" x1="282.25" x2="282.25" xlink:href="#b" y1="415.22" y2="1179.57"/><linearGradient id="i" x1="440.25" x2="440.25" xlink:href="#a" y1="415.22" y2="1179.57"/><linearGradient id="j" x1="361.5" x2="361.5" xlink:href="#a" y1="319.69" y2="511.67"/><linearGradient id="k" x1="865.26" x2="865.26" xlink:href="#b" y1="297.32" y2="1061.67"/><linearGradient id="l" x1="1023.26" x2="1023.26" xlink:href="#a" y1="297.32" y2="1061.67"/><linearGradient id="m" x1="944.51" x2="944.51" xlink:href="#a" y1="201.78" y2="393.77"/><linearGradient id="n" x1="1059.25" x2="1059.25" xlink:href="#b" y1="415.22" y2="1179.57"/><linearGradient id="o" x1="1217.25" x2="1217.25" xlink:href="#a" y1="415.22" y2="1179.57"/><linearGradient id="p" x1="1138.5" x2="1138.5" xlink:href="#a" y1="319.69" y2="511.67"/><linearGradient id="q" xlink:href="#b" y1="415.22" y2="1179.57"/><linearGradient id="r" x1="831.75" x2="831.75" xlink:href="#a" y1="415.22" y2="1179.57"/><linearGradient id="s" x1="753" x2="753" xlink:href="#a" y1="319.69" y2="511.67"/><linearGradient id="t" x1="478.29" x2="478.29" xlink:href="#b" y1="533.74" y2="1298.09"/><linearGradient id="u" x1="636.29" x2="636.29" xlink:href="#a" y1="533.74" y2="1298.09"/><linearGradient id="v" x1="557.54" x2="557.54" xlink:href="#a" y1="438.21" y2="630.2"/><linearGradient id="w" x1="865.2" x2="865.2" xlink:href="#b" y1="533.74" y2="1298.09"/><linearGradient id="x" x1="1023.2" x2="1023.2" xlink:href="#a" y1="533.74" y2="1298.09"/><linearGradient id="y" x1="944.45" x2="944.45" xlink:href="#a" y1="438.21" y2="630.2"/><linearGradient id="z" xlink:href="#b" y1="654.45" y2="1418.8"/><linearGradient id="A" x1="831.75" x2="831.75" xlink:href="#a" y1="654.45" y2="1418.8"/><linearGradient id="B" x1="753" x2="753" xlink:href="#a" y1="558.91" y2="750.9"/><linearGradient id="C" x1="463.54" x2="463.54" xlink:href="#b" y1="397.44" y2="1453.69"/><linearGradient id="D" x1="1039.09" x2="1039.09" xlink:href="#a" y1="397.44" y2="1453.68"/><clipPath id="E"><path d="m752.64 750.32-578.19-352.88v703.35l578.19 352.9z"/></clipPath><linearGradient id="F" x1="292.51" x2="292.51" xlink:href="#b" y1="942.1" y2="1165.97"/><linearGradient id="G" x1="369.77" x2="369.77" xlink:href="#a" y1="942.1" y2="1165.97"/><linearGradient id="H" x1="331.26" x2="331.26" xlink:href="#a" y1="895.38" y2="989.26"/><linearGradient id="I" x1="303.16" x2="303.16" xlink:href="#b" y1="488.91" y2="712.78"/><linearGradient id="J" x1="380.41" x2="380.41" xlink:href="#a" y1="488.91" y2="712.78"/><linearGradient id="K" x1="341.91" x2="341.91" xlink:href="#a" y1="442.2" y2="536.07"/><linearGradient id="L" x1="652.92" x2="652.92" xlink:href="#b" y1="769.07" y2="992.95"/><linearGradient id="M" x1="730.17" x2="730.17" xlink:href="#a" y1="769.07" y2="992.95"/><linearGradient id="N" x1="691.67" x2="691.67" xlink:href="#a" y1="722.36" y2="816.23"/><linearGradient id="O" x1="237.95" x2="237.95" xlink:href="#b" y1="743.36" y2="898.6"/><linearGradient id="P" x1="291.52" x2="291.52" xlink:href="#a" y1="743.36" y2="898.6"/><linearGradient id="Q" x1="264.82" x2="264.82" xlink:href="#a" y1="710.97" y2="776.06"/><linearGradient id="R" x1="545.8" x2="545.8" xlink:href="#b" y1="622.64" y2="777.88"/><linearGradient id="S" x1="599.37" x2="599.37" xlink:href="#a" y1="622.64" y2="777.88"/><linearGradient id="T" x1="572.67" x2="572.67" xlink:href="#a" y1="590.25" y2="655.34"/><linearGradient id="U" x1="390.52" x2="390.52" xlink:href="#b" y1="673.57" y2="857.65"/><linearGradient id="V" x1="454.05" x2="454.05" xlink:href="#a" y1="673.57" y2="857.65"/><linearGradient id="W" x1="422.38" x2="422.38" xlink:href="#a" y1="635.16" y2="712.35"/><linearGradient id="X" x1="525.01" x2="525.01" xlink:href="#b" y1="789.08" y2="909.3"/><linearGradient id="Y" x1="566.5" x2="566.5" xlink:href="#a" y1="789.08" y2="909.3"/><linearGradient id="Z" x1="545.82" x2="545.82" xlink:href="#a" y1="763.99" y2="814.4"/><linearGradient id="aa" x1="449.56" x2="449.56" xlink:href="#b" y1="986.68" y2="1106.89"/><linearGradient id="ab" x1="491.05" x2="491.05" xlink:href="#a" y1="986.68" y2="1106.89"/><linearGradient id="ac" x1="470.37" x2="470.37" xlink:href="#a" y1="961.59" y2="1012"/><linearGradient id="ad" x1="605.43" x2="605.43" xlink:href="#b" y1="989.05" y2="1109.27"/><linearGradient id="ae" x1="646.92" x2="646.92" xlink:href="#a" y1="989.05" y2="1109.27"/><linearGradient id="af" x1="626.24" x2="626.24" xlink:href="#a" y1="963.97" y2="1014.38"/><linearGradient id="ag" x1="628.29" x2="628.29" xlink:href="#b" y1="1062.62" y2="1356.9"/><linearGradient id="ah" x1="729.85" x2="729.85" xlink:href="#a" y1="1062.62" y2="1356.9"/><linearGradient id="ai" x1="679.23" x2="679.23" xlink:href="#a" y1="1001.22" y2="1124.61"/><linearGradient id="aj" x1="692.73" x2="692.73" xlink:href="#b" y1="863.07" y2="941.58"/><linearGradient id="ak" x1="719.83" x2="719.83" xlink:href="#a" y1="863.07" y2="941.58"/><linearGradient id="al" x1="706.32" x2="706.32" xlink:href="#a" y1="846.69" y2="879.61"/><path d="m750.96 750.15-576.51-352.71 580.48-351.73 570.62 351.73z" fill="url(#a)" opacity=".6"/><g fill="none"><g opacity=".6"><path d="m752.5 273.22-157.5-96.48v667.84l157.5 96.51z" fill="url(#b)"/><path d="m752.5 273.22 158.5-96.48v667.84l-158.5 96.51z" fill="url(#c)"/><path d="m752.55 273.19-157.55-96.45 159.55-95.54 156.45 95.54z" fill="url(#d)"/></g><g opacity=".6"><path d="m557 393.8-157.5-96.48v667.84l157.5 96.51z" fill="url(#e)"/><path d="m557 393.8 158.5-96.48v667.84l-158.5 96.51z" fill="url(#f)"/><path d="m557.05 393.77-157.55-96.45 159.55-95.54 156.45 95.54z" fill="url(#g)"/></g><g opacity=".6"><path d="m361 511.71-157.5-96.49v667.85l157.5 96.5z" fill="url(#h)"/><path d="m361 511.71 158.5-96.49v667.85l-158.5 96.5z" fill="url(#i)"/><path d="m361.05 511.67-157.55-96.45 159.55-95.53 156.45 95.53z" fill="url(#j)"/></g><g opacity=".6"><path d="m944.01 393.8-157.5-96.48v667.84l157.5 96.51z" fill="url(#k)"/><path d="m944.01 393.8 158.5-96.48v667.84l-158.5 96.51z" fill="url(#l)"/><path d="m944.06 393.77-157.55-96.45 159.55-95.54 156.45 95.54z" fill="url(#m)"/></g><g opacity=".6"><path d="m1138 511.71-157.5-96.49v667.85l157.5 96.5z" fill="url(#n)"/><path d="m1138 511.71 158.5-96.49v667.85l-158.5 96.5z" fill="url(#o)"/><path d="m1138.05 511.67-157.55-96.45 159.55-95.53 156.45 95.53z" fill="url(#p)"/></g><g opacity=".6"><path d="m752.5 511.71-157.5-96.49v667.85l157.5 96.5z" fill="url(#q)"/><path d="m752.5 511.71 158.5-96.49v667.85l-158.5 96.5z" fill="url(#r)"/><path d="m752.55 511.67-157.55-96.45 159.55-95.53 156.45 95.53z" fill="url(#s)"/></g><g opacity=".6"><path d="m557.04 630.23-157.5-96.49v667.85l157.5 96.5z" fill="url(#t)"/><path d="m557.04 630.23 158.5-96.49v667.85l-158.5 96.5z" fill="url(#u)"/><path d="m557.09 630.2-157.55-96.46 159.55-95.53 156.45 95.53z" fill="url(#v)"/></g><g opacity=".6"><path d="m943.95 630.23-157.5-96.49v667.85l157.5 96.5z" fill="url(#w)"/><path d="m943.95 630.23 158.5-96.49v667.85l-158.5 96.5z" fill="url(#x)"/><path d="m944.01 630.2-157.56-96.46 159.55-95.53 156.45 95.53z" fill="url(#y)"/></g><g opacity=".6"><path d="m752.5 750.93-157.5-96.48v667.84l157.5 96.51z" fill="url(#z)"/><path d="m752.5 750.93 158.5-96.48v667.84l-158.5 96.51z" fill="url(#A)"/><path d="m752.55 750.9-157.55-96.45 159.55-95.54 156.45 95.54z" fill="url(#B)"/></g></g><path d="m752.64 750.32-578.19-352.88v703.35l578.19 352.9z" fill="#fff"/><path d="m752.64 750.32-578.19-352.88v703.35l578.19 352.9z" fill="url(#C)"/><path d="m752.64 750.32 572.91-352.88v703.35l-572.91 352.89z" fill="#fff"/><path d="m752.64 750.32 572.91-352.88v703.35l-572.91 352.89z" fill="url(#D)" opacity=".6"/><path d="m750.96 750.15-576.51-352.71 580.48-351.73 570.62 351.73z" fill="#fff"/><path d="m750.96 750.15-576.51-352.71 580.48-351.73 570.62 351.73z" fill="url(#a)" opacity=".6"/><g clip-path="url(#E)" fill="none"><g opacity=".6"><path d="m331.02 989.27-77.01-47.17v176.68l77.01 47.19z" fill="url(#F)"/><path d="m331.02 989.27 77.5-47.17v176.68l-77.5 47.19z" fill="url(#G)"/><path d="m331.04 989.26-77.03-47.16 78.01-46.72 76.5 46.72z" fill="url(#H)"/></g><g opacity=".6"><path d="m341.67 536.09-77.02-47.18v176.69l77.02 47.18z" fill="url(#I)"/><path d="m341.67 536.09 77.49-47.18v176.69l-77.49 47.18z" fill="url(#J)"/><path d="m341.69 536.07-77.04-47.16 78.02-46.71 76.49 46.71z" fill="url(#K)"/></g><g opacity=".6"><path d="m691.42 816.25-77.01-47.18v176.69l77.01 47.19z" fill="url(#L)"/><path d="m691.42 816.25 77.5-47.18v176.69l-77.5 47.19z" fill="url(#M)"/><path d="m691.45 816.23-77.04-47.16 78.02-46.71 76.49 46.71z" fill="url(#N)"/></g><g opacity=".6"><path d="m264.65 776.07-53.4-32.71v122.52l53.4 32.72z" fill="url(#O)"/><path d="m264.65 776.07 53.74-32.71v122.52l-53.74 32.72z" fill="url(#P)"/><path d="m264.67 776.06-53.42-32.7 54.1-32.39 53.04 32.39z" fill="url(#Q)"/></g><g opacity=".6"><path d="m572.5 655.35-53.4-32.71v122.52l53.4 32.72z" fill="url(#R)"/><path d="m572.5 655.35 53.74-32.71v122.52l-53.74 32.72z" fill="url(#S)"/><path d="m572.52 655.34-53.42-32.7 54.1-32.39 53.04 32.39z" fill="url(#T)"/></g><g opacity=".6"><path d="m422.18 712.37-63.32-38.8v145.28l63.32 38.8z" fill="url(#U)"/><path d="m422.18 712.37 63.73-38.8v145.28l-63.73 38.8z" fill="url(#V)"/><path d="m422.2 712.35-63.34-38.78 64.15-38.41 62.9 38.41z" fill="url(#W)"/></g><g opacity=".6"><path d="m545.69 814.41-41.35-25.33v94.88l41.35 25.34z" fill="url(#X)"/><path d="m545.69 814.41 41.62-25.33v94.88l-41.62 25.34z" fill="url(#Y)"/><path d="m545.7 814.4-41.36-25.32 41.89-25.09 41.08 25.09z" fill="url(#Z)"/></g><g opacity=".6"><path d="m470.24 1012.01-41.36-25.33v94.88l41.36 25.33z" fill="url(#aa)"/><path d="m470.24 1012.01 41.62-25.33v94.88l-41.62 25.33z" fill="url(#ab)"/><path d="m470.25 1012-41.37-25.32 41.9-25.09 41.08 25.09z" fill="url(#ac)"/></g><g opacity=".6"><path d="m626.11 1014.39-41.35-25.34v94.88l41.35 25.34z" fill="url(#ad)"/><path d="m626.11 1014.39 41.62-25.34v94.88l-41.62 25.34z" fill="url(#ae)"/><path d="m626.12 1014.38-41.36-25.33 41.89-25.08 41.08 25.08z" fill="url(#af)"/></g><g opacity=".6"><path d="m678.91 1124.64-101.23-62.02v232.25l101.23 62.03z" fill="url(#ag)"/><path d="m678.91 1124.64 101.87-62.02v232.25l-101.87 62.03z" fill="url(#ah)"/><path d="m678.94 1124.61-101.26-61.99 102.55-61.4 100.55 61.4z" fill="url(#ai)"/></g><g opacity=".6"><path d="m706.24 879.62-27.01-16.55v61.97l27.01 16.54z" fill="url(#aj)"/><path d="m706.24 879.62 27.18-16.55v61.97l-27.18 16.54z" fill="url(#ak)"/><path d="m706.25 879.61-27.02-16.54 27.36-16.38 26.83 16.38z" fill="url(#al)"/></g></g></svg>