<?xml version="1.0" encoding="UTF-8"?><svg id="Ebene_1" xmlns="http://www.w3.org/2000/svg" xmlns:xlink="http://www.w3.org/1999/xlink" viewBox="0 0 1500 1500"><defs><style>.cls-1,.cls-2,.cls-3{fill:none;}.cls-2{opacity:.6;}.cls-4{fill:url(#Unbenannter_Verlauf_10-19);}.cls-5{fill:url(#Unbenannter_Verlauf_10-16);}.cls-6{fill:url(#Unbenannter_Verlauf_10-17);}.cls-7{fill:url(#Unbenannter_Verlauf_10-14);}.cls-8{fill:url(#Unbenannter_Verlauf_10-15);}.cls-9{fill:url(#Unbenannter_Verlauf_10-18);}.cls-10{fill:url(#Unbenannter_Verlauf_10-10);}.cls-11{fill:url(#Unbenannter_Verlauf_10-13);}.cls-12{fill:url(#Unbenannter_Verlauf_10-12);}.cls-13{fill:url(#Unbenannter_Verlauf_10-11);}.cls-14{fill:url(#Unbenannter_Verlauf_10-21);}.cls-15{fill:url(#Unbenannter_Verlauf_10-20);}.cls-16{fill:url(#Unbenannter_Verlauf_10-9);}.cls-17{fill:url(#Unbenannter_Verlauf_10-6);}.cls-18{fill:url(#Unbenannter_Verlauf_10-5);}.cls-19{fill:url(#Unbenannter_Verlauf_10-3);}.cls-20{fill:url(#Unbenannter_Verlauf_10-2);}.cls-21{fill:url(#Unbenannter_Verlauf_10-4);}.cls-22{fill:url(#Unbenannter_Verlauf_10-8);}.cls-23{fill:url(#Unbenannter_Verlauf_10-7);}.cls-24{fill:url(#Unbenannter_Verlauf_2-23);}.cls-25{fill:url(#Unbenannter_Verlauf_2-22);}.cls-26{fill:url(#Unbenannter_Verlauf_2-25);}.cls-27{fill:url(#Unbenannter_Verlauf_2-20);}.cls-28{fill:url(#Unbenannter_Verlauf_2-35);}.cls-29{fill:url(#Unbenannter_Verlauf_2-34);}.cls-30{fill:url(#Unbenannter_Verlauf_2-30);}.cls-31{fill:url(#Unbenannter_Verlauf_2-32);}.cls-32{fill:url(#Unbenannter_Verlauf_2-39);}.cls-33{fill:url(#Unbenannter_Verlauf_2-38);}.cls-34{fill:url(#Unbenannter_Verlauf_2-36);}.cls-35{fill:url(#Unbenannter_Verlauf_2-33);}.cls-36{fill:url(#Unbenannter_Verlauf_2-31);}.cls-37{fill:url(#Unbenannter_Verlauf_2-37);}.cls-38{fill:url(#Unbenannter_Verlauf_2-28);}.cls-39{fill:url(#Unbenannter_Verlauf_2-29);}.cls-40{fill:url(#Unbenannter_Verlauf_2-24);}.cls-41{fill:url(#Unbenannter_Verlauf_2-21);}.cls-42{fill:url(#Unbenannter_Verlauf_2-26);}.cls-43{fill:url(#Unbenannter_Verlauf_2-27);}.cls-44{fill:url(#Unbenannter_Verlauf_2-13);}.cls-45{fill:url(#Unbenannter_Verlauf_2-14);}.cls-46{fill:url(#Unbenannter_Verlauf_2-18);}.cls-47{fill:url(#Unbenannter_Verlauf_2-12);}.cls-48{fill:url(#Unbenannter_Verlauf_2-17);}.cls-49{fill:url(#Unbenannter_Verlauf_2-11);}.cls-50{fill:url(#Unbenannter_Verlauf_2-16);}.cls-51{fill:url(#Unbenannter_Verlauf_2-15);}.cls-52{fill:url(#Unbenannter_Verlauf_2-10);}.cls-53{fill:url(#Unbenannter_Verlauf_2-19);}.cls-54{fill:url(#Unbenannter_Verlauf_2-42);}.cls-55{fill:url(#Unbenannter_Verlauf_2-41);}.cls-56{fill:url(#Unbenannter_Verlauf_2-40);}.cls-57{fill:#fff;}.cls-58{fill:url(#Unbenannter_Verlauf_2-7);}.cls-59{fill:url(#Unbenannter_Verlauf_2-9);}.cls-60{fill:url(#Unbenannter_Verlauf_2-6);}.cls-61{fill:url(#Unbenannter_Verlauf_2-8);}.cls-62{fill:url(#Unbenannter_Verlauf_2-3);}.cls-63{fill:url(#Unbenannter_Verlauf_2-5);}.cls-64{fill:url(#Unbenannter_Verlauf_2-2);}.cls-65{fill:url(#Unbenannter_Verlauf_2-4);}.cls-66{fill:url(#Unbenannter_Verlauf_10);}.cls-67{fill:url(#Unbenannter_Verlauf_2);}.cls-3{clip-path:url(#clippath);}</style><linearGradient id="Unbenannter_Verlauf_2" x1="750" y1="45.71" x2="750" y2="750.15" gradientUnits="userSpaceOnUse"><stop offset="0" stop-color="#533ffe" stop-opacity=".8"/><stop offset=".11" stop-color="#523efe" stop-opacity=".78"/><stop offset=".25" stop-color="#4f3bfe" stop-opacity=".71"/><stop offset=".41" stop-color="#4b36fe" stop-opacity=".61"/><stop offset=".59" stop-color="#452ffe" stop-opacity=".46"/><stop offset=".77" stop-color="#3d26fe" stop-opacity=".28"/><stop offset=".96" stop-color="#331bfe" stop-opacity=".05"/><stop offset="1" stop-color="#3119fe" stop-opacity="0"/></linearGradient><linearGradient id="Unbenannter_Verlauf_10" x1="673.75" y1="176.74" x2="673.75" y2="941.09" gradientUnits="userSpaceOnUse"><stop offset="0" stop-color="#533ffe" stop-opacity=".6"/><stop offset=".13" stop-color="#523efe" stop-opacity=".58"/><stop offset=".3" stop-color="#4e39fe" stop-opacity=".51"/><stop offset=".5" stop-color="#4832fe" stop-opacity=".4"/><stop offset=".71" stop-color="#3f29fe" stop-opacity=".25"/><stop offset=".94" stop-color="#341dfe" stop-opacity=".06"/><stop offset="1" stop-color="#3119fe" stop-opacity="0"/></linearGradient><linearGradient id="Unbenannter_Verlauf_2-2" x1="831.75" y1="176.74" x2="831.75" y2="941.09" xlink:href="#Unbenannter_Verlauf_2"/><linearGradient id="Unbenannter_Verlauf_2-3" x1="753" y1="81.2" x2="753" y2="273.19" xlink:href="#Unbenannter_Verlauf_2"/><linearGradient id="Unbenannter_Verlauf_10-2" x1="478.25" y1="297.32" x2="478.25" y2="1061.67" xlink:href="#Unbenannter_Verlauf_10"/><linearGradient id="Unbenannter_Verlauf_2-4" x1="636.25" y1="297.32" x2="636.25" y2="1061.67" xlink:href="#Unbenannter_Verlauf_2"/><linearGradient id="Unbenannter_Verlauf_2-5" x1="557.5" y1="201.78" x2="557.5" y2="393.77" xlink:href="#Unbenannter_Verlauf_2"/><linearGradient id="Unbenannter_Verlauf_10-3" x1="282.25" y1="415.22" x2="282.25" y2="1179.57" xlink:href="#Unbenannter_Verlauf_10"/><linearGradient id="Unbenannter_Verlauf_2-6" x1="440.25" y1="415.22" x2="440.25" y2="1179.57" xlink:href="#Unbenannter_Verlauf_2"/><linearGradient id="Unbenannter_Verlauf_2-7" x1="361.5" y1="319.69" x2="361.5" y2="511.67" xlink:href="#Unbenannter_Verlauf_2"/><linearGradient id="Unbenannter_Verlauf_10-4" x1="865.26" y1="297.32" x2="865.26" y2="1061.67" xlink:href="#Unbenannter_Verlauf_10"/><linearGradient id="Unbenannter_Verlauf_2-8" x1="1023.26" y1="297.32" x2="1023.26" y2="1061.67" xlink:href="#Unbenannter_Verlauf_2"/><linearGradient id="Unbenannter_Verlauf_2-9" x1="944.51" y1="201.78" x2="944.51" y2="393.77" xlink:href="#Unbenannter_Verlauf_2"/><linearGradient id="Unbenannter_Verlauf_10-5" x1="1059.25" y1="415.22" x2="1059.25" y2="1179.57" xlink:href="#Unbenannter_Verlauf_10"/><linearGradient id="Unbenannter_Verlauf_2-10" x1="1217.25" y1="415.22" x2="1217.25" y2="1179.57" xlink:href="#Unbenannter_Verlauf_2"/><linearGradient id="Unbenannter_Verlauf_2-11" x1="1138.5" y1="319.69" x2="1138.5" y2="511.67" xlink:href="#Unbenannter_Verlauf_2"/><linearGradient id="Unbenannter_Verlauf_10-6" y1="415.22" y2="1179.57" xlink:href="#Unbenannter_Verlauf_10"/><linearGradient id="Unbenannter_Verlauf_2-12" x1="831.75" y1="415.22" x2="831.75" y2="1179.57" xlink:href="#Unbenannter_Verlauf_2"/><linearGradient id="Unbenannter_Verlauf_2-13" x1="753" y1="319.69" x2="753" y2="511.67" xlink:href="#Unbenannter_Verlauf_2"/><linearGradient id="Unbenannter_Verlauf_10-7" x1="478.29" y1="533.74" x2="478.29" y2="1298.09" xlink:href="#Unbenannter_Verlauf_10"/><linearGradient id="Unbenannter_Verlauf_2-14" x1="636.29" y1="533.74" x2="636.29" y2="1298.09" xlink:href="#Unbenannter_Verlauf_2"/><linearGradient id="Unbenannter_Verlauf_2-15" x1="557.54" y1="438.21" x2="557.54" y2="630.2" xlink:href="#Unbenannter_Verlauf_2"/><linearGradient id="Unbenannter_Verlauf_10-8" x1="865.2" y1="533.74" x2="865.2" y2="1298.09" xlink:href="#Unbenannter_Verlauf_10"/><linearGradient id="Unbenannter_Verlauf_2-16" x1="1023.2" y1="533.74" x2="1023.2" y2="1298.09" xlink:href="#Unbenannter_Verlauf_2"/><linearGradient id="Unbenannter_Verlauf_2-17" x1="944.45" y1="438.21" x2="944.45" y2="630.2" xlink:href="#Unbenannter_Verlauf_2"/><linearGradient id="Unbenannter_Verlauf_10-9" y1="654.45" y2="1418.8" xlink:href="#Unbenannter_Verlauf_10"/><linearGradient id="Unbenannter_Verlauf_2-18" x1="831.75" y1="654.45" x2="831.75" y2="1418.8" xlink:href="#Unbenannter_Verlauf_2"/><linearGradient id="Unbenannter_Verlauf_2-19" x1="753" y1="558.91" x2="753" y2="750.9" xlink:href="#Unbenannter_Verlauf_2"/><linearGradient id="Unbenannter_Verlauf_10-10" x1="463.54" y1="397.44" x2="463.54" y2="1453.69" xlink:href="#Unbenannter_Verlauf_10"/><linearGradient id="Unbenannter_Verlauf_2-20" x1="1039.09" y1="397.44" x2="1039.09" y2="1453.68" xlink:href="#Unbenannter_Verlauf_2"/><clipPath id="clippath"><polygon class="cls-1" points="752.64 750.32 174.45 397.44 174.45 1100.79 752.64 1453.69 752.64 750.32"/></clipPath><linearGradient id="Unbenannter_Verlauf_10-11" x1="292.51" y1="942.1" x2="292.51" y2="1165.97" xlink:href="#Unbenannter_Verlauf_10"/><linearGradient id="Unbenannter_Verlauf_2-21" x1="369.77" y1="942.1" x2="369.77" y2="1165.97" xlink:href="#Unbenannter_Verlauf_2"/><linearGradient id="Unbenannter_Verlauf_2-22" x1="331.26" y1="895.38" x2="331.26" y2="989.26" xlink:href="#Unbenannter_Verlauf_2"/><linearGradient id="Unbenannter_Verlauf_10-12" x1="303.16" y1="488.91" x2="303.16" y2="712.78" xlink:href="#Unbenannter_Verlauf_10"/><linearGradient id="Unbenannter_Verlauf_2-23" x1="380.41" y1="488.91" x2="380.41" y2="712.78" xlink:href="#Unbenannter_Verlauf_2"/><linearGradient id="Unbenannter_Verlauf_2-24" x1="341.91" y1="442.2" x2="341.91" y2="536.07" xlink:href="#Unbenannter_Verlauf_2"/><linearGradient id="Unbenannter_Verlauf_10-13" x1="652.92" y1="769.07" x2="652.92" y2="992.95" xlink:href="#Unbenannter_Verlauf_10"/><linearGradient id="Unbenannter_Verlauf_2-25" x1="730.17" y1="769.07" x2="730.17" y2="992.95" xlink:href="#Unbenannter_Verlauf_2"/><linearGradient id="Unbenannter_Verlauf_2-26" x1="691.67" y1="722.36" x2="691.67" y2="816.23" xlink:href="#Unbenannter_Verlauf_2"/><linearGradient id="Unbenannter_Verlauf_10-14" x1="237.95" y1="743.36" x2="237.95" y2="898.6" xlink:href="#Unbenannter_Verlauf_10"/><linearGradient id="Unbenannter_Verlauf_2-27" x1="291.52" y1="743.36" x2="291.52" y2="898.6" xlink:href="#Unbenannter_Verlauf_2"/><linearGradient id="Unbenannter_Verlauf_2-28" x1="264.82" y1="710.97" x2="264.82" y2="776.06" xlink:href="#Unbenannter_Verlauf_2"/><linearGradient id="Unbenannter_Verlauf_10-15" x1="545.8" y1="622.64" x2="545.8" y2="777.88" xlink:href="#Unbenannter_Verlauf_10"/><linearGradient id="Unbenannter_Verlauf_2-29" x1="599.37" y1="622.64" x2="599.37" y2="777.88" xlink:href="#Unbenannter_Verlauf_2"/><linearGradient id="Unbenannter_Verlauf_2-30" x1="572.67" y1="590.25" x2="572.67" y2="655.34" xlink:href="#Unbenannter_Verlauf_2"/><linearGradient id="Unbenannter_Verlauf_10-16" x1="390.52" y1="673.57" x2="390.52" y2="857.65" xlink:href="#Unbenannter_Verlauf_10"/><linearGradient id="Unbenannter_Verlauf_2-31" x1="454.05" y1="673.57" x2="454.05" y2="857.65" xlink:href="#Unbenannter_Verlauf_2"/><linearGradient id="Unbenannter_Verlauf_2-32" x1="422.38" y1="635.16" x2="422.38" y2="712.35" xlink:href="#Unbenannter_Verlauf_2"/><linearGradient id="Unbenannter_Verlauf_10-17" x1="525.01" y1="789.08" x2="525.01" y2="909.3" xlink:href="#Unbenannter_Verlauf_10"/><linearGradient id="Unbenannter_Verlauf_2-33" x1="566.5" y1="789.08" x2="566.5" y2="909.3" xlink:href="#Unbenannter_Verlauf_2"/><linearGradient id="Unbenannter_Verlauf_2-34" x1="545.82" y1="763.99" x2="545.82" y2="814.4" xlink:href="#Unbenannter_Verlauf_2"/><linearGradient id="Unbenannter_Verlauf_10-18" x1="449.56" y1="986.68" x2="449.56" y2="1106.89" xlink:href="#Unbenannter_Verlauf_10"/><linearGradient id="Unbenannter_Verlauf_2-35" x1="491.05" y1="986.68" x2="491.05" y2="1106.89" xlink:href="#Unbenannter_Verlauf_2"/><linearGradient id="Unbenannter_Verlauf_2-36" x1="470.37" y1="961.59" x2="470.37" y2="1012" xlink:href="#Unbenannter_Verlauf_2"/><linearGradient id="Unbenannter_Verlauf_10-19" x1="605.43" y1="989.05" x2="605.43" y2="1109.27" xlink:href="#Unbenannter_Verlauf_10"/><linearGradient id="Unbenannter_Verlauf_2-37" x1="646.92" y1="989.05" x2="646.92" y2="1109.27" xlink:href="#Unbenannter_Verlauf_2"/><linearGradient id="Unbenannter_Verlauf_2-38" x1="626.24" y1="963.97" x2="626.24" y2="1014.38" xlink:href="#Unbenannter_Verlauf_2"/><linearGradient id="Unbenannter_Verlauf_10-20" x1="628.29" y1="1062.62" x2="628.29" y2="1356.9" xlink:href="#Unbenannter_Verlauf_10"/><linearGradient id="Unbenannter_Verlauf_2-39" x1="729.85" y1="1062.62" x2="729.85" y2="1356.9" xlink:href="#Unbenannter_Verlauf_2"/><linearGradient id="Unbenannter_Verlauf_2-40" x1="679.23" y1="1001.22" x2="679.23" y2="1124.61" xlink:href="#Unbenannter_Verlauf_2"/><linearGradient id="Unbenannter_Verlauf_10-21" x1="692.73" y1="863.07" x2="692.73" y2="941.58" xlink:href="#Unbenannter_Verlauf_10"/><linearGradient id="Unbenannter_Verlauf_2-41" x1="719.83" y1="863.07" x2="719.83" y2="941.58" xlink:href="#Unbenannter_Verlauf_2"/><linearGradient id="Unbenannter_Verlauf_2-42" x1="706.32" y1="846.69" x2="706.32" y2="879.61" xlink:href="#Unbenannter_Verlauf_2"/></defs><g class="cls-2"><polygon class="cls-67" points="750.96 750.15 174.45 397.44 754.93 45.71 1325.55 397.44 750.96 750.15"/></g><g class="cls-2"><polygon class="cls-66" points="752.5 273.22 595 176.74 595 844.58 752.5 941.09 752.5 273.22"/><polygon class="cls-64" points="752.5 273.22 911 176.74 911 844.58 752.5 941.09 752.5 273.22"/><polygon class="cls-62" points="752.55 273.19 595 176.74 754.55 81.2 911 176.74 752.55 273.19"/></g><g class="cls-2"><polygon class="cls-20" points="557 393.8 399.5 297.32 399.5 965.16 557 1061.67 557 393.8"/><polygon class="cls-65" points="557 393.8 715.5 297.32 715.5 965.16 557 1061.67 557 393.8"/><polygon class="cls-63" points="557.05 393.77 399.5 297.32 559.05 201.78 715.5 297.32 557.05 393.77"/></g><g class="cls-2"><polygon class="cls-19" points="361 511.71 203.5 415.22 203.5 1083.07 361 1179.57 361 511.71"/><polygon class="cls-60" points="361 511.71 519.5 415.22 519.5 1083.07 361 1179.57 361 511.71"/><polygon class="cls-58" points="361.05 511.67 203.5 415.22 363.05 319.69 519.5 415.22 361.05 511.67"/></g><g class="cls-2"><polygon class="cls-21" points="944.01 393.8 786.51 297.32 786.51 965.16 944.01 1061.67 944.01 393.8"/><polygon class="cls-61" points="944.01 393.8 1102.51 297.32 1102.51 965.16 944.01 1061.67 944.01 393.8"/><polygon class="cls-59" points="944.06 393.77 786.51 297.32 946.06 201.78 1102.51 297.32 944.06 393.77"/></g><g class="cls-2"><polygon class="cls-18" points="1138 511.71 980.5 415.22 980.5 1083.07 1138 1179.57 1138 511.71"/><polygon class="cls-52" points="1138 511.71 1296.5 415.22 1296.5 1083.07 1138 1179.57 1138 511.71"/><polygon class="cls-49" points="1138.05 511.67 980.5 415.22 1140.05 319.69 1296.5 415.22 1138.05 511.67"/></g><g class="cls-2"><polygon class="cls-17" points="752.5 511.71 595 415.22 595 1083.07 752.5 1179.57 752.5 511.71"/><polygon class="cls-47" points="752.5 511.71 911 415.22 911 1083.07 752.5 1179.57 752.5 511.71"/><polygon class="cls-44" points="752.55 511.67 595 415.22 754.55 319.69 911 415.22 752.55 511.67"/></g><g class="cls-2"><polygon class="cls-23" points="557.04 630.23 399.54 533.74 399.54 1201.59 557.04 1298.09 557.04 630.23"/><polygon class="cls-45" points="557.04 630.23 715.54 533.74 715.54 1201.59 557.04 1298.09 557.04 630.23"/><polygon class="cls-51" points="557.09 630.2 399.54 533.74 559.09 438.21 715.54 533.74 557.09 630.2"/></g><g class="cls-2"><polygon class="cls-22" points="943.95 630.23 786.45 533.74 786.45 1201.59 943.95 1298.09 943.95 630.23"/><polygon class="cls-50" points="943.95 630.23 1102.45 533.74 1102.45 1201.59 943.95 1298.09 943.95 630.23"/><polygon class="cls-48" points="944.01 630.2 786.45 533.74 946 438.21 1102.45 533.74 944.01 630.2"/></g><g class="cls-2"><polygon class="cls-16" points="752.5 750.93 595 654.45 595 1322.29 752.5 1418.8 752.5 750.93"/><polygon class="cls-46" points="752.5 750.93 911 654.45 911 1322.29 752.5 1418.8 752.5 750.93"/><polygon class="cls-53" points="752.55 750.9 595 654.45 754.55 558.91 911 654.45 752.55 750.9"/></g><polygon class="cls-57" points="752.64 750.32 174.45 397.44 174.45 1100.79 752.64 1453.69 752.64 750.32"/><polygon class="cls-10" points="752.64 750.32 174.45 397.44 174.45 1100.79 752.64 1453.69 752.64 750.32"/><polygon class="cls-57" points="752.64 750.32 1325.55 397.44 1325.55 1100.79 752.64 1453.68 752.64 750.32"/><g class="cls-2"><polygon class="cls-27" points="752.64 750.32 1325.55 397.44 1325.55 1100.79 752.64 1453.68 752.64 750.32"/></g><polygon class="cls-57" points="750.96 750.15 174.45 397.44 754.93 45.71 1325.55 397.44 750.96 750.15"/><g class="cls-2"><polygon class="cls-67" points="750.96 750.15 174.45 397.44 754.93 45.71 1325.55 397.44 750.96 750.15"/></g><g class="cls-3"><g class="cls-2"><polygon class="cls-13" points="331.02 989.27 254.01 942.1 254.01 1118.78 331.02 1165.97 331.02 989.27"/><polygon class="cls-41" points="331.02 989.27 408.52 942.1 408.52 1118.78 331.02 1165.97 331.02 989.27"/><polygon class="cls-25" points="331.04 989.26 254.01 942.1 332.02 895.38 408.52 942.1 331.04 989.26"/></g><g class="cls-2"><polygon class="cls-12" points="341.67 536.09 264.65 488.91 264.65 665.6 341.67 712.78 341.67 536.09"/><polygon class="cls-24" points="341.67 536.09 419.16 488.91 419.16 665.6 341.67 712.78 341.67 536.09"/><polygon class="cls-40" points="341.69 536.07 264.65 488.91 342.67 442.2 419.16 488.91 341.69 536.07"/></g><g class="cls-2"><polygon class="cls-11" points="691.42 816.25 614.41 769.07 614.41 945.76 691.42 992.95 691.42 816.25"/><polygon class="cls-26" points="691.42 816.25 768.92 769.07 768.92 945.76 691.42 992.95 691.42 816.25"/><polygon class="cls-42" points="691.45 816.23 614.41 769.07 692.43 722.36 768.92 769.07 691.45 816.23"/></g><g class="cls-2"><polygon class="cls-7" points="264.65 776.07 211.25 743.36 211.25 865.88 264.65 898.6 264.65 776.07"/><polygon class="cls-43" points="264.65 776.07 318.39 743.36 318.39 865.88 264.65 898.6 264.65 776.07"/><polygon class="cls-38" points="264.67 776.06 211.25 743.36 265.35 710.97 318.39 743.36 264.67 776.06"/></g><g class="cls-2"><polygon class="cls-8" points="572.5 655.35 519.1 622.64 519.1 745.16 572.5 777.88 572.5 655.35"/><polygon class="cls-39" points="572.5 655.35 626.24 622.64 626.24 745.16 572.5 777.88 572.5 655.35"/><polygon class="cls-30" points="572.52 655.34 519.1 622.64 573.2 590.25 626.24 622.64 572.52 655.34"/></g><g class="cls-2"><polygon class="cls-5" points="422.18 712.37 358.86 673.57 358.86 818.85 422.18 857.65 422.18 712.37"/><polygon class="cls-36" points="422.18 712.37 485.91 673.57 485.91 818.85 422.18 857.65 422.18 712.37"/><polygon class="cls-31" points="422.2 712.35 358.86 673.57 423.01 635.16 485.91 673.57 422.2 712.35"/></g><g class="cls-2"><polygon class="cls-6" points="545.69 814.41 504.34 789.08 504.34 883.96 545.69 909.3 545.69 814.41"/><polygon class="cls-35" points="545.69 814.41 587.31 789.08 587.31 883.96 545.69 909.3 545.69 814.41"/><polygon class="cls-29" points="545.7 814.4 504.34 789.08 546.23 763.99 587.31 789.08 545.7 814.4"/></g><g class="cls-2"><polygon class="cls-9" points="470.24 1012.01 428.88 986.68 428.88 1081.56 470.24 1106.89 470.24 1012.01"/><polygon class="cls-28" points="470.24 1012.01 511.86 986.68 511.86 1081.56 470.24 1106.89 470.24 1012.01"/><polygon class="cls-34" points="470.25 1012 428.88 986.68 470.78 961.59 511.86 986.68 470.25 1012"/></g><g class="cls-2"><polygon class="cls-4" points="626.11 1014.39 584.76 989.05 584.76 1083.93 626.11 1109.27 626.11 1014.39"/><polygon class="cls-37" points="626.11 1014.39 667.73 989.05 667.73 1083.93 626.11 1109.27 626.11 1014.39"/><polygon class="cls-33" points="626.12 1014.38 584.76 989.05 626.65 963.97 667.73 989.05 626.12 1014.38"/></g><g class="cls-2"><polygon class="cls-15" points="678.91 1124.64 577.68 1062.62 577.68 1294.87 678.91 1356.9 678.91 1124.64"/><polygon class="cls-32" points="678.91 1124.64 780.78 1062.62 780.78 1294.87 678.91 1356.9 678.91 1124.64"/><polygon class="cls-56" points="678.94 1124.61 577.68 1062.62 680.23 1001.22 780.78 1062.62 678.94 1124.61"/></g><g class="cls-2"><polygon class="cls-14" points="706.24 879.62 679.23 863.07 679.23 925.04 706.24 941.58 706.24 879.62"/><polygon class="cls-55" points="706.24 879.62 733.42 863.07 733.42 925.04 706.24 941.58 706.24 879.62"/><polygon class="cls-54" points="706.25 879.61 679.23 863.07 706.59 846.69 733.42 863.07 706.25 879.61"/></g></g></svg>