<svg viewBox="0 0 1500 1500" xmlns="http://www.w3.org/2000/svg" xmlns:xlink="http://www.w3.org/1999/xlink"><linearGradient id="a" gradientUnits="userSpaceOnUse" x1="282.25" x2="282.25" y1="415.22" y2="699.57"><stop offset="0" stop-color="#533ffe" stop-opacity=".6"/><stop offset=".13" stop-color="#523efe" stop-opacity=".58"/><stop offset=".3" stop-color="#4e39fe" stop-opacity=".51"/><stop offset=".5" stop-color="#4832fe" stop-opacity=".4"/><stop offset=".71" stop-color="#3f29fe" stop-opacity=".25"/><stop offset=".94" stop-color="#341dfe" stop-opacity=".06"/><stop offset="1" stop-color="#3119fe" stop-opacity="0"/></linearGradient><linearGradient id="b" gradientUnits="userSpaceOnUse" x1="440.25" x2="440.25" y1="415.22" y2="699.57"><stop offset="0" stop-color="#533ffe" stop-opacity=".8"/><stop offset=".11" stop-color="#523efe" stop-opacity=".78"/><stop offset=".25" stop-color="#4f3bfe" stop-opacity=".71"/><stop offset=".41" stop-color="#4b36fe" stop-opacity=".61"/><stop offset=".59" stop-color="#452ffe" stop-opacity=".46"/><stop offset=".77" stop-color="#3d26fe" stop-opacity=".28"/><stop offset=".96" stop-color="#331bfe" stop-opacity=".05"/><stop offset="1" stop-color="#3119fe" stop-opacity="0"/></linearGradient><linearGradient id="c" x1="361.5" x2="361.5" xlink:href="#b" y1="319.69" y2="511.67"/><linearGradient id="d" xlink:href="#a" y1="895.22" y2="1179.57"/><linearGradient id="e" xlink:href="#b" y1="895.22" y2="1179.57"/><linearGradient id="f" x1="361.5" x2="361.5" xlink:href="#b" y1="799.69" y2="991.67"/><linearGradient id="g" xlink:href="#a" y1="655.74" y2="940.09"/><linearGradient id="h" xlink:href="#b" y1="655.74" y2="940.09"/><linearGradient id="i" x1="361.5" x2="361.5" xlink:href="#b" y1="560.2" y2="752.19"/><linearGradient id="j" x1="1059.25" x2="1059.25" xlink:href="#a"/><linearGradient id="k" x1="1217.25" x2="1217.25" xlink:href="#b"/><linearGradient id="l" x1="1138.5" x2="1138.5" xlink:href="#b" y1="319.69" y2="511.67"/><linearGradient id="m" x1="1059.25" x2="1059.25" xlink:href="#a" y1="895.22" y2="1179.57"/><linearGradient id="n" x1="1217.25" x2="1217.25" xlink:href="#b" y1="895.22" y2="1179.57"/><linearGradient id="o" x1="1138.5" x2="1138.5" xlink:href="#b" y1="799.69" y2="991.67"/><linearGradient id="p" x1="1059.25" x2="1059.25" xlink:href="#a" y1="655.74" y2="940.09"/><linearGradient id="q" x1="1217.25" x2="1217.25" xlink:href="#b" y1="655.74" y2="940.09"/><linearGradient id="r" x1="1138.5" x2="1138.5" xlink:href="#b" y1="560.2" y2="752.19"/><linearGradient id="s" x1="673.75" x2="673.75" xlink:href="#a" y1="177.27" y2="461.62"/><linearGradient id="t" x1="831.75" x2="831.75" xlink:href="#b" y1="177.27" y2="461.62"/><linearGradient id="u" x1="753" x2="753" xlink:href="#b" y1="81.73" y2="273.72"/><linearGradient id="v" x1="673.75" x2="673.75" xlink:href="#a" y1="657.27" y2="941.62"/><linearGradient id="w" x1="831.75" x2="831.75" xlink:href="#b" y1="657.27" y2="941.62"/><linearGradient id="x" x1="753" x2="753" xlink:href="#b" y1="561.73" y2="753.72"/><linearGradient id="y" x1="673.75" x2="673.75" xlink:href="#a" y1="417.78" y2="702.13"/><linearGradient id="z" x1="831.75" x2="831.75" xlink:href="#b" y1="417.78" y2="702.13"/><linearGradient id="A" x1="753" x2="753" xlink:href="#b" y1="322.25" y2="514.23"/><g fill="none" opacity=".6"><path d="m361 511.71-157.5-96.49v187.85l157.5 96.5z" fill="url(#a)"/><path d="m361 511.71 158.5-96.49v187.85l-158.5 96.5z" fill="url(#b)"/><path d="m361.05 511.67-157.55-96.45 159.55-95.53 156.45 95.53z" fill="url(#c)"/></g><path d="m361 991.71-157.5-96.49v187.85l157.5 96.5z" fill="#fe9dae"/><path d="m361 991.71 158.5-96.49v187.85l-158.5 96.5z" fill="#fe9dae"/><path d="m361.05 991.67-157.55-96.45 159.55-95.53 156.45 95.53z" fill="#fe9dae"/><g fill="none"><g opacity=".6"><path d="m361 991.71-157.5-96.49v187.85l157.5 96.5z" fill="url(#d)"/><path d="m361 991.71 158.5-96.49v187.85l-158.5 96.5z" fill="url(#e)"/><path d="m361.05 991.67-157.55-96.45 159.55-95.53 156.45 95.53z" fill="url(#f)"/></g><g opacity=".6"><path d="m361 752.23-157.5-96.49v187.84l157.5 96.51z" fill="url(#g)"/><path d="m361 752.23 158.5-96.49v187.84l-158.5 96.51z" fill="url(#h)"/><path d="m361.05 752.19-157.55-96.45 159.55-95.54 156.45 95.54z" fill="url(#i)"/></g><g opacity=".6"><path d="m1138 511.71-157.5-96.49v187.85l157.5 96.5z" fill="url(#j)"/><path d="m1138 511.71 158.5-96.49v187.85l-158.5 96.5z" fill="url(#k)"/><path d="m1138.05 511.67-157.55-96.45 159.55-95.53 156.45 95.53z" fill="url(#l)"/></g></g><path d="m1138 991.71-157.5-96.49v187.85l157.5 96.5z" fill="#fe9dae"/><path d="m1138 991.71 158.5-96.49v187.85l-158.5 96.5z" fill="#fe9dae"/><path d="m1138.05 991.67-157.55-96.45 159.55-95.53 156.45 95.53z" fill="#fe9dae"/><g fill="none" opacity=".6"><path d="m1138 991.71-157.5-96.49v187.85l157.5 96.5z" fill="url(#m)"/><path d="m1138 991.71 158.5-96.49v187.85l-158.5 96.5z" fill="url(#n)"/><path d="m1138.05 991.67-157.55-96.45 159.55-95.53 156.45 95.53z" fill="url(#o)"/></g><g fill="none" opacity=".6"><path d="m1138 752.23-157.5-96.49v187.84l157.5 96.51z" fill="url(#p)"/><path d="m1138 752.23 158.5-96.49v187.84l-158.5 96.51z" fill="url(#q)"/><path d="m1138.05 752.19-157.55-96.45 159.55-95.54 156.45 95.54z" fill="url(#r)"/></g><g fill="none" opacity=".6"><path d="m752.5 273.75-157.5-96.48v187.84l157.5 96.51z" fill="url(#s)"/><path d="m752.5 273.75 158.5-96.48v187.84l-158.5 96.51z" fill="url(#t)"/><path d="m752.55 273.72-157.55-96.45 159.55-95.54 156.45 95.54z" fill="url(#u)"/></g><path d="m752.5 753.75-157.5-96.48v187.84l157.5 96.51z" fill="#fe9dae"/><path d="m752.5 753.75 158.5-96.48v187.84l-158.5 96.51z" fill="#fe9dae"/><path d="m752.55 753.72-157.55-96.45 159.55-95.54 156.45 95.54z" fill="#fe9dae"/><g fill="none" opacity=".6"><path d="m752.5 753.75-157.5-96.48v187.84l157.5 96.51z" fill="url(#v)"/><path d="m752.5 753.75 158.5-96.48v187.84l-158.5 96.51z" fill="url(#w)"/><path d="m752.55 753.72-157.55-96.45 159.55-95.54 156.45 95.54z" fill="url(#x)"/></g><g fill="none" opacity=".6"><path d="m752.5 514.27-157.5-96.49v187.85l157.5 96.5z" fill="url(#y)"/><path d="m752.5 514.27 158.5-96.49v187.85l-158.5 96.5z" fill="url(#z)"/><path d="m752.55 514.23-157.55-96.45 159.55-95.53 156.45 95.53z" fill="url(#A)"/></g></svg>