<svg viewBox="0 0 1500 1500" xmlns="http://www.w3.org/2000/svg" xmlns:xlink="http://www.w3.org/1999/xlink"><linearGradient id="a" gradientUnits="userSpaceOnUse" x1="750" x2="750" y1="780" y2="1323.1"><stop offset="0" stop-color="#533ffe" stop-opacity=".8"/><stop offset=".11" stop-color="#523efe" stop-opacity=".78"/><stop offset=".25" stop-color="#4f3bfe" stop-opacity=".71"/><stop offset=".41" stop-color="#4b36fe" stop-opacity=".61"/><stop offset=".59" stop-color="#452ffe" stop-opacity=".46"/><stop offset=".77" stop-color="#3d26fe" stop-opacity=".28"/><stop offset=".96" stop-color="#331bfe" stop-opacity=".05"/><stop offset="1" stop-color="#3119fe" stop-opacity="0"/></linearGradient><linearGradient id="b" x1="750" x2="750" xlink:href="#a" y1="334.25" y2="777.06"/><linearGradient id="c" gradientTransform="matrix(.71200398 .61371844 -.54313504 .79924835 1574.5 -646.73)" x1="-26.32" x2="-26.32" xlink:href="#a" y1="1511.19" y2="1548.35"/><linearGradient id="d" gradientTransform="matrix(.71200398 .61371844 -.54313504 .79924835 1584.91 -732.91)" x1="42.14" x2="42.14" xlink:href="#a" y1="1520" y2="1557.16"/><linearGradient id="e" x1="931.72" x2="931.72" xlink:href="#a" y1="555.35" y2="1219.3"/><linearGradient id="f" gradientUnits="userSpaceOnUse" x1="569.93" x2="569.93" y1="555.35" y2="1219.3"><stop offset="0" stop-color="#533ffe" stop-opacity=".6"/><stop offset=".13" stop-color="#523efe" stop-opacity=".58"/><stop offset=".3" stop-color="#4e39fe" stop-opacity=".51"/><stop offset=".5" stop-color="#4832fe" stop-opacity=".4"/><stop offset=".71" stop-color="#3f29fe" stop-opacity=".25"/><stop offset=".94" stop-color="#341dfe" stop-opacity=".06"/><stop offset="1" stop-color="#3119fe" stop-opacity="0"/></linearGradient><path d="m1490 1323.1h-1480l170-543.1h1140z" fill="url(#a)" opacity=".2"/><g fill="#fe9dae"><path d="m750.6 777.06-362.39-221.71 364.89-221.1 358.69 221.1z"/><path d="m751.66 777.17 360.13-221.82v442.12l-360.13 221.83z"/><path d="m751.66 777.17-363.45-221.82v442.12l363.45 221.83z"/></g><path d="m750.6 777.06-362.39-221.71 364.89-221.1 358.69 221.1z" fill="url(#b)" opacity=".6"/><ellipse cx="722.85" cy="561.78" fill="url(#c)" opacity=".4" rx="16.64" ry="18.73" transform="matrix(.12948788 -.991581 .991581 .12948788 72.19 1205.79)"/><ellipse cx="777.15" cy="524.62" fill="url(#d)" opacity=".4" rx="16.64" ry="18.73" transform="matrix(.12948788 -.991581 .991581 .12948788 156.3 1227.28)"/><path d="m751.66 777.17 360.13-221.82v442.12l-360.13 221.83z" fill="url(#e)" opacity=".6"/><path d="m751.66 777.17-363.45-221.82v442.12l363.45 221.83z" fill="url(#f)"/></svg>