<svg viewBox="0 0 1500 1500" xmlns="http://www.w3.org/2000/svg" xmlns:xlink="http://www.w3.org/1999/xlink"><linearGradient id="a" gradientUnits="userSpaceOnUse" x1="750" x2="750" y1="780" y2="1323.1"><stop offset="0" stop-color="#533ffe" stop-opacity=".8"/><stop offset=".11" stop-color="#523efe" stop-opacity=".78"/><stop offset=".25" stop-color="#4f3bfe" stop-opacity=".71"/><stop offset=".41" stop-color="#4b36fe" stop-opacity=".61"/><stop offset=".59" stop-color="#452ffe" stop-opacity=".46"/><stop offset=".77" stop-color="#3d26fe" stop-opacity=".28"/><stop offset=".96" stop-color="#331bfe" stop-opacity=".05"/><stop offset="1" stop-color="#3119fe" stop-opacity="0"/></linearGradient><linearGradient id="b" gradientUnits="userSpaceOnUse" x1="699.55" x2="699.55" y1="397.46" y2="903.22"><stop offset="0" stop-color="#533ffe" stop-opacity=".6"/><stop offset=".13" stop-color="#523efe" stop-opacity=".58"/><stop offset=".3" stop-color="#4e39fe" stop-opacity=".51"/><stop offset=".5" stop-color="#4832fe" stop-opacity=".4"/><stop offset=".71" stop-color="#3f29fe" stop-opacity=".25"/><stop offset=".94" stop-color="#341dfe" stop-opacity=".06"/><stop offset="1" stop-color="#3119fe" stop-opacity="0"/></linearGradient><linearGradient id="c" x1="804.09" x2="804.09" xlink:href="#a" y1="397.46" y2="903.22"/><linearGradient id="d" x1="751.99" x2="751.99" xlink:href="#a" y1="334.25" y2="461.28"/><linearGradient id="e" x1="570.19" x2="570.19" xlink:href="#b" y1="477.25" y2="983"/><linearGradient id="f" x1="674.74" x2="674.74" xlink:href="#a" y1="477.25" y2="983"/><linearGradient id="g" x1="622.63" x2="622.63" xlink:href="#a" y1="414.04" y2="541.07"/><linearGradient id="h" x1="440.5" x2="440.5" xlink:href="#b" y1="555.26" y2="1061.01"/><linearGradient id="i" x1="545.05" x2="545.05" xlink:href="#a" y1="555.26" y2="1061.01"/><linearGradient id="j" x1="492.94" x2="492.94" xlink:href="#a" y1="492.05" y2="619.08"/><linearGradient id="k" x1="826.26" x2="826.26" xlink:href="#b" y1="477.25" y2="983"/><linearGradient id="l" x1="930.81" x2="930.81" xlink:href="#a" y1="477.25" y2="983"/><linearGradient id="m" x1="878.7" x2="878.7" xlink:href="#a" y1="414.04" y2="541.07"/><linearGradient id="n" x1="954.62" x2="954.62" xlink:href="#b" y1="555.26" y2="1061.01"/><linearGradient id="o" x1="1059.17" x2="1059.17" xlink:href="#a" y1="555.26" y2="1061.01"/><linearGradient id="p" x1="1007.06" x2="1007.06" xlink:href="#a" y1="492.05" y2="619.08"/><linearGradient id="q" xlink:href="#b" y1="555.26" y2="1061.01"/><linearGradient id="r" x1="804.09" x2="804.09" xlink:href="#a" y1="555.26" y2="1061.01"/><linearGradient id="s" x1="751.99" x2="751.99" xlink:href="#a" y1="492.05" y2="619.08"/><linearGradient id="t" x1="570.22" x2="570.22" xlink:href="#b" y1="633.69" y2="1139.44"/><linearGradient id="u" x1="674.76" x2="674.76" xlink:href="#a" y1="633.69" y2="1139.44"/><linearGradient id="v" x1="622.66" x2="622.66" xlink:href="#a" y1="570.47" y2="697.51"/><linearGradient id="w" x1="826.23" x2="826.23" xlink:href="#b" y1="633.69" y2="1139.44"/><linearGradient id="x" x1="930.77" x2="930.77" xlink:href="#a" y1="633.69" y2="1139.44"/><linearGradient id="y" x1="878.67" x2="878.67" xlink:href="#a" y1="570.47" y2="697.51"/><linearGradient id="z" xlink:href="#b" y1="713.55" y2="1219.3"/><linearGradient id="A" x1="804.09" x2="804.09" xlink:href="#a" y1="713.55" y2="1219.3"/><linearGradient id="B" x1="751.99" x2="751.99" xlink:href="#a" y1="650.34" y2="777.37"/><path d="m1490 1323.1h-1480l170-543.1h1140z" fill="url(#a)" opacity=".2"/><g fill="none"><g opacity=".6"><path d="m751.66 461.31-104.22-63.85v441.9l104.22 63.86z" fill="url(#b)"/><path d="m751.66 461.31 104.87-63.85v441.9l-104.87 63.86z" fill="url(#c)"/><path d="m751.69 461.28-104.25-63.82 105.57-63.21 103.52 63.21z" fill="url(#d)"/></g><g opacity=".6"><path d="m622.3 541.09-104.22-63.84v441.89l104.22 63.86z" fill="url(#e)"/><path d="m622.3 541.09 104.87-63.84v441.89l-104.87 63.86z" fill="url(#f)"/><path d="m622.33 541.07-104.25-63.82 105.57-63.21 103.52 63.21z" fill="url(#g)"/></g><g opacity=".6"><path d="m492.61 619.11-104.21-63.85v441.9l104.21 63.85z" fill="url(#h)"/><path d="m492.61 619.11 104.88-63.85v441.9l-104.88 63.85z" fill="url(#i)"/><path d="m492.64 619.08-104.24-63.82 105.56-63.21 103.53 63.21z" fill="url(#j)"/></g><g opacity=".6"><path d="m878.37 541.09-104.21-63.84v441.89l104.21 63.86z" fill="url(#k)"/><path d="m878.37 541.09 104.88-63.84v441.89l-104.88 63.86z" fill="url(#l)"/><path d="m878.4 541.07-104.24-63.82 105.57-63.21 103.52 63.21z" fill="url(#m)"/></g><g opacity=".6"><path d="m1006.73 619.11-104.22-63.85v441.9l104.22 63.85z" fill="url(#n)"/><path d="m1006.73 619.11 104.87-63.85v441.9l-104.87 63.85z" fill="url(#o)"/><path d="m1006.76 619.08-104.25-63.82 105.57-63.21 103.52 63.21z" fill="url(#p)"/></g><g opacity=".6"><path d="m751.66 619.11-104.22-63.85v441.9l104.22 63.85z" fill="url(#q)"/><path d="m751.66 619.11 104.87-63.85v441.9l-104.87 63.85z" fill="url(#r)"/><path d="m751.69 619.08-104.25-63.82 105.57-63.21 103.52 63.21z" fill="url(#s)"/></g><g opacity=".6"><path d="m622.33 697.53-104.22-63.84v441.89l104.22 63.86z" fill="url(#t)"/><path d="m622.33 697.53 104.87-63.84v441.89l-104.87 63.86z" fill="url(#u)"/><path d="m622.36 697.51-104.25-63.82 105.57-63.22 103.52 63.22z" fill="url(#v)"/></g><g opacity=".6"><path d="m878.33 697.53-104.21-63.84v441.89l104.21 63.86z" fill="url(#w)"/><path d="m878.33 697.53 104.88-63.84v441.89l-104.88 63.86z" fill="url(#x)"/><path d="m878.37 697.51-104.25-63.82 105.57-63.22 103.52 63.22z" fill="url(#y)"/></g><g opacity=".6"><path d="m751.66 777.39-104.22-63.84v441.9l104.22 63.85z" fill="url(#z)"/><path d="m751.66 777.39 104.87-63.84v441.9l-104.87 63.85z" fill="url(#A)"/><path d="m751.69 777.37-104.25-63.82 105.57-63.21 103.52 63.21z" fill="url(#B)"/></g></g></svg>