<svg viewBox="0 0 1500 1500" xmlns="http://www.w3.org/2000/svg" xmlns:xlink="http://www.w3.org/1999/xlink"><linearGradient id="a" gradientUnits="userSpaceOnUse" x1="673.75" x2="673.75" y1="415.22" y2="950.6"><stop offset="0" stop-color="#533ffe" stop-opacity=".6"/><stop offset=".13" stop-color="#523efe" stop-opacity=".58"/><stop offset=".3" stop-color="#4e39fe" stop-opacity=".51"/><stop offset=".5" stop-color="#4832fe" stop-opacity=".4"/><stop offset=".71" stop-color="#3f29fe" stop-opacity=".25"/><stop offset=".94" stop-color="#341dfe" stop-opacity=".06"/><stop offset="1" stop-color="#3119fe" stop-opacity="0"/></linearGradient><linearGradient id="b" gradientUnits="userSpaceOnUse" x1="831.75" x2="831.75" y1="415.22" y2="950.6"><stop offset="0" stop-color="#533ffe" stop-opacity=".8"/><stop offset=".11" stop-color="#523efe" stop-opacity=".78"/><stop offset=".25" stop-color="#4f3bfe" stop-opacity=".71"/><stop offset=".41" stop-color="#4b36fe" stop-opacity=".61"/><stop offset=".59" stop-color="#452ffe" stop-opacity=".46"/><stop offset=".77" stop-color="#3d26fe" stop-opacity=".28"/><stop offset=".96" stop-color="#331bfe" stop-opacity=".05"/><stop offset="1" stop-color="#3119fe" stop-opacity="0"/></linearGradient><linearGradient id="c" x1="753" x2="753" xlink:href="#b" y1="319.69" y2="511.67"/><linearGradient id="d" x1="753" x2="753" xlink:href="#b" y1="727.43"/><linearGradient id="e" x1="750" x2="750" xlink:href="#b" y1="474.48" y2="1179.57"/><linearGradient id="f" x1="1039.03" x2="1039.03" xlink:href="#b" y1="826.71" y2="1453.68"/><linearGradient id="g" x1="463.48" x2="463.48" xlink:href="#a" y1="826.7" y2="1453.69"/><g fill="none" opacity=".6"><path d="m752.5 511.71-157.5-96.49v438.97l157.5 96.41z" fill="url(#a)"/><path d="m752.5 511.71 158.5-96.49v438.88l-158.5 96.5z" fill="url(#b)"/><path d="m752.55 511.67-157.55-96.45 159.55-95.53 156.45 95.53z" fill="url(#c)"/><path d="m752.48 950.6-183.14-112.12 185.46-111.05 181.87 111.05z" fill="url(#d)"/></g><path d="m752.5 1179.57-578.05-352.87 580.48-352.22 570.62 352.23z" fill="url(#e)" opacity=".6"/><path d="m752.5 1179.58 573.05-352.87v274.08l-573.05 352.89z" fill="url(#f)" opacity=".6"/><path d="m752.5 1179.58-578.05-352.88v274.09l578.05 352.9z" fill="url(#g)"/></svg>