<?xml version="1.0" encoding="UTF-8"?><svg id="Ebene_1" xmlns="http://www.w3.org/2000/svg" xmlns:xlink="http://www.w3.org/1999/xlink" viewBox="0 0 1500 1500"><defs><style>.cls-1{fill:none;opacity:.6;}.cls-2{fill:url(#Unbenannter_Verlauf_10-9);}.cls-3{fill:url(#Unbenannter_Verlauf_10-6);}.cls-4{fill:url(#Unbenannter_Verlauf_10-5);}.cls-5{fill:url(#Unbenannter_Verlauf_10-3);}.cls-6{fill:url(#Unbenannter_Verlauf_10-2);}.cls-7{fill:url(#Unbenannter_Verlauf_10-4);}.cls-8{fill:url(#Unbenannter_Verlauf_10-8);}.cls-9{fill:url(#Unbenannter_Verlauf_10-7);}.cls-10{fill:url(#Unbenannter_Verlauf_2-13);}.cls-11{fill:url(#Unbenannter_Verlauf_2-14);}.cls-12{fill:url(#Unbenannter_Verlauf_2-18);}.cls-13{fill:url(#Unbenannter_Verlauf_2-12);}.cls-14{fill:url(#Unbenannter_Verlauf_2-17);}.cls-15{fill:url(#Unbenannter_Verlauf_2-11);}.cls-16{fill:url(#Unbenannter_Verlauf_2-16);}.cls-17{fill:url(#Unbenannter_Verlauf_2-15);}.cls-18{fill:url(#Unbenannter_Verlauf_2-10);}.cls-19{fill:url(#Unbenannter_Verlauf_6-10);}.cls-20{fill:#fe9dae;}.cls-21{fill:url(#Unbenannter_Verlauf_2-7);}.cls-22{fill:url(#Unbenannter_Verlauf_2-9);}.cls-23{fill:url(#Unbenannter_Verlauf_2-6);}.cls-24{fill:url(#Unbenannter_Verlauf_2-8);}.cls-25{fill:url(#Unbenannter_Verlauf_2-3);}.cls-26{fill:url(#Unbenannter_Verlauf_2-5);}.cls-27{fill:url(#Unbenannter_Verlauf_2-2);}.cls-28{fill:url(#Unbenannter_Verlauf_2-4);}.cls-29{fill:url(#Unbenannter_Verlauf_6-4);}.cls-30{fill:url(#Unbenannter_Verlauf_6-3);}.cls-31{fill:url(#Unbenannter_Verlauf_6-2);}.cls-32{fill:url(#Unbenannter_Verlauf_6-6);}.cls-33{fill:url(#Unbenannter_Verlauf_6-5);}.cls-34{fill:url(#Unbenannter_Verlauf_6-7);}.cls-35{fill:url(#Unbenannter_Verlauf_6-9);}.cls-36{fill:url(#Unbenannter_Verlauf_6-8);}.cls-37{fill:url(#Unbenannter_Verlauf_8-4);}.cls-38{fill:url(#Unbenannter_Verlauf_8-2);}.cls-39{fill:url(#Unbenannter_Verlauf_8-3);}.cls-40{fill:url(#Unbenannter_Verlauf_10);}.cls-41{fill:url(#Unbenannter_Verlauf_2);}.cls-42{fill:url(#Unbenannter_Verlauf_6);}.cls-43{fill:url(#Unbenannter_Verlauf_8);}</style><linearGradient id="Unbenannter_Verlauf_10" x1="282.25" y1="415.22" x2="282.25" y2="699.57" gradientUnits="userSpaceOnUse"><stop offset="0" stop-color="#533ffe" stop-opacity=".6"/><stop offset=".13" stop-color="#523efe" stop-opacity=".58"/><stop offset=".3" stop-color="#4e39fe" stop-opacity=".51"/><stop offset=".5" stop-color="#4832fe" stop-opacity=".4"/><stop offset=".71" stop-color="#3f29fe" stop-opacity=".25"/><stop offset=".94" stop-color="#341dfe" stop-opacity=".06"/><stop offset="1" stop-color="#3119fe" stop-opacity="0"/></linearGradient><linearGradient id="Unbenannter_Verlauf_2" x1="440.25" y1="415.22" x2="440.25" y2="699.57" gradientUnits="userSpaceOnUse"><stop offset="0" stop-color="#533ffe" stop-opacity=".8"/><stop offset=".11" stop-color="#523efe" stop-opacity=".78"/><stop offset=".25" stop-color="#4f3bfe" stop-opacity=".71"/><stop offset=".41" stop-color="#4b36fe" stop-opacity=".61"/><stop offset=".59" stop-color="#452ffe" stop-opacity=".46"/><stop offset=".77" stop-color="#3d26fe" stop-opacity=".28"/><stop offset=".96" stop-color="#331bfe" stop-opacity=".05"/><stop offset="1" stop-color="#3119fe" stop-opacity="0"/></linearGradient><linearGradient id="Unbenannter_Verlauf_2-2" x1="361.5" y1="319.69" x2="361.5" y2="511.67" xlink:href="#Unbenannter_Verlauf_2"/><linearGradient id="Unbenannter_Verlauf_10-2" y1="895.22" y2="1179.57" xlink:href="#Unbenannter_Verlauf_10"/><linearGradient id="Unbenannter_Verlauf_6" x1="6111.7" y1="2441.25" x2="6111.7" y2="2441.84" gradientTransform="translate(519924.33 128013) rotate(-180) scale(85 52)" gradientUnits="userSpaceOnUse"><stop offset="0" stop-color="#533ffe" stop-opacity=".7"/><stop offset=".06" stop-color="#513dfe" stop-opacity=".66"/><stop offset="1" stop-color="#3119fe" stop-opacity="0"/></linearGradient><linearGradient id="Unbenannter_Verlauf_2-3" y1="895.22" y2="1179.57" xlink:href="#Unbenannter_Verlauf_2"/><linearGradient id="Unbenannter_Verlauf_2-4" x1="361.5" y1="799.69" x2="361.5" y2="991.67" xlink:href="#Unbenannter_Verlauf_2"/><linearGradient id="Unbenannter_Verlauf_10-3" y1="655.74" y2="940.09" xlink:href="#Unbenannter_Verlauf_10"/><linearGradient id="Unbenannter_Verlauf_2-5" y1="655.74" y2="940.09" xlink:href="#Unbenannter_Verlauf_2"/><linearGradient id="Unbenannter_Verlauf_2-6" x1="361.5" y1="560.2" x2="361.5" y2="752.19" xlink:href="#Unbenannter_Verlauf_2"/><linearGradient id="Unbenannter_Verlauf_10-4" x1="1059.25" x2="1059.25" xlink:href="#Unbenannter_Verlauf_10"/><linearGradient id="Unbenannter_Verlauf_2-7" x1="1217.25" x2="1217.25" xlink:href="#Unbenannter_Verlauf_2"/><linearGradient id="Unbenannter_Verlauf_2-8" x1="1138.5" y1="319.69" x2="1138.5" y2="511.67" xlink:href="#Unbenannter_Verlauf_2"/><linearGradient id="Unbenannter_Verlauf_6-2" x1="5861.91" y1="2442.13" x2="5861.91" y2="2442.72" gradientTransform="translate(-497228 128013) scale(85 -52)" xlink:href="#Unbenannter_Verlauf_6"/><linearGradient id="Unbenannter_Verlauf_10-5" x1="1059.25" y1="895.22" x2="1059.25" y2="1179.57" xlink:href="#Unbenannter_Verlauf_10"/><linearGradient id="Unbenannter_Verlauf_6-3" x1="6102.5" y1="2440.96" x2="6102.5" y2="2441.55" xlink:href="#Unbenannter_Verlauf_6"/><linearGradient id="Unbenannter_Verlauf_2-9" x1="1217.25" y1="895.22" x2="1217.25" y2="1179.57" xlink:href="#Unbenannter_Verlauf_2"/><linearGradient id="Unbenannter_Verlauf_2-10" x1="1138.5" y1="799.69" x2="1138.5" y2="991.67" xlink:href="#Unbenannter_Verlauf_2"/><linearGradient id="Unbenannter_Verlauf_10-6" x1="1059.25" y1="655.74" x2="1059.25" y2="940.09" xlink:href="#Unbenannter_Verlauf_10"/><linearGradient id="Unbenannter_Verlauf_2-11" x1="1217.25" y1="655.74" x2="1217.25" y2="940.09" xlink:href="#Unbenannter_Verlauf_2"/><linearGradient id="Unbenannter_Verlauf_2-12" x1="1138.5" y1="560.2" x2="1138.5" y2="752.19" xlink:href="#Unbenannter_Verlauf_2"/><linearGradient id="Unbenannter_Verlauf_10-7" x1="673.75" y1="177.27" x2="673.75" y2="461.62" xlink:href="#Unbenannter_Verlauf_10"/><linearGradient id="Unbenannter_Verlauf_2-13" x1="831.75" y1="177.27" x2="831.75" y2="461.62" xlink:href="#Unbenannter_Verlauf_2"/><linearGradient id="Unbenannter_Verlauf_2-14" x1="753" y1="81.73" x2="753" y2="273.72" xlink:href="#Unbenannter_Verlauf_2"/><linearGradient id="Unbenannter_Verlauf_6-4" x1="5857.76" y1="2447.12" x2="5857.76" y2="2447.7" gradientTransform="translate(-497228 128013) scale(85 -52)" xlink:href="#Unbenannter_Verlauf_6"/><linearGradient id="Unbenannter_Verlauf_8" x1="5838.85" y1="2456.07" x2="5838.85" y2="2456.65" gradientTransform="translate(-378891 96596) scale(65 -39)" gradientUnits="userSpaceOnUse"><stop offset="0" stop-color="#3119fe" stop-opacity="0"/><stop offset="1" stop-color="#533ffe" stop-opacity=".8"/></linearGradient><linearGradient id="Unbenannter_Verlauf_6-5" x1="5857.98" y1="2445.37" x2="5857.98" y2="2445.95" gradientTransform="translate(-497228 128013) scale(85 -52)" xlink:href="#Unbenannter_Verlauf_6"/><linearGradient id="Unbenannter_Verlauf_6-6" x1="5857.2" y1="2446.87" x2="5857.2" y2="2447.16" gradientTransform="translate(-497228 128013) scale(85 -52)" xlink:href="#Unbenannter_Verlauf_6"/><linearGradient id="Unbenannter_Verlauf_8-2" x1="5839.58" y1="2456.22" x2="5839.58" y2="2456.81" xlink:href="#Unbenannter_Verlauf_8"/><linearGradient id="Unbenannter_Verlauf_8-3" x1="5840.07" y1="2454.27" x2="5840.07" y2="2454.56" xlink:href="#Unbenannter_Verlauf_8"/><linearGradient id="Unbenannter_Verlauf_10-8" x1="673.75" y1="657.27" x2="673.75" y2="941.62" xlink:href="#Unbenannter_Verlauf_10"/><linearGradient id="Unbenannter_Verlauf_6-7" x1="6107.22" y1="2446.58" x2="6107.22" y2="2447.16" xlink:href="#Unbenannter_Verlauf_6"/><linearGradient id="Unbenannter_Verlauf_6-8" x1="6107.41" y1="2444.58" x2="6107.41" y2="2445.17" xlink:href="#Unbenannter_Verlauf_6"/><linearGradient id="Unbenannter_Verlauf_6-9" x1="6106.48" y1="2446.27" x2="6106.48" y2="2446.56" xlink:href="#Unbenannter_Verlauf_6"/><linearGradient id="Unbenannter_Verlauf_6-10" x1="6106.68" y1="2447.37" x2="6106.68" y2="2447.67" xlink:href="#Unbenannter_Verlauf_6"/><linearGradient id="Unbenannter_Verlauf_8-4" x1="6166.04" y1="2455.48" x2="6166.04" y2="2456.07" gradientTransform="translate(401587.33 96596) rotate(-180) scale(65 39)" xlink:href="#Unbenannter_Verlauf_8"/><linearGradient id="Unbenannter_Verlauf_2-15" x1="831.75" y1="657.27" x2="831.75" y2="941.62" xlink:href="#Unbenannter_Verlauf_2"/><linearGradient id="Unbenannter_Verlauf_2-16" x1="753" y1="561.73" x2="753" y2="753.72" xlink:href="#Unbenannter_Verlauf_2"/><linearGradient id="Unbenannter_Verlauf_10-9" x1="673.75" y1="417.78" x2="673.75" y2="702.13" xlink:href="#Unbenannter_Verlauf_10"/><linearGradient id="Unbenannter_Verlauf_2-17" x1="831.75" y1="417.78" x2="831.75" y2="702.13" xlink:href="#Unbenannter_Verlauf_2"/><linearGradient id="Unbenannter_Verlauf_2-18" x1="753" y1="322.25" x2="753" y2="514.23" xlink:href="#Unbenannter_Verlauf_2"/></defs><g class="cls-1"><polygon class="cls-40" points="361 511.71 203.5 415.22 203.5 603.07 361 699.57 361 511.71"/><polygon class="cls-41" points="361 511.71 519.5 415.22 519.5 603.07 361 699.57 361 511.71"/><polygon class="cls-27" points="361.05 511.67 203.5 415.22 363.05 319.69 519.5 415.22 361.05 511.67"/></g><polygon class="cls-20" points="361 991.71 203.5 895.22 203.5 1083.07 361 1179.57 361 991.71"/><polygon class="cls-20" points="361 991.71 519.5 895.22 519.5 1083.07 361 1179.57 361 991.71"/><polygon class="cls-20" points="361.05 991.67 203.5 895.22 363.05 799.69 519.5 895.22 361.05 991.67"/><g class="cls-1"><polygon class="cls-6" points="361 991.71 203.5 895.22 203.5 1083.07 361 1179.57 361 991.71"/><polyline id="Path" class="cls-42" points="430.03 1067.86 405.13 1052.63 430.03 1037.4 454.93 1052.63 430.03 1067.86"/><polygon class="cls-25" points="361 991.71 519.5 895.22 519.5 1083.07 361 1179.57 361 991.71"/><polygon class="cls-28" points="361.05 991.67 203.5 895.22 363.05 799.69 519.5 895.22 361.05 991.67"/></g><g class="cls-1"><polygon class="cls-5" points="361 752.23 203.5 655.74 203.5 843.58 361 940.09 361 752.23"/><polygon class="cls-26" points="361 752.23 519.5 655.74 519.5 843.58 361 940.09 361 752.23"/><polygon class="cls-23" points="361.05 752.19 203.5 655.74 363.05 560.2 519.5 655.74 361.05 752.19"/></g><g class="cls-1"><polygon class="cls-7" points="1138 511.71 980.5 415.22 980.5 603.07 1138 699.57 1138 511.71"/><polygon class="cls-21" points="1138 511.71 1296.5 415.22 1296.5 603.07 1138 699.57 1138 511.71"/><polygon class="cls-24" points="1138.05 511.67 980.5 415.22 1140.05 319.69 1296.5 415.22 1138.05 511.67"/></g><polygon class="cls-20" points="1138 991.71 980.5 895.22 980.5 1083.07 1138 1179.57 1138 991.71"/><polygon class="cls-20" points="1138 991.71 1296.5 895.22 1296.5 1083.07 1138 1179.57 1138 991.71"/><polygon class="cls-20" points="1138.05 991.67 980.5 895.22 1140.05 799.69 1296.5 895.22 1138.05 991.67"/><g class="cls-1"><polyline id="Path-2" class="cls-31" points="1034.35 1022.14 1059.25 1006.9 1034.35 991.67 1009.45 1006.9 1034.35 1022.14"/><polygon class="cls-4" points="1138 991.71 980.5 895.22 980.5 1083.07 1138 1179.57 1138 991.71"/><polyline id="Path-3" class="cls-30" points="1211.81 1083.09 1186.91 1067.86 1211.81 1052.63 1236.7 1067.86 1211.81 1083.09"/><polygon class="cls-22" points="1138 991.71 1296.5 895.22 1296.5 1083.07 1138 1179.57 1138 991.71"/><polygon class="cls-18" points="1138.05 991.67 980.5 895.22 1140.05 799.69 1296.5 895.22 1138.05 991.67"/></g><g class="cls-1"><polygon class="cls-3" points="1138 752.23 980.5 655.74 980.5 843.58 1138 940.09 1138 752.23"/><polygon class="cls-15" points="1138 752.23 1296.5 655.74 1296.5 843.58 1138 940.09 1138 752.23"/><polygon class="cls-13" points="1138.05 752.19 980.5 655.74 1140.05 560.2 1296.5 655.74 1138.05 752.19"/></g><g class="cls-1"><polygon class="cls-9" points="752.5 273.75 595 177.27 595 365.11 752.5 461.62 752.5 273.75"/><polygon class="cls-10" points="752.5 273.75 911 177.27 911 365.11 752.5 461.62 752.5 273.75"/><polygon class="cls-11" points="752.55 273.72 595 177.27 754.55 81.73 911 177.27 752.55 273.72"/></g><polygon class="cls-20" points="752.5 753.75 595 657.27 595 845.11 752.5 941.62 752.5 753.75"/><polygon class="cls-20" points="752.5 753.75 911 657.27 911 845.11 752.5 941.62 752.5 753.75"/><polygon class="cls-20" points="752.55 753.72 595 657.27 754.55 561.73 911 657.27 752.55 753.72"/><g class="cls-1"><polyline id="Path-4" class="cls-29" points="681.66 762.94 706.56 747.71 681.66 732.48 656.76 747.71 681.66 762.94"/><polyline id="Path-5" class="cls-43" points="633.93 809.34 652.97 797.91 633.93 786.49 614.9 797.91 633.93 809.34"/><polyline id="Path-6" class="cls-33" points="700.7 853.81 725.6 838.58 700.7 823.35 675.8 838.58 700.7 853.81"/><polyline id="Path-7" class="cls-32" points="633.93 775.87 646.38 768.25 633.93 760.64 621.49 768.25 633.93 775.87"/><polyline id="Path-8" class="cls-38" points="681.66 803.37 700.7 791.94 681.66 780.52 662.62 791.94 681.66 803.37"/><polyline id="Path-9" class="cls-39" points="713.44 879.59 722.96 873.88 713.44 868.17 703.92 873.88 713.44 879.59"/><polygon class="cls-8" points="752.5 753.75 595 657.27 595 845.11 752.5 941.62 752.5 753.75"/><polyline id="Path-10" class="cls-34" points="810.73 791.1 785.83 775.87 810.73 760.64 835.62 775.87 810.73 791.1"/><polyline id="Path-11" class="cls-36" points="794.67 894.82 769.77 879.59 794.67 864.36 819.56 879.59 794.67 894.82"/><polyline id="Path-12" class="cls-35" points="873.15 807.06 860.7 799.44 873.15 791.83 885.6 799.44 873.15 807.06"/><polyline id="Path-13" class="cls-19" points="856.27 749.64 843.82 742.03 856.27 734.41 868.72 742.03 856.27 749.64"/><polyline id="Path-14" class="cls-37" points="794.67 832.18 775.63 820.76 794.67 809.34 813.71 820.76 794.67 832.18"/><polygon class="cls-17" points="752.5 753.75 911 657.27 911 845.11 752.5 941.62 752.5 753.75"/><polygon class="cls-16" points="752.55 753.72 595 657.27 754.55 561.73 911 657.27 752.55 753.72"/></g><g class="cls-1"><polygon class="cls-2" points="752.5 514.27 595 417.78 595 605.63 752.5 702.13 752.5 514.27"/><polygon class="cls-14" points="752.5 514.27 911 417.78 911 605.63 752.5 702.13 752.5 514.27"/><polygon class="cls-12" points="752.55 514.23 595 417.78 754.55 322.25 911 417.78 752.55 514.23"/></g></svg>