<?xml version="1.0" encoding="UTF-8"?><svg id="Ebene_1" xmlns="http://www.w3.org/2000/svg" xmlns:xlink="http://www.w3.org/1999/xlink" viewBox="0 0 1500 1500"><defs><style>.cls-1{opacity:.6;}.cls-1,.cls-2{fill:none;}.cls-3{fill:url(#Unbenannter_Verlauf_10-6);}.cls-4{fill:url(#Unbenannter_Verlauf_10-5);}.cls-5{fill:url(#Unbenannter_Verlauf_10-3);}.cls-6{fill:url(#Unbenannter_Verlauf_10-2);}.cls-7{fill:url(#Unbenannter_Verlauf_10-7);}.cls-8{fill:url(#Unbenannter_Verlauf_2-12);}.cls-9{fill:url(#Unbenannter_Verlauf_2-11);}.cls-10{fill:url(#Unbenannter_Verlauf_2-10);}.cls-11{fill:#9191a5;}.cls-12{fill:url(#Unbenannter_Verlauf_2-7);}.cls-13{fill:url(#Unbenannter_Verlauf_2-9);}.cls-14{fill:url(#Unbenannter_Verlauf_2-6);}.cls-15{fill:url(#Unbenannter_Verlauf_2-8);}.cls-16{fill:url(#Unbenannter_Verlauf_2-3);}.cls-17{fill:url(#Unbenannter_Verlauf_2-5);}.cls-18{fill:url(#Unbenannter_Verlauf_2-2);}.cls-19{fill:url(#Unbenannter_Verlauf_2-4);}.cls-20{fill:url(#Unbenannter_Verlauf_10);}.cls-21{fill:url(#Unbenannter_Verlauf_2);}.cls-2{stroke:url(#Unbenannter_Verlauf_10-4);stroke-linecap:round;stroke-linejoin:round;stroke-width:10px;}</style><linearGradient id="Unbenannter_Verlauf_10" x1="282.25" y1="895.22" x2="282.25" y2="1179.57" gradientUnits="userSpaceOnUse"><stop offset="0" stop-color="#533ffe" stop-opacity=".6"/><stop offset=".13" stop-color="#523efe" stop-opacity=".58"/><stop offset=".3" stop-color="#4e39fe" stop-opacity=".51"/><stop offset=".5" stop-color="#4832fe" stop-opacity=".4"/><stop offset=".71" stop-color="#3f29fe" stop-opacity=".25"/><stop offset=".94" stop-color="#341dfe" stop-opacity=".06"/><stop offset="1" stop-color="#3119fe" stop-opacity="0"/></linearGradient><linearGradient id="Unbenannter_Verlauf_2" x1="440.25" y1="895.22" x2="440.25" y2="1179.57" gradientUnits="userSpaceOnUse"><stop offset="0" stop-color="#533ffe" stop-opacity=".8"/><stop offset=".11" stop-color="#523efe" stop-opacity=".78"/><stop offset=".25" stop-color="#4f3bfe" stop-opacity=".71"/><stop offset=".41" stop-color="#4b36fe" stop-opacity=".61"/><stop offset=".59" stop-color="#452ffe" stop-opacity=".46"/><stop offset=".77" stop-color="#3d26fe" stop-opacity=".28"/><stop offset=".96" stop-color="#331bfe" stop-opacity=".05"/><stop offset="1" stop-color="#3119fe" stop-opacity="0"/></linearGradient><linearGradient id="Unbenannter_Verlauf_2-2" x1="361.5" y1="799.69" x2="361.5" y2="991.67" xlink:href="#Unbenannter_Verlauf_2"/><linearGradient id="Unbenannter_Verlauf_10-2" y1="655.74" y2="940.09" xlink:href="#Unbenannter_Verlauf_10"/><linearGradient id="Unbenannter_Verlauf_2-3" y1="655.74" y2="940.09" xlink:href="#Unbenannter_Verlauf_2"/><linearGradient id="Unbenannter_Verlauf_2-4" x1="361.5" y1="560.2" x2="361.5" y2="752.19" xlink:href="#Unbenannter_Verlauf_2"/><linearGradient id="Unbenannter_Verlauf_10-3" y1="415.22" y2="699.57" xlink:href="#Unbenannter_Verlauf_10"/><linearGradient id="Unbenannter_Verlauf_2-5" y1="415.22" y2="699.57" xlink:href="#Unbenannter_Verlauf_2"/><linearGradient id="Unbenannter_Verlauf_2-6" x1="361.5" y1="319.69" x2="361.5" y2="511.67" xlink:href="#Unbenannter_Verlauf_2"/><linearGradient id="Unbenannter_Verlauf_10-4" x1="443" y1="628.24" x2="691.92" y2="628.24" xlink:href="#Unbenannter_Verlauf_10"/><linearGradient id="Unbenannter_Verlauf_10-5" x1="673.75" y1="1137.27" x2="673.75" y2="1421.62" xlink:href="#Unbenannter_Verlauf_10"/><linearGradient id="Unbenannter_Verlauf_2-7" x1="831.75" y1="1137.27" x2="831.75" y2="1421.62" xlink:href="#Unbenannter_Verlauf_2"/><linearGradient id="Unbenannter_Verlauf_2-8" x1="753" y1="1041.73" x2="753" y2="1233.72" xlink:href="#Unbenannter_Verlauf_2"/><linearGradient id="Unbenannter_Verlauf_10-6" x1="673.75" y1="899.83" x2="673.75" y2="1184.18" xlink:href="#Unbenannter_Verlauf_10"/><linearGradient id="Unbenannter_Verlauf_2-9" x1="831.75" y1="899.83" x2="831.75" y2="1184.18" xlink:href="#Unbenannter_Verlauf_2"/><linearGradient id="Unbenannter_Verlauf_2-10" x1="753" y1="804.29" x2="753" y2="996.28" xlink:href="#Unbenannter_Verlauf_2"/><linearGradient id="Unbenannter_Verlauf_10-7" x1="673.75" y1="657.78" x2="673.75" y2="942.13" xlink:href="#Unbenannter_Verlauf_10"/><linearGradient id="Unbenannter_Verlauf_2-11" x1="831.75" y1="657.78" x2="831.75" y2="942.13" xlink:href="#Unbenannter_Verlauf_2"/><linearGradient id="Unbenannter_Verlauf_2-12" x1="753" y1="562.25" x2="753" y2="754.23" xlink:href="#Unbenannter_Verlauf_2"/></defs><g class="cls-1"><polygon class="cls-20" points="361 991.71 203.5 895.22 203.5 1083.07 361 1179.57 361 991.71"/><polygon class="cls-21" points="361 991.71 519.5 895.22 519.5 1083.07 361 1179.57 361 991.71"/><polygon class="cls-18" points="361.05 991.67 203.5 895.22 363.05 799.69 519.5 895.22 361.05 991.67"/></g><g class="cls-1"><polygon class="cls-6" points="361 752.23 203.5 655.74 203.5 843.58 361 940.09 361 752.23"/><polygon class="cls-16" points="361 752.23 519.5 655.74 519.5 843.58 361 940.09 361 752.23"/><polygon class="cls-19" points="361.05 752.19 203.5 655.74 363.05 560.2 519.5 655.74 361.05 752.19"/></g><polygon class="cls-11" points="361 511.71 203.5 415.22 203.5 603.07 361 699.57 361 511.71"/><polygon class="cls-11" points="361 511.71 519.5 415.22 519.5 603.07 361 699.57 361 511.71"/><polygon class="cls-11" points="361.05 511.67 203.5 415.22 363.05 319.69 519.5 415.22 361.05 511.67"/><g class="cls-1"><polygon class="cls-5" points="361 511.71 203.5 415.22 203.5 603.07 361 699.57 361 511.71"/><polygon class="cls-17" points="361 511.71 519.5 415.22 519.5 603.07 361 699.57 361 511.71"/><polygon class="cls-14" points="361.05 511.67 203.5 415.22 363.05 319.69 519.5 415.22 361.05 511.67"/></g><g class="cls-1"><line class="cls-2" x1="448" y1="557.15" x2="686.92" y2="699.32"/></g><g class="cls-1"><polygon class="cls-4" points="752.5 1233.75 595 1137.27 595 1325.11 752.5 1421.62 752.5 1233.75"/><polygon class="cls-12" points="752.5 1233.75 911 1137.27 911 1325.11 752.5 1421.62 752.5 1233.75"/><polygon class="cls-15" points="752.55 1233.72 595 1137.27 754.55 1041.73 911 1137.27 752.55 1233.72"/></g><g class="cls-1"><polygon class="cls-3" points="752.5 996.31 595 899.83 595 1087.67 752.5 1184.18 752.5 996.31"/><polygon class="cls-13" points="752.5 996.31 911 899.83 911 1087.67 752.5 1184.18 752.5 996.31"/><polygon class="cls-10" points="752.55 996.28 595 899.83 754.55 804.29 911 899.83 752.55 996.28"/></g><polygon class="cls-11" points="752.5 754.27 838.95 701.64 838.95 889.48 752.5 942.13 752.5 754.27"/><polygon class="cls-11" points="752.55 754.23 595 657.78 681.91 605.74 838.95 701.64 752.55 754.23"/><polygon class="cls-11" points="752.5 754.27 595 657.78 595 845.63 752.5 942.13 752.5 754.27"/><g class="cls-1"><polygon class="cls-7" points="752.5 754.27 595 657.78 595 845.63 752.5 942.13 752.5 754.27"/><polygon class="cls-9" points="752.5 754.27 911 657.78 911 845.63 752.5 942.13 752.5 754.27"/><polygon class="cls-8" points="752.55 754.23 595 657.78 754.55 562.25 911 657.78 752.55 754.23"/></g></svg>