<?xml version="1.0" encoding="UTF-8"?><svg id="Ebene_1" xmlns="http://www.w3.org/2000/svg" xmlns:xlink="http://www.w3.org/1999/xlink" viewBox="0 0 1500 620"><defs><style>.cls-1,.cls-2,.cls-3,.cls-4{fill:none;}.cls-1,.cls-5{opacity:.5;}.cls-2{stroke:#161097;stroke-width:6px;}.cls-2,.cls-3,.cls-4,.cls-6{stroke-miterlimit:10;}.cls-7{fill:url(#Unbenannter_Verlauf_2-13);}.cls-8{fill:url(#Unbenannter_Verlauf_2-14);}.cls-9{fill:url(#Unbenannter_Verlauf_2-18);}.cls-10{fill:url(#Unbenannter_Verlauf_2-12);}.cls-11{fill:url(#Unbenannter_Verlauf_2-17);}.cls-12{fill:url(#Unbenannter_Verlauf_2-16);}.cls-13{fill:url(#Unbenannter_Verlauf_2-15);}.cls-14{fill:url(#Unbenannter_Verlauf_2-10);}.cls-15,.cls-5{fill:#fff;}.cls-16{fill:#dad5ff;}.cls-17{fill:#161097;}.cls-18{fill:#9a8efe;}.cls-3{stroke:url(#Unbenannter_Verlauf_2-11);}.cls-19{fill:url(#Unbenannter_Verlauf_2-7);}.cls-20{fill:url(#Unbenannter_Verlauf_2-9);}.cls-21{fill:url(#Unbenannter_Verlauf_2-6);}.cls-22{fill:url(#Unbenannter_Verlauf_2-8);}.cls-23{fill:url(#Unbenannter_Verlauf_2-3);}.cls-24{fill:url(#Unbenannter_Verlauf_2-5);}.cls-25{fill:url(#Unbenannter_Verlauf_2-4);}.cls-4{stroke:url(#Unbenannter_Verlauf_2-2);}.cls-26{fill:url(#Unbenannter_Verlauf_2);}.cls-6{fill:#f7f6ff;stroke:#cec9ff;stroke-width:3px;}</style><linearGradient id="Unbenannter_Verlauf_2" x1="37.38" y1="47.2" x2="650.65" y2="47.2" gradientUnits="userSpaceOnUse"><stop offset="0" stop-color="#533ffe" stop-opacity=".8"/><stop offset=".11" stop-color="#523efe" stop-opacity=".78"/><stop offset=".25" stop-color="#4f3bfe" stop-opacity=".71"/><stop offset=".41" stop-color="#4b36fe" stop-opacity=".61"/><stop offset=".59" stop-color="#452ffe" stop-opacity=".46"/><stop offset=".77" stop-color="#3d26fe" stop-opacity=".28"/><stop offset=".96" stop-color="#331bfe" stop-opacity=".05"/><stop offset="1" stop-color="#3119fe" stop-opacity="0"/></linearGradient><linearGradient id="Unbenannter_Verlauf_2-2" x1="344.01" y1="488.43" x2="344.01" y2="67.61" gradientTransform="translate(688.03 556.04) rotate(-180)" xlink:href="#Unbenannter_Verlauf_2"/><linearGradient id="Unbenannter_Verlauf_2-3" x1="638.63" y1="35.03" x2="643.38" y2="35.03" xlink:href="#Unbenannter_Verlauf_2"/><linearGradient id="Unbenannter_Verlauf_2-4" x1="633.25" y1="40.42" x2="638.13" y2="40.42" xlink:href="#Unbenannter_Verlauf_2"/><linearGradient id="Unbenannter_Verlauf_2-5" x1="48.33" y1="53.78" x2="57.79" y2="53.78" xlink:href="#Unbenannter_Verlauf_2"/><linearGradient id="Unbenannter_Verlauf_2-6" x1="67.11" y1="53.79" x2="76.56" y2="53.79" xlink:href="#Unbenannter_Verlauf_2"/><linearGradient id="Unbenannter_Verlauf_2-7" x1="389.91" y1="53.77" x2="398.12" y2="53.77" xlink:href="#Unbenannter_Verlauf_2"/><linearGradient id="Unbenannter_Verlauf_2-8" x1="90.54" y1="53.78" x2="100.59" y2="53.78" xlink:href="#Unbenannter_Verlauf_2"/><linearGradient id="Unbenannter_Verlauf_2-9" x1="413.51" y1="53.79" x2="422.9" y2="53.79" xlink:href="#Unbenannter_Verlauf_2"/><linearGradient id="Unbenannter_Verlauf_2-10" x1="847.6" x2="1460.87" xlink:href="#Unbenannter_Verlauf_2"/><linearGradient id="Unbenannter_Verlauf_2-11" x1="1154.24" y1="488.43" x2="1154.24" y2="67.61" gradientTransform="translate(2308.47 556.04) rotate(-180)" xlink:href="#Unbenannter_Verlauf_2"/><linearGradient id="Unbenannter_Verlauf_2-12" x1="1448.86" y1="35.03" x2="1453.61" y2="35.03" xlink:href="#Unbenannter_Verlauf_2"/><linearGradient id="Unbenannter_Verlauf_2-13" x1="1443.48" y1="40.42" x2="1448.36" y2="40.42" xlink:href="#Unbenannter_Verlauf_2"/><linearGradient id="Unbenannter_Verlauf_2-14" x1="858.56" y1="53.78" x2="868.02" y2="53.78" xlink:href="#Unbenannter_Verlauf_2"/><linearGradient id="Unbenannter_Verlauf_2-15" x1="877.33" y1="53.79" x2="886.79" y2="53.79" xlink:href="#Unbenannter_Verlauf_2"/><linearGradient id="Unbenannter_Verlauf_2-16" x1="1200.13" y1="53.77" x2="1208.34" y2="53.77" xlink:href="#Unbenannter_Verlauf_2"/><linearGradient id="Unbenannter_Verlauf_2-17" x1="900.76" y1="53.78" x2="910.81" y2="53.78" xlink:href="#Unbenannter_Verlauf_2"/><linearGradient id="Unbenannter_Verlauf_2-18" x1="1223.73" y1="53.79" x2="1233.12" y2="53.79" xlink:href="#Unbenannter_Verlauf_2"/></defs><path class="cls-17" d="m295.74,547.51c-1.77-1.18-3.91-1.98-6.42-1.98-3.16,0-5.43,1.4-5.43,3.75,0,1.98,1.64,2.98,4.9,3.38l1.92.25c3.66.43,6.82,1.92,6.82,5.77,0,4.34-3.91,6.57-8.62,6.57-3.1,0-6.45-1.09-8.56-2.82l1.49-2.17c1.49,1.3,4.31,2.39,7.07,2.39,3.22,0,5.77-1.3,5.77-3.75,0-2.02-1.83-2.95-5.21-3.38l-1.98-.25c-3.6-.43-6.45-2.11-6.45-5.83,0-4.19,3.72-6.51,8.31-6.51,3.29,0,5.77.93,7.81,2.36l-1.43,2.23Z"/><path class="cls-17" d="m303.52,571.2h-2.82l5.43-9.43-6.7-11.56h2.85l5.27,9.05,5.05-9.05h2.79l-11.88,20.99Z"/><path class="cls-17" d="m328.08,553.46c-.93-.62-2.79-1.36-4.71-1.36s-3.35.87-3.35,2.2c0,1.18,1.05,1.74,2.85,1.95l1.74.19c3.13.43,4.96,1.77,4.96,4.19,0,2.79-2.48,4.62-6.51,4.62-1.8,0-4.28-.43-6.2-1.89l1.18-1.89c1.12.87,2.54,1.55,5.02,1.55s3.91-.77,3.91-2.23c0-1.09-.99-1.77-2.98-2.02l-1.67-.22c-3.29-.4-4.9-1.86-4.9-4.09,0-2.82,2.29-4.53,5.89-4.53,2.33,0,4.46.59,5.89,1.58l-1.12,1.95Z"/><path class="cls-17" d="m343.58,552.53h-6.17v7.16c0,2.23,1.15,3.19,2.76,3.19,1.09,0,2.17-.43,3.01-.99l1.18,1.89c-1.12.81-2.6,1.46-4.4,1.46-3.19,0-5.08-1.77-5.08-5.52v-7.19h-3.16v-2.33h3.16v-4.62h2.54v4.62h6.17v2.33Z"/><path class="cls-17" d="m360.72,557.52c0,.31-.06.68-.06.96h-11.57c.37,3.04,2.45,4.53,4.99,4.53,1.74,0,3.32-.65,4.56-1.74l1.33,1.74c-1.83,1.71-3.84,2.23-6.02,2.23-4.37,0-7.5-3.1-7.5-7.69s3.1-7.66,7.32-7.66,6.91,3.1,6.95,7.63Zm-11.6-1.09h8.99c-.31-2.6-1.98-4.28-4.37-4.28-2.6,0-4.25,1.77-4.62,4.28Z"/><path class="cls-17" d="m389.37,555.79v9.15h-2.54v-8.31c0-2.73-1.52-4.34-4.06-4.34s-4.34,1.74-4.34,4.4v8.25h-2.54v-8.31c0-2.73-1.52-4.34-4.06-4.34-2.36,0-4.34,1.67-4.34,4.4v8.25h-2.54v-14.73h2.54v1.92c1.21-1.67,3.1-2.23,4.81-2.23,2.48,0,4.43,1.09,5.43,2.95,1.21-2.23,3.53-2.95,5.52-2.95,3.66,0,6.14,2.36,6.14,5.89Z"/><path class="cls-17" d="m410.01,564.93h-2.64v-18.17l-6.23,2.67v-2.73l8.87-3.75v21.98Z"/><path class="cls-17" d="m1095.19,547.51c-1.77-1.18-3.91-1.98-6.42-1.98-3.16,0-5.43,1.4-5.43,3.75,0,1.98,1.64,2.98,4.9,3.38l1.92.25c3.66.43,6.82,1.92,6.82,5.77,0,4.34-3.91,6.57-8.62,6.57-3.1,0-6.45-1.09-8.56-2.82l1.49-2.17c1.49,1.3,4.31,2.39,7.07,2.39,3.22,0,5.77-1.3,5.77-3.75,0-2.02-1.83-2.95-5.21-3.38l-1.98-.25c-3.6-.43-6.45-2.11-6.45-5.83,0-4.19,3.72-6.51,8.31-6.51,3.29,0,5.77.93,7.81,2.36l-1.43,2.23Z"/><path class="cls-17" d="m1102.97,571.2h-2.82l5.43-9.43-6.7-11.56h2.85l5.27,9.05,5.05-9.05h2.79l-11.88,20.99Z"/><path class="cls-17" d="m1127.52,553.46c-.93-.62-2.79-1.36-4.71-1.36s-3.35.87-3.35,2.2c0,1.18,1.05,1.74,2.85,1.95l1.74.19c3.13.43,4.96,1.77,4.96,4.19,0,2.79-2.48,4.62-6.51,4.62-1.8,0-4.28-.43-6.2-1.89l1.18-1.89c1.12.87,2.54,1.55,5.02,1.55s3.91-.77,3.91-2.23c0-1.09-.99-1.77-2.98-2.02l-1.67-.22c-3.29-.4-4.9-1.86-4.9-4.09,0-2.82,2.29-4.53,5.89-4.53,2.33,0,4.46.59,5.89,1.58l-1.12,1.95Z"/><path class="cls-17" d="m1143.02,552.53h-6.17v7.16c0,2.23,1.15,3.19,2.76,3.19,1.09,0,2.17-.43,3.01-.99l1.18,1.89c-1.12.81-2.6,1.46-4.4,1.46-3.19,0-5.08-1.77-5.08-5.52v-7.19h-3.16v-2.33h3.16v-4.62h2.54v4.62h6.17v2.33Z"/><path class="cls-17" d="m1160.17,557.52c0,.31-.06.68-.06.96h-11.56c.37,3.04,2.45,4.53,4.99,4.53,1.74,0,3.32-.65,4.56-1.74l1.33,1.74c-1.83,1.71-3.84,2.23-6.02,2.23-4.37,0-7.5-3.1-7.5-7.69s3.1-7.66,7.32-7.66,6.91,3.1,6.95,7.63Zm-11.6-1.09h8.99c-.31-2.6-1.98-4.28-4.37-4.28-2.6,0-4.25,1.77-4.62,4.28Z"/><path class="cls-17" d="m1188.81,555.79v9.15h-2.54v-8.31c0-2.73-1.52-4.34-4.06-4.34s-4.34,1.74-4.34,4.4v8.25h-2.54v-8.31c0-2.73-1.52-4.34-4.06-4.34-2.36,0-4.34,1.67-4.34,4.4v8.25h-2.54v-14.73h2.54v1.92c1.21-1.67,3.1-2.23,4.81-2.23,2.48,0,4.43,1.09,5.43,2.95,1.21-2.23,3.53-2.95,5.52-2.95,3.66,0,6.14,2.36,6.14,5.89Z"/><path class="cls-17" d="m1200.9,546.52c1.02-1.49,2.95-3.6,6.7-3.6,4.43,0,7.01,2.88,7.01,6.79,0,2.7-1.52,4.62-2.91,6.11l-6.23,6.64h9.83v2.48h-13.7v-2.05l8.12-8.59c1.3-1.36,2.17-2.82,2.17-4.62,0-2.42-1.61-4.25-4.34-4.25-2.42,0-3.69,1.24-4.74,2.64l-1.89-1.55Z"/><path class="cls-26" d="m47.38,26.2h593.27c5.52,0,10,4.48,10,10v32H37.38v-32c0-5.52,4.48-10,10-10Z"/><path class="cls-4" d="m47.38,68.11h593.27c5.52,0,10,4.48,10,10v409.82H37.38V78.11c0-5.52,4.48-10,10-10Z" transform="translate(688.03 556.04) rotate(180)"/><rect class="cls-5" x="86.49" y="45.44" width="316.78" height="16.69" rx="3.05" ry="3.05"/><rect class="cls-5" x="409.27" y="45.44" width="234.11" height="16.69" rx="8.35" ry="8.35"/><path class="cls-23" d="m639.57,37.41c-.25,0-.48-.1-.66-.27-.18-.18-.28-.41-.28-.66s.1-.49.28-.66l1.51-1.5-1.64-1.64h4.61v4.61l-1.64-1.64-1.51,1.51c-.18.18-.41.27-.66.27Z"/><path class="cls-25" d="m633.25,42.79v-4.61l1.71,1.71,1.57-1.57c.18-.18.41-.28.66-.28s.48.1.66.28c.18.18.28.41.28.66s-.1.49-.28.66l-1.57,1.57,1.58,1.58h-4.61Z"/><g class="cls-1"><circle class="cls-15" cx="48.12" cy="35.12" r="4.34"/><path class="cls-15" d="m67.67,35.12c0,2.4-1.95,4.34-4.34,4.34s-4.34-1.95-4.34-4.34,1.95-4.34,4.34-4.34,4.34,1.95,4.34,4.34Z"/><path class="cls-15" d="m82.87,35.12c0,2.4-1.95,4.34-4.34,4.34s-4.34-1.95-4.34-4.34,1.95-4.34,4.34-4.34,4.34,1.95,4.34,4.34Z"/></g><path class="cls-5" d="m62.35,45.44h-15.53c-1.69,0-3.05,1.37-3.05,3.05v10.59c0,1.69,1.37,3.05,3.05,3.05h15.53v-16.69Z"/><path class="cls-5" d="m78.53,45.44h-15.53v16.69h15.53c1.69,0,3.05-1.37,3.05-3.05v-10.59c0-1.69-1.37-3.05-3.05-3.05Z"/><path class="cls-24" d="m56.78,52.77h-5.52l2.25-2.03c.31-.31.31-.81,0-1.12-.31-.31-.81-.31-1.12,0l-3.82,3.51c-.31.31-.31.81,0,1.11l3.82,3.69c.15.15.36.23.56.23s.4-.08.56-.23c.31-.31.31-.81,0-1.12l-2.12-2.03h5.4c.56,0,1.01-.45,1.01-1.01s-.45-1.01-1.01-1.01Z"/><path class="cls-21" d="m76.33,53.32l-3.82-3.69c-.15-.15-.36-.23-.56-.23s-.4.08-.56.23c-.31.31-.31.81,0,1.12l2.12,2.03h-5.39c-.56,0-1.01.45-1.01,1.01s.45,1.01,1.01,1.01h5.52l-2.25,2.03c-.31.31-.31.81,0,1.12.31.31.81.31,1.12,0l3.82-3.51c.31-.31.31-.81,0-1.11Z"/><path class="cls-19" d="m398.12,53.4v-4.01l-1.36,1.37c-.72-.6-1.65-.96-2.67-.96-2.31,0-4.18,1.87-4.18,4.17s1.87,4.18,4.18,4.18c1.35,0,2.55-.64,3.31-1.63.25-.32.19-.79-.13-1.04-.14-.1-.29-.16-.45-.16-.22,0-.44.1-.59.29-.5.64-1.26,1.05-2.13,1.05-.75,0-1.41-.3-1.9-.79-.49-.49-.79-1.16-.79-1.9s.3-1.41.79-1.9c.49-.49,1.16-.79,1.9-.79.61,0,1.16.2,1.61.54l-1.58,1.58h4Z"/><path class="cls-22" d="m99.67,52.87h-3.2v-3.2c0-.5-.41-.91-.91-.91s-.91.41-.91.91v3.2h-3.2c-.5,0-.91.41-.91.91s.41.91.91.91h3.2v3.2c0,.5.41.91.91.91s.91-.41.91-.91v-3.2h3.2c.5,0,.91-.41.91-.91s-.41-.91-.91-.91Z"/><path class="cls-20" d="m420.59,50.12c-1.45-1.68-4.01-1.87-5.69-.42s-1.87,4.01-.42,5.69c1.3,1.5,3.47,1.8,5.12.82l2.07,2.4c.25.29.69.32.98.07s.32-.69.07-.98l-2.07-2.4c1.22-1.49,1.24-3.68-.06-5.18Zm-1.23,4.75c-1.16,1-2.93.87-3.93-.29s-.87-2.92.29-3.93,2.92-.87,3.93.29.87,2.93-.29,3.93Z"/><path class="cls-6" d="m107.22,487.59V93.59c0-5.61,4.59-10.21,10.21-10.21h453.18c5.61,0,10.21,4.59,10.21,10.21v394"/><rect class="cls-18" x="140.37" y="114.23" width="328.41" height="28" rx="4" ry="4"/><rect class="cls-16" x="140.37" y="180.76" width="190" height="179.36" rx="4" ry="4"/><polygon class="cls-18" points="164.28 436.85 174.94 421.62 178.75 425.43 185.61 417.43 199.7 436.85 164.28 436.85"/><circle class="cls-18" cx="198.75" cy="415.33" r="4.38"/><rect class="cls-16" x="140.37" y="385.14" width="84.44" height="79.71" rx="4" ry="4"/><polygon class="cls-18" points="164.28 436.85 174.94 421.62 178.75 425.43 185.61 417.43 199.7 436.85 164.28 436.85"/><circle class="cls-18" cx="198.75" cy="415.33" r="4.38"/><rect class="cls-16" x="245.93" y="385.14" width="84.44" height="79.71" rx="4" ry="4"/><polygon class="cls-18" points="269.83 436.85 280.5 421.62 284.31 425.43 291.16 417.43 305.26 436.85 269.83 436.85"/><circle class="cls-18" cx="304.3" cy="415.33" r="4.38"/><polygon class="cls-18" points="188.09 303.59 216.17 263.47 226.2 273.5 244.25 252.44 281.35 303.59 188.09 303.59"/><circle class="cls-18" cx="278.85" cy="246.93" r="11.53"/><rect class="cls-18" x="357.61" y="180.76" width="190.65" height="8.69" rx=".64" ry=".64"/><rect class="cls-18" x="357.61" y="316.86" width="101.5" height="43.26" rx="4" ry="4"/><rect class="cls-18" x="357.61" y="202.87" width="190.65" height="8.69" rx=".64" ry=".64"/><rect class="cls-18" x="357.61" y="226.31" width="190.65" height="6.02" rx=".64" ry=".64"/><rect class="cls-18" x="357.61" y="248.43" width="190.65" height="6.02" rx=".64" ry=".64"/><rect class="cls-18" x="357.61" y="270.54" width="190.65" height="6.02" rx=".64" ry=".64"/><rect class="cls-18" x="357.61" y="292.66" width="190.65" height="6.02" rx=".64" ry=".64"/><path class="cls-14" d="m857.6,26.2h593.27c5.52,0,10,4.48,10,10v32h-613.27v-32c0-5.52,4.48-10,10-10Z"/><path class="cls-3" d="m857.6,68.11h593.27c5.52,0,10,4.48,10,10v409.82h-613.27V78.11c0-5.52,4.48-10,10-10Z" transform="translate(2308.47 556.04) rotate(180)"/><rect class="cls-5" x="896.71" y="45.44" width="316.78" height="16.69" rx="3.05" ry="3.05"/><rect class="cls-5" x="1219.5" y="45.44" width="234.11" height="16.69" rx="8.35" ry="8.35"/><path class="cls-10" d="m1449.8,37.41c-.25,0-.48-.1-.66-.27-.18-.18-.28-.41-.28-.66s.1-.49.28-.66l1.51-1.5-1.64-1.64h4.61v4.61l-1.64-1.64-1.51,1.51c-.18.18-.41.27-.66.27Z"/><path class="cls-7" d="m1443.48,42.79v-4.61l1.71,1.71,1.57-1.57c.18-.18.41-.28.66-.28s.48.1.66.28c.18.18.28.41.28.66s-.1.49-.28.66l-1.57,1.57,1.58,1.58h-4.61Z"/><g class="cls-1"><circle class="cls-15" cx="858.34" cy="35.12" r="4.34"/><path class="cls-15" d="m877.89,35.12c0,2.4-1.95,4.34-4.34,4.34s-4.34-1.95-4.34-4.34,1.95-4.34,4.34-4.34,4.34,1.95,4.34,4.34Z"/><path class="cls-15" d="m893.09,35.12c0,2.4-1.95,4.34-4.34,4.34s-4.34-1.95-4.34-4.34,1.95-4.34,4.34-4.34,4.34,1.95,4.34,4.34Z"/></g><path class="cls-5" d="m872.58,45.44h-15.53c-1.69,0-3.05,1.37-3.05,3.05v10.59c0,1.69,1.37,3.05,3.05,3.05h15.53v-16.69Z"/><path class="cls-5" d="m888.75,45.44h-15.53v16.69h15.53c1.69,0,3.05-1.37,3.05-3.05v-10.59c0-1.69-1.37-3.05-3.05-3.05Z"/><path class="cls-8" d="m867,52.77h-5.52l2.25-2.03c.31-.31.31-.81,0-1.12-.31-.31-.81-.31-1.12,0l-3.82,3.51c-.31.31-.31.81,0,1.11l3.82,3.69c.15.15.36.23.56.23s.4-.08.56-.23c.31-.31.31-.81,0-1.12l-2.12-2.03h5.4c.56,0,1.01-.45,1.01-1.01s-.45-1.01-1.01-1.01Z"/><path class="cls-13" d="m886.56,53.32l-3.82-3.69c-.15-.15-.36-.23-.56-.23s-.4.08-.56.23c-.31.31-.31.81,0,1.12l2.12,2.03h-5.39c-.56,0-1.01.45-1.01,1.01s.45,1.01,1.01,1.01h5.52l-2.25,2.03c-.31.31-.31.81,0,1.12.31.31.81.31,1.12,0l3.82-3.51c.31-.31.31-.81,0-1.11Z"/><path class="cls-12" d="m1208.34,53.4v-4.01l-1.36,1.37c-.72-.6-1.65-.96-2.67-.96-2.31,0-4.18,1.87-4.18,4.17s1.87,4.18,4.18,4.18c1.35,0,2.55-.64,3.31-1.63.25-.32.19-.79-.13-1.04-.14-.1-.29-.16-.45-.16-.22,0-.44.1-.59.29-.5.64-1.26,1.05-2.13,1.05-.75,0-1.41-.3-1.9-.79-.49-.49-.79-1.16-.79-1.9s.3-1.41.79-1.9c.49-.49,1.16-.79,1.9-.79.61,0,1.16.2,1.61.54l-1.58,1.58h4Z"/><path class="cls-11" d="m909.9,52.87h-3.2v-3.2c0-.5-.41-.91-.91-.91s-.91.41-.91.91v3.2h-3.2c-.5,0-.91.41-.91.91s.41.91.91.91h3.2v3.2c0,.5.41.91.91.91s.91-.41.91-.91v-3.2h3.2c.5,0,.91-.41.91-.91s-.41-.91-.91-.91Z"/><path class="cls-9" d="m1230.82,50.12c-1.45-1.68-4.01-1.87-5.69-.42s-1.87,4.01-.42,5.69c1.3,1.5,3.47,1.8,5.12.82l2.07,2.4c.25.29.69.32.98.07s.32-.69.07-.98l-2.07-2.4c1.22-1.49,1.24-3.68-.06-5.18Zm-1.23,4.75c-1.16,1-2.93.87-3.93-.29s-.87-2.92.29-3.93,2.92-.87,3.93.29.87,2.93-.29,3.93Z"/><path class="cls-6" d="m917.44,487.59V93.59c0-5.61,4.59-10.21,10.21-10.21h453.18c5.61,0,10.21,4.59,10.21,10.21v394"/><path class="cls-16" d="m950.59,487.59V184.76c0-2.2,1.8-4,4-4h252c2.2,0,4,1.8,4,4v302.84"/><rect class="cls-18" x="950.59" y="114.23" width="328.41" height="28" rx="4" ry="4"/><polygon class="cls-18" points="1026.39 402.37 1054.47 362.25 1064.5 372.28 1082.55 351.22 1119.66 402.37 1026.39 402.37"/><circle class="cls-18" cx="1117.15" cy="345.71" r="11.53"/><rect class="cls-18" x="1237.83" y="180.76" width="120.65" height="8.69" rx=".64" ry=".64"/><rect class="cls-18" x="1237.83" y="202.87" width="120.65" height="8.69" rx=".64" ry=".64"/><rect class="cls-18" x="1237.83" y="248.43" width="120.65" height="6.02" rx=".64" ry=".64"/><rect class="cls-18" x="1237.83" y="270.54" width="120.65" height="6.02" rx=".64" ry=".64"/><rect class="cls-18" x="1237.83" y="292.66" width="120.65" height="6.02" rx=".64" ry=".64"/><rect class="cls-18" x="1237.83" y="315.04" width="120.65" height="6.02" rx=".64" ry=".64"/><rect class="cls-18" x="1237.83" y="337.15" width="120.65" height="6.02" rx=".64" ry=".64"/><rect class="cls-18" x="1237.83" y="359.27" width="120.65" height="6.02" rx=".64" ry=".64"/><rect class="cls-18" x="1237.83" y="381.38" width="120.65" height="6.02" rx=".64" ry=".64"/><rect class="cls-18" x="1237.83" y="402.37" width="120.65" height="6.02" rx=".64" ry=".64"/><rect class="cls-18" x="1237.83" y="424.48" width="120.65" height="6.02" rx=".64" ry=".64"/><rect class="cls-18" x="1237.83" y="446.59" width="120.65" height="6.02" rx=".64" ry=".64"/><rect class="cls-18" x="1237.83" y="468.71" width="120.65" height="6.02" rx=".64" ry=".64"/><line class="cls-2" x1="408.75" y1="338.49" x2="920.71" y2="128.05"/><polygon class="cls-17" points="922.35 143.55 940.62 119.87 910.98 115.88 922.35 143.55"/></svg>