<svg viewBox="0 0 1500 1500" xmlns="http://www.w3.org/2000/svg" xmlns:xlink="http://www.w3.org/1999/xlink"><linearGradient id="a" gradientTransform="matrix(.71200398 .61371844 -.54313504 .79924835 -2568.78 -1073.79)" gradientUnits="userSpaceOnUse" x1="3823.48" x2="3823.48" y1="-1068.04" y2="-1030.88"><stop offset="0" stop-color="#533ffe" stop-opacity=".8"/><stop offset=".11" stop-color="#523efe" stop-opacity=".78"/><stop offset=".25" stop-color="#4f3bfe" stop-opacity=".71"/><stop offset=".41" stop-color="#4b36fe" stop-opacity=".61"/><stop offset=".59" stop-color="#452ffe" stop-opacity=".46"/><stop offset=".77" stop-color="#3d26fe" stop-opacity=".28"/><stop offset=".96" stop-color="#331bfe" stop-opacity=".05"/><stop offset="1" stop-color="#3119fe" stop-opacity="0"/></linearGradient><linearGradient id="b" gradientTransform="matrix(.71200398 .61371844 -.54313504 .79924835 -2558.37 -1159.98)" x1="3891.94" x2="3891.94" xlink:href="#a" y1="-1059.22" y2="-1022.06"/><linearGradient id="c" gradientUnits="userSpaceOnUse" x1="673.75" x2="673.75" y1="415.24" y2="1179.59"><stop offset="0" stop-color="#533ffe" stop-opacity=".6"/><stop offset=".13" stop-color="#523efe" stop-opacity=".58"/><stop offset=".3" stop-color="#4e39fe" stop-opacity=".51"/><stop offset=".5" stop-color="#4832fe" stop-opacity=".4"/><stop offset=".71" stop-color="#3f29fe" stop-opacity=".25"/><stop offset=".94" stop-color="#341dfe" stop-opacity=".06"/><stop offset="1" stop-color="#3119fe" stop-opacity="0"/></linearGradient><linearGradient id="d" x1="831.75" x2="831.75" xlink:href="#a" y1="415.24" y2="1179.59"/><linearGradient id="e" x1="753" x2="753" xlink:href="#a" y1="319.7" y2="511.69"/><ellipse cx="721.48" cy="429.77" fill="url(#a)" opacity=".4" rx="16.64" ry="18.73" transform="matrix(.12948788 -.991581 .991581 .12948788 201.89 1089.52)"/><ellipse cx="775.77" cy="392.6" fill="url(#b)" opacity=".4" rx="16.64" ry="18.73" transform="matrix(.12948788 -.991581 .991581 .12948788 286.01 1111)"/><g fill="none" opacity=".6"><path d="m752.5 511.72-157.5-96.48v667.84l157.5 96.51z" fill="url(#c)"/><path d="m752.5 511.72 158.5-96.48v667.84l-158.5 96.51z" fill="url(#d)"/><path d="m752.55 511.69-157.55-96.45 159.55-95.54 156.45 95.54z" fill="url(#e)"/></g></svg>