<svg viewBox="0 0 1500 1500" xmlns="http://www.w3.org/2000/svg" xmlns:xlink="http://www.w3.org/1999/xlink"><linearGradient id="a" gradientUnits="userSpaceOnUse" x1="750" x2="750" y1="780" y2="1323.1"><stop offset="0" stop-color="#533ffe" stop-opacity=".8"/><stop offset=".11" stop-color="#523efe" stop-opacity=".78"/><stop offset=".25" stop-color="#4f3bfe" stop-opacity=".71"/><stop offset=".41" stop-color="#4b36fe" stop-opacity=".61"/><stop offset=".59" stop-color="#452ffe" stop-opacity=".46"/><stop offset=".77" stop-color="#3d26fe" stop-opacity=".28"/><stop offset=".96" stop-color="#331bfe" stop-opacity=".05"/><stop offset="1" stop-color="#3119fe" stop-opacity="0"/></linearGradient><linearGradient id="b" gradientUnits="userSpaceOnUse" x1="699.55" x2="699.55" y1="397.46" y2="903.22"><stop offset="0" stop-color="#533ffe" stop-opacity=".6"/><stop offset=".13" stop-color="#523efe" stop-opacity=".58"/><stop offset=".3" stop-color="#4e39fe" stop-opacity=".51"/><stop offset=".5" stop-color="#4832fe" stop-opacity=".4"/><stop offset=".71" stop-color="#3f29fe" stop-opacity=".25"/><stop offset=".94" stop-color="#341dfe" stop-opacity=".06"/><stop offset="1" stop-color="#3119fe" stop-opacity="0"/></linearGradient><linearGradient id="c" x1="804.09" x2="804.09" xlink:href="#a" y1="397.46" y2="903.22"/><linearGradient id="d" x1="751.99" x2="751.99" xlink:href="#a" y1="334.25" y2="461.28"/><linearGradient id="e" x1="570.19" x2="570.19" xlink:href="#b" y1="477.25" y2="983"/><linearGradient id="f" x1="674.74" x2="674.74" xlink:href="#a" y1="477.25" y2="983"/><linearGradient id="g" x1="622.63" x2="622.63" xlink:href="#a" y1="414.04" y2="541.07"/><linearGradient id="h" x1="440.5" x2="440.5" xlink:href="#b" y1="555.26" y2="1061.01"/><linearGradient id="i" x1="545.05" x2="545.05" xlink:href="#a" y1="555.26" y2="1061.01"/><linearGradient id="j" x1="492.94" x2="492.94" xlink:href="#a" y1="492.05" y2="619.08"/><linearGradient id="k" x1="826.26" x2="826.26" xlink:href="#b" y1="477.25" y2="983"/><linearGradient id="l" x1="930.81" x2="930.81" xlink:href="#a" y1="477.25" y2="983"/><linearGradient id="m" x1="878.7" x2="878.7" xlink:href="#a" y1="414.04" y2="541.07"/><linearGradient id="n" x1="954.62" x2="954.62" xlink:href="#b" y1="555.26" y2="1061.01"/><linearGradient id="o" x1="1059.17" x2="1059.17" xlink:href="#a" y1="555.26" y2="1061.01"/><linearGradient id="p" x1="1007.06" x2="1007.06" xlink:href="#a" y1="492.05" y2="619.08"/><linearGradient id="q" xlink:href="#b" y1="555.26" y2="1061.01"/><linearGradient id="r" x1="804.09" x2="804.09" xlink:href="#a" y1="555.26" y2="1061.01"/><linearGradient id="s" x1="751.99" x2="751.99" xlink:href="#a" y1="492.05" y2="619.08"/><linearGradient id="t" x1="543.33" x2="543.33" xlink:href="#b" y1="633.69" y2="1106.59"/><linearGradient id="u" x1="596.93" x2="596.93" xlink:href="#b" y1="666.53" y2="1139.44"/><linearGradient id="v" x1="647.84" x2="647.84" xlink:href="#a" y1="666.52" y2="1139.44"/><linearGradient id="w" x1="701.78" x2="701.78" xlink:href="#a" y1="633.69" y2="1106.6"/><linearGradient id="x" x1="676.35" x2="676.35" xlink:href="#a" y1="602.72" y2="664.74"/><linearGradient id="y" x1="622.89" x2="622.89" xlink:href="#a" y1="570.47" y2="632.06"/><linearGradient id="z" x1="568.92" x2="568.92" xlink:href="#a" y1="603.11" y2="664.74"/><linearGradient id="A" x1="622.56" x2="622.56" xlink:href="#a" y1="635.58" y2="697.51"/><linearGradient id="B" x1="824.7" x2="824.7" xlink:href="#b" y1="654.32" y2="1116.94"/><linearGradient id="C" x1="789.46" x2="789.46" xlink:href="#b" y1="633.69" y2="1094.38"/><linearGradient id="D" x1="861.47" x2="861.47" xlink:href="#b" y1="676.87" y2="1139.44"/><linearGradient id="E" x1="930.77" x2="930.77" xlink:href="#a" y1="655.31" y2="1117.81"/><linearGradient id="F" x1="894.6" x2="894.6" xlink:href="#a" y1="677.73" y2="1139.44"/><linearGradient id="G" x1="966.95" x2="966.95" xlink:href="#a" y1="633.69" y2="1095.39"/><linearGradient id="H" x1="841.02" x2="841.02" xlink:href="#a" y1="634.63" y2="675.1"/><linearGradient id="I" x1="841.88" x2="841.88" xlink:href="#a" y1="591.93" y2="631.11"/><linearGradient id="J" x1="805.74" x2="805.74" xlink:href="#a" y1="614.16" y2="652.62"/><linearGradient id="K" x1="877" x2="877" xlink:href="#a" y1="612.18" y2="653.57"/><linearGradient id="L" x1="878.19" x2="878.19" xlink:href="#a" y1="570.47" y2="608.66"/><linearGradient id="M" x1="949.92" x2="949.92" xlink:href="#a" y1="612.95" y2="653.58"/><linearGradient id="N" x1="913.13" x2="913.13" xlink:href="#a" y1="590.5" y2="631.11"/><linearGradient id="O" x1="877.73" x2="877.73" xlink:href="#a" y1="657.08" y2="697.51"/><linearGradient id="P" x1="913.76" x2="913.76" xlink:href="#a" y1="634.63" y2="675.99"/><linearGradient id="Q" xlink:href="#b" y1="713.55" y2="1219.3"/><linearGradient id="R" x1="804.09" x2="804.09" xlink:href="#a" y1="713.55" y2="1219.3"/><linearGradient id="S" x1="751.99" x2="751.99" xlink:href="#a" y1="650.34" y2="777.37"/><path d="m1490 1323.1h-1480l170-543.1h1140z" fill="url(#a)" opacity=".2"/><g fill="none"><g opacity=".6"><path d="m751.66 461.31-104.22-63.85v441.9l104.22 63.86z" fill="url(#b)"/><path d="m751.66 461.31 104.87-63.85v441.9l-104.87 63.86z" fill="url(#c)"/><path d="m751.69 461.28-104.25-63.82 105.57-63.21 103.52 63.21z" fill="url(#d)"/></g><g opacity=".6"><path d="m622.3 541.09-104.22-63.84v441.89l104.22 63.86z" fill="url(#e)"/><path d="m622.3 541.09 104.87-63.84v441.89l-104.87 63.86z" fill="url(#f)"/><path d="m622.33 541.07-104.25-63.82 105.57-63.21 103.52 63.21z" fill="url(#g)"/></g><g opacity=".6"><path d="m492.61 619.11-104.21-63.85v441.9l104.21 63.85z" fill="url(#h)"/><path d="m492.61 619.11 104.88-63.85v441.9l-104.88 63.85z" fill="url(#i)"/><path d="m492.64 619.08-104.24-63.82 105.56-63.21 103.53 63.21z" fill="url(#j)"/></g><g opacity=".6"><path d="m878.37 541.09-104.21-63.84v441.89l104.21 63.86z" fill="url(#k)"/><path d="m878.37 541.09 104.88-63.84v441.89l-104.88 63.86z" fill="url(#l)"/><path d="m878.4 541.07-104.24-63.82 105.57-63.21 103.52 63.21z" fill="url(#m)"/></g><g opacity=".6"><path d="m1006.73 619.11-104.22-63.85v441.9l104.22 63.85z" fill="url(#n)"/><path d="m1006.73 619.11 104.87-63.85v441.9l-104.87 63.85z" fill="url(#o)"/><path d="m1006.76 619.08-104.25-63.82 105.57-63.21 103.52 63.21z" fill="url(#p)"/></g><g opacity=".6"><path d="m751.66 619.11-104.22-63.85v441.9l104.22 63.85z" fill="url(#q)"/><path d="m751.66 619.11 104.87-63.85v441.9l-104.87 63.85z" fill="url(#r)"/><path d="m751.69 619.08-104.25-63.82 105.57-63.21 103.52 63.21z" fill="url(#s)"/></g></g><path d="m568.63 664.69-50.61-31v441.89l50.61 31.01z" fill="url(#t)"/><path d="m571.63 666.53v441.9l50.61 31.01v-441.91z" fill="url(#u)"/><path d="m673.31 666.52-50.94 31.01v441.91l50.94-31.02z" fill="url(#v)"/><path d="m676.31 664.69v441.91l50.94-31.02v-441.89z" fill="url(#w)"/><path d="m676.24 664.74 51.01-31.05-50.72-30.97-51.08 31.1z" fill="url(#x)"/><path d="m622.56 632.06 51.09-31.1-49.92-30.49-51.59 30.9z" fill="url(#y)"/><path d="m569.23 603.11-51.07 30.58 50.72 31.05 50.8-30.92z" fill="url(#z)"/><path d="m622.56 635.58-50.8 30.92 50.65 31.01 50.94-31.02z" fill="url(#A)"/><path d="m568.63 664.69-50.61-31v441.89l50.61 31.01z" fill="url(#t)"/><path d="m571.63 666.53v441.9l50.61 31.01v-441.91z" fill="url(#u)"/><path d="m673.31 666.52-50.94 31.01v441.91l50.94-31.02z" fill="url(#v)"/><path d="m676.31 664.69v441.91l50.94-31.02v-441.89z" fill="url(#w)"/><path d="m676.24 664.74 51.01-31.05-50.72-30.97-51.08 31.1z" fill="url(#x)"/><path d="m622.56 632.06 51.09-31.1-49.92-30.49-51.59 30.9z" fill="url(#y)"/><path d="m569.23 603.11-51.07 30.58 50.72 31.05 50.8-30.92z" fill="url(#z)"/><path d="m622.56 635.58-50.8 30.92 50.65 31.01 50.94-31.02z" fill="url(#A)"/><path d="m807.79 1096.21 33.82 20.73v-441.91l-33.82-20.71z" fill="url(#B)"/><path d="m804.79 652.48-30.67-18.79v441.89l30.67 18.8z" fill="url(#C)"/><path d="m844.61 676.87v441.91l33.72 20.66v-441.91z" fill="url(#D)"/><path d="m913.86 1117.81 33.82-20.6v-441.9l-33.82 20.59z" fill="url(#E)"/><path d="m910.86 677.73-32.53 19.8v441.91l32.53-19.81z" fill="url(#F)"/><path d="m950.68 653.49v441.9l32.53-19.81v-441.89z" fill="url(#G)"/><path d="m874.12 655.33-33.88-20.7-32.32 19.75 33.84 20.72z" fill="url(#H)"/><path d="m874.12 610.42-30.26-18.49-34.22 20.49 30.6 18.69z" fill="url(#I)"/><path d="m806.73 614.16-32.61 19.53 30.92 18.93 32.33-19.75z" fill="url(#J)"/><path d="m910.88 632.87-33.88-20.69-33.88 20.69 33.88 20.7z" fill="url(#K)"/><path d="m877 608.66 32.61-19.92-29.92-18.27-32.93 19.72z" fill="url(#L)"/><path d="m949.25 612.95-32.61 19.92 33.89 20.71 32.68-19.89z" fill="url(#M)"/><path d="m946.37 611.19-33.89-20.69-32.6 19.92 33.88 20.69z" fill="url(#N)"/><path d="m877 657.08-32.36 19.78 33.73 20.65 32.46-19.76z" fill="url(#O)"/><path d="m947.65 655.33-33.89-20.7-33.88 20.7 33.83 20.66z" fill="url(#P)"/><path d="m807.79 1096.21 33.82 20.73v-441.91l-33.82-20.71z" fill="url(#B)"/><path d="m804.79 652.48-30.67-18.79v441.89l30.67 18.8z" fill="url(#C)"/><path d="m844.61 676.87v441.91l33.72 20.66v-441.91z" fill="url(#D)"/><path d="m913.86 1117.81 33.82-20.6v-441.9l-33.82 20.59z" fill="url(#E)"/><path d="m910.86 677.73-32.53 19.8v441.91l32.53-19.81z" fill="url(#F)"/><path d="m950.68 653.49v441.9l32.53-19.81v-441.89z" fill="url(#G)"/><path d="m874.12 655.33-33.88-20.7-32.32 19.75 33.84 20.72z" fill="url(#H)"/><path d="m874.12 610.42-30.26-18.49-34.22 20.49 30.6 18.69z" fill="url(#I)"/><path d="m806.73 614.16-32.61 19.53 30.92 18.93 32.33-19.75z" fill="url(#J)"/><path d="m910.88 632.87-33.88-20.69-33.88 20.69 33.88 20.7z" fill="url(#K)"/><path d="m877 608.66 32.61-19.92-29.92-18.27-32.93 19.72z" fill="url(#L)"/><path d="m949.25 612.95-32.61 19.92 33.89 20.71 32.68-19.89z" fill="url(#M)"/><path d="m946.37 611.19-33.89-20.69-32.6 19.92 33.88 20.69z" fill="url(#N)"/><path d="m877 657.08-32.36 19.78 33.73 20.65 32.46-19.76z" fill="url(#O)"/><path d="m947.65 655.33-33.89-20.7-33.88 20.7 33.83 20.66z" fill="url(#P)"/><g fill="none" opacity=".6"><path d="m751.66 777.39-104.22-63.84v441.9l104.22 63.85z" fill="url(#Q)"/><path d="m751.66 777.39 104.87-63.84v441.9l-104.87 63.85z" fill="url(#R)"/><path d="m751.69 777.37-104.25-63.82 105.57-63.21 103.52 63.21z" fill="url(#S)"/></g></svg>