<svg viewBox="0 0 1500 1500" xmlns="http://www.w3.org/2000/svg" xmlns:xlink="http://www.w3.org/1999/xlink"><linearGradient id="a" gradientUnits="userSpaceOnUse" x1="750" x2="750" y1="780" y2="1323.1"><stop offset="0" stop-color="#533ffe" stop-opacity=".8"/><stop offset=".11" stop-color="#523efe" stop-opacity=".78"/><stop offset=".25" stop-color="#4f3bfe" stop-opacity=".71"/><stop offset=".41" stop-color="#4b36fe" stop-opacity=".61"/><stop offset=".59" stop-color="#452ffe" stop-opacity=".46"/><stop offset=".77" stop-color="#3d26fe" stop-opacity=".28"/><stop offset=".96" stop-color="#331bfe" stop-opacity=".05"/><stop offset="1" stop-color="#3119fe" stop-opacity="0"/></linearGradient><linearGradient id="b" x1="410.99" x2="410.99" xlink:href="#a" y1="494.58" y2="761.3"/><linearGradient id="c" x1="520.45" x2="520.45" xlink:href="#a" y1="627.76" y2="1027.68"/><linearGradient id="d" gradientUnits="userSpaceOnUse" x1="302.53" x2="302.53" y1="627.76" y2="1027.69"><stop offset="0" stop-color="#533ffe" stop-opacity=".6"/><stop offset=".13" stop-color="#523efe" stop-opacity=".58"/><stop offset=".3" stop-color="#4e39fe" stop-opacity=".51"/><stop offset=".5" stop-color="#4832fe" stop-opacity=".4"/><stop offset=".71" stop-color="#3f29fe" stop-opacity=".25"/><stop offset=".94" stop-color="#341dfe" stop-opacity=".06"/><stop offset="1" stop-color="#3119fe" stop-opacity="0"/></linearGradient><linearGradient id="e" x1="1093.54" x2="1093.54" xlink:href="#a" y1="494.58" y2="761.3"/><linearGradient id="f" x1="1203" x2="1203" xlink:href="#a" y1="627.76" y2="1027.68"/><linearGradient id="g" x1="985.08" x2="985.08" xlink:href="#d"/><linearGradient id="h" x1="721.88" x2="721.88" xlink:href="#d" y1="723.58" y2="1028.22"/><linearGradient id="i" x1="784.85" x2="784.85" xlink:href="#a" y1="723.58" y2="1028.22"/><linearGradient id="j" x1="753.46" x2="753.46" xlink:href="#a" y1="685.5" y2="762.02"/><linearGradient id="k" x1="643.98" x2="643.98" xlink:href="#d" y1="770.82" y2="1075.46"/><linearGradient id="l" x1="706.95" x2="706.95" xlink:href="#a" y1="770.82" y2="1075.46"/><linearGradient id="m" x1="675.56" x2="675.56" xlink:href="#a" y1="732.74" y2="809.26"/><linearGradient id="n" x1="798.18" x2="798.18" xlink:href="#d" y1="770.82" y2="1075.46"/><linearGradient id="o" x1="861.16" x2="861.16" xlink:href="#a" y1="770.82" y2="1075.46"/><linearGradient id="p" x1="829.77" x2="829.77" xlink:href="#a" y1="732.74" y2="809.26"/><linearGradient id="q" x1="721.88" x2="721.88" xlink:href="#d" y1="818.92" y2="1123.56"/><linearGradient id="r" x1="784.85" x2="784.85" xlink:href="#a" y1="818.92" y2="1123.56"/><linearGradient id="s" x1="753.46" x2="753.46" xlink:href="#a" y1="780.85" y2="857.37"/><path d="m1490 1323.1h-1480l170-543.1h1140z" fill="url(#a)" opacity=".2"/><path d="m411.36 761.3-218.29-133.54 219.79-133.18 216.05 133.18z" fill="#fe9dae"/><path d="m411.99 761.37 216.92-133.61v266.31l-216.92 133.61z" fill="#fe9dae"/><path d="m411.99 761.37-218.92-133.61v266.31l218.92 133.62z" fill="#fe9dae"/><path d="m411.36 761.3-218.29-133.54 219.79-133.18 216.05 133.18z" fill="url(#b)" opacity=".6"/><path d="m411.99 761.37 216.92-133.61v266.31l-216.92 133.61z" fill="url(#c)" opacity=".6"/><path d="m411.99 761.37-218.92-133.61v266.31l218.92 133.62z" fill="url(#d)"/><path d="m1093.91 761.3-218.29-133.54 219.79-133.18 216.05 133.18z" fill="#eded2f"/><path d="m1094.54 761.37 216.92-133.61v266.31l-216.92 133.61z" fill="#eded2f"/><path d="m1094.54 761.37-218.92-133.61v266.31l218.92 133.62z" fill="#eded2f"/><path d="m1093.91 761.3-218.29-133.54 219.79-133.18 216.05 133.18z" fill="url(#e)" opacity=".6"/><path d="m1094.54 761.37 216.92-133.61v266.31l-216.92 133.61z" fill="url(#f)" opacity=".6"/><path d="m1094.54 761.37-218.92-133.61v266.31l218.92 133.62z" fill="url(#g)"/><g fill="none"><g opacity=".6"><path d="m753.27 762.03-62.78-38.45v266.17l62.78 38.47z" fill="url(#h)"/><path d="m753.27 762.03 63.17-38.45v266.17l-63.17 38.47z" fill="url(#i)"/><path d="m753.29 762.02-62.8-38.44 63.59-38.08 62.36 38.08z" fill="url(#j)"/></g><g opacity=".6"><path d="m675.36 809.27-62.77-38.45v266.17l62.77 38.47z" fill="url(#k)"/><path d="m675.36 809.27 63.17-38.45v266.17l-63.17 38.47z" fill="url(#l)"/><path d="m675.38 809.26-62.79-38.44 63.59-38.08 62.35 38.08z" fill="url(#m)"/></g><g opacity=".6"><path d="m829.57 809.27-62.77-38.45v266.17l62.77 38.47z" fill="url(#n)"/><path d="m829.57 809.27 63.17-38.45v266.17l-63.17 38.47z" fill="url(#o)"/><path d="m829.59 809.26-62.79-38.44 63.59-38.08 62.35 38.08z" fill="url(#p)"/></g><g opacity=".6"><path d="m753.27 857.38-62.78-38.46v266.18l62.78 38.46z" fill="url(#q)"/><path d="m753.27 857.38 63.17-38.46v266.18l-63.17 38.46z" fill="url(#r)"/><path d="m753.29 857.37-62.8-38.45 63.59-38.07 62.36 38.07z" fill="url(#s)"/></g></g></svg>