<?xml version="1.0" encoding="UTF-8"?><svg id="Ebene_1" xmlns="http://www.w3.org/2000/svg" xmlns:xlink="http://www.w3.org/1999/xlink" viewBox="0 0 1500 1500"><defs><style>.cls-1{fill:none;opacity:.6;}.cls-2{fill:url(#Unbenannter_Verlauf_10-6);}.cls-3{fill:url(#Unbenannter_Verlauf_10-5);}.cls-4{fill:url(#Unbenannter_Verlauf_10-3);}.cls-5{fill:url(#Unbenannter_Verlauf_10-2);}.cls-6{fill:url(#Unbenannter_Verlauf_10-4);}.cls-7{fill:url(#Unbenannter_Verlauf_2-13);}.cls-8{fill:url(#Unbenannter_Verlauf_2-12);}.cls-9{fill:url(#Unbenannter_Verlauf_2-11);}.cls-10{fill:url(#Unbenannter_Verlauf_2-10);}.cls-11{fill:#fe9dae;}.cls-12{fill:#99e8d6;}.cls-13{fill:url(#Unbenannter_Verlauf_2);opacity:.2;}.cls-14{fill:url(#Unbenannter_Verlauf_2-7);}.cls-15{fill:url(#Unbenannter_Verlauf_2-9);}.cls-16{fill:url(#Unbenannter_Verlauf_2-6);}.cls-17{fill:url(#Unbenannter_Verlauf_2-8);}.cls-18{fill:url(#Unbenannter_Verlauf_2-3);}.cls-19{fill:url(#Unbenannter_Verlauf_2-5);}.cls-20{fill:url(#Unbenannter_Verlauf_2-2);}.cls-21{fill:url(#Unbenannter_Verlauf_2-4);}.cls-22{fill:url(#Unbenannter_Verlauf_10);}</style><linearGradient id="Unbenannter_Verlauf_2" x1="750" y1="780" x2="750" y2="1323.1" gradientUnits="userSpaceOnUse"><stop offset="0" stop-color="#533ffe" stop-opacity=".8"/><stop offset=".11" stop-color="#523efe" stop-opacity=".78"/><stop offset=".25" stop-color="#4f3bfe" stop-opacity=".71"/><stop offset=".41" stop-color="#4b36fe" stop-opacity=".61"/><stop offset=".59" stop-color="#452ffe" stop-opacity=".46"/><stop offset=".77" stop-color="#3d26fe" stop-opacity=".28"/><stop offset=".96" stop-color="#331bfe" stop-opacity=".05"/><stop offset="1" stop-color="#3119fe" stop-opacity="0"/></linearGradient><linearGradient id="Unbenannter_Verlauf_2-2" x1="410.99" y1="494.58" x2="410.99" y2="761.3" xlink:href="#Unbenannter_Verlauf_2"/><linearGradient id="Unbenannter_Verlauf_2-3" x1="520.45" y1="627.76" x2="520.45" y2="1027.68" xlink:href="#Unbenannter_Verlauf_2"/><linearGradient id="Unbenannter_Verlauf_10" x1="302.53" y1="627.76" x2="302.53" y2="1027.69" gradientUnits="userSpaceOnUse"><stop offset="0" stop-color="#533ffe" stop-opacity=".6"/><stop offset=".13" stop-color="#523efe" stop-opacity=".58"/><stop offset=".3" stop-color="#4e39fe" stop-opacity=".51"/><stop offset=".5" stop-color="#4832fe" stop-opacity=".4"/><stop offset=".71" stop-color="#3f29fe" stop-opacity=".25"/><stop offset=".94" stop-color="#341dfe" stop-opacity=".06"/><stop offset="1" stop-color="#3119fe" stop-opacity="0"/></linearGradient><linearGradient id="Unbenannter_Verlauf_2-4" x1="1093.54" y1="494.58" x2="1093.54" y2="761.3" xlink:href="#Unbenannter_Verlauf_2"/><linearGradient id="Unbenannter_Verlauf_2-5" x1="1203" y1="627.76" x2="1203" y2="1027.68" xlink:href="#Unbenannter_Verlauf_2"/><linearGradient id="Unbenannter_Verlauf_10-2" x1="985.08" x2="985.08" xlink:href="#Unbenannter_Verlauf_10"/><linearGradient id="Unbenannter_Verlauf_10-3" x1="721.88" y1="723.58" x2="721.88" y2="1028.22" xlink:href="#Unbenannter_Verlauf_10"/><linearGradient id="Unbenannter_Verlauf_2-6" x1="784.85" y1="723.58" x2="784.85" y2="1028.22" xlink:href="#Unbenannter_Verlauf_2"/><linearGradient id="Unbenannter_Verlauf_2-7" x1="753.46" y1="685.5" x2="753.46" y2="762.02" xlink:href="#Unbenannter_Verlauf_2"/><linearGradient id="Unbenannter_Verlauf_10-4" x1="643.98" y1="770.82" x2="643.98" y2="1075.46" xlink:href="#Unbenannter_Verlauf_10"/><linearGradient id="Unbenannter_Verlauf_2-8" x1="706.95" y1="770.82" x2="706.95" y2="1075.46" xlink:href="#Unbenannter_Verlauf_2"/><linearGradient id="Unbenannter_Verlauf_2-9" x1="675.56" y1="732.74" x2="675.56" y2="809.26" xlink:href="#Unbenannter_Verlauf_2"/><linearGradient id="Unbenannter_Verlauf_10-5" x1="798.18" y1="770.82" x2="798.18" y2="1075.46" xlink:href="#Unbenannter_Verlauf_10"/><linearGradient id="Unbenannter_Verlauf_2-10" x1="861.16" y1="770.82" x2="861.16" y2="1075.46" xlink:href="#Unbenannter_Verlauf_2"/><linearGradient id="Unbenannter_Verlauf_2-11" x1="829.77" y1="732.74" x2="829.77" y2="809.26" xlink:href="#Unbenannter_Verlauf_2"/><linearGradient id="Unbenannter_Verlauf_10-6" x1="721.88" y1="818.92" x2="721.88" y2="1123.56" xlink:href="#Unbenannter_Verlauf_10"/><linearGradient id="Unbenannter_Verlauf_2-12" x1="784.85" y1="818.92" x2="784.85" y2="1123.56" xlink:href="#Unbenannter_Verlauf_2"/><linearGradient id="Unbenannter_Verlauf_2-13" x1="753.46" y1="780.85" x2="753.46" y2="857.37" xlink:href="#Unbenannter_Verlauf_2"/></defs><polygon class="cls-13" points="1490 1323.1 10 1323.1 180 780 1320 780 1490 1323.1"/><polygon class="cls-11" points="411.36 761.3 193.07 627.76 412.86 494.58 628.91 627.76 411.36 761.3"/><polygon class="cls-11" points="411.99 761.37 628.91 627.76 628.91 894.07 411.99 1027.68 411.99 761.37"/><polygon class="cls-11" points="411.99 761.37 193.07 627.76 193.07 894.07 411.99 1027.69 411.99 761.37"/><g class="cls-1"><polygon class="cls-20" points="411.36 761.3 193.07 627.76 412.86 494.58 628.91 627.76 411.36 761.3"/></g><g class="cls-1"><polygon class="cls-18" points="411.99 761.37 628.91 627.76 628.91 894.07 411.99 1027.68 411.99 761.37"/></g><polygon class="cls-22" points="411.99 761.37 193.07 627.76 193.07 894.07 411.99 1027.69 411.99 761.37"/><polygon class="cls-12" points="1093.91 761.3 875.62 627.76 1095.41 494.58 1311.46 627.76 1093.91 761.3"/><polygon class="cls-12" points="1094.54 761.37 1311.46 627.76 1311.46 894.07 1094.54 1027.68 1094.54 761.37"/><polygon class="cls-12" points="1094.54 761.37 875.62 627.76 875.62 894.07 1094.54 1027.69 1094.54 761.37"/><g class="cls-1"><polygon class="cls-21" points="1093.91 761.3 875.62 627.76 1095.41 494.58 1311.46 627.76 1093.91 761.3"/></g><g class="cls-1"><polygon class="cls-19" points="1094.54 761.37 1311.46 627.76 1311.46 894.07 1094.54 1027.68 1094.54 761.37"/></g><polygon class="cls-5" points="1094.54 761.37 875.62 627.76 875.62 894.07 1094.54 1027.69 1094.54 761.37"/><g class="cls-1"><polygon class="cls-4" points="753.27 762.03 690.49 723.58 690.49 989.75 753.27 1028.22 753.27 762.03"/><polygon class="cls-16" points="753.27 762.03 816.44 723.58 816.44 989.75 753.27 1028.22 753.27 762.03"/><polygon class="cls-14" points="753.29 762.02 690.49 723.58 754.08 685.5 816.44 723.58 753.29 762.02"/></g><g class="cls-1"><polygon class="cls-6" points="675.36 809.27 612.59 770.82 612.59 1036.99 675.36 1075.46 675.36 809.27"/><polygon class="cls-17" points="675.36 809.27 738.53 770.82 738.53 1036.99 675.36 1075.46 675.36 809.27"/><polygon class="cls-15" points="675.38 809.26 612.59 770.82 676.18 732.74 738.53 770.82 675.38 809.26"/></g><g class="cls-1"><polygon class="cls-3" points="829.57 809.27 766.8 770.82 766.8 1036.99 829.57 1075.46 829.57 809.27"/><polygon class="cls-10" points="829.57 809.27 892.74 770.82 892.74 1036.99 829.57 1075.46 829.57 809.27"/><polygon class="cls-9" points="829.59 809.26 766.8 770.82 830.39 732.74 892.74 770.82 829.59 809.26"/></g><g class="cls-1"><polygon class="cls-2" points="753.27 857.38 690.49 818.92 690.49 1085.1 753.27 1123.56 753.27 857.38"/><polygon class="cls-8" points="753.27 857.38 816.44 818.92 816.44 1085.1 753.27 1123.56 753.27 857.38"/><polygon class="cls-7" points="753.29 857.37 690.49 818.92 754.08 780.85 816.44 818.92 753.29 857.37"/></g></svg>