<?xml version="1.0" encoding="UTF-8"?><svg id="Ebene_1" xmlns="http://www.w3.org/2000/svg" xmlns:xlink="http://www.w3.org/1999/xlink" viewBox="0 0 1500 1500"><defs><style>.cls-1{fill:none;opacity:.6;}.cls-2{fill:url(#Unbenannter_Verlauf_10-2);}.cls-3{fill:url(#Unbenannter_Verlauf_2-3);}.cls-4{fill:url(#Unbenannter_Verlauf_2-5);}.cls-5{fill:url(#Unbenannter_Verlauf_2-2);}.cls-6{fill:url(#Unbenannter_Verlauf_2-4);}.cls-7{fill:url(#Unbenannter_Verlauf_10);}.cls-8{fill:url(#Unbenannter_Verlauf_2);}</style><linearGradient id="Unbenannter_Verlauf_10" x1="673.75" y1="415.22" x2="673.75" y2="950.6" gradientUnits="userSpaceOnUse"><stop offset="0" stop-color="#533ffe" stop-opacity=".6"/><stop offset=".13" stop-color="#523efe" stop-opacity=".58"/><stop offset=".3" stop-color="#4e39fe" stop-opacity=".51"/><stop offset=".5" stop-color="#4832fe" stop-opacity=".4"/><stop offset=".71" stop-color="#3f29fe" stop-opacity=".25"/><stop offset=".94" stop-color="#341dfe" stop-opacity=".06"/><stop offset="1" stop-color="#3119fe" stop-opacity="0"/></linearGradient><linearGradient id="Unbenannter_Verlauf_2" x1="831.75" y1="415.22" x2="831.75" y2="950.6" gradientUnits="userSpaceOnUse"><stop offset="0" stop-color="#533ffe" stop-opacity=".8"/><stop offset=".11" stop-color="#523efe" stop-opacity=".78"/><stop offset=".25" stop-color="#4f3bfe" stop-opacity=".71"/><stop offset=".41" stop-color="#4b36fe" stop-opacity=".61"/><stop offset=".59" stop-color="#452ffe" stop-opacity=".46"/><stop offset=".77" stop-color="#3d26fe" stop-opacity=".28"/><stop offset=".96" stop-color="#331bfe" stop-opacity=".05"/><stop offset="1" stop-color="#3119fe" stop-opacity="0"/></linearGradient><linearGradient id="Unbenannter_Verlauf_2-2" x1="753" y1="319.69" x2="753" y2="511.67" xlink:href="#Unbenannter_Verlauf_2"/><linearGradient id="Unbenannter_Verlauf_2-3" x1="753" y1="727.43" x2="753" xlink:href="#Unbenannter_Verlauf_2"/><linearGradient id="Unbenannter_Verlauf_2-4" x1="750" y1="474.48" x2="750" y2="1179.57" xlink:href="#Unbenannter_Verlauf_2"/><linearGradient id="Unbenannter_Verlauf_2-5" x1="1039.03" y1="826.71" x2="1039.03" y2="1453.68" xlink:href="#Unbenannter_Verlauf_2"/><linearGradient id="Unbenannter_Verlauf_10-2" x1="463.48" y1="826.7" x2="463.48" y2="1453.69" xlink:href="#Unbenannter_Verlauf_10"/></defs><g class="cls-1"><polygon class="cls-7" points="752.5 511.71 595 415.22 595 854.19 752.5 950.6 752.5 511.71"/><polygon class="cls-8" points="752.5 511.71 911 415.22 911 854.1 752.5 950.6 752.5 511.71"/><polygon class="cls-5" points="752.55 511.67 595 415.22 754.55 319.69 911 415.22 752.55 511.67"/><polygon class="cls-3" points="752.48 950.6 569.34 838.48 754.8 727.43 936.67 838.48 752.48 950.6"/></g><g class="cls-1"><polygon class="cls-6" points="752.5 1179.57 174.45 826.7 754.93 474.48 1325.55 826.71 752.5 1179.57"/></g><g class="cls-1"><polygon class="cls-4" points="752.5 1179.58 1325.55 826.71 1325.55 1100.79 752.5 1453.68 752.5 1179.58"/></g><polygon class="cls-2" points="752.5 1179.58 174.45 826.7 174.45 1100.79 752.5 1453.69 752.5 1179.58"/></svg>