<?xml version="1.0" encoding="UTF-8"?><svg id="Ebene_1" xmlns="http://www.w3.org/2000/svg" xmlns:xlink="http://www.w3.org/1999/xlink" viewBox="0 0 1500 1500"><defs><style>.cls-1{fill:none;opacity:.6;}.cls-2{fill:url(#Unbenannter_Verlauf_10-16);}.cls-3{fill:url(#Unbenannter_Verlauf_10-17);}.cls-4{fill:url(#Unbenannter_Verlauf_10-14);}.cls-5{fill:url(#Unbenannter_Verlauf_10-15);}.cls-6{fill:url(#Unbenannter_Verlauf_10-10);}.cls-7{fill:url(#Unbenannter_Verlauf_10-13);}.cls-8{fill:url(#Unbenannter_Verlauf_10-12);}.cls-9{fill:url(#Unbenannter_Verlauf_10-11);}.cls-10{fill:url(#Unbenannter_Verlauf_10-9);}.cls-11{fill:url(#Unbenannter_Verlauf_10-6);}.cls-12{fill:url(#Unbenannter_Verlauf_10-5);}.cls-13{fill:url(#Unbenannter_Verlauf_10-3);}.cls-14{fill:url(#Unbenannter_Verlauf_10-2);}.cls-15{fill:url(#Unbenannter_Verlauf_10-4);}.cls-16{fill:url(#Unbenannter_Verlauf_10-8);}.cls-17{fill:url(#Unbenannter_Verlauf_10-7);}.cls-18{fill:url(#Unbenannter_Verlauf_2-23);}.cls-19{fill:url(#Unbenannter_Verlauf_2-22);}.cls-20{fill:url(#Unbenannter_Verlauf_2-25);}.cls-21{fill:url(#Unbenannter_Verlauf_2-20);}.cls-22{fill:url(#Unbenannter_Verlauf_2-35);}.cls-23{fill:url(#Unbenannter_Verlauf_2-34);}.cls-24{fill:url(#Unbenannter_Verlauf_2-30);}.cls-25{fill:url(#Unbenannter_Verlauf_2-32);}.cls-26{fill:url(#Unbenannter_Verlauf_2-39);}.cls-27{fill:url(#Unbenannter_Verlauf_2-38);}.cls-28{fill:url(#Unbenannter_Verlauf_2-36);}.cls-29{fill:url(#Unbenannter_Verlauf_2-33);}.cls-30{fill:url(#Unbenannter_Verlauf_2-31);}.cls-31{fill:url(#Unbenannter_Verlauf_2-37);}.cls-32{fill:url(#Unbenannter_Verlauf_2-28);}.cls-33{fill:url(#Unbenannter_Verlauf_2-29);}.cls-34{fill:url(#Unbenannter_Verlauf_2-24);}.cls-35{fill:url(#Unbenannter_Verlauf_2-21);}.cls-36{fill:url(#Unbenannter_Verlauf_2-26);}.cls-37{fill:url(#Unbenannter_Verlauf_2-27);}.cls-38{fill:url(#Unbenannter_Verlauf_2-13);}.cls-39{fill:url(#Unbenannter_Verlauf_2-14);}.cls-40{fill:url(#Unbenannter_Verlauf_2-18);}.cls-41{fill:url(#Unbenannter_Verlauf_2-12);}.cls-42{fill:url(#Unbenannter_Verlauf_2-17);}.cls-43{fill:url(#Unbenannter_Verlauf_2-11);}.cls-44{fill:url(#Unbenannter_Verlauf_2-16);}.cls-45{fill:url(#Unbenannter_Verlauf_2-15);}.cls-46{fill:url(#Unbenannter_Verlauf_2-10);}.cls-47{fill:url(#Unbenannter_Verlauf_2-19);}.cls-48{fill:url(#Unbenannter_Verlauf_2-51);}.cls-49{fill:url(#Unbenannter_Verlauf_2-50);}.cls-50{fill:url(#Unbenannter_Verlauf_2-49);}.cls-51{fill:url(#Unbenannter_Verlauf_2-48);}.cls-52{fill:url(#Unbenannter_Verlauf_2-46);}.cls-53{fill:url(#Unbenannter_Verlauf_2-47);}.cls-54{fill:url(#Unbenannter_Verlauf_2-42);}.cls-55{fill:url(#Unbenannter_Verlauf_2-41);}.cls-56{fill:url(#Unbenannter_Verlauf_2-44);}.cls-57{fill:url(#Unbenannter_Verlauf_2-43);}.cls-58{fill:url(#Unbenannter_Verlauf_2-45);}.cls-59{fill:url(#Unbenannter_Verlauf_2-40);}.cls-60{fill:url(#Unbenannter_Verlauf_2);opacity:.2;}.cls-61{fill:url(#Unbenannter_Verlauf_2-7);}.cls-62{fill:url(#Unbenannter_Verlauf_2-9);}.cls-63{fill:url(#Unbenannter_Verlauf_2-6);}.cls-64{fill:url(#Unbenannter_Verlauf_2-8);}.cls-65{fill:url(#Unbenannter_Verlauf_2-3);}.cls-66{fill:url(#Unbenannter_Verlauf_2-5);}.cls-67{fill:url(#Unbenannter_Verlauf_2-2);}.cls-68{fill:url(#Unbenannter_Verlauf_2-4);}.cls-69{fill:url(#Unbenannter_Verlauf_10);}</style><linearGradient id="Unbenannter_Verlauf_2" x1="750" y1="780" x2="750" y2="1323.1" gradientUnits="userSpaceOnUse"><stop offset="0" stop-color="#533ffe" stop-opacity=".8"/><stop offset=".11" stop-color="#523efe" stop-opacity=".78"/><stop offset=".25" stop-color="#4f3bfe" stop-opacity=".71"/><stop offset=".41" stop-color="#4b36fe" stop-opacity=".61"/><stop offset=".59" stop-color="#452ffe" stop-opacity=".46"/><stop offset=".77" stop-color="#3d26fe" stop-opacity=".28"/><stop offset=".96" stop-color="#331bfe" stop-opacity=".05"/><stop offset="1" stop-color="#3119fe" stop-opacity="0"/></linearGradient><linearGradient id="Unbenannter_Verlauf_10" x1="699.55" y1="397.46" x2="699.55" y2="903.22" gradientUnits="userSpaceOnUse"><stop offset="0" stop-color="#533ffe" stop-opacity=".6"/><stop offset=".13" stop-color="#523efe" stop-opacity=".58"/><stop offset=".3" stop-color="#4e39fe" stop-opacity=".51"/><stop offset=".5" stop-color="#4832fe" stop-opacity=".4"/><stop offset=".71" stop-color="#3f29fe" stop-opacity=".25"/><stop offset=".94" stop-color="#341dfe" stop-opacity=".06"/><stop offset="1" stop-color="#3119fe" stop-opacity="0"/></linearGradient><linearGradient id="Unbenannter_Verlauf_2-2" x1="804.09" y1="397.46" x2="804.09" y2="903.22" xlink:href="#Unbenannter_Verlauf_2"/><linearGradient id="Unbenannter_Verlauf_2-3" x1="751.99" y1="334.25" x2="751.99" y2="461.28" xlink:href="#Unbenannter_Verlauf_2"/><linearGradient id="Unbenannter_Verlauf_10-2" x1="570.19" y1="477.25" x2="570.19" y2="983" xlink:href="#Unbenannter_Verlauf_10"/><linearGradient id="Unbenannter_Verlauf_2-4" x1="674.74" y1="477.25" x2="674.74" y2="983" xlink:href="#Unbenannter_Verlauf_2"/><linearGradient id="Unbenannter_Verlauf_2-5" x1="622.63" y1="414.04" x2="622.63" y2="541.07" xlink:href="#Unbenannter_Verlauf_2"/><linearGradient id="Unbenannter_Verlauf_10-3" x1="440.5" y1="555.26" x2="440.5" y2="1061.01" xlink:href="#Unbenannter_Verlauf_10"/><linearGradient id="Unbenannter_Verlauf_2-6" x1="545.05" y1="555.26" x2="545.05" y2="1061.01" xlink:href="#Unbenannter_Verlauf_2"/><linearGradient id="Unbenannter_Verlauf_2-7" x1="492.94" y1="492.05" x2="492.94" y2="619.08" xlink:href="#Unbenannter_Verlauf_2"/><linearGradient id="Unbenannter_Verlauf_10-4" x1="826.26" y1="477.25" x2="826.26" y2="983" xlink:href="#Unbenannter_Verlauf_10"/><linearGradient id="Unbenannter_Verlauf_2-8" x1="930.81" y1="477.25" x2="930.81" y2="983" xlink:href="#Unbenannter_Verlauf_2"/><linearGradient id="Unbenannter_Verlauf_2-9" x1="878.7" y1="414.04" x2="878.7" y2="541.07" xlink:href="#Unbenannter_Verlauf_2"/><linearGradient id="Unbenannter_Verlauf_10-5" x1="954.62" y1="555.26" x2="954.62" y2="1061.01" xlink:href="#Unbenannter_Verlauf_10"/><linearGradient id="Unbenannter_Verlauf_2-10" x1="1059.17" y1="555.26" x2="1059.17" y2="1061.01" xlink:href="#Unbenannter_Verlauf_2"/><linearGradient id="Unbenannter_Verlauf_2-11" x1="1007.06" y1="492.05" x2="1007.06" y2="619.08" xlink:href="#Unbenannter_Verlauf_2"/><linearGradient id="Unbenannter_Verlauf_10-6" y1="555.26" y2="1061.01" xlink:href="#Unbenannter_Verlauf_10"/><linearGradient id="Unbenannter_Verlauf_2-12" x1="804.09" y1="555.26" x2="804.09" y2="1061.01" xlink:href="#Unbenannter_Verlauf_2"/><linearGradient id="Unbenannter_Verlauf_2-13" x1="751.99" y1="492.05" x2="751.99" y2="619.08" xlink:href="#Unbenannter_Verlauf_2"/><linearGradient id="Unbenannter_Verlauf_10-7" x1="543.33" y1="633.69" x2="543.33" y2="1106.59" xlink:href="#Unbenannter_Verlauf_10"/><linearGradient id="Unbenannter_Verlauf_10-8" x1="596.93" y1="666.53" x2="596.93" y2="1139.44" xlink:href="#Unbenannter_Verlauf_10"/><linearGradient id="Unbenannter_Verlauf_2-14" x1="647.84" y1="666.52" x2="647.84" y2="1139.44" xlink:href="#Unbenannter_Verlauf_2"/><linearGradient id="Unbenannter_Verlauf_2-15" x1="701.78" y1="633.69" x2="701.78" y2="1106.6" xlink:href="#Unbenannter_Verlauf_2"/><linearGradient id="Unbenannter_Verlauf_2-16" x1="676.35" y1="602.72" x2="676.35" y2="664.74" xlink:href="#Unbenannter_Verlauf_2"/><linearGradient id="Unbenannter_Verlauf_2-17" x1="622.89" y1="570.47" x2="622.89" y2="632.06" xlink:href="#Unbenannter_Verlauf_2"/><linearGradient id="Unbenannter_Verlauf_2-18" x1="568.92" y1="603.11" x2="568.92" y2="664.74" xlink:href="#Unbenannter_Verlauf_2"/><linearGradient id="Unbenannter_Verlauf_2-19" x1="622.56" y1="635.58" x2="622.56" y2="697.51" xlink:href="#Unbenannter_Verlauf_2"/><linearGradient id="Unbenannter_Verlauf_10-9" x1="543.33" y1="633.69" x2="543.33" y2="1106.59" xlink:href="#Unbenannter_Verlauf_10"/><linearGradient id="Unbenannter_Verlauf_10-10" x1="596.93" y1="666.53" x2="596.93" y2="1139.44" xlink:href="#Unbenannter_Verlauf_10"/><linearGradient id="Unbenannter_Verlauf_2-20" x1="647.84" y1="666.52" x2="647.84" y2="1139.44" xlink:href="#Unbenannter_Verlauf_2"/><linearGradient id="Unbenannter_Verlauf_2-21" x1="701.78" y1="633.69" x2="701.78" y2="1106.6" xlink:href="#Unbenannter_Verlauf_2"/><linearGradient id="Unbenannter_Verlauf_2-22" x1="676.35" y1="602.72" x2="676.35" y2="664.74" xlink:href="#Unbenannter_Verlauf_2"/><linearGradient id="Unbenannter_Verlauf_2-23" x1="622.89" y1="570.47" x2="622.89" y2="632.06" xlink:href="#Unbenannter_Verlauf_2"/><linearGradient id="Unbenannter_Verlauf_2-24" x1="568.92" y1="603.11" x2="568.92" y2="664.74" xlink:href="#Unbenannter_Verlauf_2"/><linearGradient id="Unbenannter_Verlauf_2-25" x1="622.56" y1="635.58" x2="622.56" y2="697.51" xlink:href="#Unbenannter_Verlauf_2"/><linearGradient id="Unbenannter_Verlauf_10-11" x1="824.7" y1="654.32" x2="824.7" y2="1116.94" xlink:href="#Unbenannter_Verlauf_10"/><linearGradient id="Unbenannter_Verlauf_10-12" x1="789.46" y1="633.69" x2="789.46" y2="1094.38" xlink:href="#Unbenannter_Verlauf_10"/><linearGradient id="Unbenannter_Verlauf_10-13" x1="861.47" y1="676.87" x2="861.47" y2="1139.44" xlink:href="#Unbenannter_Verlauf_10"/><linearGradient id="Unbenannter_Verlauf_2-26" x1="930.77" y1="655.31" x2="930.77" y2="1117.81" xlink:href="#Unbenannter_Verlauf_2"/><linearGradient id="Unbenannter_Verlauf_2-27" x1="894.6" y1="677.73" x2="894.6" y2="1139.44" xlink:href="#Unbenannter_Verlauf_2"/><linearGradient id="Unbenannter_Verlauf_2-28" x1="966.95" y1="633.69" x2="966.95" y2="1095.39" xlink:href="#Unbenannter_Verlauf_2"/><linearGradient id="Unbenannter_Verlauf_2-29" x1="841.02" y1="634.63" x2="841.02" y2="675.1" xlink:href="#Unbenannter_Verlauf_2"/><linearGradient id="Unbenannter_Verlauf_2-30" x1="841.88" y1="591.93" x2="841.88" y2="631.11" xlink:href="#Unbenannter_Verlauf_2"/><linearGradient id="Unbenannter_Verlauf_2-31" x1="805.74" y1="614.16" x2="805.74" y2="652.62" xlink:href="#Unbenannter_Verlauf_2"/><linearGradient id="Unbenannter_Verlauf_2-32" x1="877" y1="612.18" x2="877" y2="653.57" xlink:href="#Unbenannter_Verlauf_2"/><linearGradient id="Unbenannter_Verlauf_2-33" x1="878.19" y1="570.47" x2="878.19" y2="608.66" xlink:href="#Unbenannter_Verlauf_2"/><linearGradient id="Unbenannter_Verlauf_2-34" x1="949.92" y1="612.95" x2="949.92" y2="653.58" xlink:href="#Unbenannter_Verlauf_2"/><linearGradient id="Unbenannter_Verlauf_2-35" x1="913.13" y1="590.5" x2="913.13" y2="631.11" xlink:href="#Unbenannter_Verlauf_2"/><linearGradient id="Unbenannter_Verlauf_2-36" x1="877.73" y1="657.08" x2="877.73" y2="697.51" xlink:href="#Unbenannter_Verlauf_2"/><linearGradient id="Unbenannter_Verlauf_2-37" x1="913.76" y1="634.63" x2="913.76" y2="675.99" xlink:href="#Unbenannter_Verlauf_2"/><linearGradient id="Unbenannter_Verlauf_10-14" x1="824.7" y1="654.32" x2="824.7" y2="1116.94" xlink:href="#Unbenannter_Verlauf_10"/><linearGradient id="Unbenannter_Verlauf_10-15" x1="789.46" y1="633.69" x2="789.46" y2="1094.38" xlink:href="#Unbenannter_Verlauf_10"/><linearGradient id="Unbenannter_Verlauf_10-16" x1="861.47" y1="676.87" x2="861.47" y2="1139.44" xlink:href="#Unbenannter_Verlauf_10"/><linearGradient id="Unbenannter_Verlauf_2-38" x1="930.77" y1="655.31" x2="930.77" y2="1117.81" xlink:href="#Unbenannter_Verlauf_2"/><linearGradient id="Unbenannter_Verlauf_2-39" x1="894.6" y1="677.73" x2="894.6" y2="1139.44" xlink:href="#Unbenannter_Verlauf_2"/><linearGradient id="Unbenannter_Verlauf_2-40" x1="966.95" y1="633.69" x2="966.95" y2="1095.39" xlink:href="#Unbenannter_Verlauf_2"/><linearGradient id="Unbenannter_Verlauf_2-41" x1="841.02" y1="634.63" x2="841.02" y2="675.1" xlink:href="#Unbenannter_Verlauf_2"/><linearGradient id="Unbenannter_Verlauf_2-42" x1="841.88" y1="591.93" x2="841.88" y2="631.11" xlink:href="#Unbenannter_Verlauf_2"/><linearGradient id="Unbenannter_Verlauf_2-43" x1="805.74" y1="614.16" x2="805.74" y2="652.62" xlink:href="#Unbenannter_Verlauf_2"/><linearGradient id="Unbenannter_Verlauf_2-44" x1="877" y1="612.18" x2="877" y2="653.57" xlink:href="#Unbenannter_Verlauf_2"/><linearGradient id="Unbenannter_Verlauf_2-45" x1="878.19" y1="570.47" x2="878.19" y2="608.66" xlink:href="#Unbenannter_Verlauf_2"/><linearGradient id="Unbenannter_Verlauf_2-46" x1="949.92" y1="612.95" x2="949.92" y2="653.58" xlink:href="#Unbenannter_Verlauf_2"/><linearGradient id="Unbenannter_Verlauf_2-47" x1="913.13" y1="590.5" x2="913.13" y2="631.11" xlink:href="#Unbenannter_Verlauf_2"/><linearGradient id="Unbenannter_Verlauf_2-48" x1="877.73" y1="657.08" x2="877.73" y2="697.51" xlink:href="#Unbenannter_Verlauf_2"/><linearGradient id="Unbenannter_Verlauf_2-49" x1="913.76" y1="634.63" x2="913.76" y2="675.99" xlink:href="#Unbenannter_Verlauf_2"/><linearGradient id="Unbenannter_Verlauf_10-17" y1="713.55" y2="1219.3" xlink:href="#Unbenannter_Verlauf_10"/><linearGradient id="Unbenannter_Verlauf_2-50" x1="804.09" y1="713.55" x2="804.09" y2="1219.3" xlink:href="#Unbenannter_Verlauf_2"/><linearGradient id="Unbenannter_Verlauf_2-51" x1="751.99" y1="650.34" x2="751.99" y2="777.37" xlink:href="#Unbenannter_Verlauf_2"/></defs><polygon class="cls-60" points="1490 1323.1 10 1323.1 180 780 1320 780 1490 1323.1"/><g class="cls-1"><polygon class="cls-69" points="751.66 461.31 647.44 397.46 647.44 839.36 751.66 903.22 751.66 461.31"/><polygon class="cls-67" points="751.66 461.31 856.53 397.46 856.53 839.36 751.66 903.22 751.66 461.31"/><polygon class="cls-65" points="751.69 461.28 647.44 397.46 753.01 334.25 856.53 397.46 751.69 461.28"/></g><g class="cls-1"><polygon class="cls-14" points="622.3 541.09 518.08 477.25 518.08 919.14 622.3 983 622.3 541.09"/><polygon class="cls-68" points="622.3 541.09 727.17 477.25 727.17 919.14 622.3 983 622.3 541.09"/><polygon class="cls-66" points="622.33 541.07 518.08 477.25 623.65 414.04 727.17 477.25 622.33 541.07"/></g><g class="cls-1"><polygon class="cls-13" points="492.61 619.11 388.4 555.26 388.4 997.16 492.61 1061.01 492.61 619.11"/><polygon class="cls-63" points="492.61 619.11 597.49 555.26 597.49 997.16 492.61 1061.01 492.61 619.11"/><polygon class="cls-61" points="492.64 619.08 388.4 555.26 493.96 492.05 597.49 555.26 492.64 619.08"/></g><g class="cls-1"><polygon class="cls-15" points="878.37 541.09 774.16 477.25 774.16 919.14 878.37 983 878.37 541.09"/><polygon class="cls-64" points="878.37 541.09 983.25 477.25 983.25 919.14 878.37 983 878.37 541.09"/><polygon class="cls-62" points="878.4 541.07 774.16 477.25 879.73 414.04 983.25 477.25 878.4 541.07"/></g><g class="cls-1"><polygon class="cls-12" points="1006.73 619.11 902.51 555.26 902.51 997.16 1006.73 1061.01 1006.73 619.11"/><polygon class="cls-46" points="1006.73 619.11 1111.6 555.26 1111.6 997.16 1006.73 1061.01 1006.73 619.11"/><polygon class="cls-43" points="1006.76 619.08 902.51 555.26 1008.08 492.05 1111.6 555.26 1006.76 619.08"/></g><g class="cls-1"><polygon class="cls-11" points="751.66 619.11 647.44 555.26 647.44 997.16 751.66 1061.01 751.66 619.11"/><polygon class="cls-41" points="751.66 619.11 856.53 555.26 856.53 997.16 751.66 1061.01 751.66 619.11"/><polygon class="cls-38" points="751.69 619.08 647.44 555.26 753.01 492.05 856.53 555.26 751.69 619.08"/></g><polygon class="cls-17" points="568.63 664.69 518.02 633.69 518.02 1075.58 568.63 1106.59 568.63 664.69"/><polygon class="cls-16" points="571.63 666.53 571.63 1108.43 622.24 1139.44 622.24 697.53 571.63 666.53"/><polygon class="cls-39" points="673.31 666.52 622.37 697.53 622.37 1139.44 673.31 1108.42 673.31 666.52"/><polygon class="cls-45" points="676.31 664.69 676.31 1106.6 727.25 1075.58 727.25 633.69 676.31 664.69"/><polygon class="cls-44" points="676.24 664.74 727.25 633.69 676.53 602.72 625.45 633.82 676.24 664.74"/><polygon class="cls-42" points="622.56 632.06 673.65 600.96 623.73 570.47 572.14 601.37 622.56 632.06"/><polygon class="cls-40" points="569.23 603.11 518.16 633.69 568.88 664.74 619.68 633.82 569.23 603.11"/><polygon class="cls-47" points="622.56 635.58 571.76 666.5 622.41 697.51 673.35 666.49 622.56 635.58"/><polygon class="cls-10" points="568.63 664.69 518.02 633.69 518.02 1075.58 568.63 1106.59 568.63 664.69"/><polygon class="cls-6" points="571.63 666.53 571.63 1108.43 622.24 1139.44 622.24 697.53 571.63 666.53"/><polygon class="cls-21" points="673.31 666.52 622.37 697.53 622.37 1139.44 673.31 1108.42 673.31 666.52"/><polygon class="cls-35" points="676.31 664.69 676.31 1106.6 727.25 1075.58 727.25 633.69 676.31 664.69"/><polygon class="cls-19" points="676.24 664.74 727.25 633.69 676.53 602.72 625.45 633.82 676.24 664.74"/><polygon class="cls-18" points="622.56 632.06 673.65 600.96 623.73 570.47 572.14 601.37 622.56 632.06"/><polygon class="cls-34" points="569.23 603.11 518.16 633.69 568.88 664.74 619.68 633.82 569.23 603.11"/><polygon class="cls-20" points="622.56 635.58 571.76 666.5 622.41 697.51 673.35 666.49 622.56 635.58"/><polygon class="cls-9" points="807.79 1096.21 841.61 1116.94 841.61 675.03 807.79 654.32 807.79 1096.21"/><polygon class="cls-8" points="804.79 652.48 774.12 633.69 774.12 1075.58 804.79 1094.38 804.79 652.48"/><polygon class="cls-7" points="844.61 676.87 844.61 1118.78 878.33 1139.44 878.33 697.53 844.61 676.87"/><polygon class="cls-36" points="913.86 1117.81 947.68 1097.21 947.68 655.31 913.86 675.9 913.86 1117.81"/><polygon class="cls-37" points="910.86 677.73 878.33 697.53 878.33 1139.44 910.86 1119.63 910.86 677.73"/><polygon class="cls-32" points="950.68 653.49 950.68 1095.39 983.21 1075.58 983.21 633.69 950.68 653.49"/><polygon class="cls-33" points="874.12 655.33 840.24 634.63 807.92 654.38 841.76 675.1 874.12 655.33"/><polygon class="cls-24" points="874.12 610.42 843.86 591.93 809.64 612.42 840.24 631.11 874.12 610.42"/><polygon class="cls-30" points="806.73 614.16 774.12 633.69 805.04 652.62 837.37 632.87 806.73 614.16"/><polygon class="cls-25" points="910.88 632.87 877 612.18 843.12 632.87 877 653.57 910.88 632.87"/><polygon class="cls-29" points="877 608.66 909.61 588.74 879.69 570.47 846.76 590.19 877 608.66"/><polygon class="cls-23" points="949.25 612.95 916.64 632.87 950.53 653.58 983.21 633.69 949.25 612.95"/><polygon class="cls-22" points="946.37 611.19 912.48 590.5 879.88 610.42 913.76 631.11 946.37 611.19"/><polygon class="cls-28" points="877 657.08 844.64 676.86 878.37 697.51 910.83 677.75 877 657.08"/><polygon class="cls-31" points="947.65 655.33 913.76 634.63 879.88 655.33 913.71 675.99 947.65 655.33"/><polygon class="cls-4" points="807.79 1096.21 841.61 1116.94 841.61 675.03 807.79 654.32 807.79 1096.21"/><polygon class="cls-5" points="804.79 652.48 774.12 633.69 774.12 1075.58 804.79 1094.38 804.79 652.48"/><polygon class="cls-2" points="844.61 676.87 844.61 1118.78 878.33 1139.44 878.33 697.53 844.61 676.87"/><polygon class="cls-27" points="913.86 1117.81 947.68 1097.21 947.68 655.31 913.86 675.9 913.86 1117.81"/><polygon class="cls-26" points="910.86 677.73 878.33 697.53 878.33 1139.44 910.86 1119.63 910.86 677.73"/><polygon class="cls-59" points="950.68 653.49 950.68 1095.39 983.21 1075.58 983.21 633.69 950.68 653.49"/><polygon class="cls-55" points="874.12 655.33 840.24 634.63 807.92 654.38 841.76 675.1 874.12 655.33"/><polygon class="cls-54" points="874.12 610.42 843.86 591.93 809.64 612.42 840.24 631.11 874.12 610.42"/><polygon class="cls-57" points="806.73 614.16 774.12 633.69 805.04 652.62 837.37 632.87 806.73 614.16"/><polygon class="cls-56" points="910.88 632.87 877 612.18 843.12 632.87 877 653.57 910.88 632.87"/><polygon class="cls-58" points="877 608.66 909.61 588.74 879.69 570.47 846.76 590.19 877 608.66"/><polygon class="cls-52" points="949.25 612.95 916.64 632.87 950.53 653.58 983.21 633.69 949.25 612.95"/><polygon class="cls-53" points="946.37 611.19 912.48 590.5 879.88 610.42 913.76 631.11 946.37 611.19"/><polygon class="cls-51" points="877 657.08 844.64 676.86 878.37 697.51 910.83 677.75 877 657.08"/><polygon class="cls-50" points="947.65 655.33 913.76 634.63 879.88 655.33 913.71 675.99 947.65 655.33"/><g class="cls-1"><polygon class="cls-3" points="751.66 777.39 647.44 713.55 647.44 1155.45 751.66 1219.3 751.66 777.39"/><polygon class="cls-49" points="751.66 777.39 856.53 713.55 856.53 1155.45 751.66 1219.3 751.66 777.39"/><polygon class="cls-48" points="751.69 777.37 647.44 713.55 753.01 650.34 856.53 713.55 751.69 777.37"/></g></svg>