<?xml version="1.0" encoding="UTF-8"?><svg id="Ebene_1" xmlns="http://www.w3.org/2000/svg" xmlns:xlink="http://www.w3.org/1999/xlink" viewBox="0 0 1500 1500"><defs><style>.cls-1{fill:none;opacity:.6;}.cls-2{fill:url(#Unbenannter_Verlauf_10-3);}.cls-3{fill:url(#Unbenannter_Verlauf_10-2);}.cls-4{fill:url(#Unbenannter_Verlauf_2);opacity:.2;}.cls-5{fill:url(#Unbenannter_Verlauf_2-6);}.cls-6{fill:url(#Unbenannter_Verlauf_2-3);}.cls-7{fill:url(#Unbenannter_Verlauf_2-5);}.cls-8{fill:url(#Unbenannter_Verlauf_2-2);}.cls-9{fill:url(#Unbenannter_Verlauf_2-4);}.cls-10{fill:url(#Unbenannter_Verlauf_10);}</style><linearGradient id="Unbenannter_Verlauf_2" x1="750" y1="780" x2="750" y2="1323.1" gradientUnits="userSpaceOnUse"><stop offset="0" stop-color="#533ffe" stop-opacity=".8"/><stop offset=".11" stop-color="#523efe" stop-opacity=".78"/><stop offset=".25" stop-color="#4f3bfe" stop-opacity=".71"/><stop offset=".41" stop-color="#4b36fe" stop-opacity=".61"/><stop offset=".59" stop-color="#452ffe" stop-opacity=".46"/><stop offset=".77" stop-color="#3d26fe" stop-opacity=".28"/><stop offset=".96" stop-color="#331bfe" stop-opacity=".05"/><stop offset="1" stop-color="#3119fe" stop-opacity="0"/></linearGradient><linearGradient id="Unbenannter_Verlauf_2-2" x1="768.06" y1="555.35" x2="768.06" y2="1154.64" xlink:href="#Unbenannter_Verlauf_2"/><linearGradient id="Unbenannter_Verlauf_10" x1="302.15" y1="555.35" x2="302.15" y2="1155.45" gradientUnits="userSpaceOnUse"><stop offset="0" stop-color="#533ffe" stop-opacity=".6"/><stop offset=".13" stop-color="#523efe" stop-opacity=".58"/><stop offset=".3" stop-color="#4e39fe" stop-opacity=".51"/><stop offset=".5" stop-color="#4832fe" stop-opacity=".4"/><stop offset=".71" stop-color="#3f29fe" stop-opacity=".25"/><stop offset=".94" stop-color="#341dfe" stop-opacity=".06"/><stop offset="1" stop-color="#3119fe" stop-opacity="0"/></linearGradient><linearGradient id="Unbenannter_Verlauf_2-3" x1="534.28" y1="334.25" x2="534.28" y2="714" xlink:href="#Unbenannter_Verlauf_2"/><linearGradient id="Unbenannter_Verlauf_10-2" x1="484.59" y1="650.31" x2="484.59" y2="1155.45" xlink:href="#Unbenannter_Verlauf_10"/><linearGradient id="Unbenannter_Verlauf_2-4" x1="589.13" y1="650.27" x2="589.13" y2="1155.45" xlink:href="#Unbenannter_Verlauf_2"/><linearGradient id="Unbenannter_Verlauf_10-3" x1="1090.25" y1="558.74" x2="1090.25" y2="1064.49" xlink:href="#Unbenannter_Verlauf_10"/><linearGradient id="Unbenannter_Verlauf_2-5" x1="1194.8" y1="558.74" x2="1194.8" y2="1064.49" xlink:href="#Unbenannter_Verlauf_2"/><linearGradient id="Unbenannter_Verlauf_2-6" x1="1142.69" y1="495.52" x2="1142.69" y2="622.55" xlink:href="#Unbenannter_Verlauf_2"/></defs><polygon class="cls-4" points="1490 1323.1 10 1323.1 180 780 1320 780 1490 1323.1"/><polygon class="cls-8" points="640.05 713.04 640.9 713.55 640.9 1154.64 896.06 997.47 896.06 555.35 640.05 713.04"/><polygon class="cls-10" points="431.81 1155.45 431.81 713.62 172.49 555.35 172.49 997.47 431.81 1155.45"/><polygon class="cls-6" points="431.81 713.55 537.38 650.34 639.62 712.77 896.06 555.35 537.38 334.25 172.49 555.35 431.81 714 431.81 713.55"/><g class="cls-1"><polygon class="cls-3" points="537.37 650.31 431.81 713.55 431.81 1155.45 537.37 1092.22 537.37 650.31"/><polygon class="cls-9" points="537.37 650.27 640.9 713.55 640.9 1155.45 537.37 1092.18 537.37 650.27"/></g><g class="cls-1"><polygon class="cls-2" points="1142.36 622.58 1038.14 558.74 1038.14 1000.63 1142.36 1064.49 1142.36 622.58"/><polygon class="cls-7" points="1142.36 622.58 1247.23 558.74 1247.23 1000.63 1142.36 1064.49 1142.36 622.58"/><polygon class="cls-5" points="1142.39 622.55 1038.14 558.74 1143.71 495.52 1247.23 558.74 1142.39 622.55"/></g></svg>