<svg viewBox="0 0 1500 1500" xmlns="http://www.w3.org/2000/svg" xmlns:xlink="http://www.w3.org/1999/xlink"><linearGradient id="a" gradientUnits="userSpaceOnUse" x1="750" x2="750" y1="780" y2="1323.1"><stop offset="0" stop-color="#533ffe" stop-opacity=".8"/><stop offset=".11" stop-color="#523efe" stop-opacity=".78"/><stop offset=".25" stop-color="#4f3bfe" stop-opacity=".71"/><stop offset=".41" stop-color="#4b36fe" stop-opacity=".61"/><stop offset=".59" stop-color="#452ffe" stop-opacity=".46"/><stop offset=".77" stop-color="#3d26fe" stop-opacity=".28"/><stop offset=".96" stop-color="#331bfe" stop-opacity=".05"/><stop offset="1" stop-color="#3119fe" stop-opacity="0"/></linearGradient><linearGradient id="b" x1="768.06" x2="768.06" xlink:href="#a" y1="555.35" y2="1154.64"/><linearGradient id="c" gradientUnits="userSpaceOnUse" x1="302.15" x2="302.15" y1="555.35" y2="1155.45"><stop offset="0" stop-color="#533ffe" stop-opacity=".6"/><stop offset=".13" stop-color="#523efe" stop-opacity=".58"/><stop offset=".3" stop-color="#4e39fe" stop-opacity=".51"/><stop offset=".5" stop-color="#4832fe" stop-opacity=".4"/><stop offset=".71" stop-color="#3f29fe" stop-opacity=".25"/><stop offset=".94" stop-color="#341dfe" stop-opacity=".06"/><stop offset="1" stop-color="#3119fe" stop-opacity="0"/></linearGradient><linearGradient id="d" x1="534.28" x2="534.28" xlink:href="#a" y1="334.25" y2="714"/><linearGradient id="e" x1="484.59" x2="484.59" xlink:href="#c" y1="650.31" y2="1155.45"/><linearGradient id="f" x1="589.13" x2="589.13" xlink:href="#a" y1="650.27" y2="1155.45"/><linearGradient id="g" x1="1090.25" x2="1090.25" xlink:href="#c" y1="558.74" y2="1064.49"/><linearGradient id="h" x1="1194.8" x2="1194.8" xlink:href="#a" y1="558.74" y2="1064.49"/><linearGradient id="i" x1="1142.69" x2="1142.69" xlink:href="#a" y1="495.52" y2="622.55"/><path d="m1490 1323.1h-1480l170-543.1h1140z" fill="url(#a)" opacity=".2"/><path d="m640.05 713.04.85.51v441.09l255.16-157.17v-442.12z" fill="url(#b)"/><path d="m431.81 1155.45v-441.83l-259.32-158.27v442.12z" fill="url(#c)"/><path d="m431.81 713.55 105.57-63.21 102.24 62.43 256.44-157.42-358.68-221.1-364.89 221.1 259.32 158.65z" fill="url(#d)"/><g fill="none"><g opacity=".6"><path d="m537.37 650.31-105.56 63.24v441.9l105.56-63.23z" fill="url(#e)"/><path d="m537.37 650.27 103.53 63.28v441.9l-103.53-63.27z" fill="url(#f)"/></g><g opacity=".6"><path d="m1142.36 622.58-104.22-63.84v441.89l104.22 63.86z" fill="url(#g)"/><path d="m1142.36 622.58 104.87-63.84v441.89l-104.87 63.86z" fill="url(#h)"/><path d="m1142.39 622.55-104.25-63.81 105.57-63.22 103.52 63.22z" fill="url(#i)"/></g></g></svg>