<?xml version="1.0" encoding="UTF-8"?><svg id="Ebene_1" xmlns="http://www.w3.org/2000/svg" xmlns:xlink="http://www.w3.org/1999/xlink" viewBox="0 0 1500 620"><defs><style>.cls-1,.cls-2,.cls-3,.cls-4,.cls-5,.cls-6,.cls-7,.cls-8,.cls-9{fill:none;}.cls-1,.cls-10{opacity:.5;}.cls-2,.cls-3,.cls-5,.cls-6,.cls-8,.cls-9{stroke:#161097;stroke-width:6px;}.cls-2,.cls-4,.cls-7,.cls-11{stroke-miterlimit:10;}.cls-12{fill:url(#Unbenannter_Verlauf_2-13);}.cls-13{fill:url(#Unbenannter_Verlauf_2-14);}.cls-14{fill:url(#Unbenannter_Verlauf_2-18);}.cls-15{fill:url(#Unbenannter_Verlauf_2-12);}.cls-16{fill:url(#Unbenannter_Verlauf_2-17);}.cls-17{fill:url(#Unbenannter_Verlauf_2-16);}.cls-18{fill:url(#Unbenannter_Verlauf_2-15);}.cls-19{fill:url(#Unbenannter_Verlauf_2-10);}.cls-20,.cls-11{fill:#f7f6ff;}.cls-21,.cls-10{fill:#fff;}.cls-22{fill:#bdb4ff;}.cls-23,.cls-24{fill:#dad5ff;}.cls-25{fill:#161097;}.cls-26{fill:#9a8efe;}.cls-3{stroke-dasharray:0 0 0 19.83;}.cls-3,.cls-5,.cls-6,.cls-8,.cls-9{stroke-linecap:round;stroke-linejoin:round;}.cls-4{stroke:url(#Unbenannter_Verlauf_2-11);}.cls-5{stroke-dasharray:0 0 0 20.32;}.cls-6{stroke-dasharray:0 0 0 20;}.cls-27{fill:url(#Unbenannter_Verlauf_2-7);}.cls-28{fill:url(#Unbenannter_Verlauf_2-9);}.cls-29{fill:url(#Unbenannter_Verlauf_2-6);}.cls-30{fill:url(#Unbenannter_Verlauf_2-8);}.cls-31{fill:url(#Unbenannter_Verlauf_2-3);}.cls-32{fill:url(#Unbenannter_Verlauf_2-5);}.cls-33{fill:url(#Unbenannter_Verlauf_2-4);}.cls-7{stroke:url(#Unbenannter_Verlauf_2-2);}.cls-8{stroke-dasharray:0 0 0 20.44;}.cls-34{fill:url(#Unbenannter_Verlauf_2);}.cls-11{stroke:#cec9ff;stroke-width:3px;}.cls-24{opacity:.7;}</style><linearGradient id="Unbenannter_Verlauf_2" x1="36.99" y1="47.2" x2="650.25" y2="47.2" gradientUnits="userSpaceOnUse"><stop offset="0" stop-color="#533ffe" stop-opacity=".8"/><stop offset=".11" stop-color="#523efe" stop-opacity=".78"/><stop offset=".25" stop-color="#4f3bfe" stop-opacity=".71"/><stop offset=".41" stop-color="#4b36fe" stop-opacity=".61"/><stop offset=".59" stop-color="#452ffe" stop-opacity=".46"/><stop offset=".77" stop-color="#3d26fe" stop-opacity=".28"/><stop offset=".96" stop-color="#331bfe" stop-opacity=".05"/><stop offset="1" stop-color="#3119fe" stop-opacity="0"/></linearGradient><linearGradient id="Unbenannter_Verlauf_2-2" x1="343.62" y1="488.43" x2="343.62" y2="67.61" gradientTransform="translate(687.24 556.04) rotate(-180)" xlink:href="#Unbenannter_Verlauf_2"/><linearGradient id="Unbenannter_Verlauf_2-3" x1="638.24" y1="35.03" x2="642.99" y2="35.03" xlink:href="#Unbenannter_Verlauf_2"/><linearGradient id="Unbenannter_Verlauf_2-4" x1="632.86" y1="40.42" x2="637.74" y2="40.42" xlink:href="#Unbenannter_Verlauf_2"/><linearGradient id="Unbenannter_Verlauf_2-5" x1="47.94" y1="53.78" x2="57.4" y2="53.78" xlink:href="#Unbenannter_Verlauf_2"/><linearGradient id="Unbenannter_Verlauf_2-6" x1="66.71" y1="53.79" x2="76.17" y2="53.79" xlink:href="#Unbenannter_Verlauf_2"/><linearGradient id="Unbenannter_Verlauf_2-7" x1="389.51" y1="53.77" x2="397.72" y2="53.77" xlink:href="#Unbenannter_Verlauf_2"/><linearGradient id="Unbenannter_Verlauf_2-8" x1="90.14" y1="53.78" x2="100.19" y2="53.78" xlink:href="#Unbenannter_Verlauf_2"/><linearGradient id="Unbenannter_Verlauf_2-9" x1="413.11" y1="53.79" x2="422.5" y2="53.79" xlink:href="#Unbenannter_Verlauf_2"/><linearGradient id="Unbenannter_Verlauf_2-10" x1="847.6" x2="1460.87" xlink:href="#Unbenannter_Verlauf_2"/><linearGradient id="Unbenannter_Verlauf_2-11" x1="1154.24" y1="488.43" x2="1154.24" y2="67.61" gradientTransform="translate(2308.47 556.04) rotate(-180)" xlink:href="#Unbenannter_Verlauf_2"/><linearGradient id="Unbenannter_Verlauf_2-12" x1="1448.86" y1="35.03" x2="1453.61" y2="35.03" xlink:href="#Unbenannter_Verlauf_2"/><linearGradient id="Unbenannter_Verlauf_2-13" x1="1443.48" y1="40.42" x2="1448.36" y2="40.42" xlink:href="#Unbenannter_Verlauf_2"/><linearGradient id="Unbenannter_Verlauf_2-14" x1="858.56" y1="53.78" x2="868.02" y2="53.78" xlink:href="#Unbenannter_Verlauf_2"/><linearGradient id="Unbenannter_Verlauf_2-15" x1="877.33" y1="53.79" x2="886.79" y2="53.79" xlink:href="#Unbenannter_Verlauf_2"/><linearGradient id="Unbenannter_Verlauf_2-16" x1="1200.13" y1="53.77" x2="1208.34" y2="53.77" xlink:href="#Unbenannter_Verlauf_2"/><linearGradient id="Unbenannter_Verlauf_2-17" x1="900.76" y1="53.78" x2="910.81" y2="53.78" xlink:href="#Unbenannter_Verlauf_2"/><linearGradient id="Unbenannter_Verlauf_2-18" x1="1223.73" y1="53.79" x2="1233.12" y2="53.79" xlink:href="#Unbenannter_Verlauf_2"/></defs><path class="cls-34" d="m46.99,26.2h593.27c5.52,0,10,4.48,10,10v32H36.99v-32c0-5.52,4.48-10,10-10Z"/><path class="cls-7" d="m46.99,68.11h593.27c5.52,0,10,4.48,10,10v409.82H36.99V78.11c0-5.52,4.48-10,10-10Z" transform="translate(687.24 556.04) rotate(180)"/><rect class="cls-10" x="86.09" y="45.44" width="316.78" height="16.69" rx="3.05" ry="3.05"/><rect class="cls-10" x="408.88" y="45.44" width="234.11" height="16.69" rx="8.35" ry="8.35"/><path class="cls-31" d="m639.18,37.41c-.25,0-.48-.1-.66-.27-.18-.18-.28-.41-.28-.66s.1-.49.28-.66l1.51-1.5-1.64-1.64h4.61v4.61l-1.64-1.64-1.51,1.51c-.18.18-.41.27-.66.27Z"/><path class="cls-33" d="m632.86,42.79v-4.61l1.71,1.71,1.57-1.57c.18-.18.41-.28.66-.28s.48.1.66.28c.18.18.28.41.28.66s-.1.49-.28.66l-1.57,1.57,1.58,1.58h-4.61Z"/><g class="cls-1"><circle class="cls-21" cx="47.72" cy="35.12" r="4.34"/><path class="cls-21" d="m67.27,35.12c0,2.4-1.95,4.34-4.34,4.34s-4.34-1.95-4.34-4.34,1.95-4.34,4.34-4.34,4.34,1.95,4.34,4.34Z"/><path class="cls-21" d="m82.48,35.12c0,2.4-1.95,4.34-4.34,4.34s-4.34-1.95-4.34-4.34,1.95-4.34,4.34-4.34,4.34,1.95,4.34,4.34Z"/></g><path class="cls-10" d="m61.96,45.44h-15.53c-1.69,0-3.05,1.37-3.05,3.05v10.59c0,1.69,1.37,3.05,3.05,3.05h15.53v-16.69Z"/><path class="cls-10" d="m78.13,45.44h-15.53v16.69h15.53c1.69,0,3.05-1.37,3.05-3.05v-10.59c0-1.69-1.37-3.05-3.05-3.05Z"/><path class="cls-32" d="m56.38,52.77h-5.52l2.25-2.03c.31-.31.31-.81,0-1.12-.31-.31-.81-.31-1.12,0l-3.82,3.51c-.31.31-.31.81,0,1.11l3.82,3.69c.15.15.36.23.56.23s.4-.08.56-.23c.31-.31.31-.81,0-1.12l-2.12-2.03h5.4c.56,0,1.01-.45,1.01-1.01s-.45-1.01-1.01-1.01Z"/><path class="cls-29" d="m75.94,53.32l-3.82-3.69c-.15-.15-.36-.23-.56-.23s-.4.08-.56.23c-.31.31-.31.81,0,1.12l2.12,2.03h-5.39c-.56,0-1.01.45-1.01,1.01s.45,1.01,1.01,1.01h5.52l-2.25,2.03c-.31.31-.31.81,0,1.12.31.31.81.31,1.12,0l3.82-3.51c.31-.31.31-.81,0-1.11Z"/><path class="cls-27" d="m397.72,53.4v-4.01l-1.36,1.37c-.72-.6-1.65-.96-2.67-.96-2.31,0-4.18,1.87-4.18,4.17s1.87,4.18,4.18,4.18c1.35,0,2.55-.64,3.31-1.63.25-.32.19-.79-.13-1.04-.14-.1-.29-.16-.45-.16-.22,0-.44.1-.59.29-.5.64-1.26,1.05-2.13,1.05-.75,0-1.41-.3-1.9-.79-.49-.49-.79-1.16-.79-1.9s.3-1.41.79-1.9c.49-.49,1.16-.79,1.9-.79.61,0,1.16.2,1.61.54l-1.58,1.58h4Z"/><path class="cls-30" d="m99.28,52.87h-3.2v-3.2c0-.5-.41-.91-.91-.91s-.91.41-.91.91v3.2h-3.2c-.5,0-.91.41-.91.91s.41.91.91.91h3.2v3.2c0,.5.41.91.91.91s.91-.41.91-.91v-3.2h3.2c.5,0,.91-.41.91-.91s-.41-.91-.91-.91Z"/><path class="cls-28" d="m420.2,50.12c-1.45-1.68-4.01-1.87-5.69-.42s-1.87,4.01-.42,5.69c1.3,1.5,3.47,1.8,5.12.82l2.07,2.4c.25.29.69.32.98.07s.32-.69.07-.98l-2.07-2.4c1.22-1.49,1.24-3.68-.06-5.18Zm-1.23,4.75c-1.16,1-2.93.87-3.93-.29s-.87-2.92.29-3.93,2.92-.87,3.93.29.87,2.93-.29,3.93Z"/><rect class="cls-20" x="137.21" y="68.11" width="412.82" height="419.82"/><line class="cls-11" x1="137.21" y1="487.93" x2="137.21" y2="68.11"/><line class="cls-11" x1="550.03" y1="68.11" x2="550.03" y2="487.93"/><rect class="cls-23" x="165.3" y="82.38" width="103.65" height="291.49" rx="7" ry="7"/><rect class="cls-22" x="283.21" y="82.38" width="103.65" height="291.49" rx="7" ry="7"/><rect class="cls-22" x="399.72" y="82.38" width="103.65" height="291.49" rx="7" ry="7"/><rect class="cls-23" x="165.3" y="115.69" width="356.91" height="355.94" rx="7" ry="7"/><rect class="cls-26" x="262.28" y="310" width="165.65" height="8.69" rx=".64" ry=".64"/><rect class="cls-26" x="262.28" y="333.44" width="165.65" height="6.02" rx=".64" ry=".64"/><rect class="cls-26" x="262.28" y="349.53" width="165.65" height="6.02" rx=".64" ry=".64"/><rect class="cls-26" x="262.28" y="365.62" width="165.65" height="6.02" rx=".64" ry=".64"/><polygon class="cls-26" points="305.63 253.99 328.53 221.29 336.7 229.46 351.42 212.29 381.67 253.99 305.63 253.99"/><circle class="cls-26" cx="379.62" cy="207.8" r="9.4"/><line class="cls-9" x1="466.56" y1="403.08" x2="466.56" y2="403.08"/><line class="cls-5" x1="446.24" y1="403.08" x2="232.83" y2="403.08"/><line class="cls-9" x1="222.66" y1="403.08" x2="222.66" y2="403.08"/><line class="cls-5" x1="222.66" y1="382.75" x2="222.66" y2="169.34"/><line class="cls-9" x1="222.66" y1="159.18" x2="222.66" y2="159.18"/><line class="cls-5" x1="242.99" y1="159.18" x2="456.4" y2="159.18"/><line class="cls-9" x1="466.56" y1="159.18" x2="466.56" y2="159.18"/><line class="cls-5" x1="466.56" y1="179.5" x2="466.56" y2="392.91"/><rect class="cls-26" x="176.27" y="92.83" width="80.78" height="12.34" rx="1.76" ry="1.76"/><path class="cls-19" d="m857.6,26.2h593.27c5.52,0,10,4.48,10,10v32h-613.27v-32c0-5.52,4.48-10,10-10Z"/><path class="cls-4" d="m857.6,68.11h593.27c5.52,0,10,4.48,10,10v409.82h-613.27V78.11c0-5.52,4.48-10,10-10Z" transform="translate(2308.47 556.04) rotate(180)"/><rect class="cls-10" x="896.71" y="45.44" width="316.78" height="16.69" rx="3.05" ry="3.05"/><rect class="cls-10" x="1219.5" y="45.44" width="234.11" height="16.69" rx="8.35" ry="8.35"/><path class="cls-15" d="m1449.8,37.41c-.25,0-.48-.1-.66-.27-.18-.18-.28-.41-.28-.66s.1-.49.28-.66l1.51-1.5-1.64-1.64h4.61v4.61l-1.64-1.64-1.51,1.51c-.18.18-.41.27-.66.27Z"/><path class="cls-12" d="m1443.48,42.79v-4.61l1.71,1.71,1.57-1.57c.18-.18.41-.28.66-.28s.48.1.66.28c.18.18.28.41.28.66s-.1.49-.28.66l-1.57,1.57,1.58,1.58h-4.61Z"/><g class="cls-1"><circle class="cls-21" cx="858.34" cy="35.12" r="4.34"/><path class="cls-21" d="m877.89,35.12c0,2.4-1.95,4.34-4.34,4.34s-4.34-1.95-4.34-4.34,1.95-4.34,4.34-4.34,4.34,1.95,4.34,4.34Z"/><path class="cls-21" d="m893.09,35.12c0,2.4-1.95,4.34-4.34,4.34s-4.34-1.95-4.34-4.34,1.95-4.34,4.34-4.34,4.34,1.95,4.34,4.34Z"/></g><path class="cls-10" d="m872.58,45.44h-15.53c-1.69,0-3.05,1.37-3.05,3.05v10.59c0,1.69,1.37,3.05,3.05,3.05h15.53v-16.69Z"/><path class="cls-10" d="m888.75,45.44h-15.53v16.69h15.53c1.69,0,3.05-1.37,3.05-3.05v-10.59c0-1.69-1.37-3.05-3.05-3.05Z"/><path class="cls-13" d="m867,52.77h-5.52l2.25-2.03c.31-.31.31-.81,0-1.12-.31-.31-.81-.31-1.12,0l-3.82,3.51c-.31.31-.31.81,0,1.11l3.82,3.69c.15.15.36.23.56.23s.4-.08.56-.23c.31-.31.31-.81,0-1.12l-2.12-2.03h5.4c.56,0,1.01-.45,1.01-1.01s-.45-1.01-1.01-1.01Z"/><path class="cls-18" d="m886.56,53.32l-3.82-3.69c-.15-.15-.36-.23-.56-.23s-.4.08-.56.23c-.31.31-.31.81,0,1.12l2.12,2.03h-5.39c-.56,0-1.01.45-1.01,1.01s.45,1.01,1.01,1.01h5.52l-2.25,2.03c-.31.31-.31.81,0,1.12.31.31.81.31,1.12,0l3.82-3.51c.31-.31.31-.81,0-1.11Z"/><path class="cls-17" d="m1208.34,53.4v-4.01l-1.36,1.37c-.72-.6-1.65-.96-2.67-.96-2.31,0-4.18,1.87-4.18,4.17s1.87,4.18,4.18,4.18c1.35,0,2.55-.64,3.31-1.63.25-.32.19-.79-.13-1.04-.14-.1-.29-.16-.45-.16-.22,0-.44.1-.59.29-.5.64-1.26,1.05-2.13,1.05-.75,0-1.41-.3-1.9-.79-.49-.49-.79-1.16-.79-1.9s.3-1.41.79-1.9c.49-.49,1.16-.79,1.9-.79.61,0,1.16.2,1.61.54l-1.58,1.58h4Z"/><path class="cls-16" d="m909.9,52.87h-3.2v-3.2c0-.5-.41-.91-.91-.91s-.91.41-.91.91v3.2h-3.2c-.5,0-.91.41-.91.91s.41.91.91.91h3.2v3.2c0,.5.41.91.91.91s.91-.41.91-.91v-3.2h3.2c.5,0,.91-.41.91-.91s-.41-.91-.91-.91Z"/><path class="cls-14" d="m1230.82,50.12c-1.45-1.68-4.01-1.87-5.69-.42s-1.87,4.01-.42,5.69c1.3,1.5,3.47,1.8,5.12.82l2.07,2.4c.25.29.69.32.98.07s.32-.69.07-.98l-2.07-2.4c1.22-1.49,1.24-3.68-.06-5.18Zm-1.23,4.75c-1.16,1-2.93.87-3.93-.29s-.87-2.92.29-3.93,2.92-.87,3.93.29.87,2.93-.29,3.93Z"/><rect class="cls-20" x="947.83" y="68.11" width="412.82" height="419.82"/><rect class="cls-26" x="1217.83" y="101.28" width="95.65" height="8.69" rx=".64" ry=".64"/><rect class="cls-26" x="1217.83" y="123.4" width="95.65" height="8.69" rx=".64" ry=".64"/><rect class="cls-26" x="1217.83" y="168.96" width="95.65" height="6.02" rx=".64" ry=".64"/><rect class="cls-26" x="1217.83" y="190.87" width="95.65" height="6.02" rx=".64" ry=".64"/><rect class="cls-26" x="1217.83" y="212.78" width="95.65" height="6.02" rx=".64" ry=".64"/><rect class="cls-26" x="1217.83" y="234.7" width="95.65" height="6.02" rx=".64" ry=".64"/><rect class="cls-26" x="1217.83" y="256.61" width="95.65" height="6.02" rx=".64" ry=".64"/><rect class="cls-26" x="1217.83" y="278.53" width="95.65" height="6.02" rx=".64" ry=".64"/><rect class="cls-26" x="1217.83" y="300.44" width="95.65" height="6.02" rx=".64" ry=".64"/><rect class="cls-26" x="1217.83" y="322.35" width="95.65" height="6.02" rx=".64" ry=".64"/><rect class="cls-26" x="1217.83" y="344.27" width="95.65" height="6.02" rx=".64" ry=".64"/><rect class="cls-26" x="1217.83" y="366.18" width="95.65" height="6.02" rx=".64" ry=".64"/><rect class="cls-26" x="1217.83" y="388.1" width="95.65" height="6.02" rx=".64" ry=".64"/><rect class="cls-26" x="1217.83" y="410.01" width="95.65" height="6.02" rx=".64" ry=".64"/><rect class="cls-26" x="1217.83" y="431.92" width="95.65" height="6.02" rx=".64" ry=".64"/><line class="cls-11" x1="947.83" y1="487.93" x2="947.83" y2="68.11"/><line class="cls-11" x1="1360.65" y1="68.11" x2="1360.65" y2="487.93"/><rect class="cls-23" x="992.29" y="101.28" width="206.39" height="337.09" rx="4.05" ry="4.05"/><polygon class="cls-26" points="1054.75 293.47 1077.64 260.77 1085.82 268.94 1100.54 251.78 1130.79 293.47 1054.75 293.47"/><circle class="cls-26" cx="1128.74" cy="247.28" r="9.4"/><circle class="cls-24" cx="1062.42" cy="473.98" r="6.35"/><circle class="cls-26" cx="1084.47" cy="473.98" r="6.35"/><circle class="cls-24" cx="1106.52" cy="473.98" r="6.35"/><circle class="cls-24" cx="1128.56" cy="473.98" r="6.35"/><line class="cls-9" x1="1332.83" y1="453.63" x2="1332.83" y2="453.63"/><line class="cls-3" x1="1313" y1="453.63" x2="985.83" y2="453.63"/><line class="cls-9" x1="975.92" y1="453.63" x2="975.92" y2="453.63"/><line class="cls-8" x1="975.92" y1="433.19" x2="975.92" y2="95.94"/><line class="cls-9" x1="975.92" y1="85.72" x2="975.92" y2="85.72"/><line class="cls-3" x1="995.75" y1="85.72" x2="1322.92" y2="85.72"/><line class="cls-9" x1="1332.83" y1="85.72" x2="1332.83" y2="85.72"/><line class="cls-8" x1="1332.83" y1="106.16" x2="1332.83" y2="443.41"/><line class="cls-2" x1="216.66" y1="99" x2="917.14" y2="99"/><polygon class="cls-25" points="912.76 113.96 938.66 99 912.76 84.04 912.76 113.96"/><line class="cls-6" x1="968.42" y1="280.53" x2="498.21" y2="280.53"/><polygon class="cls-25" points="502.58 265.57 476.68 280.53 502.58 295.48 502.58 265.57"/><path class="cls-25" d="m295.75,547.51c-1.77-1.18-3.91-1.98-6.42-1.98-3.16,0-5.43,1.4-5.43,3.75,0,1.98,1.64,2.98,4.9,3.38l1.92.25c3.66.43,6.82,1.92,6.82,5.77,0,4.34-3.91,6.57-8.62,6.57-3.1,0-6.45-1.09-8.56-2.82l1.49-2.17c1.49,1.3,4.31,2.39,7.07,2.39,3.22,0,5.77-1.3,5.77-3.75,0-2.02-1.83-2.95-5.21-3.38l-1.98-.25c-3.6-.43-6.45-2.11-6.45-5.83,0-4.19,3.72-6.51,8.31-6.51,3.29,0,5.77.93,7.81,2.36l-1.43,2.23Z"/><path class="cls-25" d="m303.52,571.2h-2.82l5.43-9.43-6.7-11.56h2.85l5.27,9.05,5.05-9.05h2.79l-11.88,20.99Z"/><path class="cls-25" d="m328.08,553.46c-.93-.62-2.79-1.36-4.71-1.36s-3.35.87-3.35,2.2c0,1.18,1.05,1.74,2.85,1.95l1.74.19c3.13.43,4.96,1.77,4.96,4.19,0,2.79-2.48,4.62-6.51,4.62-1.8,0-4.28-.43-6.2-1.89l1.18-1.89c1.12.87,2.54,1.55,5.02,1.55s3.91-.77,3.91-2.23c0-1.09-.99-1.77-2.98-2.02l-1.67-.22c-3.29-.4-4.9-1.86-4.9-4.09,0-2.82,2.29-4.53,5.89-4.53,2.33,0,4.46.59,5.89,1.58l-1.12,1.95Z"/><path class="cls-25" d="m343.58,552.53h-6.17v7.16c0,2.23,1.15,3.19,2.76,3.19,1.08,0,2.17-.43,3.01-.99l1.18,1.89c-1.12.81-2.6,1.46-4.4,1.46-3.19,0-5.08-1.77-5.08-5.52v-7.19h-3.16v-2.33h3.16v-4.62h2.54v4.62h6.17v2.33Z"/><path class="cls-25" d="m360.72,557.52c0,.31-.06.68-.06.96h-11.57c.37,3.04,2.45,4.53,4.99,4.53,1.74,0,3.32-.65,4.56-1.74l1.33,1.74c-1.83,1.71-3.84,2.23-6.01,2.23-4.37,0-7.5-3.1-7.5-7.69s3.1-7.66,7.32-7.66,6.91,3.1,6.95,7.63Zm-11.6-1.09h8.99c-.31-2.6-1.98-4.28-4.37-4.28-2.6,0-4.25,1.77-4.62,4.28Z"/><path class="cls-25" d="m389.37,555.79v9.15h-2.54v-8.31c0-2.73-1.52-4.34-4.06-4.34s-4.34,1.74-4.34,4.4v8.25h-2.54v-8.31c0-2.73-1.52-4.34-4.06-4.34-2.36,0-4.34,1.67-4.34,4.4v8.25h-2.54v-14.73h2.54v1.92c1.21-1.67,3.1-2.23,4.81-2.23,2.48,0,4.43,1.09,5.43,2.95,1.21-2.23,3.53-2.95,5.52-2.95,3.66,0,6.14,2.36,6.14,5.89Z"/><path class="cls-25" d="m410.01,564.93h-2.64v-18.17l-6.23,2.67v-2.73l8.87-3.75v21.98Z"/><path class="cls-25" d="m1095.19,547.51c-1.77-1.18-3.91-1.98-6.42-1.98-3.16,0-5.43,1.4-5.43,3.75,0,1.98,1.64,2.98,4.9,3.38l1.92.25c3.66.43,6.82,1.92,6.82,5.77,0,4.34-3.91,6.57-8.62,6.57-3.1,0-6.45-1.09-8.56-2.82l1.49-2.17c1.49,1.3,4.31,2.39,7.07,2.39,3.22,0,5.77-1.3,5.77-3.75,0-2.02-1.83-2.95-5.21-3.38l-1.98-.25c-3.6-.43-6.45-2.11-6.45-5.83,0-4.19,3.72-6.51,8.31-6.51,3.29,0,5.77.93,7.81,2.36l-1.43,2.23Z"/><path class="cls-25" d="m1102.97,571.2h-2.82l5.43-9.43-6.7-11.56h2.85l5.27,9.05,5.05-9.05h2.79l-11.88,20.99Z"/><path class="cls-25" d="m1127.52,553.46c-.93-.62-2.79-1.36-4.71-1.36s-3.35.87-3.35,2.2c0,1.18,1.05,1.74,2.85,1.95l1.74.19c3.13.43,4.96,1.77,4.96,4.19,0,2.79-2.48,4.62-6.51,4.62-1.8,0-4.28-.43-6.2-1.89l1.18-1.89c1.12.87,2.54,1.55,5.02,1.55s3.91-.77,3.91-2.23c0-1.09-.99-1.77-2.98-2.02l-1.67-.22c-3.29-.4-4.9-1.86-4.9-4.09,0-2.82,2.29-4.53,5.89-4.53,2.33,0,4.46.59,5.89,1.58l-1.12,1.95Z"/><path class="cls-25" d="m1143.02,552.53h-6.17v7.16c0,2.23,1.15,3.19,2.76,3.19,1.09,0,2.17-.43,3.01-.99l1.18,1.89c-1.12.81-2.6,1.46-4.4,1.46-3.19,0-5.08-1.77-5.08-5.52v-7.19h-3.16v-2.33h3.16v-4.62h2.54v4.62h6.17v2.33Z"/><path class="cls-25" d="m1160.17,557.52c0,.31-.06.68-.06.96h-11.56c.37,3.04,2.45,4.53,4.99,4.53,1.74,0,3.32-.65,4.56-1.74l1.33,1.74c-1.83,1.71-3.84,2.23-6.02,2.23-4.37,0-7.5-3.1-7.5-7.69s3.1-7.66,7.32-7.66,6.91,3.1,6.95,7.63Zm-11.6-1.09h8.99c-.31-2.6-1.98-4.28-4.37-4.28-2.6,0-4.25,1.77-4.62,4.28Z"/><path class="cls-25" d="m1188.81,555.79v9.15h-2.54v-8.31c0-2.73-1.52-4.34-4.06-4.34s-4.34,1.74-4.34,4.4v8.25h-2.54v-8.31c0-2.73-1.52-4.34-4.06-4.34-2.36,0-4.34,1.67-4.34,4.4v8.25h-2.54v-14.73h2.54v1.92c1.21-1.67,3.1-2.23,4.81-2.23,2.48,0,4.43,1.09,5.43,2.95,1.21-2.23,3.53-2.95,5.52-2.95,3.66,0,6.14,2.36,6.14,5.89Z"/><path class="cls-25" d="m1200.9,546.52c1.02-1.49,2.95-3.6,6.7-3.6,4.43,0,7.01,2.88,7.01,6.79,0,2.7-1.52,4.62-2.91,6.11l-6.23,6.64h9.83v2.48h-13.7v-2.05l8.12-8.59c1.3-1.36,2.17-2.82,2.17-4.62,0-2.42-1.61-4.25-4.34-4.25-2.42,0-3.69,1.24-4.74,2.64l-1.89-1.55Z"/></svg>