<?xml version="1.0" encoding="UTF-8"?><svg id="Ebene_1" xmlns="http://www.w3.org/2000/svg" xmlns:xlink="http://www.w3.org/1999/xlink" viewBox="0 0 1500 1500"><defs><style>.cls-1{fill:none;opacity:.6;}.cls-2{fill:url(#Unbenannter_Verlauf_10-9);}.cls-3{fill:url(#Unbenannter_Verlauf_10-6);}.cls-4{fill:url(#Unbenannter_Verlauf_10-5);}.cls-5{fill:url(#Unbenannter_Verlauf_10-3);}.cls-6{fill:url(#Unbenannter_Verlauf_10-2);}.cls-7{fill:url(#Unbenannter_Verlauf_10-4);}.cls-8{fill:url(#Unbenannter_Verlauf_10-8);}.cls-9{fill:url(#Unbenannter_Verlauf_10-7);}.cls-10{fill:url(#Unbenannter_Verlauf_2-13);}.cls-11{fill:url(#Unbenannter_Verlauf_2-14);}.cls-12{fill:url(#Unbenannter_Verlauf_2-18);}.cls-13{fill:url(#Unbenannter_Verlauf_2-12);}.cls-14{fill:url(#Unbenannter_Verlauf_2-17);}.cls-15{fill:url(#Unbenannter_Verlauf_2-11);}.cls-16{fill:url(#Unbenannter_Verlauf_2-16);}.cls-17{fill:url(#Unbenannter_Verlauf_2-15);}.cls-18{fill:url(#Unbenannter_Verlauf_2-10);}.cls-19{fill:url(#Unbenannter_Verlauf_2-19);}.cls-20{fill:url(#Unbenannter_Verlauf_2);opacity:.2;}.cls-21{fill:url(#Unbenannter_Verlauf_2-7);}.cls-22{fill:url(#Unbenannter_Verlauf_2-9);}.cls-23{fill:url(#Unbenannter_Verlauf_2-6);}.cls-24{fill:url(#Unbenannter_Verlauf_2-8);}.cls-25{fill:url(#Unbenannter_Verlauf_2-3);}.cls-26{fill:url(#Unbenannter_Verlauf_2-5);}.cls-27{fill:url(#Unbenannter_Verlauf_2-2);}.cls-28{fill:url(#Unbenannter_Verlauf_2-4);}.cls-29{fill:url(#Unbenannter_Verlauf_10);}</style><linearGradient id="Unbenannter_Verlauf_2" x1="750" y1="780" x2="750" y2="1323.1" gradientUnits="userSpaceOnUse"><stop offset="0" stop-color="#533ffe" stop-opacity=".8"/><stop offset=".11" stop-color="#523efe" stop-opacity=".78"/><stop offset=".25" stop-color="#4f3bfe" stop-opacity=".71"/><stop offset=".41" stop-color="#4b36fe" stop-opacity=".61"/><stop offset=".59" stop-color="#452ffe" stop-opacity=".46"/><stop offset=".77" stop-color="#3d26fe" stop-opacity=".28"/><stop offset=".96" stop-color="#331bfe" stop-opacity=".05"/><stop offset="1" stop-color="#3119fe" stop-opacity="0"/></linearGradient><linearGradient id="Unbenannter_Verlauf_10" x1="699.55" y1="397.46" x2="699.55" y2="903.22" gradientUnits="userSpaceOnUse"><stop offset="0" stop-color="#533ffe" stop-opacity=".6"/><stop offset=".13" stop-color="#523efe" stop-opacity=".58"/><stop offset=".3" stop-color="#4e39fe" stop-opacity=".51"/><stop offset=".5" stop-color="#4832fe" stop-opacity=".4"/><stop offset=".71" stop-color="#3f29fe" stop-opacity=".25"/><stop offset=".94" stop-color="#341dfe" stop-opacity=".06"/><stop offset="1" stop-color="#3119fe" stop-opacity="0"/></linearGradient><linearGradient id="Unbenannter_Verlauf_2-2" x1="804.09" y1="397.46" x2="804.09" y2="903.22" xlink:href="#Unbenannter_Verlauf_2"/><linearGradient id="Unbenannter_Verlauf_2-3" x1="751.99" y1="334.25" x2="751.99" y2="461.28" xlink:href="#Unbenannter_Verlauf_2"/><linearGradient id="Unbenannter_Verlauf_10-2" x1="570.19" y1="477.25" x2="570.19" y2="983" xlink:href="#Unbenannter_Verlauf_10"/><linearGradient id="Unbenannter_Verlauf_2-4" x1="674.74" y1="477.25" x2="674.74" y2="983" xlink:href="#Unbenannter_Verlauf_2"/><linearGradient id="Unbenannter_Verlauf_2-5" x1="622.63" y1="414.04" x2="622.63" y2="541.07" xlink:href="#Unbenannter_Verlauf_2"/><linearGradient id="Unbenannter_Verlauf_10-3" x1="440.5" y1="555.26" x2="440.5" y2="1061.01" xlink:href="#Unbenannter_Verlauf_10"/><linearGradient id="Unbenannter_Verlauf_2-6" x1="545.05" y1="555.26" x2="545.05" y2="1061.01" xlink:href="#Unbenannter_Verlauf_2"/><linearGradient id="Unbenannter_Verlauf_2-7" x1="492.94" y1="492.05" x2="492.94" y2="619.08" xlink:href="#Unbenannter_Verlauf_2"/><linearGradient id="Unbenannter_Verlauf_10-4" x1="826.26" y1="477.25" x2="826.26" y2="983" xlink:href="#Unbenannter_Verlauf_10"/><linearGradient id="Unbenannter_Verlauf_2-8" x1="930.81" y1="477.25" x2="930.81" y2="983" xlink:href="#Unbenannter_Verlauf_2"/><linearGradient id="Unbenannter_Verlauf_2-9" x1="878.7" y1="414.04" x2="878.7" y2="541.07" xlink:href="#Unbenannter_Verlauf_2"/><linearGradient id="Unbenannter_Verlauf_10-5" x1="954.62" y1="555.26" x2="954.62" y2="1061.01" xlink:href="#Unbenannter_Verlauf_10"/><linearGradient id="Unbenannter_Verlauf_2-10" x1="1059.17" y1="555.26" x2="1059.17" y2="1061.01" xlink:href="#Unbenannter_Verlauf_2"/><linearGradient id="Unbenannter_Verlauf_2-11" x1="1007.06" y1="492.05" x2="1007.06" y2="619.08" xlink:href="#Unbenannter_Verlauf_2"/><linearGradient id="Unbenannter_Verlauf_10-6" y1="555.26" y2="1061.01" xlink:href="#Unbenannter_Verlauf_10"/><linearGradient id="Unbenannter_Verlauf_2-12" x1="804.09" y1="555.26" x2="804.09" y2="1061.01" xlink:href="#Unbenannter_Verlauf_2"/><linearGradient id="Unbenannter_Verlauf_2-13" x1="751.99" y1="492.05" x2="751.99" y2="619.08" xlink:href="#Unbenannter_Verlauf_2"/><linearGradient id="Unbenannter_Verlauf_10-7" x1="570.22" y1="633.69" x2="570.22" y2="1139.44" xlink:href="#Unbenannter_Verlauf_10"/><linearGradient id="Unbenannter_Verlauf_2-14" x1="674.76" y1="633.69" x2="674.76" y2="1139.44" xlink:href="#Unbenannter_Verlauf_2"/><linearGradient id="Unbenannter_Verlauf_2-15" x1="622.66" y1="570.47" x2="622.66" y2="697.51" xlink:href="#Unbenannter_Verlauf_2"/><linearGradient id="Unbenannter_Verlauf_10-8" x1="826.23" y1="633.69" x2="826.23" y2="1139.44" xlink:href="#Unbenannter_Verlauf_10"/><linearGradient id="Unbenannter_Verlauf_2-16" x1="930.77" y1="633.69" x2="930.77" y2="1139.44" xlink:href="#Unbenannter_Verlauf_2"/><linearGradient id="Unbenannter_Verlauf_2-17" x1="878.67" y1="570.47" x2="878.67" y2="697.51" xlink:href="#Unbenannter_Verlauf_2"/><linearGradient id="Unbenannter_Verlauf_10-9" y1="713.55" y2="1219.3" xlink:href="#Unbenannter_Verlauf_10"/><linearGradient id="Unbenannter_Verlauf_2-18" x1="804.09" y1="713.55" x2="804.09" y2="1219.3" xlink:href="#Unbenannter_Verlauf_2"/><linearGradient id="Unbenannter_Verlauf_2-19" x1="751.99" y1="650.34" x2="751.99" y2="777.37" xlink:href="#Unbenannter_Verlauf_2"/></defs><polygon class="cls-20" points="1490 1323.1 10 1323.1 180 780 1320 780 1490 1323.1"/><g class="cls-1"><polygon class="cls-29" points="751.66 461.31 647.44 397.46 647.44 839.36 751.66 903.22 751.66 461.31"/><polygon class="cls-27" points="751.66 461.31 856.53 397.46 856.53 839.36 751.66 903.22 751.66 461.31"/><polygon class="cls-25" points="751.69 461.28 647.44 397.46 753.01 334.25 856.53 397.46 751.69 461.28"/></g><g class="cls-1"><polygon class="cls-6" points="622.3 541.09 518.08 477.25 518.08 919.14 622.3 983 622.3 541.09"/><polygon class="cls-28" points="622.3 541.09 727.17 477.25 727.17 919.14 622.3 983 622.3 541.09"/><polygon class="cls-26" points="622.33 541.07 518.08 477.25 623.65 414.04 727.17 477.25 622.33 541.07"/></g><g class="cls-1"><polygon class="cls-5" points="492.61 619.11 388.4 555.26 388.4 997.16 492.61 1061.01 492.61 619.11"/><polygon class="cls-23" points="492.61 619.11 597.49 555.26 597.49 997.16 492.61 1061.01 492.61 619.11"/><polygon class="cls-21" points="492.64 619.08 388.4 555.26 493.96 492.05 597.49 555.26 492.64 619.08"/></g><g class="cls-1"><polygon class="cls-7" points="878.37 541.09 774.16 477.25 774.16 919.14 878.37 983 878.37 541.09"/><polygon class="cls-24" points="878.37 541.09 983.25 477.25 983.25 919.14 878.37 983 878.37 541.09"/><polygon class="cls-22" points="878.4 541.07 774.16 477.25 879.73 414.04 983.25 477.25 878.4 541.07"/></g><g class="cls-1"><polygon class="cls-4" points="1006.73 619.11 902.51 555.26 902.51 997.16 1006.73 1061.01 1006.73 619.11"/><polygon class="cls-18" points="1006.73 619.11 1111.6 555.26 1111.6 997.16 1006.73 1061.01 1006.73 619.11"/><polygon class="cls-15" points="1006.76 619.08 902.51 555.26 1008.08 492.05 1111.6 555.26 1006.76 619.08"/></g><g class="cls-1"><polygon class="cls-3" points="751.66 619.11 647.44 555.26 647.44 997.16 751.66 1061.01 751.66 619.11"/><polygon class="cls-13" points="751.66 619.11 856.53 555.26 856.53 997.16 751.66 1061.01 751.66 619.11"/><polygon class="cls-10" points="751.69 619.08 647.44 555.26 753.01 492.05 856.53 555.26 751.69 619.08"/></g><g class="cls-1"><polygon class="cls-9" points="622.33 697.53 518.11 633.69 518.11 1075.58 622.33 1139.44 622.33 697.53"/><polygon class="cls-11" points="622.33 697.53 727.2 633.69 727.2 1075.58 622.33 1139.44 622.33 697.53"/><polygon class="cls-17" points="622.36 697.51 518.11 633.69 623.68 570.47 727.2 633.69 622.36 697.51"/></g><g class="cls-1"><polygon class="cls-8" points="878.33 697.53 774.12 633.69 774.12 1075.58 878.33 1139.44 878.33 697.53"/><polygon class="cls-16" points="878.33 697.53 983.21 633.69 983.21 1075.58 878.33 1139.44 878.33 697.53"/><polygon class="cls-14" points="878.37 697.51 774.12 633.69 879.69 570.47 983.21 633.69 878.37 697.51"/></g><g class="cls-1"><polygon class="cls-2" points="751.66 777.39 647.44 713.55 647.44 1155.45 751.66 1219.3 751.66 777.39"/><polygon class="cls-12" points="751.66 777.39 856.53 713.55 856.53 1155.45 751.66 1219.3 751.66 777.39"/><polygon class="cls-19" points="751.69 777.37 647.44 713.55 753.01 650.34 856.53 713.55 751.69 777.37"/></g></svg>