<?xml version="1.0" encoding="UTF-8"?><svg id="Ebene_1" xmlns="http://www.w3.org/2000/svg" xmlns:xlink="http://www.w3.org/1999/xlink" viewBox="0 0 1500 1500"><defs><style>.cls-1{fill:none;opacity:.6;}.cls-2{fill:url(#Unbenannter_Verlauf_10-10);}.cls-3{fill:url(#Unbenannter_Verlauf_10-11);}.cls-4{fill:url(#Unbenannter_Verlauf_10-9);}.cls-5{fill:url(#Unbenannter_Verlauf_10-6);}.cls-6{fill:url(#Unbenannter_Verlauf_10-5);}.cls-7{fill:url(#Unbenannter_Verlauf_10-3);}.cls-8{fill:url(#Unbenannter_Verlauf_10-2);}.cls-9{fill:url(#Unbenannter_Verlauf_10-4);}.cls-10{fill:url(#Unbenannter_Verlauf_10-8);}.cls-11{fill:url(#Unbenannter_Verlauf_10-7);}.cls-12{fill:url(#Unbenannter_Verlauf_2-22);}.cls-13{fill:url(#Unbenannter_Verlauf_2-20);}.cls-14{fill:url(#Unbenannter_Verlauf_2-21);}.cls-15{fill:url(#Unbenannter_Verlauf_2-13);}.cls-16{fill:url(#Unbenannter_Verlauf_2-14);}.cls-17{fill:url(#Unbenannter_Verlauf_2-18);}.cls-18{fill:url(#Unbenannter_Verlauf_2-12);}.cls-19{fill:url(#Unbenannter_Verlauf_2-17);}.cls-20{fill:url(#Unbenannter_Verlauf_2-11);}.cls-21{fill:url(#Unbenannter_Verlauf_2-16);}.cls-22{fill:url(#Unbenannter_Verlauf_2-15);}.cls-23{fill:url(#Unbenannter_Verlauf_2-10);}.cls-24{fill:url(#Unbenannter_Verlauf_2-19);}.cls-25{fill:url(#Unbenannter_Verlauf_2-7);}.cls-26{fill:url(#Unbenannter_Verlauf_2-9);}.cls-27{fill:url(#Unbenannter_Verlauf_2-6);}.cls-28{fill:url(#Unbenannter_Verlauf_2-8);}.cls-29{fill:url(#Unbenannter_Verlauf_2-3);}.cls-30{fill:url(#Unbenannter_Verlauf_2-5);}.cls-31{fill:url(#Unbenannter_Verlauf_2-2);}.cls-32{fill:url(#Unbenannter_Verlauf_2-4);}.cls-33{fill:url(#Unbenannter_Verlauf_10);}.cls-34{fill:url(#Unbenannter_Verlauf_2);}</style><linearGradient id="Unbenannter_Verlauf_10" x1="673.75" y1="176.74" x2="673.75" y2="941.09" gradientUnits="userSpaceOnUse"><stop offset="0" stop-color="#533ffe" stop-opacity=".6"/><stop offset=".13" stop-color="#523efe" stop-opacity=".58"/><stop offset=".3" stop-color="#4e39fe" stop-opacity=".51"/><stop offset=".5" stop-color="#4832fe" stop-opacity=".4"/><stop offset=".71" stop-color="#3f29fe" stop-opacity=".25"/><stop offset=".94" stop-color="#341dfe" stop-opacity=".06"/><stop offset="1" stop-color="#3119fe" stop-opacity="0"/></linearGradient><linearGradient id="Unbenannter_Verlauf_2" x1="831.75" y1="176.74" x2="831.75" y2="941.09" gradientUnits="userSpaceOnUse"><stop offset="0" stop-color="#533ffe" stop-opacity=".8"/><stop offset=".11" stop-color="#523efe" stop-opacity=".78"/><stop offset=".25" stop-color="#4f3bfe" stop-opacity=".71"/><stop offset=".41" stop-color="#4b36fe" stop-opacity=".61"/><stop offset=".59" stop-color="#452ffe" stop-opacity=".46"/><stop offset=".77" stop-color="#3d26fe" stop-opacity=".28"/><stop offset=".96" stop-color="#331bfe" stop-opacity=".05"/><stop offset="1" stop-color="#3119fe" stop-opacity="0"/></linearGradient><linearGradient id="Unbenannter_Verlauf_2-2" x1="753" y1="81.2" x2="753" y2="273.19" xlink:href="#Unbenannter_Verlauf_2"/><linearGradient id="Unbenannter_Verlauf_10-2" x1="478.25" y1="297.32" x2="478.25" y2="1061.67" xlink:href="#Unbenannter_Verlauf_10"/><linearGradient id="Unbenannter_Verlauf_2-3" x1="636.25" y1="297.32" x2="636.25" y2="1061.67" xlink:href="#Unbenannter_Verlauf_2"/><linearGradient id="Unbenannter_Verlauf_2-4" x1="557.5" y1="201.78" x2="557.5" y2="393.77" xlink:href="#Unbenannter_Verlauf_2"/><linearGradient id="Unbenannter_Verlauf_10-3" x1="282.25" y1="415.22" x2="282.25" y2="1179.57" xlink:href="#Unbenannter_Verlauf_10"/><linearGradient id="Unbenannter_Verlauf_2-5" x1="440.25" y1="415.22" x2="440.25" y2="1179.57" xlink:href="#Unbenannter_Verlauf_2"/><linearGradient id="Unbenannter_Verlauf_2-6" x1="361.5" y1="319.69" x2="361.5" y2="511.67" xlink:href="#Unbenannter_Verlauf_2"/><linearGradient id="Unbenannter_Verlauf_10-4" x1="865.26" y1="297.32" x2="865.26" y2="1061.67" xlink:href="#Unbenannter_Verlauf_10"/><linearGradient id="Unbenannter_Verlauf_2-7" x1="1023.26" y1="297.32" x2="1023.26" y2="1061.67" xlink:href="#Unbenannter_Verlauf_2"/><linearGradient id="Unbenannter_Verlauf_2-8" x1="944.51" y1="201.78" x2="944.51" y2="393.77" xlink:href="#Unbenannter_Verlauf_2"/><linearGradient id="Unbenannter_Verlauf_10-5" x1="1059.25" y1="415.22" x2="1059.25" y2="1179.57" xlink:href="#Unbenannter_Verlauf_10"/><linearGradient id="Unbenannter_Verlauf_2-9" x1="1217.25" y1="415.22" x2="1217.25" y2="1179.57" xlink:href="#Unbenannter_Verlauf_2"/><linearGradient id="Unbenannter_Verlauf_2-10" x1="1138.5" y1="319.69" x2="1138.5" y2="511.67" xlink:href="#Unbenannter_Verlauf_2"/><linearGradient id="Unbenannter_Verlauf_10-6" y1="415.22" y2="1179.57" xlink:href="#Unbenannter_Verlauf_10"/><linearGradient id="Unbenannter_Verlauf_2-11" y1="415.22" y2="1179.57" xlink:href="#Unbenannter_Verlauf_2"/><linearGradient id="Unbenannter_Verlauf_2-12" x1="753" y1="319.69" x2="753" y2="511.67" xlink:href="#Unbenannter_Verlauf_2"/><linearGradient id="Unbenannter_Verlauf_10-7" x1="478.29" y1="533.74" x2="478.29" y2="1298.09" xlink:href="#Unbenannter_Verlauf_10"/><linearGradient id="Unbenannter_Verlauf_2-13" x1="636.29" y1="533.74" x2="636.29" y2="1298.09" xlink:href="#Unbenannter_Verlauf_2"/><linearGradient id="Unbenannter_Verlauf_2-14" x1="557.54" y1="438.21" x2="557.54" y2="630.2" xlink:href="#Unbenannter_Verlauf_2"/><linearGradient id="Unbenannter_Verlauf_10-8" x1="865.2" y1="533.74" x2="865.2" y2="1298.09" xlink:href="#Unbenannter_Verlauf_10"/><linearGradient id="Unbenannter_Verlauf_2-15" x1="1023.2" y1="533.74" x2="1023.2" y2="1298.09" xlink:href="#Unbenannter_Verlauf_2"/><linearGradient id="Unbenannter_Verlauf_2-16" x1="944.45" y1="438.21" x2="944.45" y2="630.2" xlink:href="#Unbenannter_Verlauf_2"/><linearGradient id="Unbenannter_Verlauf_10-9" y1="654.45" y2="1418.8" xlink:href="#Unbenannter_Verlauf_10"/><linearGradient id="Unbenannter_Verlauf_2-17" y1="654.45" y2="1418.8" xlink:href="#Unbenannter_Verlauf_2"/><linearGradient id="Unbenannter_Verlauf_2-18" x1="753" y1="558.91" x2="753" y2="750.9" xlink:href="#Unbenannter_Verlauf_2"/><linearGradient id="Unbenannter_Verlauf_10-10" y1="654.45" y2="1418.8" xlink:href="#Unbenannter_Verlauf_10"/><linearGradient id="Unbenannter_Verlauf_2-19" y1="654.45" y2="1418.8" xlink:href="#Unbenannter_Verlauf_2"/><linearGradient id="Unbenannter_Verlauf_2-20" x1="753" y1="558.91" x2="753" y2="750.9" xlink:href="#Unbenannter_Verlauf_2"/><linearGradient id="Unbenannter_Verlauf_10-11" y1="654.45" y2="1418.8" xlink:href="#Unbenannter_Verlauf_10"/><linearGradient id="Unbenannter_Verlauf_2-21" y1="654.45" y2="1418.8" xlink:href="#Unbenannter_Verlauf_2"/><linearGradient id="Unbenannter_Verlauf_2-22" x1="753" y1="558.91" x2="753" y2="750.9" xlink:href="#Unbenannter_Verlauf_2"/></defs><g class="cls-1"><polygon class="cls-33" points="752.5 273.22 595 176.74 595 844.58 752.5 941.09 752.5 273.22"/><polygon class="cls-34" points="752.5 273.22 911 176.74 911 844.58 752.5 941.09 752.5 273.22"/><polygon class="cls-31" points="752.55 273.19 595 176.74 754.55 81.2 911 176.74 752.55 273.19"/></g><g class="cls-1"><polygon class="cls-8" points="557 393.8 399.5 297.32 399.5 965.16 557 1061.67 557 393.8"/><polygon class="cls-29" points="557 393.8 715.5 297.32 715.5 965.16 557 1061.67 557 393.8"/><polygon class="cls-32" points="557.05 393.77 399.5 297.32 559.05 201.78 715.5 297.32 557.05 393.77"/></g><g class="cls-1"><polygon class="cls-7" points="361 511.71 203.5 415.22 203.5 1083.07 361 1179.57 361 511.71"/><polygon class="cls-30" points="361 511.71 519.5 415.22 519.5 1083.07 361 1179.57 361 511.71"/><polygon class="cls-27" points="361.05 511.67 203.5 415.22 363.05 319.69 519.5 415.22 361.05 511.67"/></g><g class="cls-1"><polygon class="cls-9" points="944.01 393.8 786.51 297.32 786.51 965.16 944.01 1061.67 944.01 393.8"/><polygon class="cls-25" points="944.01 393.8 1102.51 297.32 1102.51 965.16 944.01 1061.67 944.01 393.8"/><polygon class="cls-28" points="944.06 393.77 786.51 297.32 946.06 201.78 1102.51 297.32 944.06 393.77"/></g><g class="cls-1"><polygon class="cls-6" points="1138 511.71 980.5 415.22 980.5 1083.07 1138 1179.57 1138 511.71"/><polygon class="cls-26" points="1138 511.71 1296.5 415.22 1296.5 1083.07 1138 1179.57 1138 511.71"/><polygon class="cls-23" points="1138.05 511.67 980.5 415.22 1140.05 319.69 1296.5 415.22 1138.05 511.67"/></g><g class="cls-1"><polygon class="cls-5" points="752.5 511.71 595 415.22 595 1083.07 752.5 1179.57 752.5 511.71"/><polygon class="cls-20" points="752.5 511.71 911 415.22 911 1083.07 752.5 1179.57 752.5 511.71"/><polygon class="cls-18" points="752.55 511.67 595 415.22 754.55 319.69 911 415.22 752.55 511.67"/></g><g class="cls-1"><polygon class="cls-11" points="557.04 630.23 399.54 533.74 399.54 1201.59 557.04 1298.09 557.04 630.23"/><polygon class="cls-15" points="557.04 630.23 715.54 533.74 715.54 1201.59 557.04 1298.09 557.04 630.23"/><polygon class="cls-16" points="557.09 630.2 399.54 533.74 559.09 438.21 715.54 533.74 557.09 630.2"/></g><g class="cls-1"><polygon class="cls-10" points="943.95 630.23 786.45 533.74 786.45 1201.59 943.95 1298.09 943.95 630.23"/><polygon class="cls-22" points="943.95 630.23 1102.45 533.74 1102.45 1201.59 943.95 1298.09 943.95 630.23"/><polygon class="cls-21" points="944.01 630.2 786.45 533.74 946 438.21 1102.45 533.74 944.01 630.2"/></g><g class="cls-1"><polygon class="cls-4" points="752.5 750.93 595 654.45 595 1322.29 752.5 1418.8 752.5 750.93"/><polygon class="cls-19" points="752.5 750.93 911 654.45 911 1322.29 752.5 1418.8 752.5 750.93"/><polygon class="cls-17" points="752.55 750.9 595 654.45 754.55 558.91 911 654.45 752.55 750.9"/></g><polygon class="cls-2" points="752.5 750.93 595 654.45 595 1322.29 752.5 1418.8 752.5 750.93"/><polygon class="cls-24" points="752.5 750.93 911 654.45 911 1322.29 752.5 1418.8 752.5 750.93"/><polygon class="cls-13" points="752.55 750.9 595 654.45 754.55 558.91 911 654.45 752.55 750.9"/><polygon class="cls-3" points="752.5 750.93 595 654.45 595 1322.29 752.5 1418.8 752.5 750.93"/><polygon class="cls-14" points="752.5 750.93 911 654.45 911 1322.29 752.5 1418.8 752.5 750.93"/><polygon class="cls-12" points="752.55 750.9 595 654.45 754.55 558.91 911 654.45 752.55 750.9"/></svg>