<?xml version="1.0" encoding="UTF-8"?><svg id="Ebene_1" xmlns="http://www.w3.org/2000/svg" xmlns:xlink="http://www.w3.org/1999/xlink" viewBox="0 0 1500 1500"><defs><style>.cls-1{fill:none;opacity:.6;}.cls-2{fill:url(#Unbenannter_Verlauf_10-9);}.cls-3{fill:url(#Unbenannter_Verlauf_10-6);}.cls-4{fill:url(#Unbenannter_Verlauf_10-5);}.cls-5{fill:url(#Unbenannter_Verlauf_10-3);}.cls-6{fill:url(#Unbenannter_Verlauf_10-2);}.cls-7{fill:url(#Unbenannter_Verlauf_10-4);}.cls-8{fill:url(#Unbenannter_Verlauf_10-8);}.cls-9{fill:url(#Unbenannter_Verlauf_10-7);}.cls-10{fill:url(#Unbenannter_Verlauf_2-13);}.cls-11{fill:url(#Unbenannter_Verlauf_2-14);}.cls-12{fill:url(#Unbenannter_Verlauf_2-18);}.cls-13{fill:url(#Unbenannter_Verlauf_2-12);}.cls-14{fill:url(#Unbenannter_Verlauf_2-17);}.cls-15{fill:url(#Unbenannter_Verlauf_2-11);}.cls-16{fill:url(#Unbenannter_Verlauf_2-16);}.cls-17{fill:url(#Unbenannter_Verlauf_2-15);}.cls-18{fill:url(#Unbenannter_Verlauf_2-10);}.cls-19{fill:#fe9dae;}.cls-20{fill:url(#Unbenannter_Verlauf_2-7);}.cls-21{fill:url(#Unbenannter_Verlauf_2-9);}.cls-22{fill:url(#Unbenannter_Verlauf_2-6);}.cls-23{fill:url(#Unbenannter_Verlauf_2-8);}.cls-24{fill:url(#Unbenannter_Verlauf_2-3);}.cls-25{fill:url(#Unbenannter_Verlauf_2-5);}.cls-26{fill:url(#Unbenannter_Verlauf_2-2);}.cls-27{fill:url(#Unbenannter_Verlauf_2-4);}.cls-28{fill:url(#Unbenannter_Verlauf_10);}.cls-29{fill:url(#Unbenannter_Verlauf_2);}</style><linearGradient id="Unbenannter_Verlauf_10" x1="282.25" y1="415.22" x2="282.25" y2="699.57" gradientUnits="userSpaceOnUse"><stop offset="0" stop-color="#533ffe" stop-opacity=".6"/><stop offset=".13" stop-color="#523efe" stop-opacity=".58"/><stop offset=".3" stop-color="#4e39fe" stop-opacity=".51"/><stop offset=".5" stop-color="#4832fe" stop-opacity=".4"/><stop offset=".71" stop-color="#3f29fe" stop-opacity=".25"/><stop offset=".94" stop-color="#341dfe" stop-opacity=".06"/><stop offset="1" stop-color="#3119fe" stop-opacity="0"/></linearGradient><linearGradient id="Unbenannter_Verlauf_2" x1="440.25" y1="415.22" x2="440.25" y2="699.57" gradientUnits="userSpaceOnUse"><stop offset="0" stop-color="#533ffe" stop-opacity=".8"/><stop offset=".11" stop-color="#523efe" stop-opacity=".78"/><stop offset=".25" stop-color="#4f3bfe" stop-opacity=".71"/><stop offset=".41" stop-color="#4b36fe" stop-opacity=".61"/><stop offset=".59" stop-color="#452ffe" stop-opacity=".46"/><stop offset=".77" stop-color="#3d26fe" stop-opacity=".28"/><stop offset=".96" stop-color="#331bfe" stop-opacity=".05"/><stop offset="1" stop-color="#3119fe" stop-opacity="0"/></linearGradient><linearGradient id="Unbenannter_Verlauf_2-2" x1="361.5" y1="319.69" x2="361.5" y2="511.67" xlink:href="#Unbenannter_Verlauf_2"/><linearGradient id="Unbenannter_Verlauf_10-2" y1="895.22" y2="1179.57" xlink:href="#Unbenannter_Verlauf_10"/><linearGradient id="Unbenannter_Verlauf_2-3" y1="895.22" y2="1179.57" xlink:href="#Unbenannter_Verlauf_2"/><linearGradient id="Unbenannter_Verlauf_2-4" x1="361.5" y1="799.69" x2="361.5" y2="991.67" xlink:href="#Unbenannter_Verlauf_2"/><linearGradient id="Unbenannter_Verlauf_10-3" y1="655.74" y2="940.09" xlink:href="#Unbenannter_Verlauf_10"/><linearGradient id="Unbenannter_Verlauf_2-5" y1="655.74" y2="940.09" xlink:href="#Unbenannter_Verlauf_2"/><linearGradient id="Unbenannter_Verlauf_2-6" x1="361.5" y1="560.2" x2="361.5" y2="752.19" xlink:href="#Unbenannter_Verlauf_2"/><linearGradient id="Unbenannter_Verlauf_10-4" x1="1059.25" x2="1059.25" xlink:href="#Unbenannter_Verlauf_10"/><linearGradient id="Unbenannter_Verlauf_2-7" x1="1217.25" x2="1217.25" xlink:href="#Unbenannter_Verlauf_2"/><linearGradient id="Unbenannter_Verlauf_2-8" x1="1138.5" y1="319.69" x2="1138.5" y2="511.67" xlink:href="#Unbenannter_Verlauf_2"/><linearGradient id="Unbenannter_Verlauf_10-5" x1="1059.25" y1="895.22" x2="1059.25" y2="1179.57" xlink:href="#Unbenannter_Verlauf_10"/><linearGradient id="Unbenannter_Verlauf_2-9" x1="1217.25" y1="895.22" x2="1217.25" y2="1179.57" xlink:href="#Unbenannter_Verlauf_2"/><linearGradient id="Unbenannter_Verlauf_2-10" x1="1138.5" y1="799.69" x2="1138.5" y2="991.67" xlink:href="#Unbenannter_Verlauf_2"/><linearGradient id="Unbenannter_Verlauf_10-6" x1="1059.25" y1="655.74" x2="1059.25" y2="940.09" xlink:href="#Unbenannter_Verlauf_10"/><linearGradient id="Unbenannter_Verlauf_2-11" x1="1217.25" y1="655.74" x2="1217.25" y2="940.09" xlink:href="#Unbenannter_Verlauf_2"/><linearGradient id="Unbenannter_Verlauf_2-12" x1="1138.5" y1="560.2" x2="1138.5" y2="752.19" xlink:href="#Unbenannter_Verlauf_2"/><linearGradient id="Unbenannter_Verlauf_10-7" x1="673.75" y1="177.27" x2="673.75" y2="461.62" xlink:href="#Unbenannter_Verlauf_10"/><linearGradient id="Unbenannter_Verlauf_2-13" x1="831.75" y1="177.27" x2="831.75" y2="461.62" xlink:href="#Unbenannter_Verlauf_2"/><linearGradient id="Unbenannter_Verlauf_2-14" x1="753" y1="81.73" x2="753" y2="273.72" xlink:href="#Unbenannter_Verlauf_2"/><linearGradient id="Unbenannter_Verlauf_10-8" x1="673.75" y1="657.27" x2="673.75" y2="941.62" xlink:href="#Unbenannter_Verlauf_10"/><linearGradient id="Unbenannter_Verlauf_2-15" x1="831.75" y1="657.27" x2="831.75" y2="941.62" xlink:href="#Unbenannter_Verlauf_2"/><linearGradient id="Unbenannter_Verlauf_2-16" x1="753" y1="561.73" x2="753" y2="753.72" xlink:href="#Unbenannter_Verlauf_2"/><linearGradient id="Unbenannter_Verlauf_10-9" x1="673.75" y1="417.78" x2="673.75" y2="702.13" xlink:href="#Unbenannter_Verlauf_10"/><linearGradient id="Unbenannter_Verlauf_2-17" x1="831.75" y1="417.78" x2="831.75" y2="702.13" xlink:href="#Unbenannter_Verlauf_2"/><linearGradient id="Unbenannter_Verlauf_2-18" x1="753" y1="322.25" x2="753" y2="514.23" xlink:href="#Unbenannter_Verlauf_2"/></defs><g class="cls-1"><polygon class="cls-28" points="361 511.71 203.5 415.22 203.5 603.07 361 699.57 361 511.71"/><polygon class="cls-29" points="361 511.71 519.5 415.22 519.5 603.07 361 699.57 361 511.71"/><polygon class="cls-26" points="361.05 511.67 203.5 415.22 363.05 319.69 519.5 415.22 361.05 511.67"/></g><polygon class="cls-19" points="361 991.71 203.5 895.22 203.5 1083.07 361 1179.57 361 991.71"/><polygon class="cls-19" points="361 991.71 519.5 895.22 519.5 1083.07 361 1179.57 361 991.71"/><polygon class="cls-19" points="361.05 991.67 203.5 895.22 363.05 799.69 519.5 895.22 361.05 991.67"/><g class="cls-1"><polygon class="cls-6" points="361 991.71 203.5 895.22 203.5 1083.07 361 1179.57 361 991.71"/><polygon class="cls-24" points="361 991.71 519.5 895.22 519.5 1083.07 361 1179.57 361 991.71"/><polygon class="cls-27" points="361.05 991.67 203.5 895.22 363.05 799.69 519.5 895.22 361.05 991.67"/></g><g class="cls-1"><polygon class="cls-5" points="361 752.23 203.5 655.74 203.5 843.58 361 940.09 361 752.23"/><polygon class="cls-25" points="361 752.23 519.5 655.74 519.5 843.58 361 940.09 361 752.23"/><polygon class="cls-22" points="361.05 752.19 203.5 655.74 363.05 560.2 519.5 655.74 361.05 752.19"/></g><g class="cls-1"><polygon class="cls-7" points="1138 511.71 980.5 415.22 980.5 603.07 1138 699.57 1138 511.71"/><polygon class="cls-20" points="1138 511.71 1296.5 415.22 1296.5 603.07 1138 699.57 1138 511.71"/><polygon class="cls-23" points="1138.05 511.67 980.5 415.22 1140.05 319.69 1296.5 415.22 1138.05 511.67"/></g><polygon class="cls-19" points="1138 991.71 980.5 895.22 980.5 1083.07 1138 1179.57 1138 991.71"/><polygon class="cls-19" points="1138 991.71 1296.5 895.22 1296.5 1083.07 1138 1179.57 1138 991.71"/><polygon class="cls-19" points="1138.05 991.67 980.5 895.22 1140.05 799.69 1296.5 895.22 1138.05 991.67"/><g class="cls-1"><polygon class="cls-4" points="1138 991.71 980.5 895.22 980.5 1083.07 1138 1179.57 1138 991.71"/><polygon class="cls-21" points="1138 991.71 1296.5 895.22 1296.5 1083.07 1138 1179.57 1138 991.71"/><polygon class="cls-18" points="1138.05 991.67 980.5 895.22 1140.05 799.69 1296.5 895.22 1138.05 991.67"/></g><g class="cls-1"><polygon class="cls-3" points="1138 752.23 980.5 655.74 980.5 843.58 1138 940.09 1138 752.23"/><polygon class="cls-15" points="1138 752.23 1296.5 655.74 1296.5 843.58 1138 940.09 1138 752.23"/><polygon class="cls-13" points="1138.05 752.19 980.5 655.74 1140.05 560.2 1296.5 655.74 1138.05 752.19"/></g><g class="cls-1"><polygon class="cls-9" points="752.5 273.75 595 177.27 595 365.11 752.5 461.62 752.5 273.75"/><polygon class="cls-10" points="752.5 273.75 911 177.27 911 365.11 752.5 461.62 752.5 273.75"/><polygon class="cls-11" points="752.55 273.72 595 177.27 754.55 81.73 911 177.27 752.55 273.72"/></g><polygon class="cls-19" points="752.5 753.75 595 657.27 595 845.11 752.5 941.62 752.5 753.75"/><polygon class="cls-19" points="752.5 753.75 911 657.27 911 845.11 752.5 941.62 752.5 753.75"/><polygon class="cls-19" points="752.55 753.72 595 657.27 754.55 561.73 911 657.27 752.55 753.72"/><g class="cls-1"><polygon class="cls-8" points="752.5 753.75 595 657.27 595 845.11 752.5 941.62 752.5 753.75"/><polygon class="cls-17" points="752.5 753.75 911 657.27 911 845.11 752.5 941.62 752.5 753.75"/><polygon class="cls-16" points="752.55 753.72 595 657.27 754.55 561.73 911 657.27 752.55 753.72"/></g><g class="cls-1"><polygon class="cls-2" points="752.5 514.27 595 417.78 595 605.63 752.5 702.13 752.5 514.27"/><polygon class="cls-14" points="752.5 514.27 911 417.78 911 605.63 752.5 702.13 752.5 514.27"/><polygon class="cls-12" points="752.55 514.23 595 417.78 754.55 322.25 911 417.78 752.55 514.23"/></g></svg>