<svg viewBox="0 0 1500 1500" xmlns="http://www.w3.org/2000/svg" xmlns:xlink="http://www.w3.org/1999/xlink"><linearGradient id="a" gradientUnits="userSpaceOnUse" x1="673.75" x2="673.75" y1="895.24" y2="1179.59"><stop offset="0" stop-color="#533ffe" stop-opacity=".6"/><stop offset=".13" stop-color="#523efe" stop-opacity=".58"/><stop offset=".3" stop-color="#4e39fe" stop-opacity=".51"/><stop offset=".5" stop-color="#4832fe" stop-opacity=".4"/><stop offset=".71" stop-color="#3f29fe" stop-opacity=".25"/><stop offset=".94" stop-color="#341dfe" stop-opacity=".06"/><stop offset="1" stop-color="#3119fe" stop-opacity="0"/></linearGradient><linearGradient id="b" gradientUnits="userSpaceOnUse" x1="831.75" x2="831.75" y1="895.24" y2="1179.59"><stop offset="0" stop-color="#533ffe" stop-opacity=".8"/><stop offset=".11" stop-color="#523efe" stop-opacity=".78"/><stop offset=".25" stop-color="#4f3bfe" stop-opacity=".71"/><stop offset=".41" stop-color="#4b36fe" stop-opacity=".61"/><stop offset=".59" stop-color="#452ffe" stop-opacity=".46"/><stop offset=".77" stop-color="#3d26fe" stop-opacity=".28"/><stop offset=".96" stop-color="#331bfe" stop-opacity=".05"/><stop offset="1" stop-color="#3119fe" stop-opacity="0"/></linearGradient><linearGradient id="c" x1="753" x2="753" xlink:href="#b" y1="799.7" y2="991.69"/><linearGradient id="d" xlink:href="#a" y1="655.59" y2="939.94"/><linearGradient id="e" xlink:href="#b" y1="655.59" y2="939.94"/><linearGradient id="f" x1="753" x2="753" xlink:href="#b" y1="560.06" y2="752.04"/><linearGradient id="g" xlink:href="#a" y1="415.24" y2="699.59"/><linearGradient id="h" xlink:href="#b" y1="415.24" y2="699.59"/><linearGradient id="i" x1="753" x2="753" xlink:href="#b" y1="319.7" y2="511.69"/><g fill="none" opacity=".6"><path d="m752.5 991.72-157.5-96.48v187.84l157.5 96.51z" fill="url(#a)"/><path d="m752.5 991.72 158.5-96.48v187.84l-158.5 96.51z" fill="url(#b)"/><path d="m752.55 991.69-157.55-96.45 159.55-95.54 156.45 95.54z" fill="url(#c)"/></g><g fill="none" opacity=".6"><path d="m752.5 752.08-157.5-96.49v187.85l157.5 96.5z" fill="url(#d)"/><path d="m752.5 752.08 158.5-96.49v187.85l-158.5 96.5z" fill="url(#e)"/><path d="m752.55 752.04-157.55-96.45 159.55-95.53 156.45 95.53z" fill="url(#f)"/></g><g fill="#9191a5"><path d="m752.5 511.72-157.5-96.48v187.84l157.5 96.51z"/><path d="m752.5 511.72 158.5-96.48v187.84l-158.5 96.51z"/><path d="m752.55 511.69-157.55-96.45 159.55-95.54 156.45 95.54z"/></g><g fill="none" opacity=".6"><path d="m752.5 511.72-157.5-96.48v187.84l157.5 96.51z" fill="url(#g)"/><path d="m752.5 511.72 158.5-96.48v187.84l-158.5 96.51z" fill="url(#h)"/><path d="m752.55 511.69-157.55-96.45 159.55-95.54 156.45 95.54z" fill="url(#i)"/></g></svg>