<svg viewBox="0 0 1500 1500" xmlns="http://www.w3.org/2000/svg" xmlns:xlink="http://www.w3.org/1999/xlink"><linearGradient id="a" gradientUnits="userSpaceOnUse" x1="282.25" x2="282.25" y1="415.22" y2="699.57"><stop offset="0" stop-color="#533ffe" stop-opacity=".6"/><stop offset=".13" stop-color="#523efe" stop-opacity=".58"/><stop offset=".3" stop-color="#4e39fe" stop-opacity=".51"/><stop offset=".5" stop-color="#4832fe" stop-opacity=".4"/><stop offset=".71" stop-color="#3f29fe" stop-opacity=".25"/><stop offset=".94" stop-color="#341dfe" stop-opacity=".06"/><stop offset="1" stop-color="#3119fe" stop-opacity="0"/></linearGradient><linearGradient id="b" gradientUnits="userSpaceOnUse" x1="440.25" x2="440.25" y1="415.22" y2="699.57"><stop offset="0" stop-color="#533ffe" stop-opacity=".8"/><stop offset=".11" stop-color="#523efe" stop-opacity=".78"/><stop offset=".25" stop-color="#4f3bfe" stop-opacity=".71"/><stop offset=".41" stop-color="#4b36fe" stop-opacity=".61"/><stop offset=".59" stop-color="#452ffe" stop-opacity=".46"/><stop offset=".77" stop-color="#3d26fe" stop-opacity=".28"/><stop offset=".96" stop-color="#331bfe" stop-opacity=".05"/><stop offset="1" stop-color="#3119fe" stop-opacity="0"/></linearGradient><linearGradient id="c" x1="361.5" x2="361.5" xlink:href="#b" y1="319.69" y2="511.67"/><linearGradient id="d" xlink:href="#a" y1="895.22" y2="1179.57"/><linearGradient id="e" gradientTransform="matrix(-85 0 0 -52 519924.33 128013)" gradientUnits="userSpaceOnUse" x1="6111.7" x2="6111.7" y1="2441.25" y2="2441.84"><stop offset="0" stop-color="#533ffe" stop-opacity=".7"/><stop offset=".06" stop-color="#513dfe" stop-opacity=".66"/><stop offset="1" stop-color="#3119fe" stop-opacity="0"/></linearGradient><linearGradient id="f" xlink:href="#b" y1="895.22" y2="1179.57"/><linearGradient id="g" x1="361.5" x2="361.5" xlink:href="#b" y1="799.69" y2="991.67"/><linearGradient id="h" xlink:href="#a" y1="655.74" y2="940.09"/><linearGradient id="i" xlink:href="#b" y1="655.74" y2="940.09"/><linearGradient id="j" x1="361.5" x2="361.5" xlink:href="#b" y1="560.2" y2="752.19"/><linearGradient id="k" x1="1059.25" x2="1059.25" xlink:href="#a"/><linearGradient id="l" x1="1217.25" x2="1217.25" xlink:href="#b"/><linearGradient id="m" x1="1138.5" x2="1138.5" xlink:href="#b" y1="319.69" y2="511.67"/><linearGradient id="n" gradientTransform="matrix(85 0 0 -52 -497228 128013)" x1="5861.91" x2="5861.91" xlink:href="#e" y1="2442.13" y2="2442.72"/><linearGradient id="o" x1="1059.25" x2="1059.25" xlink:href="#a" y1="895.22" y2="1179.57"/><linearGradient id="p" x1="6102.5" x2="6102.5" xlink:href="#e" y1="2440.96" y2="2441.55"/><linearGradient id="q" x1="1217.25" x2="1217.25" xlink:href="#b" y1="895.22" y2="1179.57"/><linearGradient id="r" x1="1138.5" x2="1138.5" xlink:href="#b" y1="799.69" y2="991.67"/><linearGradient id="s" x1="1059.25" x2="1059.25" xlink:href="#a" y1="655.74" y2="940.09"/><linearGradient id="t" x1="1217.25" x2="1217.25" xlink:href="#b" y1="655.74" y2="940.09"/><linearGradient id="u" x1="1138.5" x2="1138.5" xlink:href="#b" y1="560.2" y2="752.19"/><linearGradient id="v" x1="673.75" x2="673.75" xlink:href="#a" y1="177.27" y2="461.62"/><linearGradient id="w" x1="831.75" x2="831.75" xlink:href="#b" y1="177.27" y2="461.62"/><linearGradient id="x" x1="753" x2="753" xlink:href="#b" y1="81.73" y2="273.72"/><linearGradient id="y" gradientTransform="matrix(85 0 0 -52 -497228 128013)" x1="5857.76" x2="5857.76" xlink:href="#e" y1="2447.12" y2="2447.7"/><linearGradient id="z" gradientTransform="matrix(65 0 0 -39 -378891 96596)" gradientUnits="userSpaceOnUse" x1="5838.85" x2="5838.85" y1="2456.07" y2="2456.65"><stop offset="0" stop-color="#3119fe" stop-opacity="0"/><stop offset="1" stop-color="#533ffe" stop-opacity=".8"/></linearGradient><linearGradient id="A" gradientTransform="matrix(85 0 0 -52 -497228 128013)" x1="5857.98" x2="5857.98" xlink:href="#e" y1="2445.37" y2="2445.95"/><linearGradient id="B" gradientTransform="matrix(85 0 0 -52 -497228 128013)" x1="5857.2" x2="5857.2" xlink:href="#e" y1="2446.87" y2="2447.16"/><linearGradient id="C" x1="5839.58" x2="5839.58" xlink:href="#z" y1="2456.22" y2="2456.81"/><linearGradient id="D" x1="5840.07" x2="5840.07" xlink:href="#z" y1="2454.27" y2="2454.56"/><linearGradient id="E" x1="673.75" x2="673.75" xlink:href="#a" y1="657.27" y2="941.62"/><linearGradient id="F" x1="6107.22" x2="6107.22" xlink:href="#e" y1="2446.58" y2="2447.16"/><linearGradient id="G" x1="6107.41" x2="6107.41" xlink:href="#e" y1="2444.58" y2="2445.17"/><linearGradient id="H" x1="6106.48" x2="6106.48" xlink:href="#e" y1="2446.27" y2="2446.56"/><linearGradient id="I" x1="6106.68" x2="6106.68" xlink:href="#e" y1="2447.37" y2="2447.67"/><linearGradient id="J" gradientTransform="matrix(-65 0 0 -39 401587.33 96596)" x1="6166.04" x2="6166.04" xlink:href="#z" y1="2455.48" y2="2456.07"/><linearGradient id="K" x1="831.75" x2="831.75" xlink:href="#b" y1="657.27" y2="941.62"/><linearGradient id="L" x1="753" x2="753" xlink:href="#b" y1="561.73" y2="753.72"/><linearGradient id="M" x1="673.75" x2="673.75" xlink:href="#a" y1="417.78" y2="702.13"/><linearGradient id="N" x1="831.75" x2="831.75" xlink:href="#b" y1="417.78" y2="702.13"/><linearGradient id="O" x1="753" x2="753" xlink:href="#b" y1="322.25" y2="514.23"/><g fill="none" opacity=".6"><path d="m361 511.71-157.5-96.49v187.85l157.5 96.5z" fill="url(#a)"/><path d="m361 511.71 158.5-96.49v187.85l-158.5 96.5z" fill="url(#b)"/><path d="m361.05 511.67-157.55-96.45 159.55-95.53 156.45 95.53z" fill="url(#c)"/></g><path d="m361 991.71-157.5-96.49v187.85l157.5 96.5z" fill="#fe9dae"/><path d="m361 991.71 158.5-96.49v187.85l-158.5 96.5z" fill="#fe9dae"/><path d="m361.05 991.67-157.55-96.45 159.55-95.53 156.45 95.53z" fill="#fe9dae"/><g fill="none"><g opacity=".6"><path d="m361 991.71-157.5-96.49v187.85l157.5 96.5z" fill="url(#d)"/><path d="m430.03 1067.86-24.9-15.23 24.9-15.23 24.9 15.23z" fill="url(#e)"/><path d="m361 991.71 158.5-96.49v187.85l-158.5 96.5z" fill="url(#f)"/><path d="m361.05 991.67-157.55-96.45 159.55-95.53 156.45 95.53z" fill="url(#g)"/></g><g opacity=".6"><path d="m361 752.23-157.5-96.49v187.84l157.5 96.51z" fill="url(#h)"/><path d="m361 752.23 158.5-96.49v187.84l-158.5 96.51z" fill="url(#i)"/><path d="m361.05 752.19-157.55-96.45 159.55-95.54 156.45 95.54z" fill="url(#j)"/></g><g opacity=".6"><path d="m1138 511.71-157.5-96.49v187.85l157.5 96.5z" fill="url(#k)"/><path d="m1138 511.71 158.5-96.49v187.85l-158.5 96.5z" fill="url(#l)"/><path d="m1138.05 511.67-157.55-96.45 159.55-95.53 156.45 95.53z" fill="url(#m)"/></g></g><path d="m1138 991.71-157.5-96.49v187.85l157.5 96.5z" fill="#fe9dae"/><path d="m1138 991.71 158.5-96.49v187.85l-158.5 96.5z" fill="#fe9dae"/><path d="m1138.05 991.67-157.55-96.45 159.55-95.53 156.45 95.53z" fill="#fe9dae"/><g fill="none" opacity=".6"><path d="m1034.35 1022.14 24.9-15.24-24.9-15.23-24.9 15.23z" fill="url(#n)"/><path d="m1138 991.71-157.5-96.49v187.85l157.5 96.5z" fill="url(#o)"/><path d="m1211.81 1083.09-24.9-15.23 24.9-15.23 24.89 15.23z" fill="url(#p)"/><path d="m1138 991.71 158.5-96.49v187.85l-158.5 96.5z" fill="url(#q)"/><path d="m1138.05 991.67-157.55-96.45 159.55-95.53 156.45 95.53z" fill="url(#r)"/></g><g fill="none" opacity=".6"><path d="m1138 752.23-157.5-96.49v187.84l157.5 96.51z" fill="url(#s)"/><path d="m1138 752.23 158.5-96.49v187.84l-158.5 96.51z" fill="url(#t)"/><path d="m1138.05 752.19-157.55-96.45 159.55-95.54 156.45 95.54z" fill="url(#u)"/></g><g fill="none" opacity=".6"><path d="m752.5 273.75-157.5-96.48v187.84l157.5 96.51z" fill="url(#v)"/><path d="m752.5 273.75 158.5-96.48v187.84l-158.5 96.51z" fill="url(#w)"/><path d="m752.55 273.72-157.55-96.45 159.55-95.54 156.45 95.54z" fill="url(#x)"/></g><path d="m752.5 753.75-157.5-96.48v187.84l157.5 96.51z" fill="#fe9dae"/><path d="m752.5 753.75 158.5-96.48v187.84l-158.5 96.51z" fill="#fe9dae"/><path d="m752.55 753.72-157.55-96.45 159.55-95.54 156.45 95.54z" fill="#fe9dae"/><g fill="none" opacity=".6"><path d="m681.66 762.94 24.9-15.23-24.9-15.23-24.9 15.23z" fill="url(#y)"/><path d="m633.93 809.34 19.04-11.43-19.04-11.42-19.03 11.42z" fill="url(#z)"/><path d="m700.7 853.81 24.9-15.23-24.9-15.23-24.9 15.23z" fill="url(#A)"/><path d="m633.93 775.87 12.45-7.62-12.45-7.61-12.44 7.61z" fill="url(#B)"/><path d="m681.66 803.37 19.04-11.43-19.04-11.42-19.04 11.42z" fill="url(#C)"/><path d="m713.44 879.59 9.52-5.71-9.52-5.71-9.52 5.71z" fill="url(#D)"/><path d="m752.5 753.75-157.5-96.48v187.84l157.5 96.51z" fill="url(#E)"/><path d="m810.73 791.1-24.9-15.23 24.9-15.23 24.89 15.23z" fill="url(#F)"/><path d="m794.67 894.82-24.9-15.23 24.9-15.23 24.89 15.23z" fill="url(#G)"/><path d="m873.15 807.06-12.45-7.62 12.45-7.61 12.45 7.61z" fill="url(#H)"/><path d="m856.27 749.64-12.45-7.61 12.45-7.62 12.45 7.62z" fill="url(#I)"/><path d="m794.67 832.18-19.04-11.42 19.04-11.42 19.04 11.42z" fill="url(#J)"/><path d="m752.5 753.75 158.5-96.48v187.84l-158.5 96.51z" fill="url(#K)"/><path d="m752.55 753.72-157.55-96.45 159.55-95.54 156.45 95.54z" fill="url(#L)"/></g><g fill="none" opacity=".6"><path d="m752.5 514.27-157.5-96.49v187.85l157.5 96.5z" fill="url(#M)"/><path d="m752.5 514.27 158.5-96.49v187.85l-158.5 96.5z" fill="url(#N)"/><path d="m752.55 514.23-157.55-96.45 159.55-95.53 156.45 95.53z" fill="url(#O)"/></g></svg>